# ProBuilder 4.5.2
# https://unity3d.com/unity/features/worldbuilding/probuilder
# 10/25/2022 2:46:08 PM

mtllib ./bm_arch_3_normal.mtl
o bm_arch_3_normal

g bm_arch_3_normal
v 0 0 3.125
v 0.05133057 0.7831571 3.125
v 0 0 3.875
v 0.05133057 0.7831571 3.875
v 1.042776 0.652631 3.125
v 1 0 3.125
v 1.042776 0.652631 3.875
v 1 0 3.875
v 0.2044449 1.552914 3.125
v 0.2044449 1.552914 3.875
v 1.170371 1.294095 3.125
v 1.170371 1.294095 3.875
v 0.4567232 2.296101 3.125
v 0.4567232 2.296101 3.875
v 1.380602 1.913417 3.125
v 1.380602 1.913417 3.875
v 0.8038478 3 3.125
v 0.8038478 3 3.875
v 1.669873 2.5 3.125
v 1.669873 2.5 3.875
v 1.23988 3.652569 3.125
v 1.23988 3.652569 3.875
v 2.033234 3.043807 3.125
v 2.033234 3.043807 3.875
v 1.75736 4.24264 3.125
v 1.75736 4.24264 3.875
v 2.464466 3.535534 3.125
v 2.464466 3.535534 3.875
v 2.347431 4.76012 3.125
v 2.347431 4.76012 3.875
v 2.956193 3.966766 3.125
v 2.956193 3.966766 3.875
v 3 5.196153 3.125
v 3 5.196153 3.875
v 3.5 4.330127 3.125
v 3.5 4.330127 3.875
v 3.703899 5.543277 3.125
v 3.703899 5.543277 3.875
v 4.086583 4.619398 3.125
v 4.086583 4.619398 3.875
v 4.447085 5.795555 3.125
v 4.447085 5.795555 3.875
v 4.705904 4.829629 3.125
v 4.705904 4.829629 3.875
v 5.216843 5.948669 3.125
v 5.216843 5.948669 3.875
v 5.347369 4.957224 3.125
v 5.347369 4.957224 3.875
v 6 6 3.125
v 6 6 3.875
v 6 5 3.125
v 6 5 3.875
v 1 0 4
v 0 0 4
v 1 6 4
v 0 6 4
v 0 0 3
v 0 6 3
v 1 0 3
v 1 6 3

vt 0 0
vt 0 1
vt 1 0
vt 1 1
vt 0 3.875
vt 1 3.875
vt 0 3.125
vt 1 3.125
vt -3.875 5.000003
vt -3.875 6.000003
vt -3.125 5.000003
vt -3.125 6.000003
vt -1 0
vt 0 6
vt -1 6
vt 1 6
vt 0 -1
vt 1 -1
vt -1 -1

vn -0.9978589 0.0654028 0
vn 0.9978589 -0.06540303 0
vn 0 -1 0
vn -0.9807853 0.1950905 0
vn 0.9807852 -0.1950907 0
vn -0.9469299 0.32144 0
vn 0.9469302 -0.3214392 0
vn -0.8968729 0.4422885 0
vn 0.8968725 -0.4422891 0
vn -0.8314698 0.5555701 0
vn 0.8314695 -0.5555704 0
vn -0.7518395 0.6593462 0
vn 0.7518401 -0.6593454 0
vn -0.6593462 0.7518395 0
vn 0.6593454 -0.7518401 0
vn -0.5555704 0.8314695 0
vn 0.5555709 -0.8314692 0
vn -0.442288 0.8968731 0
vn 0.4422882 -0.896873 0
vn -0.3214402 0.9469299 0
vn 0.3214395 -0.9469301 0
vn -0.1950898 0.9807854 0
vn 0.19509 -0.9807854 0
vn -0.06540334 0.9978589 0
vn 0.06540373 -0.9978589 0
vn 1 -4.768372E-07 0
vn 0 0 1
vn 0 0 -1
vn -1 0 0
vn 0 1 0

usemtl bm_beam
f 3/3/1 4/4/1 2/2/1 1/1/1
f 7/3/2 8/4/2 6/2/2 5/1/2
f 1/7/3 6/8/3 8/6/3 3/5/3
f 4/3/4 10/4/4 9/2/4 2/1/4
f 12/3/5 7/4/5 5/2/5 11/1/5
f 10/3/6 14/4/6 13/2/6 9/1/6
f 16/3/7 12/4/7 11/2/7 15/1/7
f 14/3/8 18/4/8 17/2/8 13/1/8
f 20/3/9 16/4/9 15/2/9 19/1/9
f 18/3/10 22/4/10 21/2/10 17/1/10
f 24/3/11 20/4/11 19/2/11 23/1/11
f 22/3/12 26/4/12 25/2/12 21/1/12
f 28/3/13 24/4/13 23/2/13 27/1/13
f 26/3/14 30/4/14 29/2/14 25/1/14
f 32/3/15 28/4/15 27/2/15 31/1/15
f 30/3/16 34/4/16 33/2/16 29/1/16
f 36/3/17 32/4/17 31/2/17 35/1/17
f 34/3/18 38/4/18 37/2/18 33/1/18
f 40/3/19 36/4/19 35/2/19 39/1/19
f 38/3/20 42/4/20 41/2/20 37/1/20
f 44/3/21 40/4/21 39/2/21 43/1/21
f 42/3/22 46/4/22 45/2/22 41/1/22
f 48/3/23 44/4/23 43/2/23 47/1/23
f 46/3/24 50/4/24 49/2/24 45/1/24
f 52/3/25 48/4/25 47/2/25 51/1/25
f 51/11/26 49/12/26 50/10/26 52/9/26
f 8/3/27 7/4/27 4/2/27 3/1/27
f 5/3/28 6/4/28 1/2/28 2/1/28
f 7/3/27 12/4/27 10/2/27 4/1/27
f 11/3/28 5/4/28 2/2/28 9/1/28
f 12/3/27 16/4/27 14/2/27 10/1/27
f 15/3/28 11/4/28 9/2/28 13/1/28
f 16/3/27 20/4/27 18/2/27 14/1/27
f 19/3/28 15/4/28 13/2/28 17/1/28
f 20/3/27 24/4/27 22/2/27 18/1/27
f 23/3/28 19/4/28 17/2/28 21/1/28
f 24/3/27 28/4/27 26/2/27 22/1/27
f 27/3/28 23/4/28 21/2/28 25/1/28
f 28/3/27 32/4/27 30/2/27 26/1/27
f 31/3/28 27/4/28 25/2/28 29/1/28
f 32/3/27 36/4/27 34/2/27 30/1/27
f 35/3/28 31/4/28 29/2/28 33/1/28
f 36/3/27 40/4/27 38/2/27 34/1/27
f 39/3/28 35/4/28 33/2/28 37/1/28
f 40/3/27 44/4/27 42/2/27 38/1/27
f 43/3/28 39/4/28 37/2/28 41/1/28
f 44/3/27 48/4/27 46/2/27 42/1/27
f 47/3/28 43/4/28 41/2/28 45/1/28
f 48/3/27 52/4/27 50/2/27 46/1/27
f 51/3/28 47/4/28 45/2/28 49/1/28
f 55/14/27 56/15/27 54/13/27 53/1/27
f 56/14/29 58/15/29 57/13/29 54/1/29
f 58/16/28 60/14/28 59/1/28 57/3/28
f 60/16/26 55/14/26 53/1/26 59/3/26
f 60/17/30 58/18/30 56/3/30 55/1/30
f 53/1/3 54/13/3 57/19/3 59/17/3

