# ProBuilder 4.5.2
# https://unity3d.com/unity/features/worldbuilding/probuilder
# 10/25/2022 2:45:42 PM

mtllib ./bm_arch_2_normal.mtl
o bm_arch_2_normal

g bm_arch_2_normal
v 0 0 3.125
v 0.076859 0.7803613 3.125
v 0 0 3.875
v 0.076859 0.7803613 3.875
v 1.057644 0.585271 3.125
v 1 0 3.125
v 1.057644 0.585271 3.875
v 1 0 3.875
v 0.304482 1.530734 3.125
v 0.304482 1.530734 3.875
v 1.228362 1.14805 3.125
v 1.228362 1.14805 3.875
v 0.6741219 2.222281 3.125
v 0.6741219 2.222281 3.875
v 1.505591 1.666711 3.125
v 1.505591 1.666711 3.875
v 1.171573 2.828427 3.125
v 1.171573 2.828427 3.875
v 1.87868 2.12132 3.125
v 1.87868 2.12132 3.875
v 1.777719 3.325878 3.125
v 1.777719 3.325878 3.875
v 2.333289 2.494409 3.125
v 2.333289 2.494409 3.875
v 2.469266 3.695518 3.125
v 2.469266 3.695518 3.875
v 2.85195 2.771638 3.125
v 2.85195 2.771638 3.875
v 3.219639 3.923141 3.125
v 3.219639 3.923141 3.875
v 3.414729 2.942356 3.125
v 3.414729 2.942356 3.875
v 4 4 3.125
v 4 4 3.875
v 4 3 3.125
v 4 3 3.875
v 1 0 4
v 0 0 4
v 1 4 4
v 0 4 4
v 0 0 3
v 0 4 3
v 1 0 3
v 1 4 3

vt 0 0
vt 0 1
vt 1 0
vt 1 1
vt 0 3.875
vt 1 3.875
vt 0 3.125
vt 1 3.125
vt -3.875 3
vt -3.875 4
vt -3.125 3
vt -3.125 4
vt -1 0
vt 0 4
vt -1 4
vt 1 4
vt 0 -1
vt 1 -1
vt -1 -1

vn -0.9951847 0.09801728 0
vn 0.9951847 -0.09801748 0
vn 0 -1 0
vn -0.9569404 0.2902846 0
vn 0.9569404 -0.2902847 0
vn -0.8819212 0.471397 0
vn 0.8819213 -0.4713967 0
vn -0.7730107 0.634393 0
vn 0.7730104 -0.6343934 0
vn -0.634393 0.7730107 0
vn 0.6343936 -0.7730102 0
vn -0.4713968 0.8819212 0
vn 0.4713964 -0.8819215 0
vn -0.2902847 0.9569404 0
vn 0.2902846 -0.9569404 0
vn -0.09801731 0.9951847 0
vn 0.09801751 -0.9951847 0
vn 1 0 0
vn 0 0 1
vn 0 0 -1
vn -1 0 0
vn 0 1 0

usemtl bm_beam
f 3/3/1 4/4/1 2/2/1 1/1/1
f 7/3/2 8/4/2 6/2/2 5/1/2
f 1/7/3 6/8/3 8/6/3 3/5/3
f 4/3/4 10/4/4 9/2/4 2/1/4
f 12/3/5 7/4/5 5/2/5 11/1/5
f 10/3/6 14/4/6 13/2/6 9/1/6
f 16/3/7 12/4/7 11/2/7 15/1/7
f 14/3/8 18/4/8 17/2/8 13/1/8
f 20/3/9 16/4/9 15/2/9 19/1/9
f 18/3/10 22/4/10 21/2/10 17/1/10
f 24/3/11 20/4/11 19/2/11 23/1/11
f 22/3/12 26/4/12 25/2/12 21/1/12
f 28/3/13 24/4/13 23/2/13 27/1/13
f 26/3/14 30/4/14 29/2/14 25/1/14
f 32/3/15 28/4/15 27/2/15 31/1/15
f 30/3/16 34/4/16 33/2/16 29/1/16
f 36/3/17 32/4/17 31/2/17 35/1/17
f 35/11/18 33/12/18 34/10/18 36/9/18
f 8/3/19 7/4/19 4/2/19 3/1/19
f 5/3/20 6/4/20 1/2/20 2/1/20
f 7/3/19 12/4/19 10/2/19 4/1/19
f 11/3/20 5/4/20 2/2/20 9/1/20
f 12/3/19 16/4/19 14/2/19 10/1/19
f 15/3/20 11/4/20 9/2/20 13/1/20
f 16/3/19 20/4/19 18/2/19 14/1/19
f 19/3/20 15/4/20 13/2/20 17/1/20
f 20/3/19 24/4/19 22/2/19 18/1/19
f 23/3/20 19/4/20 17/2/20 21/1/20
f 24/3/19 28/4/19 26/2/19 22/1/19
f 27/3/20 23/4/20 21/2/20 25/1/20
f 28/3/19 32/4/19 30/2/19 26/1/19
f 31/3/20 27/4/20 25/2/20 29/1/20
f 32/3/19 36/4/19 34/2/19 30/1/19
f 35/3/20 31/4/20 29/2/20 33/1/20
f 39/14/19 40/15/19 38/13/19 37/1/19
f 40/14/21 42/15/21 41/13/21 38/1/21
f 42/16/20 44/14/20 43/1/20 41/3/20
f 44/16/18 39/14/18 37/1/18 43/3/18
f 44/17/22 42/18/22 40/3/22 39/1/22
f 37/1/3 38/13/3 41/19/3 43/17/3

