# ProBuilder 4.5.2
# https://unity3d.com/unity/features/worldbuilding/probuilder
# 10/25/2022 2:47:01 PM

mtllib ./bm_arch_6_normal.mtl
o bm_arch_6_normal

g bm_arch_6_normal
v 0 0 0.125
v 0.02569294 0.7848377 0.125
v 0 0 0.875
v 0.02569294 0.7848377 0.875
v 1.023552 0.7194347 0.125
v 1 0 0.125
v 1.023552 0.7194347 0.875
v 1 0 0.875
v 0.1026611 1.566315 0.125
v 0.1026611 1.566315 0.875
v 1.094107 1.435788 0.125
v 1.094107 1.435788 0.875
v 0.2305775 2.341084 0.125
v 0.2305775 2.341084 0.875
v 1.211362 2.145993 0.125
v 1.211362 2.145993 0.875
v 0.4088898 3.105828 0.125
v 0.4088898 3.105828 0.875
v 1.374816 2.847009 0.125
v 1.374816 2.847009 0.875
v 0.6368389 3.857273 0.125
v 0.6368389 3.857273 0.875
v 1.583769 3.535834 0.125
v 1.583769 3.535834 0.875
v 0.9134464 4.592201 0.125
v 0.9134464 4.592201 0.875
v 1.837325 4.209518 0.125
v 1.837325 4.209518 0.875
v 1.237527 5.307465 0.125
v 1.237527 5.307465 0.875
v 2.134399 4.865176 0.125
v 2.134399 4.865176 0.875
v 1.607696 6 0.125
v 1.607696 6 0.875
v 2.473721 5.5 0.125
v 2.473721 5.5 0.875
v 2.022365 6.666843 0.125
v 2.022365 6.666843 0.875
v 2.853834 6.111273 0.125
v 2.853834 6.111273 0.875
v 2.47976 7.305138 0.125
v 2.47976 7.305138 0.875
v 3.273113 6.696376 0.125
v 3.273113 6.696376 0.875
v 2.977922 7.912149 0.125
v 2.977922 7.912149 0.875
v 3.729762 7.252804 0.125
v 3.729762 7.252804 0.875
v 3.514719 8.485281 0.125
v 3.514719 8.485281 0.875
v 4.221826 7.778174 0.125
v 4.221826 7.778174 0.875
v 4.087851 9.022078 0.125
v 4.087851 9.022078 0.875
v 4.747196 8.270238 0.125
v 4.747196 8.270238 0.875
v 4.694863 9.52024 0.125
v 4.694863 9.52024 0.875
v 5.303624 8.726887 0.125
v 5.303624 8.726887 0.875
v 5.333157 9.977635 0.125
v 5.333157 9.977635 0.875
v 5.888727 9.146166 0.125
v 5.888727 9.146166 0.875
v 6 10.39231 0.125
v 6 10.39231 0.875
v 6.5 9.526279 0.125
v 6.5 9.526279 0.875
v 6.692536 10.76247 0.125
v 6.692536 10.76247 0.875
v 7.134825 9.865601 0.125
v 7.134825 9.865601 0.875
v 7.407799 11.08655 0.125
v 7.407799 11.08655 0.875
v 7.790483 10.16267 0.125
v 7.790483 10.16267 0.875
v 8.142727 11.36316 0.125
v 8.142727 11.36316 0.875
v 8.464166 10.41623 0.125
v 8.464166 10.41623 0.875
v 8.894171 11.59111 0.125
v 8.894171 11.59111 0.875
v 9.15299 10.62518 0.125
v 9.15299 10.62518 0.875
v 9.658916 11.76942 0.125
v 9.658916 11.76942 0.875
v 9.854006 10.78864 0.125
v 9.854006 10.78864 0.875
v 10.43369 11.89734 0.125
v 10.43369 11.89734 0.875
v 10.56421 10.90589 0.125
v 10.56421 10.90589 0.875
v 11.21516 11.97431 0.125
v 11.21516 11.97431 0.875
v 11.28057 10.97645 0.125
v 11.28057 10.97645 0.875
v 12 12 0.125
v 12 12 0.875
v 12 11 0.125
v 12 11 0.875
v 1 0 1
v 0 0 1
v 1 12 1
v 0 12 1
v 0 0 0
v 0 12 0
v 1 0 0
v 1 12 0

vt 0 0
vt 0 1
vt 1 0
vt 1 1
vt 0 0.875
vt 1 0.875
vt 0 0.125
vt 1 0.125
vt -0.875 11
vt -0.875 12
vt -0.125 11
vt -0.125 12
vt -1 0
vt 0 12
vt -1 12
vt 1 12
vt 0 -1
vt 1 -1
vt -1 -1

vn -0.9994646 0.0327191 0
vn 0.9994646 -0.03271921 0
vn 0 -1 0
vn -0.9951848 0.09801643 0
vn 0.9951847 -0.09801725 0
vn -0.986643 0.1628972 0
vn 0.9866434 -0.1628953 0
vn -0.9738773 0.227075 0
vn 0.973877 -0.2270764 0
vn -0.9569401 0.2902857 0
vn 0.9569402 -0.2902851 0
vn -0.9359059 0.3522502 0
vn 0.9359062 -0.3522495 0
vn -0.9108644 0.4127058 0
vn 0.910864 -0.4127066 0
vn -0.8819209 0.4713975 0
vn 0.881921 -0.4713973 0
vn -0.8492025 0.5280674 0
vn 0.8492024 -0.5280676 0
vn -0.8128467 0.5824777 0
vn 0.8128465 -0.5824779 0
vn -0.7730101 0.6343938 0
vn 0.7730104 -0.6343935 0
vn -0.7298639 0.6835925 0
vn 0.7298639 -0.6835925 0
vn -0.6835925 0.7298639 0
vn 0.6835925 -0.7298639 0
vn -0.6343935 0.7730104 0
vn 0.6343935 -0.7730104 0
vn -0.582478 0.8128465 0
vn 0.5824779 -0.8128465 0
vn -0.5280679 0.8492021 0
vn 0.5280673 -0.8492025 0
vn -0.4713966 0.8819214 0
vn 0.4713973 -0.881921 0
vn -0.4127061 0.9108643 0
vn 0.4127066 -0.910864 0
vn -0.3522502 0.9359059 0
vn 0.3522499 -0.935906 0
vn -0.290286 0.9569399 0
vn 0.290285 -0.9569402 0
vn -0.2270748 0.9738773 0
vn 0.2270765 -0.973877 0
vn -0.1628959 0.9866433 0
vn 0.1628953 -0.9866434 0
vn -0.09801774 0.9951847 0
vn 0.09801712 -0.9951847 0
vn -0.03271902 0.9994646 0
vn 0.03271916 -0.9994646 0
vn 1 0 0
vn 0 0 1
vn 0 0 -1
vn -1 0 0
vn 0 1 0

usemtl bm_beam
f 3/3/1 4/4/1 2/2/1 1/1/1
f 7/3/2 8/4/2 6/2/2 5/1/2
f 1/7/3 6/8/3 8/6/3 3/5/3
f 4/3/4 10/4/4 9/2/4 2/1/4
f 12/3/5 7/4/5 5/2/5 11/1/5
f 10/3/6 14/4/6 13/2/6 9/1/6
f 16/3/7 12/4/7 11/2/7 15/1/7
f 14/3/8 18/4/8 17/2/8 13/1/8
f 20/3/9 16/4/9 15/2/9 19/1/9
f 18/3/10 22/4/10 21/2/10 17/1/10
f 24/3/11 20/4/11 19/2/11 23/1/11
f 22/3/12 26/4/12 25/2/12 21/1/12
f 28/3/13 24/4/13 23/2/13 27/1/13
f 26/3/14 30/4/14 29/2/14 25/1/14
f 32/3/15 28/4/15 27/2/15 31/1/15
f 30/3/16 34/4/16 33/2/16 29/1/16
f 36/3/17 32/4/17 31/2/17 35/1/17
f 34/3/18 38/4/18 37/2/18 33/1/18
f 40/3/19 36/4/19 35/2/19 39/1/19
f 38/3/20 42/4/20 41/2/20 37/1/20
f 44/3/21 40/4/21 39/2/21 43/1/21
f 42/3/22 46/4/22 45/2/22 41/1/22
f 48/3/23 44/4/23 43/2/23 47/1/23
f 46/3/24 50/4/24 49/2/24 45/1/24
f 52/3/25 48/4/25 47/2/25 51/1/25
f 50/3/26 54/4/26 53/2/26 49/1/26
f 56/3/27 52/4/27 51/2/27 55/1/27
f 54/3/28 58/4/28 57/2/28 53/1/28
f 60/3/29 56/4/29 55/2/29 59/1/29
f 58/3/30 62/4/30 61/2/30 57/1/30
f 64/3/31 60/4/31 59/2/31 63/1/31
f 62/3/32 66/4/32 65/2/32 61/1/32
f 68/3/33 64/4/33 63/2/33 67/1/33
f 66/3/34 70/4/34 69/2/34 65/1/34
f 72/3/35 68/4/35 67/2/35 71/1/35
f 70/3/36 74/4/36 73/2/36 69/1/36
f 76/3/37 72/4/37 71/2/37 75/1/37
f 74/3/38 78/4/38 77/2/38 73/1/38
f 80/3/39 76/4/39 75/2/39 79/1/39
f 78/3/40 82/4/40 81/2/40 77/1/40
f 84/3/41 80/4/41 79/2/41 83/1/41
f 82/3/42 86/4/42 85/2/42 81/1/42
f 88/3/43 84/4/43 83/2/43 87/1/43
f 86/3/44 90/4/44 89/2/44 85/1/44
f 92/3/45 88/4/45 87/2/45 91/1/45
f 90/3/46 94/4/46 93/2/46 89/1/46
f 96/3/47 92/4/47 91/2/47 95/1/47
f 94/3/48 98/4/48 97/2/48 93/1/48
f 100/3/49 96/4/49 95/2/49 99/1/49
f 99/11/50 97/12/50 98/10/50 100/9/50
f 8/3/51 7/4/51 4/2/51 3/1/51
f 5/3/52 6/4/52 1/2/52 2/1/52
f 7/3/51 12/4/51 10/2/51 4/1/51
f 11/3/52 5/4/52 2/2/52 9/1/52
f 12/3/51 16/4/51 14/2/51 10/1/51
f 15/3/52 11/4/52 9/2/52 13/1/52
f 16/3/51 20/4/51 18/2/51 14/1/51
f 19/3/52 15/4/52 13/2/52 17/1/52
f 20/3/51 24/4/51 22/2/51 18/1/51
f 23/3/52 19/4/52 17/2/52 21/1/52
f 24/3/51 28/4/51 26/2/51 22/1/51
f 27/3/52 23/4/52 21/2/52 25/1/52
f 28/3/51 32/4/51 30/2/51 26/1/51
f 31/3/52 27/4/52 25/2/52 29/1/52
f 32/3/51 36/4/51 34/2/51 30/1/51
f 35/3/52 31/4/52 29/2/52 33/1/52
f 36/3/51 40/4/51 38/2/51 34/1/51
f 39/3/52 35/4/52 33/2/52 37/1/52
f 40/3/51 44/4/51 42/2/51 38/1/51
f 43/3/52 39/4/52 37/2/52 41/1/52
f 44/3/51 48/4/51 46/2/51 42/1/51
f 47/3/52 43/4/52 41/2/52 45/1/52
f 48/3/51 52/4/51 50/2/51 46/1/51
f 51/3/52 47/4/52 45/2/52 49/1/52
f 52/3/51 56/4/51 54/2/51 50/1/51
f 55/3/52 51/4/52 49/2/52 53/1/52
f 56/3/51 60/4/51 58/2/51 54/1/51
f 59/3/52 55/4/52 53/2/52 57/1/52
f 60/3/51 64/4/51 62/2/51 58/1/51
f 63/3/52 59/4/52 57/2/52 61/1/52
f 64/3/51 68/4/51 66/2/51 62/1/51
f 67/3/52 63/4/52 61/2/52 65/1/52
f 68/3/51 72/4/51 70/2/51 66/1/51
f 71/3/52 67/4/52 65/2/52 69/1/52
f 72/3/51 76/4/51 74/2/51 70/1/51
f 75/3/52 71/4/52 69/2/52 73/1/52
f 76/3/51 80/4/51 78/2/51 74/1/51
f 79/3/52 75/4/52 73/2/52 77/1/52
f 80/3/51 84/4/51 82/2/51 78/1/51
f 83/3/52 79/4/52 77/2/52 81/1/52
f 84/3/51 88/4/51 86/2/51 82/1/51
f 87/3/52 83/4/52 81/2/52 85/1/52
f 88/3/51 92/4/51 90/2/51 86/1/51
f 91/3/52 87/4/52 85/2/52 89/1/52
f 92/3/51 96/4/51 94/2/51 90/1/51
f 95/3/52 91/4/52 89/2/52 93/1/52
f 96/3/51 100/4/51 98/2/51 94/1/51
f 99/3/52 95/4/52 93/2/52 97/1/52
f 103/14/51 104/15/51 102/13/51 101/1/51
f 104/14/53 106/15/53 105/13/53 102/1/53
f 106/16/52 108/14/52 107/1/52 105/3/52
f 108/16/50 103/14/50 101/1/50 107/3/50
f 108/17/54 106/18/54 104/3/54 103/1/54
f 101/1/3 102/13/3 105/19/3 107/17/3

