# ProBuilder 4.5.2
# https://unity3d.com/unity/features/worldbuilding/probuilder
# 10/25/2022 2:47:20 PM

mtllib ./bm_arch_7_normal.mtl
o bm_arch_7_normal

g bm_arch_7_normal
v 0 0 0.125
v 0.02202511 0.784986 0.125
v 0 0 0.875
v 0.02202511 0.784986 0.875
v 1.020452 0.7289157 0.125
v 1 0 0.125
v 1.020452 0.7289157 0.875
v 1 0 0.875
v 0.08802986 1.567502 0.125
v 0.08802986 1.567502 0.875
v 1.081741 1.455538 0.125
v 1.081741 1.455538 0.875
v 0.1978054 2.345088 0.125
v 0.1978054 2.345088 0.875
v 1.183677 2.177581 0.125
v 1.183677 2.177581 0.875
v 0.3510094 3.115293 0.125
v 0.3510094 3.115293 0.875
v 1.325937 2.892772 0.125
v 1.325937 2.892772 0.875
v 0.5471582 3.875697 0.125
v 0.5471582 3.875697 0.875
v 1.508075 3.598862 0.125
v 1.508075 3.598862 0.875
v 0.785634 4.623907 0.125
v 0.785634 4.623907 0.875
v 1.729517 4.293628 0.125
v 1.729517 4.293628 0.875
v 1.065687 5.357568 0.125
v 1.065687 5.357568 0.875
v 1.989567 4.974885 0.125
v 1.989567 4.974885 0.875
v 1.386436 6.074372 0.125
v 1.386436 6.074372 0.875
v 2.287405 5.640489 0.125
v 2.287405 5.640489 0.875
v 1.746872 6.772065 0.125
v 1.746872 6.772065 0.875
v 2.622096 6.288346 0.125
v 2.622096 6.288346 0.875
v 2.145861 7.448449 0.125
v 2.145861 7.448449 0.875
v 2.992585 6.916417 0.125
v 2.992585 6.916417 0.875
v 2.582148 8.101398 0.125
v 2.582148 8.101398 0.875
v 3.397709 7.522728 0.125
v 3.397709 7.522728 0.875
v 3.054359 8.728858 0.125
v 3.054359 8.728858 0.875
v 3.836191 8.105368 0.125
v 3.836191 8.105368 0.875
v 3.561009 9.328852 0.125
v 3.561009 9.328852 0.875
v 4.306652 8.662505 0.125
v 4.306652 8.662505 0.875
v 4.100505 9.899495 0.125
v 4.100505 9.899495 0.875
v 4.807612 9.192388 0.125
v 4.807612 9.192388 0.875
v 4.671147 10.43899 0.125
v 4.671147 10.43899 0.875
v 5.337494 9.693348 0.125
v 5.337494 9.693348 0.875
v 5.271142 10.94564 0.125
v 5.271142 10.94564 0.875
v 5.894632 10.16381 0.125
v 5.894632 10.16381 0.875
v 5.898602 11.41785 0.125
v 5.898602 11.41785 0.875
v 6.477273 10.60229 0.125
v 6.477273 10.60229 0.875
v 6.551552 11.85414 0.125
v 6.551552 11.85414 0.875
v 7.083584 11.00741 0.125
v 7.083584 11.00741 0.875
v 7.227937 12.25313 0.125
v 7.227937 12.25313 0.875
v 7.711656 11.3779 0.125
v 7.711656 11.3779 0.875
v 7.925627 12.61356 0.125
v 7.925627 12.61356 0.875
v 8.359511 11.71259 0.125
v 8.359511 11.71259 0.875
v 8.642432 12.93431 0.125
v 8.642432 12.93431 0.875
v 9.025116 12.01043 0.125
v 9.025116 12.01043 0.875
v 9.376093 13.21437 0.125
v 9.376093 13.21437 0.875
v 9.706372 12.27048 0.125
v 9.706372 12.27048 0.875
v 10.1243 13.45284 0.125
v 10.1243 13.45284 0.875
v 10.40114 12.49193 0.125
v 10.40114 12.49193 0.875
v 10.88471 13.64899 0.125
v 10.88471 13.64899 0.875
v 11.10723 12.67406 0.125
v 11.10723 12.67406 0.875
v 11.65491 13.80219 0.125
v 11.65491 13.80219 0.875
v 11.82242 12.81632 0.125
v 11.82242 12.81632 0.875
v 12.4325 13.91197 0.125
v 12.4325 13.91197 0.875
v 12.54446 12.91826 0.125
v 12.54446 12.91826 0.875
v 13.21501 13.97797 0.125
v 13.21501 13.97797 0.875
v 13.27108 12.97955 0.125
v 13.27108 12.97955 0.875
v 14 14 0.125
v 14 14 0.875
v 14 13 0.125
v 14 13 0.875
v 1 0 1
v 0 0 1
v 1 14 1
v 0 14 1
v 0 0 0
v 0 14 0
v 1 0 0
v 1 14 0

vt 0 0
vt 0 1
vt 1 0
vt 1 1
vt 0 0.875
vt 1 0.875
vt 0 0.125
vt 1 0.125
vt -0.875 13
vt -0.875 14
vt -0.125 13
vt -0.125 14
vt -1 0
vt 0 14
vt -1 14
vt 1 14
vt 0 -1
vt 1 -1
vt -1 -1

vn -0.9996066 0.02804692 0
vn 0.9996067 -0.02804646 0
vn 0 -1 0
vn -0.9964615 0.08405088 0
vn 0.9964615 -0.08405039 0
vn -0.9901814 0.1397888 0
vn 0.9901811 -0.1397901 0
vn -0.9807851 0.1950911 0
vn 0.9807852 -0.1950906 0
vn -0.9683034 0.249777 0
vn 0.9683036 -0.2497763 0
vn -0.9527752 0.3036765 0
vn 0.9527751 -0.303677 0
vn -0.9342489 0.3566215 0
vn 0.9342487 -0.3566221 0
vn -0.9127832 0.4084443 0
vn 0.9127834 -0.4084439 0
vn -0.8884462 0.4589809 0
vn 0.8884456 -0.458982 0
vn -0.8613128 0.5080751 0
vn 0.861313 -0.5080746 0
vn -0.8314695 0.5555704 0
vn 0.8314698 -0.55557 0
vn -0.7990104 0.6013172 0
vn 0.7990099 -0.6013179 0
vn -0.7640371 0.6451724 0
vn 0.7640372 -0.6451722 0
vn -0.7266606 0.6869966 0
vn 0.72666 -0.6869974 0
vn -0.6869966 0.7266607 0
vn 0.686998 -0.7266594 0
vn -0.6451725 0.764037 0
vn 0.6451716 -0.7640378 0
vn -0.6013172 0.7990104 0
vn 0.6013176 -0.7990101 0
vn -0.5555698 0.8314699 0
vn 0.5555697 -0.83147 0
vn -0.5080748 0.8613129 0
vn 0.5080754 -0.8613126 0
vn -0.4589819 0.8884456 0
vn 0.4589818 -0.8884457 0
vn -0.4084439 0.9127834 0
vn 0.4084435 -0.9127836 0
vn -0.3566228 0.9342485 0
vn 0.3566234 -0.9342482 0
vn -0.3036762 0.9527753 0
vn 0.303676 -0.9527754 0
vn -0.2497759 0.9683037 0
vn 0.2497758 -0.9683037 0
vn -0.1950912 0.9807851 0
vn 0.1950911 -0.9807851 0
vn -0.139789 0.9901813 0
vn 0.13979 -0.9901812 0
vn -0.08405077 0.9964615 0
vn 0.08405039 -0.9964615 0
vn -0.02804691 0.9996066 0
vn 0.02804644 -0.9996067 0
vn 1 0 0
vn 0 0 1
vn 0 0 -1
vn -1 0 0
vn 0 1 0

usemtl bm_beam
f 3/3/1 4/4/1 2/2/1 1/1/1
f 7/3/2 8/4/2 6/2/2 5/1/2
f 1/7/3 6/8/3 8/6/3 3/5/3
f 4/3/4 10/4/4 9/2/4 2/1/4
f 12/3/5 7/4/5 5/2/5 11/1/5
f 10/3/6 14/4/6 13/2/6 9/1/6
f 16/3/7 12/4/7 11/2/7 15/1/7
f 14/3/8 18/4/8 17/2/8 13/1/8
f 20/3/9 16/4/9 15/2/9 19/1/9
f 18/3/10 22/4/10 21/2/10 17/1/10
f 24/3/11 20/4/11 19/2/11 23/1/11
f 22/3/12 26/4/12 25/2/12 21/1/12
f 28/3/13 24/4/13 23/2/13 27/1/13
f 26/3/14 30/4/14 29/2/14 25/1/14
f 32/3/15 28/4/15 27/2/15 31/1/15
f 30/3/16 34/4/16 33/2/16 29/1/16
f 36/3/17 32/4/17 31/2/17 35/1/17
f 34/3/18 38/4/18 37/2/18 33/1/18
f 40/3/19 36/4/19 35/2/19 39/1/19
f 38/3/20 42/4/20 41/2/20 37/1/20
f 44/3/21 40/4/21 39/2/21 43/1/21
f 42/3/22 46/4/22 45/2/22 41/1/22
f 48/3/23 44/4/23 43/2/23 47/1/23
f 46/3/24 50/4/24 49/2/24 45/1/24
f 52/3/25 48/4/25 47/2/25 51/1/25
f 50/3/26 54/4/26 53/2/26 49/1/26
f 56/3/27 52/4/27 51/2/27 55/1/27
f 54/3/28 58/4/28 57/2/28 53/1/28
f 60/3/29 56/4/29 55/2/29 59/1/29
f 58/3/30 62/4/30 61/2/30 57/1/30
f 64/3/31 60/4/31 59/2/31 63/1/31
f 62/3/32 66/4/32 65/2/32 61/1/32
f 68/3/33 64/4/33 63/2/33 67/1/33
f 66/3/34 70/4/34 69/2/34 65/1/34
f 72/3/35 68/4/35 67/2/35 71/1/35
f 70/3/36 74/4/36 73/2/36 69/1/36
f 76/3/37 72/4/37 71/2/37 75/1/37
f 74/3/38 78/4/38 77/2/38 73/1/38
f 80/3/39 76/4/39 75/2/39 79/1/39
f 78/3/40 82/4/40 81/2/40 77/1/40
f 84/3/41 80/4/41 79/2/41 83/1/41
f 82/3/42 86/4/42 85/2/42 81/1/42
f 88/3/43 84/4/43 83/2/43 87/1/43
f 86/3/44 90/4/44 89/2/44 85/1/44
f 92/3/45 88/4/45 87/2/45 91/1/45
f 90/3/46 94/4/46 93/2/46 89/1/46
f 96/3/47 92/4/47 91/2/47 95/1/47
f 94/3/48 98/4/48 97/2/48 93/1/48
f 100/3/49 96/4/49 95/2/49 99/1/49
f 98/3/50 102/4/50 101/2/50 97/1/50
f 104/3/51 100/4/51 99/2/51 103/1/51
f 102/3/52 106/4/52 105/2/52 101/1/52
f 108/3/53 104/4/53 103/2/53 107/1/53
f 106/3/54 110/4/54 109/2/54 105/1/54
f 112/3/55 108/4/55 107/2/55 111/1/55
f 110/3/56 114/4/56 113/2/56 109/1/56
f 116/3/57 112/4/57 111/2/57 115/1/57
f 115/11/58 113/12/58 114/10/58 116/9/58
f 8/3/59 7/4/59 4/2/59 3/1/59
f 5/3/60 6/4/60 1/2/60 2/1/60
f 7/3/59 12/4/59 10/2/59 4/1/59
f 11/3/60 5/4/60 2/2/60 9/1/60
f 12/3/59 16/4/59 14/2/59 10/1/59
f 15/3/60 11/4/60 9/2/60 13/1/60
f 16/3/59 20/4/59 18/2/59 14/1/59
f 19/3/60 15/4/60 13/2/60 17/1/60
f 20/3/59 24/4/59 22/2/59 18/1/59
f 23/3/60 19/4/60 17/2/60 21/1/60
f 24/3/59 28/4/59 26/2/59 22/1/59
f 27/3/60 23/4/60 21/2/60 25/1/60
f 28/3/59 32/4/59 30/2/59 26/1/59
f 31/3/60 27/4/60 25/2/60 29/1/60
f 32/3/59 36/4/59 34/2/59 30/1/59
f 35/3/60 31/4/60 29/2/60 33/1/60
f 36/3/59 40/4/59 38/2/59 34/1/59
f 39/3/60 35/4/60 33/2/60 37/1/60
f 40/3/59 44/4/59 42/2/59 38/1/59
f 43/3/60 39/4/60 37/2/60 41/1/60
f 44/3/59 48/4/59 46/2/59 42/1/59
f 47/3/60 43/4/60 41/2/60 45/1/60
f 48/3/59 52/4/59 50/2/59 46/1/59
f 51/3/60 47/4/60 45/2/60 49/1/60
f 52/3/59 56/4/59 54/2/59 50/1/59
f 55/3/60 51/4/60 49/2/60 53/1/60
f 56/3/59 60/4/59 58/2/59 54/1/59
f 59/3/60 55/4/60 53/2/60 57/1/60
f 60/3/59 64/4/59 62/2/59 58/1/59
f 63/3/60 59/4/60 57/2/60 61/1/60
f 64/3/59 68/4/59 66/2/59 62/1/59
f 67/3/60 63/4/60 61/2/60 65/1/60
f 68/3/59 72/4/59 70/2/59 66/1/59
f 71/3/60 67/4/60 65/2/60 69/1/60
f 72/3/59 76/4/59 74/2/59 70/1/59
f 75/3/60 71/4/60 69/2/60 73/1/60
f 76/3/59 80/4/59 78/2/59 74/1/59
f 79/3/60 75/4/60 73/2/60 77/1/60
f 80/3/59 84/4/59 82/2/59 78/1/59
f 83/3/60 79/4/60 77/2/60 81/1/60
f 84/3/59 88/4/59 86/2/59 82/1/59
f 87/3/60 83/4/60 81/2/60 85/1/60
f 88/3/59 92/4/59 90/2/59 86/1/59
f 91/3/60 87/4/60 85/2/60 89/1/60
f 92/3/59 96/4/59 94/2/59 90/1/59
f 95/3/60 91/4/60 89/2/60 93/1/60
f 96/3/59 100/4/59 98/2/59 94/1/59
f 99/3/60 95/4/60 93/2/60 97/1/60
f 100/3/59 104/4/59 102/2/59 98/1/59
f 103/3/60 99/4/60 97/2/60 101/1/60
f 104/3/59 108/4/59 106/2/59 102/1/59
f 107/3/60 103/4/60 101/2/60 105/1/60
f 108/3/59 112/4/59 110/2/59 106/1/59
f 111/3/60 107/4/60 105/2/60 109/1/60
f 112/3/59 116/4/59 114/2/59 110/1/59
f 115/3/60 111/4/60 109/2/60 113/1/60
f 119/14/59 120/15/59 118/13/59 117/1/59
f 120/14/61 122/15/61 121/13/61 118/1/61
f 122/16/60 124/14/60 123/1/60 121/3/60
f 124/16/58 119/14/58 117/1/58 123/3/58
f 124/17/62 122/18/62 120/3/62 119/1/62
f 117/1/3 118/13/3 121/19/3 123/17/3

