# ProBuilder 4.5.2
# https://unity3d.com/unity/features/worldbuilding/probuilder
# 7/23/2022 2:15:54 PM

mtllib ./bm_hurdleCenter.mtl
o bm_hurdleCenter

g Cylinder (3)
v 0 0 0
v 0 0.0625 0
v 0.01903012 0 0.09567086
v 0.01903057 0.0625 0.0956707
v 0.07322331 0 0.1767767
v 0.07322311 0.0625 0.1767769
v 0.1543292 0 0.2309699
v 0.1543293 0.0625 0.2309694
v 0.25 0 0.25
v 0.25 0.0625 0.25
v 0.3456708 0 0.2309699
v 0.3456707 0.0625 0.2309694
v 0.4267767 0 0.1767767
v 0.4267769 0.0625 0.1767769
v 0.4809699 0 0.09567087
v 0.4809694 0.0625 0.0956707
v 0.5 0 -2.185569E-08
v 0.5 0.0625 0
v 0.4809699 0 -0.09567086
v 0.4809694 0.0625 -0.0956707
v 0.4267767 0 -0.1767767
v 0.4267769 0.0625 -0.1767769
v 0.3456709 0 -0.2309699
v 0.3456707 0.0625 -0.2309694
v 0.25 0 -0.25
v 0.25 0.0625 -0.25
v 0.1543291 0 -0.2309699
v 0.1543293 0.0625 -0.2309694
v 0.07322334 0 -0.1767767
v 0.07322311 0.0625 -0.1767769
v 0.01903011 0 -0.09567086
v 0.01903057 0.0625 -0.0956707
v 0.25 0 0
v 0.25 0.1875 0
v 0.125 4.470348E-08 0
v 0.125 0.5000001 0
v 0.1345148 4.470348E-08 0.0478363
v 0.1345148 0.5000001 0.0478363
v 0.1616116 4.470348E-08 0.08838844
v 0.1616116 0.5000001 0.08838844
v 0.2021646 4.470348E-08 0.1154842
v 0.2021646 0.5000001 0.1154861
v 0.25 4.470348E-08 0.125
v 0.25 0.5000001 0.125
v 0.2978354 4.470348E-08 0.1154842
v 0.2978354 0.5000001 0.1154861
v 0.3383884 4.470348E-08 0.08838844
v 0.3383884 0.5000001 0.08838844
v 0.3654852 4.470348E-08 0.0478363
v 0.3654852 0.5000001 0.0478363
v 0.375 4.470348E-08 0
v 0.375 0.5000001 0
v 0.3654852 4.470348E-08 -0.0478363
v 0.3654852 0.5000001 -0.0478363
v 0.3383884 4.470348E-08 -0.08838844
v 0.3383884 0.5000001 -0.08838844
v 0.2978354 4.470348E-08 -0.1154842
v 0.2978354 0.5000001 -0.1154861
v 0.25 4.470348E-08 -0.125
v 0.25 0.5000001 -0.125
v 0.2021646 4.470348E-08 -0.1154842
v 0.2021646 0.5000001 -0.1154861
v 0.1616116 4.470348E-08 -0.08838844
v 0.1616116 0.5000001 -0.08838844
v 0.1345148 4.470348E-08 -0.0478363
v 0.1345148 0.5000001 -0.0478363
v 0.25 0.5000001 0
v 0 0.4375 0
v 0 0.5 0
v 0.01903057 0.4375 0.0956707
v 0.01903057 0.5 0.0956707
v 0.07322311 0.4375 0.1767769
v 0.07322311 0.5 0.1767769
v 0.1543293 0.4375 0.2309704
v 0.1543293 0.5 0.2309685
v 0.25 0.4375 0.25
v 0.25 0.5 0.25
v 0.3456707 0.4375 0.2309704
v 0.3456707 0.5 0.2309685
v 0.4267769 0.4375 0.1767769
v 0.4267769 0.5 0.1767769
v 0.4809694 0.4375 0.0956707
v 0.4809694 0.5 0.0956707
v 0.5 0.4375 0
v 0.5 0.5 0
v 0.4809694 0.4375 -0.0956707
v 0.4809694 0.5 -0.0956707
v 0.4267769 0.4375 -0.1767769
v 0.4267769 0.5 -0.1767769
v 0.3456707 0.4375 -0.2309704
v 0.3456707 0.5 -0.2309685
v 0.25 0.4375 -0.25
v 0.25 0.5 -0.25
v 0.1543293 0.4375 -0.2309704
v 0.1543293 0.5 -0.2309685
v 0.07322311 0.4375 -0.1767769
v 0.07322311 0.5 -0.1767769
v 0.01903057 0.4375 -0.0956707
v 0.01903057 0.5 -0.0956707
v 0.25 0.3125 0
v 0.25 0.75 0

vt 0 0
vt 0 0.0625
vt 0.09754517 0
vt 0.09754509 0.0625
vt 0.09011999 -2.763898E-07
vt 0.0901201 0.06249972
vt 0.1876651 -2.763898E-07
vt 0.1876652 0.06249972
vt 0.1590948 4.570051E-07
vt 0.1590948 0.06250045
vt 0.25664 4.570051E-07
vt 0.2566399 0.06250045
vt 0.1964238 -1.469299E-06
vt 0.1964238 0.06249853
vt 0.2939689 -1.469299E-06
vt 0.2939689 0.06249853
vt 0.159095 0.06249713
vt 0.2566401 0.06249713
vt 0.0901199 0.06250186
vt 0.187665 0.06250186
vt -0.0975452 -3.345527E-08
vt -0.09754522 0.06249997
vt -0.1876651 -3.324557E-06
vt -0.187665 0.06249668
vt -0.09011997 -3.324557E-06
vt -0.0901199 0.06249668
vt -0.25664 1.676482E-06
vt -0.25664 0.06250168
vt -0.1590948 1.676482E-06
vt -0.1590949 0.06250168
vt -0.2939689 -2.226309E-06
vt -0.2939688 0.06249777
vt -0.1964237 -2.226309E-06
vt -0.1964237 0.06249777
vt -0.2566399 0.06249919
vt -0.1590948 0.06249919
vt -0.1876652 0.06250016
vt -0.09012009 0.06250016
vt 0.25 0
vt 0.01903012 0.09567086
vt -0.02795085 -0.004953375
vt -0.3074594 -0.004953375
vt -0.04497231 0.09109513
vt 0.07322331 0.1767767
vt -0.04191325 0.07992917
vt -0.3033506 -0.01894076
vt -0.09180838 0.1637476
vt 0.1543292 0.2309699
vt -0.08748352 0.148513
vt -0.2916333 -0.04240052
vt -0.1655202 0.2070393
vt 0.25 0.25
vt -0.1597573 0.1858877
vt -0.2673295 -0.07209095
vt -0.2549582 0.2071436
vt 0.3456708 0.2309699
vt -0.2425869 0.1851002
vt -0.2302156 -0.09413436
vt -0.3377879 0.1638443
vt 0.4267767 0.1767767
vt -0.3155569 0.1555848
vt -0.1894438 -0.093855
vt -0.3935936 0.09705856
vt 0.4809699 0.09567087
vt -0.3685422 0.1145099
vt -0.1569999 -0.06817839
vt -0.4184373 0.03069154
vt 0.5 -2.185569E-08
vt -0.4022413 0.07128163
vt -0.1397543 -0.02476688
vt -0.4192627 -0.02476688
vt 0.4809699 -0.09567086
vt -0.4192627 0.02476688
vt -0.1397543 0.02476688
vt -0.4022413 -0.07128163
vt 0.4267767 -0.1767767
vt -0.4184373 -0.03069154
vt -0.1569999 0.06817839
vt -0.3685422 -0.1145099
vt 0.3456709 -0.2309699
vt -0.3935936 -0.09705856
vt -0.1894438 0.093855
vt -0.3155569 -0.1555848
vt 0.25 -0.25
vt -0.3377879 -0.1638443
vt -0.2302156 0.09413436
vt -0.2425869 -0.1851002
vt 0.1543291 -0.2309699
vt -0.2549582 -0.2071436
vt -0.2673295 0.07209095
vt -0.1597573 -0.1858877
vt 0.07322334 -0.1767767
vt -0.1655202 -0.2070393
vt -0.2916333 0.04240052
vt -0.08748352 -0.148513
vt 0.01903011 -0.09567086
vt -0.09180838 -0.1637476
vt -0.3033506 0.01894076
vt -0.04191325 -0.07992917
vt -0.04497231 -0.09109513
vt -0.3074594 0.004953375
vt -0.02795085 0.004953375
vt 1.862645E-09 0.5
vt 0.04877259 0
vt 0.04877259 0.5
vt 0.04505971 0
vt 0.0450598 0.5
vt 0.09383258 0
vt 0.09383267 0.5
vt 0.07954735 0
vt 0.07954744 0.5
vt 0.1283191 0
vt 0.1283202 0.5
vt 0.09821184 8.940697E-08
vt 0.0982123 0.5000001
vt 0.1469844 8.940697E-08
vt 0.1469845 0.5000001
vt -0.0487727 0
vt -0.04877261 0.5
vt -0.09383284 5.960464E-08
vt -0.09383275 0.5000001
vt -0.04505996 5.960464E-08
vt -0.04505987 0.5000001
vt -0.12832 5.960464E-08
vt -0.1283199 0.5000001
vt -0.07954827 5.960464E-08
vt -0.07954714 0.5000001
vt -0.1469845 2.980232E-08
vt -0.1469841 0.5000001
vt -0.0982119 2.980232E-08
vt -0.09821181 0.5000001
vt 0.125 -1.303852E-08
vt 0.009514809 0.04783544
vt -0.125 0
vt -0.009514809 0.04783535
vt 0.03661174 0.08838835
vt -0.03661156 0.08838844
vt 0.07716469 0.1154849
vt -0.07716465 0.1154852
vt 0.125 0.125
vt -0.125 0.125
vt 0.125 3.72529E-09
vt 0.1728354 0.1154842
vt -0.1728354 0.1154861
vt 0.2133883 0.08838898
vt -0.2133884 0.08838772
vt 0.240485 0.04783625
vt -0.2404852 0.0478363
vt -0.25 9.313226E-09
vt 0.2404852 -0.04783543
vt -0.2404852 -0.04783535
vt 0.2133883 -0.08838833
vt -0.2133884 -0.08838844
vt 0.1728353 -0.1154849
vt -0.1728354 -0.1154852
vt 0.125 -0.125
vt -0.125 -0.125
vt 0.07716452 -0.1154842
vt -0.07716465 -0.1154861
vt 0.03661168 -0.08838896
vt -0.125 3.72529E-09
vt -0.03661156 -0.08838772
vt 0.009515047 -0.04783626
vt -0.009514809 -0.0478363
vt 0.2795085 -2.980232E-08
vt 0.01702145 0.09604867
vt -0.04419416 -0.006155577
vt -0.3977476 -0.006155577
vt -0.0576508 0.09045686
vt 0.01752108 0.0944488
vt 0.2789588 -0.004421093
vt 0.06741628 0.1782672
vt -0.0549323 0.07379541
vt -0.3927757 -0.0304237
vt -0.09626931 0.1621487
vt 0.07045206 0.1712222
vt 0.2746019 -0.01969086
vt 0.1484886 0.2297493
vt -0.09451599 0.1314033
vt -0.3715474 -0.08826491
vt -0.1650871 0.1987434
vt 0.1535715 0.2135926
vt 0.2611437 -0.04438701
vt 0.248773 0.2348476
vt 0.1964248 -0.09291689
vt 0.2451938 0.2572561
vt 0.2939699 -0.09291689
vt 0.2487724 0.2128047
vt 0.2364017 -0.0664299
vt 0.3439739 0.1915498
vt 0.1964223 -0.1612211
vt 0.2451984 0.1889519
vt 0.2939674 -0.1612211
vt 0.3325882 0.1782945
vt 0.2064749 -0.07114561
vt 0.4106247 0.1197674
vt -0.2699647 0.05245592
vt -0.06350444 -0.2345524
vt -0.3405358 -0.01488411
vt 0.3929347 0.1290292
vt 0.1813921 -0.05365901
vt 0.4428298 0.04521084
vt -0.285121 0.03390507
vt 0.01138538 -0.1586673
vt -0.326458 -0.05444814
vt 0.4301921 0.07623566
vt 0.1677051 -0.01981303
vt 0.4472136 -0.01981303
vt -0.2959026 0.04121227
vt 0.04419416 -0.05540022
vt -0.3093593 -0.05540016
vt 0.4472136 0.01981297
vt 0.1677051 0.01981302
vt 0.4301921 -0.07623564
vt -0.3093593 0.05540019
vt 0.04419416 0.05540019
vt -0.2959026 -0.04121224
vt 0.4428298 -0.04521086
vt 0.1813921 0.05365902
vt 0.3929347 -0.1290292
vt -0.326458 0.05444817
vt 0.01138538 0.1586673
vt -0.285121 -0.03390507
vt 0.4106247 -0.1197674
vt 0.2064748 0.07114561
vt 0.3325881 -0.1782945
vt -0.3405358 0.01488413
vt -0.06350441 0.2345524
vt -0.2699647 -0.05245595
vt 0.3439739 -0.1915498
vt 0.2364017 0.06642991
vt 0.2487724 -0.2128047
vt -0.2939674 -0.1612211
vt -0.2451983 0.1889519
vt -0.1964223 -0.1612211
vt 0.2487729 -0.2348476
vt 0.2611437 0.044387
vt 0.1535714 -0.2135926
vt -0.2939699 -0.09291688
vt -0.2451938 0.2572561
vt -0.1964248 -0.09291691
vt 0.1484886 -0.2297492
vt 0.2746019 0.01969086
vt 0.07045209 -0.1712221
vt -0.1650871 -0.1987434
vt -0.3715473 0.08826494
vt -0.09451599 -0.1314033
vt 0.06741625 -0.1782672
vt 0.2789588 0.004421093
vt 0.01752105 -0.0944488
vt -0.09626931 -0.1621487
vt -0.3927757 0.03042372
vt -0.0549323 -0.07379544
vt 0.01702145 -0.09604863
vt -0.0576508 -0.09045686
vt -0.3977476 0.006155577
vt -0.04419416 0.006155577

vn -1 1.972234E-06 -1.169868E-06
vn -0.923879 5.693172E-06 0.3826846
vn -0.7071081 -1.400145E-06 0.7071055
vn -0.3826818 4.571129E-06 0.9238803
vn -1.27622E-06 1.906701E-06 1
vn 0.3826845 5.774455E-06 0.9238791
vn 0.7071055 -1.248554E-06 0.7071081
vn 0.9238803 4.707872E-06 0.3826817
vn 1 1.941479E-06 1.162272E-06
vn 0.923879 5.67087E-06 -0.3826846
vn 0.7071082 -1.433793E-06 -0.7071054
vn 0.3826818 4.669313E-06 -0.9238803
vn 1.169868E-06 1.930413E-06 -1
vn -0.3826846 5.770656E-06 -0.923879
vn -0.7071054 -1.382919E-06 -0.7071081
vn -0.9238803 4.736073E-06 -0.3826817
vn 0 -1 0
vn -0.4454545 0.890909 0.08860867
vn -0.3776402 0.8909091 0.252327
vn -0.252327 0.8909091 0.3776402
vn -0.08860867 0.890909 0.4454545
vn 0.08860867 0.890909 0.4454545
vn 0.252327 0.8909091 0.3776402
vn 0.3776402 0.8909091 0.252327
vn 0.4454545 0.890909 0.08860867
vn 0.4454545 0.890909 -0.08860867
vn 0.3776402 0.8909091 -0.252327
vn 0.252327 0.8909091 -0.3776402
vn 0.08860867 0.890909 -0.4454545
vn -0.08860867 0.890909 -0.4454545
vn -0.252327 0.8909091 -0.3776402
vn -0.3776402 0.8909091 -0.252327
vn -0.4454545 0.890909 -0.08860867
vn 0 1 0
vn -0.4454545 -0.890909 0.08860867
vn -0.7002141 0.7002141 0.1392848
vn -0.3776402 -0.8909091 0.252327
vn -0.5936163 0.7002144 0.3966353
vn -0.2523298 -0.8909094 0.3776377
vn -0.3966308 0.7002138 0.59362
vn -0.08860426 -0.8909094 0.4454547
vn -0.1392917 0.7002135 0.7002135
vn 0.08860426 -0.8909094 0.4454547
vn 0.1392917 0.7002135 0.7002135
vn 0.2523298 -0.8909094 0.3776377
vn 0.3966308 0.7002138 0.59362
vn 0.3776402 -0.8909091 0.252327
vn 0.5936163 0.7002144 0.3966353
vn 0.4454545 -0.890909 0.08860867
vn 0.7002141 0.7002141 0.1392848
vn 0.4454545 -0.890909 -0.08860867
vn 0.7002141 0.7002141 -0.1392848
vn 0.3776402 -0.8909091 -0.252327
vn 0.5936163 0.7002144 -0.3966353
vn 0.2523298 -0.8909094 -0.3776377
vn 0.3966308 0.7002138 -0.59362
vn 0.08860426 -0.8909094 -0.4454547
vn 0.1392917 0.7002135 -0.7002135
vn -0.08860426 -0.8909094 -0.4454547
vn -0.1392917 0.7002135 -0.7002135
vn -0.2523298 -0.8909094 -0.3776377
vn -0.3966308 0.7002138 -0.59362
vn -0.3776402 -0.8909091 -0.252327
vn -0.5936163 0.7002144 -0.3966353
vn -0.4454545 -0.890909 -0.08860867
vn -0.7002141 0.7002141 -0.1392848

usemtl metal_bm
f 1/1/17 33/39/17 3/40/17
f 3/40/17 33/39/17 5/44/17
f 5/44/17 33/39/17 7/48/17
f 7/48/17 33/39/17 9/52/17
f 9/52/17 33/39/17 11/56/17
f 11/56/17 33/39/17 13/60/17
f 13/60/17 33/39/17 15/64/17
f 15/64/17 33/39/17 17/68/17
f 17/68/17 33/39/17 19/72/17
f 19/72/17 33/39/17 21/76/17
f 21/76/17 33/39/17 23/80/17
f 23/80/17 33/39/17 25/84/17
f 25/84/17 33/39/17 27/88/17
f 27/88/17 33/39/17 29/92/17
f 29/92/17 33/39/17 31/96/17
f 31/96/17 33/39/17 1/1/17
f 4/43/18 34/42/18 2/41/18
f 6/47/19 34/46/19 4/45/19
f 8/51/20 34/50/20 6/49/20
f 10/55/21 34/54/21 8/53/21
f 12/59/22 34/58/22 10/57/22
f 14/63/23 34/62/23 12/61/23
f 16/67/24 34/66/24 14/65/24
f 18/71/25 34/70/25 16/69/25
f 20/75/26 34/74/26 18/73/26
f 22/79/27 34/78/27 20/77/27
f 24/83/28 34/82/28 22/81/28
f 26/87/29 34/86/29 24/85/29
f 28/91/30 34/90/30 26/89/30
f 30/95/31 34/94/31 28/93/31
f 32/99/32 34/98/32 30/97/32
f 2/102/33 34/101/33 32/100/33
f 35/1/17 33/132/17 37/133/17
f 37/133/17 33/132/17 39/136/17
f 39/136/17 33/132/17 41/138/17
f 41/138/17 33/132/17 43/140/17
f 43/140/17 33/142/17 45/143/17
f 45/143/17 33/132/17 47/145/17
f 47/145/17 33/132/17 49/147/17
f 49/147/17 33/132/17 51/39/17
f 51/39/17 33/132/17 53/150/17
f 53/150/17 33/132/17 55/152/17
f 55/152/17 33/132/17 57/154/17
f 57/154/17 33/132/17 59/156/17
f 59/156/17 33/132/17 61/158/17
f 61/158/17 33/132/17 63/160/17
f 63/160/17 33/132/17 65/163/17
f 65/163/17 33/132/17 35/1/17
f 38/135/34 67/134/34 36/1/34
f 40/137/34 67/134/34 38/135/34
f 42/139/34 67/134/34 40/137/34
f 44/141/34 67/134/34 42/139/34
f 46/144/34 67/134/34 44/141/34
f 48/146/34 67/134/34 46/144/34
f 50/148/34 67/134/34 48/146/34
f 52/149/34 67/134/34 50/148/34
f 54/151/34 67/134/34 52/149/34
f 56/153/34 67/134/34 54/151/34
f 58/155/34 67/134/34 56/153/34
f 60/157/34 67/134/34 58/155/34
f 62/159/34 67/134/34 60/157/34
f 64/162/34 67/161/34 62/159/34
f 66/164/34 67/134/34 64/162/34
f 36/1/34 67/134/34 66/164/34
f 68/1/35 100/165/35 70/166/35
f 70/170/37 100/171/37 72/172/37
f 72/176/39 100/177/39 74/178/39
f 74/182/41 100/183/41 76/184/41
f 76/188/43 100/189/43 78/190/43
f 78/194/45 100/195/45 80/196/45
f 80/200/47 100/201/47 82/202/47
f 82/206/49 100/207/49 84/208/49
f 84/212/51 100/213/51 86/214/51
f 86/218/53 100/219/53 88/220/53
f 88/224/55 100/225/55 90/226/55
f 90/230/57 100/231/57 92/232/57
f 92/236/59 100/237/59 94/238/59
f 94/242/61 100/243/61 96/244/61
f 96/248/63 100/249/63 98/250/63
f 98/254/65 100/165/65 68/1/65
f 71/169/36 101/168/36 69/167/36
f 73/175/38 101/174/38 71/173/38
f 75/181/40 101/180/40 73/179/40
f 77/187/42 101/186/42 75/185/42
f 79/193/44 101/192/44 77/191/44
f 81/199/46 101/198/46 79/197/46
f 83/205/48 101/204/48 81/203/48
f 85/211/50 101/210/50 83/209/50
f 87/217/52 101/216/52 85/215/52
f 89/223/54 101/222/54 87/221/54
f 91/229/56 101/228/56 89/227/56
f 93/235/58 101/234/58 91/233/58
f 95/241/60 101/240/60 93/239/60
f 97/247/62 101/246/62 95/245/62
f 99/253/64 101/252/64 97/251/64
f 69/257/66 101/256/66 99/255/66
f 4/4/2 2/2/1 1/1/1
f 1/1/1 3/3/2 4/4/2
f 6/8/3 4/6/2 3/5/2
f 3/5/2 5/7/3 6/8/3
f 8/12/4 6/10/3 5/9/3
f 5/9/3 7/11/4 8/12/4
f 10/16/5 8/14/4 7/13/4
f 7/13/4 9/15/5 10/16/5
f 12/16/6 10/14/5 9/13/5
f 9/13/5 11/15/6 12/16/6
f 14/18/7 12/17/6 11/9/6
f 11/9/6 13/11/7 14/18/7
f 16/20/8 14/19/7 13/5/7
f 13/5/7 15/7/8 16/20/8
f 18/4/9 16/2/8 15/1/8
f 15/1/8 17/3/9 18/4/9
f 20/2/10 18/22/9 17/21/9
f 17/21/9 19/1/10 20/2/10
f 22/26/11 20/24/10 19/23/10
f 19/23/10 21/25/11 22/26/11
f 24/30/12 22/28/11 21/27/11
f 21/27/11 23/29/12 24/30/12
f 26/34/13 24/32/12 23/31/12
f 23/31/12 25/33/13 26/34/13
f 28/34/14 26/32/13 25/31/13
f 25/31/13 27/33/14 28/34/14
f 30/36/15 28/35/14 27/27/14
f 27/27/14 29/29/15 30/36/15
f 32/38/16 30/37/15 29/23/15
f 29/23/15 31/25/16 32/38/16
f 2/2/1 32/22/16 31/21/16
f 31/21/16 1/1/1 2/2/1
f 38/105/2 36/103/1 35/1/1
f 35/1/1 37/104/2 38/105/2
f 40/109/3 38/107/2 37/106/2
f 37/106/2 39/108/3 40/109/3
f 42/113/4 40/111/3 39/110/3
f 39/110/3 41/112/4 42/113/4
f 44/117/5 42/115/4 41/114/4
f 41/114/4 43/116/5 44/117/5
f 46/117/6 44/115/5 43/114/5
f 43/114/5 45/116/6 46/117/6
f 48/113/7 46/111/6 45/110/6
f 45/110/6 47/112/7 48/113/7
f 50/109/8 48/107/7 47/106/7
f 47/106/7 49/108/8 50/109/8
f 52/105/9 50/103/8 49/1/8
f 49/1/8 51/104/9 52/105/9
f 54/103/10 52/119/9 51/118/9
f 51/118/9 53/1/10 54/103/10
f 56/123/11 54/121/10 53/120/10
f 53/120/10 55/122/11 56/123/11
f 58/127/12 56/125/11 55/124/11
f 55/124/11 57/126/12 58/127/12
f 60/131/13 58/129/12 57/128/12
f 57/128/12 59/130/13 60/131/13
f 62/131/14 60/129/13 59/128/13
f 59/128/13 61/130/14 62/131/14
f 64/127/15 62/125/14 61/124/14
f 61/124/14 63/126/15 64/127/15
f 66/123/16 64/121/15 63/120/15
f 63/120/15 65/122/16 66/123/16
f 36/103/1 66/119/16 65/118/16
f 65/118/16 35/1/1 36/103/1
f 71/4/2 69/2/1 68/1/1
f 68/1/1 70/3/2 71/4/2
f 73/8/3 71/6/2 70/5/2
f 70/5/2 72/7/3 73/8/3
f 75/12/4 73/10/3 72/9/3
f 72/9/3 74/11/4 75/12/4
f 77/16/5 75/14/4 74/13/4
f 74/13/4 76/15/5 77/16/5
f 79/16/6 77/14/5 76/13/5
f 76/13/5 78/15/6 79/16/6
f 81/18/7 79/17/6 78/9/6
f 78/9/6 80/11/7 81/18/7
f 83/20/8 81/19/7 80/5/7
f 80/5/7 82/7/8 83/20/8
f 85/4/9 83/2/8 82/1/8
f 82/1/8 84/3/9 85/4/9
f 87/2/10 85/22/9 84/21/9
f 84/21/9 86/1/10 87/2/10
f 89/26/11 87/24/10 86/23/10
f 86/23/10 88/25/11 89/26/11
f 91/30/12 89/28/11 88/27/11
f 88/27/11 90/29/12 91/30/12
f 93/34/13 91/32/12 90/31/12
f 90/31/12 92/33/13 93/34/13
f 95/34/14 93/32/13 92/31/13
f 92/31/13 94/33/14 95/34/14
f 97/36/15 95/35/14 94/27/14
f 94/27/14 96/29/15 97/36/15
f 99/38/16 97/37/15 96/23/15
f 96/23/15 98/25/16 99/38/16
f 69/2/1 99/22/16 98/21/16
f 98/21/16 68/1/1 69/2/1

