# ProBuilder 4.5.2
# https://unity3d.com/unity/features/worldbuilding/probuilder
# 2/6/2022 5:08:35 PM

mtllib ./ParCoreCurve2OneTrim.mtl
o ParCoreCurve2OneTrim

g Arch (2)
v 0 0 0
v 0.02141094 -0.6540313 2.553406E-06
v 0 -1.561642E-05 -4
v 0.02141094 -0.654047 -3.999998
v 2.017128 -0.5232251 2.042725E-06
v 2 0 0
v 2.017128 -0.5232407 -3.999998
v 2 -1.561642E-05 -4
v 0.08555126 -1.305262 5.095878E-06
v 0.08555126 -1.305277 -3.999995
v 2.068441 -1.04421 4.076703E-06
v 2.068441 -1.044225 -3.999996
v 0.1921473 -1.950903 7.616528E-06
v 0.1921473 -1.950919 -3.999992
v 2.153718 -1.560723 6.093223E-06
v 2.153718 -1.560738 -3.999994
v 0.3407421 -2.588191 1.010456E-05
v 0.3407421 -2.588206 -3.99999
v 2.272593 -2.070552 8.083652E-06
v 2.272593 -2.070568 -3.999992
v 0.5306988 -3.214395 1.254933E-05
v 0.5306988 -3.21441 -3.999988
v 2.424559 -2.571516 1.003946E-05
v 2.424559 -2.571531 -3.99999
v 0.7612047 -3.826835 1.494036E-05
v 0.7612047 -3.82685 -3.999985
v 2.608964 -3.061468 1.195229E-05
v 2.608964 -3.061483 -3.999988
v 1.031273 -4.422887 1.726741E-05
v 1.031273 -4.422902 -3.999983
v 2.825018 -3.53831 1.381393E-05
v 2.825018 -3.538325 -3.999986
v 1.339746 -5 1.952052E-05
v 1.339746 -5.000015 -3.99998
v 3.071797 -4 1.561642E-05
v 3.071797 -4.000015 -3.999984
v 1.685304 -5.555702 2.169004E-05
v 1.685304 -5.555717 -3.999979
v 3.348243 -4.444562 1.735203E-05
v 3.348243 -4.444577 -3.999983
v 2.066467 -6.087614 2.376668E-05
v 2.066467 -6.087629 -3.999976
v 3.653173 -4.870091 1.901334E-05
v 3.653173 -4.870107 -3.999981
v 2.481602 -6.593458 2.574154E-05
v 2.481602 -6.593473 -3.999974
v 3.985281 -5.274766 2.059324E-05
v 3.985281 -5.274782 -3.999979
v 2.928932 -7.071068 2.760618E-05
v 2.928932 -7.071083 -3.999972
v 4.343146 -5.656854 2.208495E-05
v 4.343146 -5.656869 -3.999978
v 3.406542 -7.518398 2.935261E-05
v 3.406542 -7.518414 -3.99997
v 4.725234 -6.014719 2.348209E-05
v 4.725234 -6.014734 -3.999977
v 3.912386 -7.933533 3.097334E-05
v 3.912386 -7.933548 -3.999969
v 5.129909 -6.346827 2.477867E-05
v 5.129909 -6.346842 -3.999975
v 4.444298 -8.314696 3.246144E-05
v 4.444298 -8.314712 -3.999968
v 5.555438 -6.651757 2.596915E-05
v 5.555438 -6.651772 -3.999974
v 5 -8.660254 3.381053E-05
v 5 -8.66027 -3.999966
v 6 -6.928204 2.704843E-05
v 6 -6.928219 -3.999973
v 5.577113 -8.968727 3.501484E-05
v 5.577113 -8.968742 -3.999965
v 6.461691 -7.174982 2.801187E-05
v 6.461691 -7.174997 -3.999972
v 6.173166 -9.238795 3.606921E-05
v 6.173166 -9.238811 -3.999964
v 6.938533 -7.391036 2.885537E-05
v 6.938533 -7.391051 -3.999971
v 6.785605 -9.469301 3.696913E-05
v 6.785605 -9.469316 -3.999963
v 7.428484 -7.575441 2.957531E-05
v 7.428484 -7.575456 -3.99997
v 7.411809 -9.659258 3.771075E-05
v 7.411809 -9.659273 -3.999962
v 7.929447 -7.727407 3.01686E-05
v 7.929447 -7.727422 -3.99997
v 8.049096 -9.807853 3.829088E-05
v 8.049096 -9.807868 -3.999962
v 8.439278 -7.846282 3.06327E-05
v 8.439278 -7.846297 -3.999969
v 8.694737 -9.914448 3.870703E-05
v 8.694737 -9.914463 -3.999961
v 8.95579 -7.931559 3.096563E-05
v 8.95579 -7.931574 -3.999969
v 9.345968 -9.978589 3.895745E-05
v 9.345968 -9.978604 -3.999961
v 9.476774 -7.982872 3.116596E-05
v 9.476774 -7.982887 -3.999969
v 10 -10 3.904104E-05
v 10 -10.00002 -3.999961
v 10 -8 3.123283E-05
v 10 -8.000015 -3.999969
v 10 -8.500011 -4.499989
v 9.444074 -8.48181 -4.499989
v 10 -8.500011 -3.999989
v 9.444074 -8.48181 -3.999989
v 9.476776 -7.982881 -4.499989
v 10 -8.000011 -4.499989
v 8.890528 -8.42729 -4.499989
v 8.890528 -8.42729 -3.999989
v 8.955791 -7.931568 -4.499989
v 8.341733 -8.336681 -4.499989
v 8.341733 -8.336681 -3.999989
v 8.43928 -7.846288 -4.499989
v 7.800039 -8.210375 -4.499989
v 7.800039 -8.210375 -3.999989
v 7.92945 -7.727412 -4.499989
v 7.267766 -8.04891 -4.499989
v 7.267766 -8.04891 -3.999989
v 7.428487 -7.575445 -4.499989
v 6.747192 -7.852978 -4.499989
v 6.747192 -7.852978 -3.999989
v 6.938536 -7.391038 -4.499989
v 6.240548 -7.623418 -4.499989
v 6.240548 -7.623418 -3.999989
v 6.461694 -7.174984 -4.499989
v 5.750003 -7.361215 -4.499989
v 5.750003 -7.361215 -3.999989
v 6.000004 -6.928203 -4.499989
v 5.277657 -7.067489 -4.499989
v 5.277657 -7.067489 -3.999989
v 5.555443 -6.651756 -4.499989
v 4.825533 -6.743499 -4.499989
v 4.825533 -6.743499 -3.999989
v 5.129914 -6.346824 -4.499989
v 4.395567 -6.390634 -4.499989
v 4.395567 -6.390634 -3.999989
v 4.725241 -6.014715 -4.499989
v 3.989599 -6.010402 -4.499989
v 3.989599 -6.010402 -3.999989
v 4.343154 -5.656849 -4.499989
v 3.609369 -5.604432 -4.499989
v 3.609369 -5.604432 -3.999989
v 3.985291 -5.274761 -4.499989
v 3.256506 -5.174465 -4.499989
v 3.256506 -5.174465 -3.999989
v 3.653183 -4.870085 -4.499989
v 2.932519 -4.722339 -4.499989
v 2.932519 -4.722339 -3.999989
v 3.348254 -4.444554 -4.499989
v 2.638795 -4.24999 -4.499989
v 2.638795 -4.24999 -3.999989
v 3.071809 -3.999992 -4.499989
v 3.071809 -3.999992 -3.999989
v 2.376595 -3.759444 -4.499989
v 2.376595 -3.759444 -3.999989
v 2.825031 -3.538301 -4.499989
v 2.147038 -3.252799 -4.499989
v 2.147038 -3.252799 -3.999989
v 2.608978 -3.061458 -4.499989
v 1.951109 -2.732224 -4.499989
v 1.951109 -2.732224 -3.999989
v 2.424576 -2.571506 -4.499989
v 1.789648 -2.199951 -4.499989
v 1.789648 -2.199951 -3.999989
v 2.272612 -2.070543 -4.499989
v 1.663343 -1.658256 -4.499989
v 1.663343 -1.658256 -3.999989
v 2.153737 -1.560713 -4.499989
v 1.572739 -1.109461 -4.499989
v 1.572739 -1.109461 -3.999989
v 2.068462 -1.044199 -4.499989
v 1.518221 -0.5559163 -4.499989
v 1.518221 -0.5559163 -3.999989
v 2.017151 -0.5232143 -4.499989
v 1.500023 1.192093E-05 -4.499989
v 1.500023 1.192093E-05 -3.999989
v 2.000023 1.096725E-05 -4.499989
v 2.000023 1.096725E-05 -3.999989

vt 10 0.9999999
vt 10 0.7499999
vt 8 0.9999998
vt 8 0.7499998
vt 5.25 0
vt 5 0
vt 5.25 2
vt 5 2
vt 10 0.4999999
vt 8 0.7500001
vt 8 0.5000001
vt 5.5 0
vt 5.5 2
vt 10 0.2499999
vt 8 0.25
vt 5.75 4.768372E-07
vt 5.75 2
vt 9.999999 0.2499999
vt 9.999999 -5.960464E-08
vt 8 8.940697E-08
vt 6 0
vt 6 2
vt 5.75 2
vt 7 -5.364418E-07
vt 6.75 -4.768372E-07
vt 7 0.9999995
vt 6.75 0.9999995
vt 7.25 -4.768372E-07
vt 7 -4.768372E-07
vt 7.25 0.9999995
vt 7 0.9999995
vt 6.5 -4.768372E-07
vt 6.5 0.9999995
vt 7.5 4.768372E-07
vt 7.5 1
vt 7.25 1
vt 6.25 2.980232E-08
vt 6.25 1
vt 7.75 0
vt 7.75 1
vt 6.25 0.9999995
vt 6 0.9999995
vt 8 4.768372E-07
vt 8 1
vt 2.980232E-08 1
vt 1 1
vt 0 2.980232E-08
vt 1 0

vn -0.9994646 -0.03271935 1.277397E-07
vn 0.9994646 0.0327188 -1.277376E-07
vn -0.9951848 -0.09801669 3.826674E-07
vn 0.9951848 0.09801705 -3.797477E-07
vn -0.9866433 -0.1628958 6.311075E-07
vn 0.9866433 0.1628963 -6.311095E-07
vn -0.9738769 -0.2270767 8.797636E-07
vn 0.973877 0.227076 -8.932959E-07
vn -0.9569404 -0.2902843 1.141951E-06
vn 0.9569403 0.2902848 -1.141953E-06
vn -0.9359061 -0.3522498 1.385718E-06
vn 0.9359059 0.35225 -1.385718E-06
vn -0.9108636 -0.4127076 1.623553E-06
vn 0.9108641 0.4127066 -1.623549E-06
vn -0.8819212 -0.471397 1.798237E-06
vn 0.8819211 0.4713972 -1.798238E-06
vn -0.8492026 -0.5280672 2.014416E-06
vn 0.8492022 0.5280678 -2.014419E-06
vn -0.8128464 -0.5824782 2.221978E-06
vn 0.8128466 0.5824778 -2.221977E-06
vn -0.773011 -0.6343927 2.420016E-06
vn 0.7730107 0.6343931 -2.420018E-06
vn -0.7298639 -0.6835925 2.607698E-06
vn 0.7298639 0.6835925 -2.607698E-06
vn -0.6835925 -0.7298639 2.78421E-06
vn 0.6835925 0.7298639 -2.78421E-06
vn -0.6343927 -0.7730109 2.948803E-06
vn 0.6343931 0.7730107 -2.948802E-06
vn -0.5824782 -0.8128464 3.100763E-06
vn 0.5824778 0.8128466 -3.100764E-06
vn -0.5280679 -0.8492022 3.239449E-06
vn 0.5280684 0.8492018 -3.239448E-06
vn -0.4713961 -0.8819216 3.364264E-06
vn 0.4713961 0.8819216 -3.364264E-06
vn -0.4127073 -0.9108637 3.474669E-06
vn 0.4127066 0.9108641 -3.474671E-06
vn -0.3522501 -0.9359059 3.570198E-06
vn 0.3522505 0.9359058 -3.570197E-06
vn -0.2902845 -0.9569404 3.650438E-06
vn 0.2902848 0.9569403 -3.650438E-06
vn -0.2270768 -0.9738769 3.715046E-06
vn 0.2270757 0.9738771 -3.715046E-06
vn -0.1628943 -0.9866435 3.763746E-06
vn 0.1628957 0.9866433 -3.763746E-06
vn -0.09801811 -0.9951847 3.796328E-06
vn 0.09801792 0.9951847 -3.796328E-06
vn -0.03271933 -0.9994646 3.812655E-06
vn 0.03271876 0.9994646 -3.812655E-06
vn 0 -3.645369E-06 -1
vn 2.273737E-14 3.904104E-06 1

usemtl bm_tile09_C
f 7/7/2 8/8/2 6/6/2 5/5/2
f 12/13/4 7/7/4 5/5/4 11/12/4
f 16/17/6 12/13/6 11/12/6 15/16/6
f 20/22/8 16/23/8 15/16/8 19/21/8
f 24/7/10 20/8/10 19/6/10 23/5/10
f 28/13/12 24/7/12 23/5/12 27/12/12
f 32/17/14 28/13/14 27/12/14 31/16/14
f 36/22/16 32/23/16 31/16/16 35/21/16
f 40/7/18 36/8/18 35/6/18 39/5/18
f 44/13/20 40/7/20 39/5/20 43/12/20
f 48/17/22 44/13/22 43/12/22 47/16/22
f 52/22/24 48/23/24 47/16/24 51/21/24
f 56/7/26 52/8/26 51/6/26 55/5/26
f 60/13/28 56/7/28 55/5/28 59/12/28
f 64/17/30 60/13/30 59/12/30 63/16/30
f 68/22/32 64/23/32 63/16/32 67/21/32
f 72/7/34 68/8/34 67/6/34 71/5/34
f 76/13/36 72/7/36 71/5/36 75/12/36
f 80/17/38 76/13/38 75/12/38 79/16/38
f 84/22/40 80/23/40 79/16/40 83/21/40
f 88/7/42 84/8/42 83/6/42 87/5/42
f 92/13/44 88/7/44 87/5/44 91/12/44
f 96/17/46 92/13/46 91/12/46 95/16/46
f 100/22/48 96/23/48 95/16/48 99/21/48

usemtl bm_grid_blank4
f 3/3/1 4/4/1 2/2/1 1/1/1
f 4/10/3 10/11/3 9/9/3 2/2/3
f 10/11/5 14/15/5 13/14/5 9/9/5
f 14/15/7 18/20/7 17/19/7 13/18/7
f 18/3/9 22/4/9 21/2/9 17/1/9
f 22/10/11 26/11/11 25/9/11 21/2/11
f 26/11/13 30/15/13 29/14/13 25/9/13
f 30/15/15 34/20/15 33/19/15 29/18/15
f 34/3/17 38/4/17 37/2/17 33/1/17
f 38/10/19 42/11/19 41/9/19 37/2/19
f 42/11/21 46/15/21 45/14/21 41/9/21
f 46/15/23 50/20/23 49/19/23 45/18/23
f 50/3/25 54/4/25 53/2/25 49/1/25
f 54/10/27 58/11/27 57/9/27 53/2/27
f 58/11/29 62/15/29 61/14/29 57/9/29
f 62/15/31 66/20/31 65/19/31 61/18/31
f 66/3/33 70/4/33 69/2/33 65/1/33
f 70/10/35 74/11/35 73/9/35 69/2/35
f 74/11/37 78/15/37 77/14/37 73/9/37
f 78/15/39 82/20/39 81/19/39 77/18/39
f 82/3/41 86/4/41 85/2/41 81/1/41
f 86/10/43 90/11/43 89/9/43 85/2/43
f 90/11/45 94/15/45 93/14/45 89/9/45
f 94/15/47 98/20/47 97/19/47 93/18/47
f 8/26/49 7/27/49 4/25/49 3/24/49
f 5/30/50 6/31/50 1/29/50 2/28/50
f 7/27/49 12/33/49 10/32/49 4/25/49
f 11/35/50 5/36/50 2/28/50 9/34/50
f 12/33/49 16/38/49 14/37/49 10/32/49
f 15/40/50 11/35/50 9/34/50 13/39/50
f 16/41/49 20/42/49 18/21/49 14/37/49
f 19/44/50 15/40/50 13/39/50 17/43/50
f 20/26/49 24/27/49 22/25/49 18/24/49
f 23/30/50 19/31/50 17/29/50 21/28/50
f 24/27/49 28/33/49 26/32/49 22/25/49
f 27/35/50 23/36/50 21/28/50 25/34/50
f 28/33/49 32/38/49 30/37/49 26/32/49
f 31/40/50 27/35/50 25/34/50 29/39/50
f 32/41/49 36/42/49 34/21/49 30/37/49
f 35/44/50 31/40/50 29/39/50 33/43/50
f 36/26/49 40/27/49 38/25/49 34/24/49
f 39/30/50 35/31/50 33/29/50 37/28/50
f 40/27/49 44/33/49 42/32/49 38/25/49
f 43/35/50 39/36/50 37/28/50 41/34/50
f 44/33/49 48/38/49 46/37/49 42/32/49
f 47/40/50 43/35/50 41/34/50 45/39/50
f 48/41/49 52/42/49 50/21/49 46/37/49
f 51/44/50 47/40/50 45/39/50 49/43/50
f 52/26/49 56/27/49 54/25/49 50/24/49
f 55/30/50 51/31/50 49/29/50 53/28/50
f 56/27/49 60/33/49 58/32/49 54/25/49
f 59/35/50 55/36/50 53/28/50 57/34/50
f 60/33/49 64/38/49 62/37/49 58/32/49
f 63/40/50 59/35/50 57/34/50 61/39/50
f 64/41/49 68/42/49 66/21/49 62/37/49
f 67/44/50 63/40/50 61/39/50 65/43/50
f 68/26/49 72/27/49 70/25/49 66/24/49
f 71/30/50 67/31/50 65/29/50 69/28/50
f 72/27/49 76/33/49 74/32/49 70/25/49
f 75/35/50 71/36/50 69/28/50 73/34/50
f 76/33/49 80/38/49 78/37/49 74/32/49
f 79/40/50 75/35/50 73/34/50 77/39/50
f 80/41/49 84/42/49 82/21/49 78/37/49
f 83/44/50 79/40/50 77/39/50 81/43/50
f 84/26/49 88/27/49 86/25/49 82/24/49
f 87/30/50 83/31/50 81/29/50 85/28/50
f 88/27/49 92/33/49 90/32/49 86/25/49
f 91/35/50 87/36/50 85/28/50 89/34/50
f 92/33/49 96/38/49 94/37/49 90/32/49
f 95/40/50 91/35/50 89/34/50 93/39/50
f 96/41/49 100/42/49 98/21/49 94/37/49
f 99/44/50 95/40/50 93/39/50 97/43/50

usemtl bm_edge_white
f 103/47/47 104/48/47 102/46/47 101/45/47
f 96/47/48 100/48/48 106/46/48 105/45/48
f 104/47/45 108/48/45 107/46/45 102/45/45
f 92/47/46 96/48/46 105/46/46 109/45/46
f 108/47/43 111/48/43 110/46/43 107/45/43
f 88/47/44 92/48/44 109/46/44 112/45/44
f 111/47/41 114/48/41 113/46/41 110/45/41
f 84/47/42 88/48/42 112/46/42 115/45/42
f 114/47/39 117/48/39 116/46/39 113/45/39
f 80/47/40 84/48/40 115/46/40 118/45/40
f 117/47/37 120/48/37 119/46/37 116/45/37
f 76/47/38 80/48/38 118/46/38 121/45/38
f 120/47/35 123/48/35 122/46/35 119/45/35
f 72/47/36 76/48/36 121/46/36 124/45/36
f 123/47/33 126/48/33 125/46/33 122/45/33
f 68/47/34 72/48/34 124/46/34 127/45/34
f 126/47/31 129/48/31 128/46/31 125/45/31
f 64/47/32 68/48/32 127/46/32 130/45/32
f 129/47/29 132/48/29 131/46/29 128/45/29
f 60/47/30 64/48/30 130/46/30 133/45/30
f 132/47/27 135/48/27 134/46/27 131/45/27
f 56/47/28 60/48/28 133/46/28 136/45/28
f 135/47/25 138/48/25 137/46/25 134/45/25
f 52/47/26 56/48/26 136/46/26 139/45/26
f 138/47/23 141/48/23 140/46/23 137/45/23
f 48/47/24 52/48/24 139/46/24 142/45/24
f 141/47/21 144/48/21 143/46/21 140/45/21
f 44/47/22 48/48/22 142/46/22 145/45/22
f 144/47/19 147/48/19 146/46/19 143/45/19
f 40/47/20 44/48/20 145/46/20 148/45/20
f 147/47/17 150/48/17 149/46/17 146/45/17
f 152/47/18 40/48/18 148/46/18 151/45/18
f 150/47/15 154/48/15 153/46/15 149/45/15
f 32/47/16 152/48/16 151/46/16 155/45/16
f 154/47/13 157/48/13 156/46/13 153/45/13
f 28/47/14 32/48/14 155/46/14 158/45/14
f 157/47/11 160/48/11 159/46/11 156/45/11
f 24/47/12 28/48/12 158/46/12 161/45/12
f 160/47/9 163/48/9 162/46/9 159/45/9
f 20/47/10 24/48/10 161/46/10 164/45/10
f 163/47/7 166/48/7 165/46/7 162/45/7
f 16/47/8 20/48/8 164/46/8 167/45/8
f 166/47/5 169/48/5 168/46/5 165/45/5
f 12/47/6 16/48/6 167/46/6 170/45/6
f 169/47/3 172/48/3 171/46/3 168/45/3
f 7/47/4 12/48/4 170/46/4 173/45/4
f 172/47/1 175/48/1 174/46/1 171/45/1
f 177/47/2 7/48/2 173/46/2 176/45/2
f 105/46/49 106/45/49 101/47/49 102/48/49
f 109/46/49 105/45/49 102/47/49 107/48/49
f 112/46/49 109/45/49 107/47/49 110/48/49
f 115/46/49 112/45/49 110/47/49 113/48/49
f 118/46/49 115/45/49 113/47/49 116/48/49
f 121/46/49 118/45/49 116/47/49 119/48/49
f 124/46/49 121/45/49 119/47/49 122/48/49
f 127/46/49 124/45/49 122/47/49 125/48/49
f 130/46/49 127/45/49 125/47/49 128/48/49
f 133/46/49 130/45/49 128/47/49 131/48/49
f 136/46/49 133/45/49 131/47/49 134/48/49
f 139/46/49 136/45/49 134/47/49 137/48/49
f 142/46/49 139/45/49 137/47/49 140/48/49
f 145/46/49 142/45/49 140/47/49 143/48/49
f 148/46/49 145/45/49 143/47/49 146/48/49
f 151/46/49 148/45/49 146/47/49 149/48/49
f 155/46/49 151/45/49 149/47/49 153/48/49
f 158/46/49 155/45/49 153/47/49 156/48/49
f 161/46/49 158/45/49 156/47/49 159/48/49
f 164/46/49 161/45/49 159/47/49 162/48/49
f 167/46/49 164/45/49 162/47/49 165/48/49
f 170/46/49 167/45/49 165/47/49 168/48/49
f 173/46/49 170/45/49 168/47/49 171/48/49
f 176/46/49 173/45/49 171/47/49 174/48/49

