# ProBuilder 4.5.2
# https://unity3d.com/unity/features/worldbuilding/probuilder
# 2/6/2022 2:41:55 PM

mtllib ./ParCoreCurve1.mtl
o ParCoreCurve1

g Arch (4)
v 0 0 0
v 5.888275E-08 0.03130096 -0.6371113
v -0.5 1.579523E-06 0
v -0.5 0.03130257 -0.6371113
v 1.633876E-06 0.5288932 -0.5881013
v 1.549721E-06 0.5 1.460314E-06
v -0.4999984 0.5288948 -0.5881013
v -0.4999985 0.5000015 1.430511E-06
v 3.118463E-07 0.1248996 -1.268087
v -0.4999997 0.1249012 -1.268087
v 1.837579E-06 0.6152921 -1.17054
v -0.4999982 0.6152936 -1.17054
v 7.518023E-07 0.279893 -1.88685
v -0.4999993 0.2798946 -1.88685
v 2.220767E-06 0.758363 -1.741706
v -0.4999978 0.7583646 -1.741706
v 1.371655E-06 0.4947906 -2.487441
v -0.4999986 0.4947922 -2.487441
v 2.843374E-06 0.9567299 -2.296098
v -0.4999971 0.9567316 -2.296098
v 2.201552E-06 0.7675202 -3.064076
v -0.4999978 0.7675219 -3.064076
v 3.526903E-06 1.208481 -2.828377
v -0.4999965 1.208482 -2.828377
v 3.122615E-06 1.095458 -3.611203
v -0.4999969 1.095459 -3.611203
v 4.450475E-06 1.511192 -3.333417
v -0.4999955 1.511193 -3.333417
v 4.28417E-06 1.475444 -4.123552
v -0.4999957 1.475445 -4.123552
v 5.495169E-06 1.861948 -3.806354
v -0.4999945 1.86195 -3.806354
v 5.567301E-06 1.90382 -4.596188
v -0.4999945 1.903821 -4.596188
v 6.661258E-06 2.257371 -4.242634
v -0.4999933 2.257373 -4.242634
v 7.091488E-06 2.376458 -5.02456
v -0.4999929 2.37646 -5.024561
v 8.0682E-06 2.693654 -4.638055
v -0.499992 2.693655 -4.638055
v 8.737769E-06 2.888809 -5.404544
v -0.4999912 2.888811 -5.404544
v 9.477805E-06 3.166593 -4.988809
v -0.4999905 3.166595 -4.988809
v 1.038715E-05 3.435937 -5.732478
v -0.4999896 3.435939 -5.732478
v 1.112869E-05 3.671634 -5.291517
v -0.4999889 3.671636 -5.291516
v 1.203983E-05 4.012575 -6.005205
v -0.499988 4.012577 -6.005205
v 1.25442E-05 4.203915 -5.543264
v -0.4999875 4.203917 -5.543264
v 1.393437E-05 4.613167 -6.220099
v -0.4999861 4.613168 -6.220099
v 1.443972E-05 4.758308 -5.741628
v -0.4999856 4.75831 -5.741628
v 1.583248E-05 5.231931 -6.375089
v -0.4999841 5.231932 -6.375089
v 1.633854E-05 5.329474 -5.884696
v -0.4999837 5.329475 -5.884696
v 1.773425E-05 5.862907 -6.468684
v -0.4999822 5.862909 -6.468684
v 1.776391E-05 5.911914 -5.971091
v -0.4999822 5.911915 -5.971091
v 1.963973E-05 6.500019 -6.499981
v -0.4999803 6.50002 -6.499981
v 1.966953E-05 6.500017 -5.999981
v -0.4999803 6.500019 -5.999981
v -6.5 5.066413E-07 -4.768372E-07
v -6.5 0.03130156 -0.6371121
v -7 1.728535E-06 -4.768372E-07
v -7 0.03130275 -0.6371121
v -6.499998 0.5288937 -0.5881009
v -6.499999 0.5000005 -4.768372E-07
v -6.999998 0.5288956 -0.5881009
v -6.999999 0.5000021 -4.768372E-07
v -6.5 0.1249 -1.268086
v -7 0.1249018 -1.268086
v -6.499998 0.6152925 -1.17054
v -6.999998 0.6152942 -1.17054
v -6.499999 0.2798933 -1.886848
v -6.999999 0.2798951 -1.886848
v -6.499998 0.7583634 -1.741707
v -6.999998 0.7583654 -1.741707
v -6.499999 0.494791 -2.487442
v -6.999999 0.4947927 -2.487442
v -6.499997 0.9567304 -2.296097
v -6.999997 0.9567323 -2.296097
v -6.499998 0.7675207 -3.064075
v -6.999998 0.7675226 -3.064076
v -6.499997 1.208481 -2.828377
v -6.999997 1.208483 -2.828377
v -6.499997 1.095458 -3.611203
v -6.999998 1.09546 -3.611202
v -6.499996 1.511192 -3.333417
v -6.999996 1.511194 -3.333417
v -6.499996 1.475444 -4.123551
v -6.999996 1.475446 -4.123551
v -6.499994 1.861948 -3.806355
v -6.999994 1.86195 -3.806355
v -6.499995 1.90382 -4.596187
v -6.999995 1.903821 -4.596187
v -6.499994 2.257371 -4.242634
v -6.999994 2.257373 -4.242634
v -6.499993 2.376458 -5.024559
v -6.999993 2.37646 -5.024559
v -6.499992 2.693654 -4.638054
v -6.999992 2.693655 -4.638054
v -6.499992 2.88881 -5.404545
v -6.999992 2.888811 -5.404545
v -6.499991 3.166593 -4.988808
v -6.999991 3.166595 -4.988808
v -6.49999 3.435937 -5.73248
v -6.99999 3.435939 -5.73248
v -6.49999 3.671635 -5.291516
v -6.99999 3.671636 -5.291516
v -6.499989 4.012575 -6.005204
v -6.999989 4.012577 -6.005204
v -6.499989 4.203916 -5.543266
v -6.999989 4.203917 -5.543266
v -6.499987 4.613166 -6.220101
v -6.999987 4.613168 -6.220101
v -6.499987 4.758308 -5.741627
v -6.999987 4.758309 -5.741627
v -6.499985 5.23193 -6.375088
v -6.999985 5.231932 -6.375088
v -6.499984 5.329474 -5.884697
v -6.999984 5.329475 -5.884697
v -6.499983 5.862907 -6.468685
v -6.999983 5.862909 -6.468685
v -6.499983 5.911914 -5.971092
v -6.999983 5.911916 -5.971092
v -6.499981 6.500019 -6.499981
v -6.999981 6.50002 -6.499981
v -6.499981 6.500017 -5.999981
v -6.999981 6.500019 -5.999981
v -0.4999999 -1.5 -7.718801E-06
v -0.4999999 -1.461475 -0.7841455
v -6.5 -1.499981 -8.106232E-06
v -6.5 -1.461456 -0.7841458
v -0.4999996 -1.346278 -1.56073
v -6.5 -1.346258 -1.56073
v -0.4999992 -1.155516 -2.322285
v -6.499999 -1.155497 -2.322285
v -0.4999984 -0.8910272 -3.061474
v -6.499998 -0.8910081 -3.061473
v -0.4999977 -0.5553601 -3.771179
v -6.499997 -0.5553405 -3.77118
v -0.4999965 -0.1517439 -4.444565
v -6.499997 -0.1517243 -4.444566
v -0.499995 0.3159299 -5.07515
v -6.499995 0.3159494 -5.07515
v -0.4999939 0.8431616 -5.656857
v -6.499994 0.8431811 -5.656857
v -0.4999917 1.424871 -6.184082
v -6.499992 1.424891 -6.184082
v -0.4999901 2.055457 -6.651752
v -6.49999 2.055477 -6.651753
v -0.4999883 2.728845 -7.055367
v -6.499989 2.728864 -7.055367
v -0.4999859 3.438552 -7.391029
v -6.499986 3.438572 -7.39103
v -0.4999838 4.177745 -7.655513
v -6.499984 4.177764 -7.655514
v -0.4999814 4.939299 -7.846272
v -6.499981 4.939318 -7.846272
v -0.499979 5.715886 -7.961463
v -6.499979 5.715904 -7.961464
v -0.4999771 6.500022 -7.999984
v -6.499977 6.500041 -7.999984

vt 0 0
vt 0 1
vt 1 0
vt 1 1
vt 1 0.9999999
vt -5 -2
vt -5 -1.750001
vt -2 -2
vt -2 -1.750001
vt -0.9999866 0.2499999
vt -0.9999866 -1.192093E-07
vt -3.999987 0.2500002
vt -3.999987 1.788139E-07
vt -5 -1.5
vt -2 -1.5
vt -1 0.4999999
vt -4 0.5000001
vt -5 -1.25
vt -2 -1.25
vt -0.9999866 0.7499999
vt -0.9999866 0.4999999
vt -3.999987 0.7500002
vt -3.999987 0.5000002
vt -4.999999 -1.25
vt -5 -0.9999999
vt -1.999999 -1.25
vt -2.000001 -1
vt -0.9999862 0.9999999
vt -3.999986 0.9999995
vt -3.999987 0.7499995
vt -4 -0.9999998
vt -4.25 -0.9999998
vt -4 1.788139E-07
vt -4.25 1.788139E-07
vt -3.75 -1.000001
vt -3.999999 -1.000001
vt -3.75 -9.536743E-07
vt -4.5 -0.9999998
vt -4.5 1.788139E-07
vt -3.5 -1.000001
vt -3.75 -1.000001
vt -3.5 -9.536743E-07
vt -3.75 -9.536743E-07
vt -4.75 -0.9999998
vt -4.75 1.788139E-07
vt -3.25 -1.000001
vt -3.25 -9.536743E-07
vt -5 1.788139E-07
vt -3 -0.9999995
vt -3.25 -1.000001
vt -3 4.768372E-07
vt -3.25 -9.536743E-07

vn -3.155241E-06 -0.9987953 -0.04907032
vn 3.095708E-06 0.9987953 0.04907038
vn -3.183812E-06 -0.989176 -0.146734
vn 3.065893E-06 0.989176 0.1467341
vn -3.006554E-06 -0.9700308 -0.2429823
vn 2.948622E-06 0.9700307 0.2429824
vn -2.918257E-06 -0.9415429 -0.3368932
vn 3.142739E-06 0.9415429 0.3368933
vn -3.017387E-06 -0.9039884 -0.4275569
vn 3.017387E-06 0.9039884 0.4275572
vn -2.862973E-06 -0.8577271 -0.5141054
vn 2.862974E-06 0.8577275 0.5141047
vn -2.965041E-06 -0.8032056 -0.5957019
vn 2.680988E-06 0.8032058 0.5957017
vn -2.119871E-06 -0.7409486 -0.6715617
vn 2.119872E-06 0.7409489 0.6715615
vn -1.92134E-06 -0.6715569 -0.7409529
vn 1.92134E-06 0.671557 0.7409528
vn -9.383037E-07 -0.5956973 -0.803209
vn 1.704303E-06 0.595697 0.8032092
vn -1.470854E-06 -0.5141007 -0.8577298
vn 2.288848E-06 0.5141004 0.85773
vn -1.223235E-06 -0.4275515 -0.903991
vn 1.223235E-06 0.4275516 0.9039909
vn -9.638463E-07 -0.3368887 -0.9415445
vn 9.638439E-07 0.3368879 0.9415448
vn -6.95161E-07 -0.2429764 -0.9700322
vn 6.95162E-07 0.2429767 0.9700321
vn -4.197926E-07 -0.1467282 -0.9891769
vn 4.197942E-07 0.1467287 0.9891768
vn -1.403746E-07 -0.04906445 -0.9987956
vn 1.40374E-07 0.04906428 0.9987956
vn 1 -3.159046E-06 -6.278091E-08
vn -1 2.861021E-06 1.405607E-07

usemtl bm_edge_white
f 3/3/1 4/4/1 2/2/1 1/1/1
f 7/2/2 8/1/2 6/3/2 5/4/2
f 4/3/3 10/4/3 9/2/3 2/1/3
f 12/2/4 7/1/4 5/3/4 11/4/4
f 10/3/5 14/4/5 13/2/5 9/1/5
f 16/2/6 12/1/6 11/3/6 15/4/6
f 14/3/7 18/4/7 17/2/7 13/1/7
f 20/2/8 16/1/8 15/3/8 19/4/8
f 18/3/9 22/4/9 21/2/9 17/1/9
f 24/2/10 20/1/10 19/3/10 23/4/10
f 22/3/11 26/4/11 25/2/11 21/1/11
f 28/2/12 24/1/12 23/3/12 27/4/12
f 26/3/13 30/4/13 29/2/13 25/1/13
f 32/2/14 28/1/14 27/3/14 31/4/14
f 30/3/15 34/4/15 33/2/15 29/1/15
f 36/2/16 32/1/16 31/3/16 35/4/16
f 34/3/17 38/4/17 37/2/17 33/1/17
f 40/2/18 36/1/18 35/3/18 39/4/18
f 38/3/19 42/4/19 41/2/19 37/1/19
f 44/2/20 40/1/20 39/3/20 43/4/20
f 42/3/21 46/4/21 45/2/21 41/1/21
f 48/2/22 44/1/22 43/3/22 47/4/22
f 46/3/23 50/4/23 49/2/23 45/1/23
f 52/2/24 48/1/24 47/3/24 51/4/24
f 50/3/25 54/4/25 53/2/25 49/1/25
f 56/2/26 52/1/26 51/3/26 55/4/26
f 54/3/27 58/4/27 57/2/27 53/1/27
f 60/2/28 56/1/28 55/3/28 59/4/28
f 58/3/29 62/4/29 61/2/29 57/1/29
f 64/2/30 60/1/30 59/3/30 63/4/30
f 62/3/31 66/4/31 65/2/31 61/1/31
f 68/2/32 64/1/32 63/3/32 67/4/32
f 5/4/33 6/2/33 1/1/33 2/3/33
f 11/4/33 5/2/33 2/1/33 9/3/33
f 15/4/33 11/2/33 9/1/33 13/3/33
f 19/4/33 15/2/33 13/1/33 17/3/33
f 23/4/33 19/2/33 17/1/33 21/3/33
f 27/4/33 23/2/33 21/1/33 25/3/33
f 31/4/33 27/2/33 25/1/33 29/3/33
f 35/4/33 31/2/33 29/1/33 33/3/33
f 39/4/33 35/2/33 33/1/33 37/3/33
f 43/4/33 39/2/33 37/1/33 41/3/33
f 47/4/33 43/2/33 41/1/33 45/3/33
f 51/4/33 47/2/33 45/1/33 49/3/33
f 55/4/33 51/2/33 49/1/33 53/3/33
f 59/4/33 55/2/33 53/1/33 57/3/33
f 63/4/33 59/2/33 57/1/33 61/3/33
f 67/4/33 63/2/33 61/1/33 65/3/33
f 71/3/1 72/4/1 70/2/1 69/1/1
f 75/2/2 76/1/2 74/3/2 73/5/2
f 72/3/3 78/4/3 77/2/3 70/1/3
f 80/2/4 75/1/4 73/3/4 79/5/4
f 78/3/5 82/4/5 81/2/5 77/1/5
f 84/2/6 80/1/6 79/3/6 83/5/6
f 82/3/7 86/4/7 85/2/7 81/1/7
f 88/2/8 84/1/8 83/3/8 87/5/8
f 86/3/9 90/4/9 89/2/9 85/1/9
f 92/2/10 88/1/10 87/3/10 91/5/10
f 90/3/11 94/4/11 93/2/11 89/1/11
f 96/2/12 92/1/12 91/3/12 95/5/12
f 94/3/13 98/4/13 97/2/13 93/1/13
f 100/2/14 96/1/14 95/3/14 99/5/14
f 98/3/15 102/4/15 101/2/15 97/1/15
f 104/2/16 100/1/16 99/3/16 103/5/16
f 102/3/17 106/4/17 105/2/17 101/1/17
f 108/2/18 104/1/18 103/3/18 107/5/18
f 106/3/19 110/4/19 109/2/19 105/1/19
f 112/2/20 108/1/20 107/3/20 111/5/20
f 110/3/21 114/4/21 113/2/21 109/1/21
f 116/2/22 112/1/22 111/3/22 115/5/22
f 114/3/23 118/4/23 117/2/23 113/1/23
f 120/2/24 116/1/24 115/3/24 119/5/24
f 118/3/25 122/4/25 121/2/25 117/1/25
f 124/2/26 120/1/26 119/3/26 123/5/26
f 122/3/27 126/4/27 125/2/27 121/1/27
f 128/2/28 124/1/28 123/3/28 127/5/28
f 126/3/29 130/4/29 129/2/29 125/1/29
f 132/2/30 128/1/30 127/3/30 131/5/30
f 130/3/31 134/4/31 133/2/31 129/1/31
f 136/2/32 132/1/32 131/3/32 135/5/32
f 76/4/34 75/2/34 72/1/34 71/3/34
f 75/4/34 80/2/34 78/1/34 72/3/34
f 80/4/34 84/2/34 82/1/34 78/3/34
f 84/4/34 88/2/34 86/1/34 82/3/34
f 88/4/34 92/2/34 90/1/34 86/3/34
f 92/4/34 96/2/34 94/1/34 90/3/34
f 96/4/34 100/2/34 98/1/34 94/3/34
f 100/4/34 104/2/34 102/1/34 98/3/34
f 104/4/34 108/2/34 106/1/34 102/3/34
f 108/4/34 112/2/34 110/1/34 106/3/34
f 112/4/34 116/2/34 114/1/34 110/3/34
f 116/4/34 120/2/34 118/1/34 114/3/34
f 120/4/34 124/2/34 122/1/34 118/3/34
f 124/4/34 128/2/34 126/1/34 122/3/34
f 128/4/34 132/2/34 130/1/34 126/3/34
f 132/4/34 136/2/34 134/1/34 130/3/34

usemtl bm_grid_blank4
f 139/8/1 140/9/1 138/7/1 137/6/1
f 140/9/3 142/15/3 141/14/3 138/7/3
f 142/15/5 144/19/5 143/18/5 141/14/5
f 144/26/7 146/27/7 145/25/7 143/24/7
f 146/8/9 148/9/9 147/7/9 145/6/9
f 148/9/11 150/15/11 149/14/11 147/7/11
f 150/15/13 152/19/13 151/18/13 149/14/13
f 152/26/15 154/27/15 153/25/15 151/24/15
f 154/8/17 156/9/17 155/7/17 153/6/17
f 156/9/19 158/15/19 157/14/19 155/7/19
f 158/15/21 160/19/21 159/18/21 157/14/21
f 160/26/23 162/27/23 161/25/23 159/24/23
f 162/8/25 164/9/25 163/7/25 161/6/25
f 164/9/27 166/15/27 165/14/27 163/7/27
f 166/15/29 168/19/29 167/18/29 165/14/29
f 168/26/31 170/27/31 169/25/31 167/24/31
f 74/33/34 73/34/34 140/32/34 139/31/34
f 7/37/33 8/13/33 137/36/33 138/35/33
f 73/34/34 79/39/34 142/38/34 140/32/34
f 12/42/33 7/43/33 138/41/33 141/40/33
f 79/39/34 83/45/34 144/44/34 142/38/34
f 16/47/33 12/42/33 141/40/33 143/46/33
f 83/45/34 87/48/34 146/25/34 144/44/34
f 20/51/33 16/52/33 143/50/33 145/49/33
f 87/33/34 91/34/34 148/32/34 146/31/34
f 24/37/33 20/13/33 145/36/33 147/35/33
f 91/34/34 95/39/34 150/38/34 148/32/34
f 28/42/33 24/43/33 147/41/33 149/40/33
f 95/39/34 99/45/34 152/44/34 150/38/34
f 32/47/33 28/42/33 149/40/33 151/46/33
f 99/45/34 103/48/34 154/25/34 152/44/34
f 36/51/33 32/52/33 151/50/33 153/49/33
f 103/33/34 107/34/34 156/32/34 154/31/34
f 40/37/33 36/13/33 153/36/33 155/35/33
f 107/34/34 111/39/34 158/38/34 156/32/34
f 44/42/33 40/43/33 155/41/33 157/40/33
f 111/39/34 115/45/34 160/44/34 158/38/34
f 48/47/33 44/42/33 157/40/33 159/46/33
f 115/45/34 119/48/34 162/25/34 160/44/34
f 52/51/33 48/52/33 159/50/33 161/49/33
f 119/33/34 123/34/34 164/32/34 162/31/34
f 56/37/33 52/13/33 161/36/33 163/35/33
f 123/34/34 127/39/34 166/38/34 164/32/34
f 60/42/33 56/43/33 163/41/33 165/40/33
f 127/39/34 131/45/34 168/44/34 166/38/34
f 64/47/33 60/42/33 165/40/33 167/46/33
f 131/45/34 135/48/34 170/25/34 168/44/34
f 68/51/33 64/52/33 167/50/33 169/49/33

usemtl bm_tile09_C
f 73/12/2 74/13/2 8/11/2 7/10/2
f 79/17/4 73/12/4 7/10/4 12/16/4
f 83/22/6 79/23/6 12/21/6 16/20/6
f 87/29/8 83/30/8 16/20/8 20/28/8
f 91/12/10 87/13/10 20/11/10 24/10/10
f 95/17/12 91/12/12 24/10/12 28/16/12
f 99/22/14 95/23/14 28/21/14 32/20/14
f 103/29/16 99/30/16 32/20/16 36/28/16
f 107/12/18 103/13/18 36/11/18 40/10/18
f 111/17/20 107/12/20 40/10/20 44/16/20
f 115/22/22 111/23/22 44/21/22 48/20/22
f 119/29/24 115/30/24 48/20/24 52/28/24
f 123/12/26 119/13/26 52/11/26 56/10/26
f 127/17/28 123/12/28 56/10/28 60/16/28
f 131/22/30 127/23/30 60/21/30 64/20/30
f 135/29/32 131/30/32 64/20/32 68/28/32

