# ProBuilder 4.5.2
# https://unity3d.com/unity/features/worldbuilding/probuilder
# 2/6/2022 5:55:27 PM

mtllib ./ParCoreCurve2HalfC.mtl
o ParCoreCurve2HalfC

g Arch (7)
v 0 0 0
v 5.304813E-06 0.01820052 -0.5559266
v -0.5000001 0 -4.768372E-06
v -0.4999948 0.01820052 -0.5559314
v 5.00679E-06 0.5171299 -0.5232237
v -1.307399E-11 0.5 1.370907E-06
v -0.4999951 0.5171299 -0.5232285
v -0.5000001 0.5 -3.397465E-06
v 1.060963E-05 0.07272172 -1.109473
v -0.4999894 0.07272172 -1.109477
v 1.001358E-05 0.5684438 -1.044208
v -0.49999 0.5684438 -1.044213
v 1.585484E-05 0.1633298 -1.658267
v -0.4999842 0.1633298 -1.658272
v 1.490116E-05 0.6537223 -1.560721
v -0.4999852 0.6537223 -1.560726
v 2.098083E-05 0.2896369 -2.199961
v -0.4999791 0.2896369 -2.199966
v 1.978874E-05 0.7725992 -2.07055
v -0.4999803 0.7725992 -2.070555
v 2.598763E-05 0.4511011 -2.732234
v -0.4999741 0.4511011 -2.732239
v 2.455711E-05 0.9245663 -2.571513
v -0.4999755 0.9245663 -2.571518
v 3.099442E-05 0.647033 -3.252808
v -0.4999691 0.647033 -3.252813
v 2.908707E-05 1.108972 -3.061465
v -0.499971 1.108972 -3.06147
v 3.576279E-05 0.8765922 -3.759452
v -0.4999643 0.8765922 -3.759457
v 3.385544E-05 1.325028 -3.538306
v -0.4999662 1.325028 -3.538311
v 4.053116E-05 1.138796 -4.249998
v -0.4999595 1.138796 -4.250002
v 3.814697E-05 1.571808 -3.999996
v -0.4999619 1.571808 -4.000001
v 4.482269E-05 1.432521 -4.722344
v -0.4999552 1.432521 -4.722349
v 4.243851E-05 1.848256 -4.444557
v -0.4999576 1.848256 -4.444562
v 4.911423E-05 1.756511 -5.174468
v -0.4999509 1.756511 -5.174473
v 4.62532E-05 2.153187 -4.870086
v -0.4999538 2.153187 -4.870091
v 5.340576E-05 2.109377 -5.604434
v -0.4999467 2.109377 -5.604439
v 5.00679E-05 2.485296 -5.27476
v -0.49995 2.485296 -5.274765
v 5.722046E-05 2.489609 -6.010402
v -0.4999428 2.489609 -6.010406
v 5.38826E-05 2.843162 -5.656847
v -0.4999462 2.843162 -5.656851
v -4.5 0 -4.291534E-05
v -4.499995 0.01820087 -0.5559692
v -5 0 -4.768372E-05
v -4.999995 0.01820087 -0.555974
v -4.499995 0.5171299 -0.5232668
v -4.5 0.5 -4.148483E-05
v -4.999995 0.5171299 -0.5232716
v -5 0.5 -4.62532E-05
v -4.49999 0.07272148 -1.109515
v -4.99999 0.07272148 -1.10952
v -4.49999 0.5684433 -1.044251
v -4.99999 0.5684433 -1.044256
v -4.499985 0.1633301 -1.65831
v -4.999985 0.1633301 -1.658315
v -4.499986 0.6537229 -1.560764
v -4.999986 0.6537229 -1.560769
v -4.499979 0.2896366 -2.200004
v -4.999979 0.2896366 -2.200009
v -4.499981 0.7725992 -2.070593
v -4.999981 0.7725992 -2.070598
v -4.499974 0.4511013 -2.732277
v -4.999974 0.4511013 -2.732282
v -4.499976 0.9245663 -2.571556
v -4.999976 0.9245663 -2.571561
v -4.499969 0.6470327 -3.252851
v -4.999969 0.6470327 -3.252856
v -4.499971 1.108973 -3.061508
v -4.999971 1.108973 -3.061512
v -4.499965 0.8765929 -3.759495
v -4.999965 0.8765929 -3.7595
v -4.499967 1.325027 -3.53835
v -4.999967 1.325027 -3.538354
v -4.49996 1.138796 -4.250041
v -4.99996 1.138796 -4.250045
v -4.499962 1.571808 -4.000039
v -4.999962 1.571808 -4.000044
v -4.499956 1.432522 -4.722387
v -4.999956 1.432522 -4.722392
v -4.499958 1.848255 -4.444601
v -4.999958 1.848255 -4.444605
v -4.499951 1.756512 -5.17451
v -4.999951 1.756512 -5.174515
v -4.499954 2.153187 -4.870129
v -4.999954 2.153187 -4.870134
v -4.499947 2.109377 -5.604476
v -4.999947 2.109377 -5.604481
v -4.49995 2.485296 -5.274803
v -4.99995 2.485296 -5.274807
v -4.499943 2.489609 -6.010445
v -4.999943 2.489609 -6.010449
v -4.499947 2.843162 -5.656889
v -4.999947 2.843162 -5.656894
v -4.499949 1.428944 -7.071112
v -4.499955 0.9816132 -6.593502
v -0.4999481 1.428929 -7.071074
v -0.4999562 0.9815979 -6.593464
v -4.499961 0.5664778 -6.087658
v -0.499961 0.5664625 -6.08762
v -4.499969 0.1853142 -5.555746
v -0.49997 0.1852989 -5.555707
v -4.499976 -0.160244 -5.000043
v -0.4999753 -0.1602592 -5.000005
v -4.499981 -0.4687157 -4.42293
v -0.499981 -0.4687309 -4.422892
v -4.499989 -0.7387848 -3.826878
v -0.4999865 -0.7388 -3.826839
v -4.499994 -0.9692898 -3.214438
v -0.499996 -0.969305 -3.2144
v -4.500002 -1.159246 -2.588234
v -0.500002 -1.159262 -2.588196
v -4.5 0.772604 -2.070596
v -4.500009 -1.307842 -1.950947
v -0.5000082 -1.307858 -1.950909
v -4.500005 0.6537286 -1.560766
v -0.5000042 0.6537133 -1.560727
v -4.500015 -1.414436 -1.305305
v -0.5000144 -1.414452 -1.305267
v -4.50001 0.5684528 -1.044253
v -0.5000091 0.5684376 -1.044215
v -4.500021 -1.478579 -0.6540747
v -0.5000205 -1.478594 -0.6540366
v -4.500014 0.5171394 -0.5232687
v -0.5000141 0.5171242 -0.5232306
v -4.500027 -1.499989 -4.291534E-05
v -0.5000268 -1.500004 -4.768372E-06
v -0.5000191 0.4999962 -4.768372E-06
v -0.4999443 3.019939 -5.833627
v 5.578995E-05 3.019939 -5.833622
v -0.4999409 2.666387 -6.187182
v 5.912781E-05 2.666387 -6.187178
v -5.000046 2.843162 -5.656893
v -5.000042 2.489609 -6.010448
v -5.000044 3.019939 -5.83367
v -5.000041 2.666387 -6.187224
v -4.500046 2.843162 -5.656888
v -4.500042 2.489609 -6.010443
v -4.500044 3.019939 -5.833665
v -4.500041 2.666387 -6.18722

vt -5.960464E-08 8.940697E-08
vt 2.980232E-08 1
vt 0.9999999 -5.960464E-08
vt 1 0.9999999
vt 1 -5.960464E-08
vt 1 1
vt 10 0.9999998
vt 10 0.7499998
vt 8 1
vt 8 0.75
vt 4 1.750001
vt 4 2.000001
vt 6 1.750001
vt 6 2.000001
vt 10 0.4999998
vt 8 0.5
vt 4 1.500001
vt 6 1.500001
vt 10 0.2499998
vt 8 0.25
vt 4 1.250001
vt 6 1.250001
vt 9.999999 0.2499998
vt 9.999999 -2.384186E-07
vt 8 -2.980232E-08
vt 4 1.000001
vt 6 1
vt 7 -5.364418E-07
vt 6.75 -4.768372E-07
vt 7 0.9999995
vt 6.75 0.9999995
vt 7.25 -4.768372E-07
vt 7 -4.768372E-07
vt 7.25 0.9999995
vt 7 0.9999995
vt 6.5 -4.768372E-07
vt 6.5 0.9999995
vt 7.5 4.768372E-07
vt 7.5 1
vt 7.25 1
vt 6.25 2.980232E-08
vt 6.25 1
vt 7.75 0
vt 7.75 1
vt 6 -4.172325E-07
vt 6.25 0.9999995
vt 6 0.9999995
vt 8 4.768372E-07
vt 8 1
vt 1.999999 1.000003
vt -9.536743E-07 0.9999971
vt 2.000001 2.861023E-06
vt 5.499998 4
vt 5.499998 5
vt 5.999997 4
vt 5.999997 5
vt 0 2
vt 0.5 0.9999999
vt 0.5 2
vt -6.499997 0.9999504
vt -6.499997 -4.959106E-05
vt -6.999997 0.9999504
vt -6.999997 -4.959106E-05
vt -1.989596 0.499999
vt -2.489596 0.499999
vt -1.989595 4.500098
vt -2.489594 4.500098
vt 5.999997 2.999901
vt 5.499998 2.999901
vt 5.999997 11.0001
vt 5.499996 11.0001
vt -6.500012 -9.918213E-05
vt -7.000012 -9.918213E-05
vt -6.500009 8.000099
vt -7.00001 8.000099
vt 3.000004 -1.500099
vt 2.000004 -1.500099
vt 3.000003 6.500099
vt 2.000004 6.500099
vt -1.989587 5.000099
vt -2.489586 5.000099
vt 6.000003 9.00005
vt 5.500001 9.00005
vt 6.000003 10.00005
vt 5.500001 10.00005
vt -6.500014 5
vt -7.000015 5
vt -6.500014 6
vt -7.000015 6
vt 2.999995 5.5
vt 1.999995 5.5
vt 2.999995 6.5
vt 1.999995 6.5

vn 3.120568E-07 -0.9994645 -0.03272153
vn -3.120568E-07 0.9994645 0.03272153
vn 9.347928E-07 -0.9951845 -0.09802014
vn -9.347892E-07 0.9951845 0.09801977
vn 1.553521E-06 -0.9866428 -0.1628985
vn -1.553526E-06 0.9866428 0.162899
vn 2.165595E-06 -0.9738763 -0.2270792
vn -2.165592E-06 0.9738764 0.2270788
vn 2.768386E-06 -0.9569398 -0.2902863
vn -2.768398E-06 0.9569395 0.2902876
vn 3.359345E-06 -0.9359049 -0.3522529
vn -3.359337E-06 0.9359052 0.3522521
vn 3.935906E-06 -0.9108626 -0.4127097
vn -3.935901E-06 0.9108629 0.4127092
vn 4.495611E-06 -0.88192 -0.4713991
vn -4.495615E-06 0.8819198 0.4713995
vn 5.036068E-06 -0.8492008 -0.5280701
vn -5.036073E-06 0.8492005 0.5280706
vn 5.554966E-06 -0.8128448 -0.5824804
vn -5.554957E-06 0.8128455 0.5824795
vn 6.050063E-06 -0.7730089 -0.6343951
vn -6.050067E-06 0.7730086 0.6343955
vn 6.519262E-06 -0.7298622 -0.6835943
vn -6.519268E-06 0.7298617 0.6835949
vn 1 -2.807514E-08 9.541371E-06
vn -1 2.699397E-11 -9.435078E-06
vn 9.440892E-06 0.7071069 -0.7071066
vn -6.743523E-06 0.7071039 0.7071096
vn 6.743523E-06 -0.7071039 -0.7071096
vn -6.574717E-06 -0.7071096 0.7071039

usemtl bm_edge_white
f 3/3/1 4/4/1 2/2/1 1/1/1
f 7/2/2 8/1/2 6/5/2 5/4/2
f 4/3/3 10/4/3 9/2/3 2/1/3
f 12/2/4 7/1/4 5/5/4 11/4/4
f 10/3/5 14/4/5 13/2/5 9/1/5
f 16/2/6 12/1/6 11/5/6 15/4/6
f 14/3/7 18/4/7 17/2/7 13/1/7
f 20/2/8 16/1/8 15/5/8 19/4/8
f 18/3/9 22/4/9 21/2/9 17/1/9
f 24/2/10 20/1/10 19/5/10 23/4/10
f 22/3/11 26/4/11 25/2/11 21/1/11
f 28/2/12 24/1/12 23/5/12 27/4/12
f 26/3/13 30/4/13 29/2/13 25/1/13
f 32/2/14 28/1/14 27/5/14 31/4/14
f 30/3/15 34/4/15 33/2/15 29/1/15
f 36/2/16 32/1/16 31/5/16 35/4/16
f 34/3/17 38/4/17 37/2/17 33/1/17
f 40/2/18 36/1/18 35/5/18 39/4/18
f 38/3/19 42/4/19 41/2/19 37/1/19
f 44/2/20 40/1/20 39/5/20 43/4/20
f 42/3/21 46/4/21 45/2/21 41/1/21
f 48/2/22 44/1/22 43/5/22 47/4/22
f 46/3/23 50/4/23 49/2/23 45/1/23
f 52/2/24 48/1/24 47/5/24 51/4/24
f 5/6/25 6/2/25 1/1/25 2/5/25
f 11/6/25 5/2/25 2/1/25 9/5/25
f 15/6/25 11/2/25 9/1/25 13/5/25
f 19/6/25 15/2/25 13/1/25 17/5/25
f 23/6/25 19/2/25 17/1/25 21/5/25
f 27/6/25 23/2/25 21/1/25 25/5/25
f 31/6/25 27/2/25 25/1/25 29/5/25
f 35/6/25 31/2/25 29/1/25 33/5/25
f 39/6/25 35/2/25 33/1/25 37/5/25
f 43/6/25 39/2/25 37/1/25 41/5/25
f 47/6/25 43/2/25 41/1/25 45/5/25
f 51/6/25 47/2/25 45/1/25 49/5/25
f 55/3/1 56/4/1 54/2/1 53/1/1
f 59/2/2 60/1/2 58/3/2 57/4/2
f 56/3/3 62/4/3 61/2/3 54/1/3
f 64/2/4 59/1/4 57/3/4 63/4/4
f 62/3/5 66/4/5 65/2/5 61/1/5
f 68/2/6 64/1/6 63/3/6 67/4/6
f 66/3/7 70/4/7 69/2/7 65/1/7
f 72/2/8 68/1/8 67/3/8 71/4/8
f 70/3/9 74/4/9 73/2/9 69/1/9
f 76/2/10 72/1/10 71/3/10 75/4/10
f 74/3/11 78/4/11 77/2/11 73/1/11
f 80/2/12 76/1/12 75/3/12 79/4/12
f 78/3/13 82/4/13 81/2/13 77/1/13
f 84/2/14 80/1/14 79/3/14 83/4/14
f 82/3/15 86/4/15 85/2/15 81/1/15
f 88/2/16 84/1/16 83/3/16 87/4/16
f 86/3/17 90/4/17 89/2/17 85/1/17
f 92/2/18 88/1/18 87/3/18 91/4/18
f 90/3/19 94/4/19 93/2/19 89/1/19
f 96/2/20 92/1/20 91/3/20 95/4/20
f 94/3/21 98/4/21 97/2/21 93/1/21
f 100/2/22 96/1/22 95/3/22 99/4/22
f 98/3/23 102/4/23 101/2/23 97/1/23
f 104/2/24 100/1/24 99/3/24 103/4/24
f 60/6/26 59/2/26 56/1/26 55/5/26
f 59/6/26 64/2/26 62/1/26 56/5/26
f 64/6/26 68/2/26 66/1/26 62/5/26
f 68/6/26 72/2/26 70/1/26 66/5/26
f 72/6/26 76/2/26 74/1/26 70/5/26
f 76/6/26 80/2/26 78/1/26 74/5/26
f 80/6/26 84/2/26 82/1/26 78/5/26
f 84/6/26 88/2/26 86/1/26 82/5/26
f 88/6/26 92/2/26 90/1/26 86/5/26
f 92/6/26 96/2/26 94/1/26 90/5/26
f 96/6/26 100/2/26 98/1/26 94/5/26
f 100/6/26 104/2/26 102/1/26 98/5/26

usemtl bm_grid_blank4
f 107/9/23 108/10/23 106/8/23 105/7/23
f 108/10/21 110/16/21 109/15/21 106/8/21
f 110/16/19 112/20/19 111/19/19 109/15/19
f 112/20/17 114/25/17 113/24/17 111/23/17
f 114/9/15 116/10/15 115/8/15 113/7/15
f 116/10/13 118/16/13 117/15/13 115/8/13
f 118/16/11 120/20/11 119/19/11 117/15/11
f 120/20/9 122/25/9 121/24/9 119/23/9
f 122/9/7 125/10/7 124/8/7 121/7/7
f 125/10/5 129/16/5 128/15/5 124/8/5
f 129/16/3 133/20/3 132/19/3 128/15/3
f 133/20/1 137/25/1 136/24/1 132/23/1
f 52/30/25 48/31/25 108/29/25 107/28/25
f 99/34/26 103/35/26 105/33/26 106/32/26
f 48/31/25 44/37/25 110/36/25 108/29/25
f 95/39/26 99/40/26 106/32/26 109/38/26
f 44/37/25 40/42/25 112/41/25 110/36/25
f 91/44/26 95/39/26 109/38/26 111/43/26
f 40/46/25 36/47/25 114/45/25 112/41/25
f 87/49/26 91/44/26 111/43/26 113/48/26
f 36/30/25 32/31/25 116/29/25 114/28/25
f 83/34/26 87/35/26 113/33/26 115/32/26
f 32/31/25 28/37/25 118/36/25 116/29/25
f 79/39/26 83/40/26 115/32/26 117/38/26
f 28/37/25 24/42/25 120/41/25 118/36/25
f 75/44/26 79/39/26 117/38/26 119/43/26
f 24/46/25 20/47/25 122/45/25 120/41/25
f 123/49/26 75/44/26 119/43/26 121/48/26
f 20/30/25 127/31/25 125/29/25 122/28/25
f 126/34/26 123/35/26 121/33/26 124/32/26
f 127/31/25 131/37/25 129/36/25 125/29/25
f 130/39/26 126/40/26 124/32/26 128/38/26
f 131/37/25 135/42/25 133/41/25 129/36/25
f 134/44/26 130/39/26 128/38/26 132/43/26
f 135/46/25 138/47/25 137/45/25 133/41/25
f 58/49/26 134/44/26 132/43/26 136/48/26
f 107/1/27 105/52/27 103/50/27 52/51/27

usemtl bm_tile09_C
f 48/13/24 52/14/24 103/12/24 99/11/24
f 44/18/22 48/13/22 99/11/22 95/17/22
f 40/22/20 44/18/20 95/17/20 91/21/20
f 36/27/18 40/22/18 91/21/18 87/26/18
f 32/13/16 36/14/16 87/12/16 83/11/16
f 28/18/14 32/13/14 83/11/14 79/17/14
f 24/22/12 28/18/12 79/17/12 75/21/12
f 20/27/10 24/22/10 75/21/10 123/26/10
f 127/13/8 20/14/8 123/12/8 126/11/8
f 131/18/6 127/13/6 126/11/6 130/17/6
f 135/22/4 131/18/4 130/17/4 134/21/4
f 138/27/2 135/22/2 134/21/2 58/26/2

usemtl bm_trim
f 142/1/27 141/5/27 139/6/27 140/2/27
f 101/1/27 102/5/27 104/6/27 103/2/27
f 140/55/28 139/56/28 52/54/28 51/53/28
f 145/58/26 146/59/26 144/57/26 143/51/26
f 141/62/29 142/63/29 49/61/29 50/60/29
f 142/58/25 140/59/25 51/57/25 49/51/25
f 147/66/30 148/67/30 50/65/30 52/64/30
f 149/70/28 147/71/28 52/69/28 139/68/28
f 148/74/29 150/75/29 141/73/29 50/72/29
f 150/78/27 149/79/27 139/77/27 141/76/27
f 143/80/30 144/81/30 148/67/30 147/66/30
f 145/84/28 143/85/28 147/83/28 149/82/28
f 144/88/29 146/89/29 150/87/29 148/86/29
f 146/92/27 145/93/27 149/91/27 150/90/27

