# ProBuilder 4.5.2
# https://unity3d.com/unity/features/worldbuilding/probuilder
# 2/6/2022 5:12:09 PM

mtllib ./ParCoreCurve2.mtl
o ParCoreCurve2

g Arch (5)
v 0 0 0
v -0.5559266 0.01820052 0
v 0 0 0.5
v -0.5559266 0.01820052 0.5
v -0.5232236 0.5171299 0
v 1.370907E-06 0.5 0
v -0.5232236 0.5171299 0.5
v 1.370907E-06 0.5 0.5
v -1.109473 0.07272172 0
v -1.109473 0.07272172 0.5
v -1.044208 0.5684438 0
v -1.044208 0.5684438 0.5
v -1.658267 0.1633298 0
v -1.658267 0.1633298 0.5
v -1.560721 0.6537223 0
v -1.560721 0.6537223 0.5
v -2.199961 0.2896369 0
v -2.199961 0.2896369 0.5
v -2.07055 0.7725992 0
v -2.07055 0.7725992 0.5
v -2.732234 0.4511011 0
v -2.732234 0.4511011 0.5
v -2.571513 0.9245663 0
v -2.571513 0.9245663 0.5
v -3.252808 0.647033 0
v -3.252808 0.647033 0.5
v -3.061465 1.108972 0
v -3.061465 1.108972 0.5
v -3.759452 0.8765922 0
v -3.759452 0.8765922 0.5
v -3.538306 1.325028 0
v -3.538306 1.325028 0.5
v -4.249997 1.138796 0
v -4.249997 1.138796 0.5
v -3.999996 1.571808 0
v -3.999996 1.571808 0.5
v -4.722343 1.432521 0
v -4.722343 1.432521 0.5
v -4.444557 1.848256 0
v -4.444557 1.848256 0.5
v -5.174468 1.756511 0
v -5.174468 1.756511 0.5
v -4.870086 2.153187 0
v -4.870086 2.153187 0.5
v -5.604434 2.109377 0
v -5.604434 2.109377 0.5
v -5.274759 2.485296 0
v -5.274759 2.485296 0.5
v -6.010401 2.489609 0
v -6.010401 2.489609 0.5
v -5.656846 2.843162 0
v -5.656846 2.843162 0.5
v -6.390631 2.895579 0
v -6.390631 2.895579 0.5
v -6.014709 3.22525 0
v -6.014709 3.22525 0.5
v -6.743494 3.325546 0
v -6.743494 3.325546 0.5
v -6.346817 3.629926 0
v -6.346817 3.629926 0.5
v -7.067481 3.777672 0
v -7.067481 3.777672 0.5
v -6.651746 4.055457 0
v -6.651746 4.055457 0.5
v -7.361205 4.250021 0
v -7.361205 4.250021 0.5
v -6.928191 4.500019 0
v -6.928191 4.500019 0.5
v -7.623405 4.740567 0
v -7.623405 4.740567 0.5
v -7.174968 4.96171 0
v -7.174968 4.96171 0.5
v -7.852962 5.247212 0
v -7.852962 5.247212 0.5
v -7.391021 5.438553 0
v -7.391021 5.438553 0.5
v -8.048891 5.767787 0
v -8.048891 5.767787 0.5
v -7.575425 5.928505 0
v -7.575425 5.928505 0.5
v -8.210352 6.30006 0
v -8.210352 6.30006 0.5
v -7.727389 6.429468 0
v -7.727389 6.429468 0.5
v -8.336657 6.841755 0
v -8.336657 6.841755 0.5
v -7.846263 6.939298 0
v -7.846263 6.939298 0.5
v -8.427261 7.39055 0
v -8.427261 7.39055 0.5
v -7.931538 7.455812 0
v -7.931538 7.455812 0.5
v -8.481779 7.944095 0
v -8.481779 7.944095 0.5
v -7.98285 7.976797 0
v -7.98285 7.976797 0.5
v -8.499977 8.500023 0
v -8.499977 8.500023 0.5
v -7.999977 8.500022 0
v -7.999977 8.500022 0.5
v 0 0 4.5
v -0.5559263 0.01820087 4.5
v 0 0 5
v -0.5559263 0.01820087 5
v -0.5232239 0.5171299 4.5
v 1.430511E-06 0.5 4.5
v -0.5232239 0.5171299 5
v 1.430511E-06 0.5 5
v -1.109472 0.07272148 4.5
v -1.109472 0.07272148 5
v -1.044208 0.5684433 4.5
v -1.044208 0.5684433 5
v -1.658267 0.1633301 4.5
v -1.658267 0.1633301 5
v -1.560721 0.6537229 4.5
v -1.560721 0.6537229 5
v -2.199961 0.2896366 4.5
v -2.199961 0.2896366 5
v -2.07055 0.7725992 4.5
v -2.07055 0.7725992 5
v -2.732234 0.4511013 4.5
v -2.732234 0.4511013 5
v -2.571513 0.9245663 4.5
v -2.571513 0.9245663 5
v -3.252808 0.6470327 4.5
v -3.252808 0.6470327 5
v -3.061464 1.108973 4.5
v -3.061464 1.108973 5
v -3.759452 0.8765929 4.5
v -3.759452 0.8765929 5
v -3.538306 1.325027 4.5
v -3.538306 1.325027 5
v -4.249997 1.138796 4.5
v -4.249997 1.138796 5
v -3.999996 1.571808 4.5
v -3.999996 1.571808 5
v -4.722343 1.432522 4.5
v -4.722343 1.432522 5
v -4.444557 1.848255 4.5
v -4.444557 1.848255 5
v -5.174467 1.756512 4.5
v -5.174467 1.756512 5
v -4.870086 2.153187 4.5
v -4.870086 2.153187 5
v -5.604433 2.109377 4.5
v -5.604433 2.109377 5
v -5.274759 2.485296 4.5
v -5.274759 2.485296 5
v -6.010401 2.489609 4.5
v -6.010401 2.489609 5
v -5.656846 2.843162 4.5
v -5.656846 2.843162 5
v -6.390631 2.895579 4.5
v -6.390631 2.895579 5
v -6.014709 3.225251 4.5
v -6.014709 3.225251 5
v -6.743494 3.325546 4.5
v -6.743494 3.325546 5
v -6.346817 3.629926 4.5
v -6.346817 3.629926 5
v -7.067481 3.777672 4.5
v -7.067481 3.777672 5
v -6.651746 4.055456 4.5
v -6.651746 4.055456 5
v -7.361205 4.250021 4.5
v -7.361205 4.250021 5
v -6.928191 4.500019 4.5
v -6.928191 4.500019 5
v -7.623405 4.740567 4.5
v -7.623405 4.740567 5
v -7.174968 4.96171 4.5
v -7.174968 4.96171 5
v -7.852962 5.247211 4.5
v -7.852962 5.247211 5
v -7.391022 5.438552 4.5
v -7.391022 5.438552 5
v -8.048891 5.767787 4.5
v -8.048891 5.767787 5
v -7.575424 5.928505 4.5
v -7.575424 5.928505 5
v -8.210352 6.30006 4.5
v -8.210352 6.30006 5
v -7.727388 6.429468 4.5
v -7.727388 6.429468 5
v -8.336657 6.841755 4.5
v -8.336657 6.841755 5
v -7.846262 6.939299 4.5
v -7.846262 6.939299 5
v -8.427261 7.39055 4.5
v -8.427261 7.39055 5
v -7.931538 7.455812 4.5
v -7.931538 7.455812 5
v -8.481778 7.944096 4.5
v -8.481778 7.944096 5
v -7.98285 7.976797 4.5
v -7.98285 7.976797 5
v -8.499977 8.500023 4.5
v -8.499977 8.500023 5
v -7.999978 8.500021 4.5
v -7.999978 8.500021 5
v -10 8.500012 4.499989
v -9.97859 7.845979 4.49999
v -10 8.499996 0.4999886
v -9.978588 7.845964 0.4999924
v -7.982872 7.976786 4.49999
v -8 8.50001 4.499989
v -7.982872 7.97677 0.4999924
v -8.000001 8.499994 0.4999886
v -9.91445 7.194749 4.499994
v -9.91445 7.194734 0.4999924
v -7.931558 7.455801 4.499992
v -7.931559 7.455785 0.4999924
v -9.807853 6.549109 4.499996
v -9.807853 6.549093 0.4999962
v -7.846282 6.939289 4.499994
v -7.846282 6.939273 0.4999962
v -9.659258 5.91182 4.499998
v -9.659257 5.911804 0.5
v -7.727407 6.429459 4.499996
v -7.727406 6.429442 0.4999962
v -9.4693 5.285617 4.500002
v -9.469301 5.285601 0.5
v -7.575441 5.928495 4.499998
v -7.575442 5.92848 0.5
v -9.238796 4.673176 4.500004
v -9.238794 4.673161 0.5000038
v -8.968727 4.077125 4.500006
v -8.968727 4.077109 0.5000076
v -8.660254 3.50001 4.500008
v -8.660254 3.499995 0.5000076
v -6.928204 4.499996 0.5000038
v -8.314695 2.944308 4.50001
v -8.314695 2.944293 0.5000114
v -7.933533 2.412397 4.500011
v -7.933533 2.412382 0.5000114
v -7.518398 1.906553 4.500013
v -7.518398 1.906538 0.5000153
v -7.071068 1.428944 4.500015
v -7.071068 1.428929 0.5000153
v -6.593458 0.9816132 4.500017
v -6.593458 0.9815979 0.5000191
v -6.087614 0.5664778 4.500019
v -6.087614 0.5664625 0.5000191
v -5.555702 0.1853142 4.500021
v -5.555702 0.1852989 0.5000229
v -5 -0.160244 4.500023
v -5 -0.1602592 0.5000229
v -4 1.571808 4.500015
v -4 1.571793 0.5000153
v -4.422887 -0.4687157 4.500023
v -4.422887 -0.4687309 0.5000229
v -3.826834 -0.7387848 4.500025
v -3.826834 -0.7388 0.5000229
v -3.214395 -0.9692898 4.500025
v -3.214395 -0.969305 0.5000267
v -2.588191 -1.159246 4.500027
v -2.588191 -1.159262 0.5000267
v -1.950904 -1.307842 4.500027
v -1.950904 -1.307858 0.5000267
v -1.305263 -1.414436 4.500027
v -1.305263 -1.414452 0.5000267
v -0.6540318 -1.478579 4.500027
v -0.6540318 -1.478594 0.5000267
v 0 -1.499989 4.500027
v 0 -1.500004 0.5000267
v 0 0.4999962 0.5000191

vt 2.980232E-08 1
vt 1 1
vt 0 2.980232E-08
vt 1 0
vt 10 0.9999999
vt 10 0.7499999
vt 8 0.9999998
vt 8 0.7499998
vt 5.25 0
vt 5 0
vt 5.25 2
vt 5 2
vt 10 0.4999999
vt 8 0.7500001
vt 8 0.5000001
vt 5.5 0
vt 5.5 2
vt 10 0.2499999
vt 8 0.25
vt 5.75 4.768372E-07
vt 5.75 2
vt 9.999999 0.2499999
vt 9.999999 -5.960464E-08
vt 8 8.940697E-08
vt 6 0
vt 6 2
vt 5.75 2
vt 7 -5.364418E-07
vt 6.75 -4.768372E-07
vt 7 0.9999995
vt 6.75 0.9999995
vt 7.25 -4.768372E-07
vt 7 -4.768372E-07
vt 7.25 0.9999995
vt 7 0.9999995
vt 6.5 -4.768372E-07
vt 6.5 0.9999995
vt 7.5 4.768372E-07
vt 7.5 1
vt 7.25 1
vt 6.25 2.980232E-08
vt 6.25 1
vt 7.75 0
vt 7.75 1
vt 6.25 0.9999995
vt 6 0.9999995
vt 8 4.768372E-07
vt 8 1

vn -0.03272153 -0.9994645 0
vn 0.03272153 0.9994645 0
vn -0.09802014 -0.9951845 0
vn 0.09801978 0.9951845 0
vn -0.1628985 -0.9866428 0
vn 0.162899 0.9866428 0
vn -0.2270792 -0.9738763 0
vn 0.2270788 0.9738764 0
vn -0.2902864 -0.9569398 0
vn 0.2902876 0.9569395 0
vn -0.352253 -0.9359049 0
vn 0.3522522 0.935905 0
vn -0.4127097 -0.9108626 0
vn 0.4127091 0.9108629 0
vn -0.4713991 -0.88192 0
vn 0.4713995 0.8819198 0
vn -0.5280701 -0.8492008 0
vn 0.5280706 0.8492005 0
vn -0.5824804 -0.8128447 0
vn 0.5824795 0.8128455 0
vn -0.6343952 -0.7730089 0
vn 0.6343955 0.7730086 0
vn -0.6835947 -0.7298618 0
vn 0.6835949 0.7298617 0
vn -0.729866 -0.6835904 0
vn 0.7298657 0.6835907 0
vn -0.7730121 -0.6343914 0
vn 0.7730119 0.6343915 0
vn -0.8128483 -0.5824754 0
vn 0.8128484 0.5824754 0
vn -0.8492032 -0.5280663 0
vn 0.8492033 0.528066 0
vn -0.8819227 -0.4713942 0
vn 0.881923 0.4713936 0
vn -0.9108651 -0.4127043 0
vn 0.9108649 0.4127047 0
vn -0.9359065 -0.3522484 0
vn 0.9359069 0.3522473 0
vn -0.9569416 -0.2902806 0
vn 0.956941 0.2902826 0
vn -0.9738774 -0.2270748 0
vn 0.9738776 0.2270733 0
vn -0.9866438 -0.1628927 0
vn 0.9866438 0.1628926 0
vn -0.995185 -0.09801415 0
vn 0.9951849 0.09801512 0
vn -0.9994646 -0.03271694 0
vn 0.9994646 0.03271697 0
vn 0 0 -1
vn 0 0 1

usemtl bm_edge_white
f 3/3/1 4/4/1 2/2/1 1/1/1
f 7/3/2 8/4/2 6/2/2 5/1/2
f 4/3/3 10/4/3 9/2/3 2/1/3
f 12/3/4 7/4/4 5/2/4 11/1/4
f 10/3/5 14/4/5 13/2/5 9/1/5
f 16/3/6 12/4/6 11/2/6 15/1/6
f 14/3/7 18/4/7 17/2/7 13/1/7
f 20/3/8 16/4/8 15/2/8 19/1/8
f 18/3/9 22/4/9 21/2/9 17/1/9
f 24/3/10 20/4/10 19/2/10 23/1/10
f 22/3/11 26/4/11 25/2/11 21/1/11
f 28/3/12 24/4/12 23/2/12 27/1/12
f 26/3/13 30/4/13 29/2/13 25/1/13
f 32/3/14 28/4/14 27/2/14 31/1/14
f 30/3/15 34/4/15 33/2/15 29/1/15
f 36/3/16 32/4/16 31/2/16 35/1/16
f 34/3/17 38/4/17 37/2/17 33/1/17
f 40/3/18 36/4/18 35/2/18 39/1/18
f 38/3/19 42/4/19 41/2/19 37/1/19
f 44/3/20 40/4/20 39/2/20 43/1/20
f 42/3/21 46/4/21 45/2/21 41/1/21
f 48/3/22 44/4/22 43/2/22 47/1/22
f 46/3/23 50/4/23 49/2/23 45/1/23
f 52/3/24 48/4/24 47/2/24 51/1/24
f 50/3/25 54/4/25 53/2/25 49/1/25
f 56/3/26 52/4/26 51/2/26 55/1/26
f 54/3/27 58/4/27 57/2/27 53/1/27
f 60/3/28 56/4/28 55/2/28 59/1/28
f 58/3/29 62/4/29 61/2/29 57/1/29
f 64/3/30 60/4/30 59/2/30 63/1/30
f 62/3/31 66/4/31 65/2/31 61/1/31
f 68/3/32 64/4/32 63/2/32 67/1/32
f 66/3/33 70/4/33 69/2/33 65/1/33
f 72/3/34 68/4/34 67/2/34 71/1/34
f 70/3/35 74/4/35 73/2/35 69/1/35
f 76/3/36 72/4/36 71/2/36 75/1/36
f 74/3/37 78/4/37 77/2/37 73/1/37
f 80/3/38 76/4/38 75/2/38 79/1/38
f 78/3/39 82/4/39 81/2/39 77/1/39
f 84/3/40 80/4/40 79/2/40 83/1/40
f 82/3/41 86/4/41 85/2/41 81/1/41
f 88/3/42 84/4/42 83/2/42 87/1/42
f 86/3/43 90/4/43 89/2/43 85/1/43
f 92/3/44 88/4/44 87/2/44 91/1/44
f 90/3/45 94/4/45 93/2/45 89/1/45
f 96/3/46 92/4/46 91/2/46 95/1/46
f 94/3/47 98/4/47 97/2/47 93/1/47
f 100/3/48 96/4/48 95/2/48 99/1/48
f 5/2/49 6/1/49 1/3/49 2/4/49
f 11/2/49 5/1/49 2/3/49 9/4/49
f 15/2/49 11/1/49 9/3/49 13/4/49
f 19/2/49 15/1/49 13/3/49 17/4/49
f 23/2/49 19/1/49 17/3/49 21/4/49
f 27/2/49 23/1/49 21/3/49 25/4/49
f 31/2/49 27/1/49 25/3/49 29/4/49
f 35/2/49 31/1/49 29/3/49 33/4/49
f 39/2/49 35/1/49 33/3/49 37/4/49
f 43/2/49 39/1/49 37/3/49 41/4/49
f 47/2/49 43/1/49 41/3/49 45/4/49
f 51/2/49 47/1/49 45/3/49 49/4/49
f 55/2/49 51/1/49 49/3/49 53/4/49
f 59/2/49 55/1/49 53/3/49 57/4/49
f 63/2/49 59/1/49 57/3/49 61/4/49
f 67/2/49 63/1/49 61/3/49 65/4/49
f 71/2/49 67/1/49 65/3/49 69/4/49
f 75/2/49 71/1/49 69/3/49 73/4/49
f 79/2/49 75/1/49 73/3/49 77/4/49
f 83/2/49 79/1/49 77/3/49 81/4/49
f 87/2/49 83/1/49 81/3/49 85/4/49
f 91/2/49 87/1/49 85/3/49 89/4/49
f 95/2/49 91/1/49 89/3/49 93/4/49
f 99/2/49 95/1/49 93/3/49 97/4/49
f 103/3/1 104/4/1 102/2/1 101/1/1
f 107/3/2 108/4/2 106/2/2 105/1/2
f 104/3/3 110/4/3 109/2/3 102/1/3
f 112/3/4 107/4/4 105/2/4 111/1/4
f 110/3/5 114/4/5 113/2/5 109/1/5
f 116/3/6 112/4/6 111/2/6 115/1/6
f 114/3/7 118/4/7 117/2/7 113/1/7
f 120/3/8 116/4/8 115/2/8 119/1/8
f 118/3/9 122/4/9 121/2/9 117/1/9
f 124/3/10 120/4/10 119/2/10 123/1/10
f 122/3/11 126/4/11 125/2/11 121/1/11
f 128/3/12 124/4/12 123/2/12 127/1/12
f 126/3/13 130/4/13 129/2/13 125/1/13
f 132/3/14 128/4/14 127/2/14 131/1/14
f 130/3/15 134/4/15 133/2/15 129/1/15
f 136/3/16 132/4/16 131/2/16 135/1/16
f 134/3/17 138/4/17 137/2/17 133/1/17
f 140/3/18 136/4/18 135/2/18 139/1/18
f 138/3/19 142/4/19 141/2/19 137/1/19
f 144/3/20 140/4/20 139/2/20 143/1/20
f 142/3/21 146/4/21 145/2/21 141/1/21
f 148/3/22 144/4/22 143/2/22 147/1/22
f 146/3/23 150/4/23 149/2/23 145/1/23
f 152/3/24 148/4/24 147/2/24 151/1/24
f 150/3/25 154/4/25 153/2/25 149/1/25
f 156/3/26 152/4/26 151/2/26 155/1/26
f 154/3/27 158/4/27 157/2/27 153/1/27
f 160/3/28 156/4/28 155/2/28 159/1/28
f 158/3/29 162/4/29 161/2/29 157/1/29
f 164/3/30 160/4/30 159/2/30 163/1/30
f 162/3/31 166/4/31 165/2/31 161/1/31
f 168/3/32 164/4/32 163/2/32 167/1/32
f 166/3/33 170/4/33 169/2/33 165/1/33
f 172/3/34 168/4/34 167/2/34 171/1/34
f 170/3/35 174/4/35 173/2/35 169/1/35
f 176/3/36 172/4/36 171/2/36 175/1/36
f 174/3/37 178/4/37 177/2/37 173/1/37
f 180/3/38 176/4/38 175/2/38 179/1/38
f 178/3/39 182/4/39 181/2/39 177/1/39
f 184/3/40 180/4/40 179/2/40 183/1/40
f 182/3/41 186/4/41 185/2/41 181/1/41
f 188/3/42 184/4/42 183/2/42 187/1/42
f 186/3/43 190/4/43 189/2/43 185/1/43
f 192/3/44 188/4/44 187/2/44 191/1/44
f 190/3/45 194/4/45 193/2/45 189/1/45
f 196/3/46 192/4/46 191/2/46 195/1/46
f 194/3/47 198/4/47 197/2/47 193/1/47
f 200/3/48 196/4/48 195/2/48 199/1/48
f 108/2/50 107/1/50 104/3/50 103/4/50
f 107/2/50 112/1/50 110/3/50 104/4/50
f 112/2/50 116/1/50 114/3/50 110/4/50
f 116/2/50 120/1/50 118/3/50 114/4/50
f 120/2/50 124/1/50 122/3/50 118/4/50
f 124/2/50 128/1/50 126/3/50 122/4/50
f 128/2/50 132/1/50 130/3/50 126/4/50
f 132/2/50 136/1/50 134/3/50 130/4/50
f 136/2/50 140/1/50 138/3/50 134/4/50
f 140/2/50 144/1/50 142/3/50 138/4/50
f 144/2/50 148/1/50 146/3/50 142/4/50
f 148/2/50 152/1/50 150/3/50 146/4/50
f 152/2/50 156/1/50 154/3/50 150/4/50
f 156/2/50 160/1/50 158/3/50 154/4/50
f 160/2/50 164/1/50 162/3/50 158/4/50
f 164/2/50 168/1/50 166/3/50 162/4/50
f 168/2/50 172/1/50 170/3/50 166/4/50
f 172/2/50 176/1/50 174/3/50 170/4/50
f 176/2/50 180/1/50 178/3/50 174/4/50
f 180/2/50 184/1/50 182/3/50 178/4/50
f 184/2/50 188/1/50 186/3/50 182/4/50
f 188/2/50 192/1/50 190/3/50 186/4/50
f 192/2/50 196/1/50 194/3/50 190/4/50
f 196/2/50 200/1/50 198/3/50 194/4/50

usemtl bm_grid_blank4
f 203/7/47 204/8/47 202/6/47 201/5/47
f 204/14/45 210/15/45 209/13/45 202/6/45
f 210/15/43 214/19/43 213/18/43 209/13/43
f 214/19/41 218/24/41 217/23/41 213/22/41
f 218/7/39 222/8/39 221/6/39 217/5/39
f 222/14/37 226/15/37 225/13/37 221/6/37
f 226/15/35 228/19/35 227/18/35 225/13/35
f 228/19/33 230/24/33 229/23/33 227/22/33
f 230/7/31 233/8/31 232/6/31 229/5/31
f 233/14/29 235/15/29 234/13/29 232/6/29
f 235/15/27 237/19/27 236/18/27 234/13/27
f 237/19/25 239/24/25 238/23/25 236/22/25
f 239/7/23 241/8/23 240/6/23 238/5/23
f 241/14/21 243/15/21 242/13/21 240/6/21
f 243/15/19 245/19/19 244/18/19 242/13/19
f 245/19/17 247/24/17 246/23/17 244/22/17
f 247/7/15 251/8/15 250/6/15 246/5/15
f 251/14/13 253/15/13 252/13/13 250/6/13
f 253/15/11 255/19/11 254/18/11 252/13/11
f 255/19/9 257/24/9 256/23/9 254/22/9
f 257/7/7 259/8/7 258/6/7 256/5/7
f 259/14/5 261/15/5 260/13/5 258/6/5
f 261/15/3 263/19/3 262/18/3 260/13/3
f 263/19/1 265/24/1 264/23/1 262/22/1
f 208/30/49 207/31/49 204/29/49 203/28/49
f 205/34/50 206/35/50 201/33/50 202/32/50
f 207/31/49 212/37/49 210/36/49 204/29/49
f 211/39/50 205/40/50 202/32/50 209/38/50
f 212/37/49 216/42/49 214/41/49 210/36/49
f 215/44/50 211/39/50 209/38/50 213/43/50
f 216/45/49 220/46/49 218/25/49 214/41/49
f 219/48/50 215/44/50 213/43/50 217/47/50
f 220/30/49 224/31/49 222/29/49 218/28/49
f 223/34/50 219/35/50 217/33/50 221/32/50
f 224/31/49 76/37/49 226/36/49 222/29/49
f 175/39/50 223/40/50 221/32/50 225/38/50
f 76/37/49 72/42/49 228/41/49 226/36/49
f 171/44/50 175/39/50 225/38/50 227/43/50
f 72/45/49 231/46/49 230/25/49 228/41/49
f 167/48/50 171/44/50 227/43/50 229/47/50
f 231/30/49 64/31/49 233/29/49 230/28/49
f 163/34/50 167/35/50 229/33/50 232/32/50
f 64/31/49 60/37/49 235/36/49 233/29/49
f 159/39/50 163/40/50 232/32/50 234/38/50
f 60/37/49 56/42/49 237/41/49 235/36/49
f 155/44/50 159/39/50 234/38/50 236/43/50
f 56/45/49 52/46/49 239/25/49 237/41/49
f 151/48/50 155/44/50 236/43/50 238/47/50
f 52/30/49 48/31/49 241/29/49 239/28/49
f 147/34/50 151/35/50 238/33/50 240/32/50
f 48/31/49 44/37/49 243/36/49 241/29/49
f 143/39/50 147/40/50 240/32/50 242/38/50
f 44/37/49 40/42/49 245/41/49 243/36/49
f 139/44/50 143/39/50 242/38/50 244/43/50
f 40/45/49 249/46/49 247/25/49 245/41/49
f 248/48/50 139/44/50 244/43/50 246/47/50
f 249/30/49 32/31/49 251/29/49 247/28/49
f 131/34/50 248/35/50 246/33/50 250/32/50
f 32/31/49 28/37/49 253/36/49 251/29/49
f 127/39/50 131/40/50 250/32/50 252/38/50
f 28/37/49 24/42/49 255/41/49 253/36/49
f 123/44/50 127/39/50 252/38/50 254/43/50
f 24/45/49 20/46/49 257/25/49 255/41/49
f 119/48/50 123/44/50 254/43/50 256/47/50
f 20/30/49 16/31/49 259/29/49 257/28/49
f 115/34/50 119/35/50 256/33/50 258/32/50
f 16/31/49 12/37/49 261/36/49 259/29/49
f 111/39/50 115/40/50 258/32/50 260/38/50
f 12/37/49 7/42/49 263/41/49 261/36/49
f 105/44/50 111/39/50 260/38/50 262/43/50
f 7/45/49 266/46/49 265/25/49 263/41/49
f 106/48/50 105/44/50 262/43/50 264/47/50

usemtl bm_tile09_C
f 207/11/48 208/12/48 206/10/48 205/9/48
f 212/17/46 207/11/46 205/9/46 211/16/46
f 216/21/44 212/17/44 211/16/44 215/20/44
f 220/26/42 216/27/42 215/20/42 219/25/42
f 224/11/40 220/12/40 219/10/40 223/9/40
f 76/17/38 224/11/38 223/9/38 175/16/38
f 72/21/36 76/17/36 175/16/36 171/20/36
f 231/26/34 72/27/34 171/20/34 167/25/34
f 64/11/32 231/12/32 167/10/32 163/9/32
f 60/17/30 64/11/30 163/9/30 159/16/30
f 56/21/28 60/17/28 159/16/28 155/20/28
f 52/26/26 56/27/26 155/20/26 151/25/26
f 48/11/24 52/12/24 151/10/24 147/9/24
f 44/17/22 48/11/22 147/9/22 143/16/22
f 40/21/20 44/17/20 143/16/20 139/20/20
f 249/26/18 40/27/18 139/20/18 248/25/18
f 32/11/16 249/12/16 248/10/16 131/9/16
f 28/17/14 32/11/14 131/9/14 127/16/14
f 24/21/12 28/17/12 127/16/12 123/20/12
f 20/26/10 24/27/10 123/20/10 119/25/10
f 16/11/8 20/12/8 119/10/8 115/9/8
f 12/17/6 16/11/6 115/9/6 111/16/6
f 7/21/4 12/17/4 111/16/4 105/20/4
f 266/26/2 7/27/2 105/20/2 106/25/2

