# ProBuilder 4.5.2
# https://unity3d.com/unity/features/worldbuilding/probuilder
# 2/6/2022 5:30:27 PM

mtllib ./ParCoreCurve1HalfA.mtl
o ParCoreCurve1HalfA

g Arch (4)
v 0 0 0
v 0.6371113 0.03130126 -1.737799E-06
v -1.443532E-06 1.622651E-06 -0.5
v 0.6371099 0.03130287 -0.5000017
v 0.588101 0.5288936 1.853402E-08
v -1.728535E-06 0.5 1.622656E-06
v 0.5880995 0.5288952 -0.4999999
v -3.172067E-06 0.5000016 -0.4999984
v 1.268087 0.1249003 -3.255709E-06
v 1.268085 0.124902 -0.5000033
v 1.17054 0.6152927 -1.382613E-06
v 1.170538 0.6152943 -0.5000013
v 1.886849 0.2798941 -4.539115E-06
v 1.886848 0.2798958 -0.5000046
v 1.741705 0.758364 -2.567296E-06
v 1.741704 0.7583656 -0.5000026
v 2.487441 0.4947917 -5.575653E-06
v 2.487439 0.4947934 -0.5000055
v 2.296097 0.9567311 -3.5241E-06
v 2.296096 0.9567327 -0.5000036
v 3.064076 0.7675219 -6.355345E-06
v 3.064075 0.7675235 -0.5000063
v 2.828376 1.208482 -4.243816E-06
v 2.828375 1.208484 -0.5000042
v 3.611203 1.09546 -6.870678E-06
v 3.611201 1.095461 -0.5000068
v 3.333416 1.511194 -4.719508E-06
v 3.333415 1.511195 -0.5000048
v 4.123551 1.475446 -7.11669E-06
v 4.123549 1.475447 -0.5000072
v 3.806353 1.86195 -4.946597E-06
v 3.806352 1.861952 -0.5000049
v 4.596187 1.903822 -7.091012E-06
v 4.596186 1.903823 -0.500007
v 4.242633 2.257374 -4.922894E-06
v 4.242631 2.257375 -0.5000049
v 1.837842E-05 -1.067305E-06 6.5
v 0.6371301 0.03130025 6.499998
v 1.69647E-05 6.745558E-07 6
v 0.6371287 0.03130198 5.999998
v 0.5881184 0.5288924 6.5
v 1.808047E-05 0.499999 6.500001
v 0.5881171 0.5288943 6
v 1.666674E-05 0.5000005 6.000001
v 1.268104 0.1248991 6.499997
v 1.268102 0.1249009 5.999997
v 1.170558 0.6152916 6.499998
v 1.170556 0.6152933 5.999998
v 1.886867 0.2798928 6.499995
v 1.886865 0.2798947 5.999995
v 1.741725 0.7583629 6.499997
v 1.741723 0.7583647 5.999998
v 2.48746 0.4947908 6.499994
v 2.487459 0.4947922 5.999994
v 2.296115 0.9567301 6.499997
v 2.296113 0.9567318 5.999997
v 3.064093 0.7675207 6.499993
v 3.064092 0.7675223 5.999993
v 2.828394 1.208481 6.499995
v 2.828393 1.208483 5.999995
v 3.61122 1.095459 6.499992
v 3.611219 1.09546 5.999992
v 3.333433 1.511192 6.499994
v 3.333432 1.511194 5.999994
v 4.123568 1.475445 6.499992
v 4.123566 1.475446 5.999992
v 3.806372 1.861949 6.499995
v 3.80637 1.861951 5.999995
v 4.596205 1.903821 6.499992
v 4.596203 1.903822 5.999992
v 4.24265 2.257372 6.499994
v 4.242649 2.257374 5.999994
v 2.542863E-05 -1.500001 6
v 0.7841632 -1.461476 5.999998
v 8.463873E-06 -1.499981 -1.294075E-07
v 0.7841463 -1.461456 -2.41719E-06
v 1.666675E-05 0.4999991 6.000006
v 1.560748 -1.346278 5.999996
v 1.560731 -1.346258 -4.106574E-06
v 1.17056 0.6152918 6.000002
v 2.322302 -1.155516 5.999994
v 2.322285 -1.155496 -5.92457E-06
v 1.741727 0.7583628 6.000002
v 3.061491 -0.8910265 5.999993
v 3.061474 -0.8910067 -6.961889E-06
v 2.296117 0.9567301 6.000001
v 3.771197 -0.5553589 5.999992
v 3.77118 -0.5553389 -8.159929E-06
v 2.82838 1.208501 5.24607E-07
v 4.444582 -0.1517425 5.999991
v 4.444565 -0.1517224 -9.032598E-06
v 3.333436 1.511192 6
v 5.075166 0.3159318 5.999991
v 5.07515 0.3159518 -9.33539E-06
v 5.656873 0.8431635 5.99999
v 5.656856 0.8431835 -9.780624E-06
v 4.419425 2.434151 5.999995
v 4.419426 2.43415 6.499995
v 4.772979 2.080599 5.999993
v 4.772981 2.080598 6.499993
v 4.419406 2.434151 -0.5001117
v 4.77296 2.0806 -0.5001147
v 4.419408 2.434152 -0.0001117313
v 4.772962 2.0806 -0.0001146899

vt 1.192093E-07 1
vt 1 0.9999998
vt -2.980232E-08 8.940697E-08
vt 0.9999999 -2.980232E-08
vt 1 0
vt 1 1
vt -4 2.384186E-07
vt -3.75 2.384186E-07
vt -4 -3
vt -3.75 -3
vt -2.749993 -1.000007
vt -2.999993 -1.000007
vt -2.749993 1.999993
vt -2.999993 1.999993
vt -3.749999 2.384186E-07
vt -3.499999 2.384186E-07
vt -3.5 -3
vt -2.499993 -0.999993
vt -2.749993 -0.9999958
vt -2.499993 2.000007
vt -2.749993 2.000004
vt -3.249999 2.384186E-07
vt -3.25 -3
vt -2.249993 -1.000007
vt -2.499993 -1.000007
vt -2.249993 1.999993
vt -2.499993 1.999993
vt -3 2.384186E-07
vt -3.25 -3
vt -3 -2.999999
vt -1.999993 -1.000007
vt -1.999993 1.999993
vt -4 -0.9999998
vt -4.25 -0.9999998
vt -4 1.788139E-07
vt -4.25 1.788139E-07
vt -3.75 -1.000001
vt -3.999999 -1.000001
vt -4.5 -0.9999998
vt -4.5 1.788139E-07
vt -3.5 -1.000001
vt -3.75 -1.000001
vt -4.75 -0.9999998
vt -4.75 1.788139E-07
vt -3.25 -1.000001
vt -5 -0.9999998
vt -5 1.788139E-07
vt -3 -0.9999995
vt -3.25 -1.000001
vt -3.25 -9.536743E-07
vt 4 -3
vt 0.9999998 -3
vt 4 -4
vt 1 -4
vt 4.000007 -6.500057
vt 4.000007 -5.500057
vt 4.500007 -6.500057
vt 4.500007 -5.500057
vt -2.682209E-07 4
vt -2.682209E-07 5
vt 0.5 4
vt 0.5 5
vt -4.5 -6
vt -4.5 -7
vt -5 -6
vt -5 -7
vt -1.403793 -6.00001
vt -1.903793 -6.00001
vt -1.403807 9.585284E-05
vt -1.903806 9.66433E-05
vt 4.500014 -8.500107
vt 4.000014 -8.500107
vt 4.499987 3.500106
vt 3.999986 3.500105
vt -4.500015 -9.000107
vt -5.000014 -9.000107
vt -4.499986 3.000106
vt -4.999986 3.000107
vt 1.999986 -8.500107
vt 0.9999866 -8.500107
vt 2.000012 3.500107
vt 1.000014 3.500105
vt -1.403805 0.5000955
vt -1.903804 0.5000963
vt 4.499992 0.5000005
vt 3.999991 0.4999994
vt 4.49999 1.500001
vt 3.99999 1.5
vt -4.499999 0.9999996
vt -5 1.000001

vn 0.04907079 -0.9987953 -3.383063E-06
vn -0.04907099 0.9987953 3.355167E-06
vn 0.1467347 -0.9891759 -3.603623E-06
vn -0.1467345 0.9891759 3.721542E-06
vn 0.2429828 -0.9700306 -3.933006E-06
vn -0.242983 0.9700305 3.933006E-06
vn 0.3368935 -0.9415428 -4.106598E-06
vn -0.3368937 0.9415427 4.106598E-06
vn 0.4275576 -0.9039881 -4.240639E-06
vn -0.4275575 0.9039882 4.240639E-06
vn 0.5141059 -0.8577268 -4.333841E-06
vn -0.5141055 0.857727 4.33384E-06
vn 0.5957021 -0.8032055 -4.385306E-06
vn -0.5957019 0.8032056 4.385305E-06
vn 0.6715622 -0.7409483 -4.041224E-06
vn -0.6715619 0.7409484 4.681676E-06
vn -2.777658E-06 3.218641E-06 -1
vn 3.166741E-06 -3.52124E-06 1
vn 0.7071041 0.7071094 4.495822E-07
vn -0.7071096 0.7071039 3.371745E-06
vn 0.7071087 -0.7071049 -4.046097E-06
vn -0.7071039 -0.7071096 2.023005E-06

usemtl bm_edge_white
f 3/3/1 4/4/1 2/2/1 1/1/1
f 7/2/2 8/1/2 6/3/2 5/4/2
f 4/3/3 10/4/3 9/2/3 2/1/3
f 12/2/4 7/1/4 5/3/4 11/4/4
f 10/3/5 14/4/5 13/2/5 9/1/5
f 16/2/6 12/1/6 11/3/6 15/4/6
f 14/3/7 18/4/7 17/2/7 13/1/7
f 20/2/8 16/1/8 15/3/8 19/4/8
f 18/3/9 22/4/9 21/2/9 17/1/9
f 24/2/10 20/1/10 19/3/10 23/4/10
f 22/3/11 26/4/11 25/2/11 21/1/11
f 28/2/12 24/1/12 23/3/12 27/4/12
f 26/3/13 30/4/13 29/2/13 25/1/13
f 32/2/14 28/1/14 27/3/14 31/4/14
f 30/3/15 34/4/15 33/2/15 29/1/15
f 36/2/16 32/1/16 31/3/16 35/4/16
f 8/6/17 7/1/17 4/3/17 3/5/17
f 7/6/17 12/1/17 10/3/17 4/5/17
f 12/6/17 16/1/17 14/3/17 10/5/17
f 16/6/17 20/1/17 18/3/17 14/5/17
f 20/6/17 24/1/17 22/3/17 18/5/17
f 24/6/17 28/1/17 26/3/17 22/5/17
f 28/6/17 32/1/17 30/3/17 26/5/17
f 32/6/17 36/1/17 34/3/17 30/5/17
f 39/3/1 40/5/1 38/6/1 37/1/1
f 43/2/2 44/1/2 42/3/2 41/4/2
f 40/3/3 46/5/3 45/6/3 38/1/3
f 48/2/4 43/1/4 41/3/4 47/4/4
f 46/3/5 50/5/5 49/6/5 45/1/5
f 52/2/6 48/1/6 47/3/6 51/4/6
f 50/3/7 54/5/7 53/6/7 49/1/7
f 56/2/8 52/1/8 51/3/8 55/4/8
f 54/3/9 58/5/9 57/6/9 53/1/9
f 60/2/10 56/1/10 55/3/10 59/4/10
f 58/3/11 62/5/11 61/6/11 57/1/11
f 64/2/12 60/1/12 59/3/12 63/4/12
f 62/3/13 66/5/13 65/6/13 61/1/13
f 68/2/14 64/1/14 63/3/14 67/4/14
f 66/3/15 70/5/15 69/6/15 65/1/15
f 72/2/16 68/1/16 67/3/16 71/4/16
f 41/6/18 42/1/18 37/3/18 38/5/18
f 47/6/18 41/1/18 38/3/18 45/5/18
f 51/6/18 47/1/18 45/3/18 49/5/18
f 55/6/18 51/1/18 49/3/18 53/5/18
f 59/6/18 55/1/18 53/3/18 57/5/18
f 63/6/18 59/1/18 57/3/18 61/5/18
f 67/6/18 63/1/18 61/3/18 65/5/18
f 71/6/18 67/1/18 65/3/18 69/5/18
f 33/3/19 34/5/19 36/6/19 35/1/19
f 35/69/22 33/70/22 70/68/22 72/67/22
f 36/83/22 34/84/22 33/70/22 35/69/22

usemtl bm_grid_blank4
f 75/9/1 76/10/1 74/8/1 73/7/1
f 76/10/3 79/17/3 78/16/3 74/15/3
f 79/17/5 82/23/5 81/22/5 78/16/5
f 82/29/7 85/30/7 84/28/7 81/22/7
f 85/9/9 88/10/9 87/8/9 84/7/9
f 88/10/11 91/17/11 90/16/11 87/15/11
f 91/17/13 94/23/13 93/22/13 90/16/13
f 94/29/15 96/30/15 95/28/15 93/22/15
f 6/35/17 5/36/17 76/34/17 75/33/17
f 43/15/18 77/7/18 73/38/18 74/37/18
f 5/36/17 11/40/17 79/39/17 76/34/17
f 80/16/18 43/8/18 74/42/18 78/41/18
f 11/40/17 15/44/17 82/43/17 79/39/17
f 83/22/18 80/16/18 78/41/18 81/45/18
f 15/44/17 19/47/17 85/46/17 82/43/17
f 86/28/18 83/50/18 81/49/18 84/48/18
f 19/35/17 89/36/17 88/34/17 85/33/17
f 60/15/18 86/7/18 84/38/18 87/37/18
f 89/36/17 27/40/17 91/39/17 88/34/17
f 92/16/18 60/8/18 87/42/18 90/41/18
f 27/40/17 31/44/17 94/43/17 91/39/17
f 68/22/18 92/16/18 90/41/18 93/45/18
f 31/44/17 35/47/17 96/46/17 94/43/17
f 72/28/18 68/50/18 93/49/18 95/48/18
f 95/54/19 96/53/19 35/51/19 72/52/19

usemtl bm_tile09_C
f 5/13/2 6/14/2 77/12/2 43/11/2
f 11/20/4 5/21/4 43/19/4 80/18/4
f 15/26/6 11/27/6 80/25/6 83/24/6
f 19/32/8 15/26/8 83/24/8 86/31/8
f 89/13/10 19/14/10 86/12/10 60/11/10
f 27/20/12 89/21/12 60/19/12 92/18/12
f 31/26/14 27/27/14 92/25/14 68/24/14
f 35/32/16 31/26/16 68/24/16 72/31/16

usemtl bm_trim
f 100/3/19 99/5/19 97/6/19 98/1/19
f 98/57/20 97/58/20 72/56/20 71/55/20
f 101/61/17 102/62/17 34/60/17 36/59/17
f 99/65/21 100/66/21 69/64/21 70/63/21
f 100/61/18 98/62/18 71/60/18 69/59/18
f 103/73/20 35/74/20 72/72/20 97/71/20
f 33/77/21 104/78/21 99/76/21 70/75/21
f 104/81/19 103/82/19 97/80/19 99/79/19
f 101/87/20 36/88/20 35/86/20 103/85/20
f 34/89/21 102/90/21 104/47/21 33/40/21
f 102/5/19 101/6/19 103/1/19 104/3/19

