# ProBuilder 4.5.2
# https://unity3d.com/unity/features/worldbuilding/probuilder
# 2/7/2022 4:06:36 PM

mtllib ./ParCoreCurve3.mtl
o ParCoreCurve3

g Arch (2)
v 0 0 0
v 0.2137871 3.806792 0
v 0 0 4
v 0.2137871 3.806792 4
v 4.188635 3.358934 0
v 4 0 0
v 4.188635 3.358934 4
v 4 0 4
v 0.8524513 7.565711 0
v 0.8524513 7.565711 4
v 4.752163 6.675628 0
v 4.752163 6.675628 4
v 1.907967 11.22949 0
v 1.907967 11.22949 4
v 5.6835 9.908373 0
v 5.6835 9.908373 4
v 3.36706 14.75205 0
v 3.36706 14.75205 4
v 6.970934 13.01651 0
v 6.970934 13.01651 4
v 5.211376 18.08909 0
v 5.211376 18.08909 4
v 8.598274 15.96096 0
v 8.598274 15.96096 4
v 7.41773 21.19865 0
v 7.41773 21.19865 4
v 10.54506 18.7047 0
v 10.54506 18.7047 4
v 9.95837 24.04163 0
v 9.95837 24.04163 4
v 12.7868 21.2132 0
v 12.7868 21.2132 4
v 12.80135 26.58227 0
v 12.80135 26.58227 4
v 15.2953 23.45494 0
v 15.2953 23.45494 4
v 15.91091 28.78862 0
v 15.91091 28.78862 4
v 18.03904 25.40173 0
v 18.03904 25.40173 4
v 19.24795 30.63294 0
v 19.24795 30.63294 4
v 20.98349 27.02907 0
v 20.98349 27.02907 4
v 22.77051 32.09203 0
v 22.77051 32.09203 4
v 24.09163 28.3165 0
v 24.09163 28.3165 4
v 26.43429 33.14755 0
v 26.43429 33.14755 4
v 27.32438 29.24784 0
v 27.32438 29.24784 4
v 30.19321 33.78621 0
v 30.19321 33.78621 4
v 30.64107 29.81137 0
v 30.64107 29.81137 4
v 34 34 0
v 34 34 4
v 34 30 0
v 34 30 4

vt -8.940697E-08 -2
vt -5.960464E-08 0
vt 2 -2
vt 2 1.788139E-07
vt 2 -2
vt 2 -2
vt -1.788139E-07 -2
vt 4 4
vt 0 4
vt 4 0

vn -0.9984268 0.05607103 0
vn 0.9984268 -0.05607079 0
vn -0.9858711 0.1675058 0
vn 0.9858711 -0.167506 0
vn -0.9609174 0.2768353 0
vn 0.9609174 -0.2768354 0
vn -0.9238794 0.3826838 0
vn 0.9238795 -0.3826835 0
vn -0.8752237 0.4837184 0
vn 0.8752234 -0.4837189 0
vn -0.8155608 0.5786715 0
vn 0.8155609 -0.5786713 0
vn -0.7456419 0.6663468 0
vn 0.7456421 -0.6663467 0
vn -0.6663468 0.7456419 0
vn 0.6663467 -0.7456421 0
vn -0.5786712 0.8155609 0
vn 0.578671 -0.8155611 0
vn -0.4837188 0.8752235 0
vn 0.4837194 -0.8752232 0
vn -0.3826836 0.9238794 0
vn 0.3826836 -0.9238794 0
vn -0.2768351 0.9609174 0
vn 0.2768348 -0.9609175 0
vn -0.1675059 0.9858711 0
vn 0.1675061 -0.985871 0
vn -0.05607101 0.9984268 0
vn 0.05607079 -0.9984268 0
vn 0 0 1
vn 0 0 -1
vn 0 -1 0

usemtl bm_grid_blank4
f 3/3/1 4/4/1 2/2/1 1/1/1
f 7/2/2 8/1/2 6/5/2 5/4/2
f 4/3/3 10/4/3 9/2/3 2/1/3
f 12/2/4 7/1/4 5/5/4 11/4/4
f 10/3/5 14/4/5 13/2/5 9/1/5
f 16/2/6 12/1/6 11/5/6 15/4/6
f 14/3/7 18/4/7 17/2/7 13/1/7
f 20/2/8 16/1/8 15/5/8 19/4/8
f 18/3/9 22/4/9 21/2/9 17/1/9
f 24/2/10 20/1/10 19/5/10 23/4/10
f 22/3/11 26/4/11 25/2/11 21/1/11
f 28/2/12 24/1/12 23/5/12 27/4/12
f 26/3/13 30/4/13 29/2/13 25/1/13
f 32/2/14 28/1/14 27/5/14 31/4/14
f 30/3/15 34/4/15 33/2/15 29/1/15
f 36/2/16 32/1/16 31/5/16 35/4/16
f 34/3/17 38/4/17 37/2/17 33/1/17
f 40/2/18 36/1/18 35/5/18 39/4/18
f 38/3/19 42/4/19 41/2/19 37/1/19
f 44/2/20 40/1/20 39/5/20 43/4/20
f 42/3/21 46/4/21 45/2/21 41/1/21
f 48/2/22 44/1/22 43/5/22 47/4/22
f 46/3/23 50/4/23 49/2/23 45/1/23
f 52/2/24 48/1/24 47/5/24 51/4/24
f 50/3/25 54/4/25 53/2/25 49/1/25
f 56/2/26 52/1/26 51/5/26 55/4/26
f 54/3/27 58/4/27 57/2/27 53/1/27
f 60/2/28 56/1/28 55/5/28 59/4/28
f 8/3/29 7/4/29 4/2/29 3/1/29
f 5/2/30 6/7/30 1/6/30 2/4/30
f 7/3/29 12/4/29 10/2/29 4/1/29
f 11/2/30 5/7/30 2/6/30 9/4/30
f 12/3/29 16/4/29 14/2/29 10/1/29
f 15/2/30 11/7/30 9/6/30 13/4/30
f 16/3/29 20/4/29 18/2/29 14/1/29
f 19/2/30 15/7/30 13/6/30 17/4/30
f 20/3/29 24/4/29 22/2/29 18/1/29
f 23/2/30 19/7/30 17/6/30 21/4/30
f 24/3/29 28/4/29 26/2/29 22/1/29
f 27/2/30 23/7/30 21/6/30 25/4/30
f 28/3/29 32/4/29 30/2/29 26/1/29
f 31/2/30 27/7/30 25/6/30 29/4/30
f 32/3/29 36/4/29 34/2/29 30/1/29
f 35/2/30 31/7/30 29/6/30 33/4/30
f 36/3/29 40/4/29 38/2/29 34/1/29
f 39/2/30 35/7/30 33/6/30 37/4/30
f 40/3/29 44/4/29 42/2/29 38/1/29
f 43/2/30 39/7/30 37/6/30 41/4/30
f 44/3/29 48/4/29 46/2/29 42/1/29
f 47/2/30 43/7/30 41/6/30 45/4/30
f 48/3/29 52/4/29 50/2/29 46/1/29
f 51/2/30 47/7/30 45/6/30 49/4/30
f 52/3/29 56/4/29 54/2/29 50/1/29
f 55/2/30 51/7/30 49/6/30 53/4/30
f 56/3/29 60/4/29 58/2/29 54/1/29
f 59/2/30 55/7/30 53/6/30 57/4/30
f 1/2/31 6/10/31 8/8/31 3/9/31

