# ProBuilder 4.5.2
# https://unity3d.com/unity/features/worldbuilding/probuilder
# 7/3/2022 1:58:30 PM

mtllib ./StratagemBMCurve2.mtl
o StratagemBMCurve2

g Arch (33)
v 0 0 0
v -0.03849444 1.788139E-06 0.5873682
v -6.322989E-08 1 -3.33786E-06
v -0.0384945 1.000002 0.5873649
v -0.5342175 1.549721E-06 0.522108
v -0.5000001 -3.160528E-08 2.971353E-06
v -0.5342175 1.000002 0.5221047
v -0.5000002 1 -3.576279E-07
v -0.1533268 3.576279E-06 1.164687
v -0.1533268 1.000004 1.164683
v -0.6362907 3.099442E-06 1.03528
v -0.6362908 1.000003 1.035277
v -0.342532 5.245209E-06 1.722078
v -0.3425321 1.000005 1.722075
v -0.8044731 4.649162E-06 1.530739
v -0.8044732 1.000005 1.530735
v -0.6028725 6.914139E-06 2.250004
v -0.6028726 1.000007 2.25
v -1.035887 5.960464E-06 2.000006
v -1.035887 1.000006 2.000003
v -0.9298941 8.34465E-06 2.739432
v -0.9298942 1.000008 2.739429
v -1.326573 7.390976E-06 2.435054
v -1.326573 1.000008 2.43505
v -1.318001 9.775162E-06 3.181989
v -1.318001 1.00001 3.181985
v -1.671557 8.583069E-06 2.828437
v -1.671557 1.000009 2.828434
v -1.760553 1.096725E-05 3.570101
v -1.760553 1.000011 3.570097
v -2.064936 9.298325E-06 3.173426
v -2.064936 1.000009 3.173423
v -2.249978 1.168251E-05 3.897128
v -2.249978 1.000012 3.897125
v -2.49998 1.0252E-05 3.464117
v -2.49998 1.00001 3.464114
v -2.7779 1.28746E-05 4.157475
v -2.7779 1.000013 4.157472
v -2.969245 1.096725E-05 3.695536
v -2.969245 1.000011 3.695533
v -3.335289 1.335144E-05 4.346687
v -3.335289 1.000013 4.346684
v -3.464702 1.144409E-05 3.863724
v -3.464702 1.000012 3.863721
v -3.912606 1.28746E-05 4.461525
v -3.912606 1.000013 4.461522
v -3.977872 1.192093E-05 3.965803
v -3.977872 1.000012 3.9658
v -4.499974 1.335144E-05 4.500027
v -4.499974 1.000013 4.500024
v -4.499977 1.192093E-05 4.000027
v -4.499977 1.000012 4.000024
v -5.087342 1.28746E-05 4.461533
v -5.087343 1.000013 4.46153
v -5.022082 1.192093E-05 3.96581
v -5.022082 1.000012 3.965806
v -5.664661 1.28746E-05 4.346701
v -5.664661 1.000013 4.346697
v -5.535254 1.144409E-05 3.863737
v -5.535254 1.000012 3.863733
v -6.222053 1.239777E-05 4.157495
v -6.222053 1.000012 4.157492
v -6.030714 1.072884E-05 3.695554
v -6.030714 1.000011 3.695551
v -6.749979 1.144409E-05 3.897155
v -6.749979 1.000011 3.897151
v -6.499981 1.001358E-05 3.464141
v -6.499981 1.00001 3.464137
v -7.239408 1.049042E-05 3.570133
v -7.239408 1.00001 3.57013
v -6.935029 9.059906E-06 3.173455
v -6.935029 1.000009 3.173452
v -7.681963 9.298325E-06 3.182026
v -7.681963 1.000009 3.182023
v -7.328413 8.106232E-06 2.828471
v -7.328413 1.000008 2.828467
v -8.070075 7.867813E-06 2.739475
v -8.070075 1.000008 2.739471
v -7.673401 6.914139E-06 2.435091
v -7.673401 1.000007 2.435088
v -8.397102 6.437302E-06 2.25005
v -8.397102 1.000007 2.250047
v -7.964092 5.602837E-06 2.000048
v -7.964092 1.000006 2.000044
v -8.657449 4.649162E-06 1.722127
v -8.657449 1.000005 1.722124
v -8.195511 4.172325E-06 1.530783
v -8.195512 1.000004 1.53078
v -8.846662 2.980232E-06 1.164739
v -8.846662 1.000003 1.164735
v -8.363699 2.622604E-06 1.035326
v -8.363699 1.000003 1.035323
v -8.9615 1.192093E-06 0.5874217
v -8.9615 1.000001 0.5874184
v -8.465778 1.072884E-06 0.5221556
v -8.465778 1.000001 0.5221523
v -9.000002 -5.688963E-07 5.309095E-05
v -9.000002 0.9999995 4.982948E-05
v -8.500002 -5.372908E-07 5.016331E-05
v -8.500002 0.9999996 4.684925E-05

vt 3 5.960464E-07
vt 2 5.960464E-07
vt 3 2
vt 2 2
vt 0 0
vt 0 1
vt 1 0
vt 1 1

vn 0.9978594 2.813801E-07 0.06539687
vn -0.9978594 -2.738651E-07 -0.06539702
vn 0.9807864 7.132783E-07 0.1950846
vn -0.9807864 -7.09625E-07 -0.1950848
vn 0.946932 1.129343E-06 0.3214341
vn -0.946932 -1.129343E-06 -0.321434
vn 0.8968753 1.529738E-06 0.4422835
vn -0.8968754 -1.583196E-06 -0.4422833
vn 0.8314727 1.90396E-06 0.5555657
vn -0.8314728 -1.8544E-06 -0.5555655
vn 0.751844 2.245601E-06 0.659341
vn -0.7518436 -2.290416E-06 -0.6593415
vn 0.6593501 2.588125E-06 0.7518361
vn -0.6593503 -2.330271E-06 -0.7518359
vn 0.5555754 2.841547E-06 0.8314661
vn -0.5555755 -2.775317E-06 -0.8314661
vn 0.4422942 2.993626E-06 0.89687
vn -0.4422936 -2.993627E-06 -0.8968703
vn 0.3214451 3.237353E-06 0.9469283
vn -0.321445 -3.160714E-06 -0.9469283
vn 0.1950954 3.273721E-06 0.9807843
vn -0.1950961 -3.273719E-06 -0.9807841
vn 0.06540926 3.330712E-06 0.9978585
vn -0.0654093 -3.330711E-06 -0.9978585
vn -0.06539714 3.330715E-06 0.9978594
vn 0.06539699 -3.330715E-06 -0.9978594
vn -0.195084 2.71303E-06 0.9807866
vn 0.1950846 -3.273727E-06 -0.9807864
vn -0.3214337 3.612259E-06 0.9469321
vn 0.3214334 -2.934961E-06 -0.9469323
vn -0.4422838 3.421307E-06 0.8968751
vn 0.4422834 -2.993644E-06 -0.8968754
vn -0.5555651 2.510427E-06 0.8314731
vn 0.5555655 -2.510425E-06 -0.8314728
vn -0.6593421 2.509547E-06 0.7518431
vn 0.659341 -2.688804E-06 -0.751844
vn -0.751836 2.200818E-06 0.6593502
vn 0.7518362 -2.200818E-06 -0.6593499
vn -0.8314661 1.854433E-06 0.5555755
vn 0.831466 -1.986893E-06 -0.5555756
vn -0.8968703 1.370863E-06 0.4422937
vn 0.8968703 -6.20992E-07 -0.4422936
vn -0.9469276 1.072944E-06 0.3214469
vn 0.9469283 -1.072939E-06 -0.321445
vn -0.9807843 6.51201E-07 0.1950954
vn 0.9807841 -6.51205E-07 -0.1950966
vn -0.9978585 2.144279E-07 0.06540916
vn 0.9978586 -2.167686E-07 -0.06540876
vn -1.814559E-11 1 -3.044325E-06
vn 7.949088E-08 -1 3.049534E-06

usemtl bm_edge_white
f 3/3/1 4/4/1 2/2/1 1/1/1
f 7/3/2 8/4/2 6/2/2 5/1/2
f 4/3/3 10/4/3 9/2/3 2/1/3
f 12/3/4 7/4/4 5/2/4 11/1/4
f 10/3/5 14/4/5 13/2/5 9/1/5
f 16/3/6 12/4/6 11/2/6 15/1/6
f 14/3/7 18/4/7 17/2/7 13/1/7
f 20/3/8 16/4/8 15/2/8 19/1/8
f 18/3/9 22/4/9 21/2/9 17/1/9
f 24/3/10 20/4/10 19/2/10 23/1/10
f 22/3/11 26/4/11 25/2/11 21/1/11
f 28/3/12 24/4/12 23/2/12 27/1/12
f 26/3/13 30/4/13 29/2/13 25/1/13
f 32/3/14 28/4/14 27/2/14 31/1/14
f 30/3/15 34/4/15 33/2/15 29/1/15
f 36/3/16 32/4/16 31/2/16 35/1/16
f 34/3/17 38/4/17 37/2/17 33/1/17
f 40/3/18 36/4/18 35/2/18 39/1/18
f 38/3/19 42/4/19 41/2/19 37/1/19
f 44/3/20 40/4/20 39/2/20 43/1/20
f 42/3/21 46/4/21 45/2/21 41/1/21
f 48/3/22 44/4/22 43/2/22 47/1/22
f 46/3/23 50/4/23 49/2/23 45/1/23
f 52/3/24 48/4/24 47/2/24 51/1/24
f 50/3/25 54/4/25 53/2/25 49/1/25
f 56/3/26 52/4/26 51/2/26 55/1/26
f 54/3/27 58/4/27 57/2/27 53/1/27
f 60/3/28 56/4/28 55/2/28 59/1/28
f 58/3/29 62/4/29 61/2/29 57/1/29
f 64/3/30 60/4/30 59/2/30 63/1/30
f 62/3/31 66/4/31 65/2/31 61/1/31
f 68/3/32 64/4/32 63/2/32 67/1/32
f 66/3/33 70/4/33 69/2/33 65/1/33
f 72/3/34 68/4/34 67/2/34 71/1/34
f 70/3/35 74/4/35 73/2/35 69/1/35
f 76/3/36 72/4/36 71/2/36 75/1/36
f 74/3/37 78/4/37 77/2/37 73/1/37
f 80/3/38 76/4/38 75/2/38 79/1/38
f 78/3/39 82/4/39 81/2/39 77/1/39
f 84/3/40 80/4/40 79/2/40 83/1/40
f 82/3/41 86/4/41 85/2/41 81/1/41
f 88/3/42 84/4/42 83/2/42 87/1/42
f 86/3/43 90/4/43 89/2/43 85/1/43
f 92/3/44 88/4/44 87/2/44 91/1/44
f 90/3/45 94/4/45 93/2/45 89/1/45
f 96/3/46 92/4/46 91/2/46 95/1/46
f 94/3/47 98/4/47 97/2/47 93/1/47
f 100/3/48 96/4/48 95/2/48 99/1/48
f 8/7/49 7/8/49 4/6/49 3/5/49
f 5/6/50 6/5/50 1/7/50 2/8/50
f 7/7/49 12/8/49 10/6/49 4/5/49
f 11/6/50 5/5/50 2/7/50 9/8/50
f 12/7/49 16/8/49 14/6/49 10/5/49
f 15/6/50 11/5/50 9/7/50 13/8/50
f 16/7/49 20/8/49 18/6/49 14/5/49
f 19/6/50 15/5/50 13/7/50 17/8/50
f 20/7/49 24/8/49 22/6/49 18/5/49
f 23/6/50 19/5/50 17/7/50 21/8/50
f 24/7/49 28/8/49 26/6/49 22/5/49
f 27/6/50 23/5/50 21/7/50 25/8/50
f 28/7/49 32/8/49 30/6/49 26/5/49
f 31/6/50 27/5/50 25/7/50 29/8/50
f 32/7/49 36/8/49 34/6/49 30/5/49
f 35/6/50 31/5/50 29/7/50 33/8/50
f 36/7/49 40/8/49 38/6/49 34/5/49
f 39/6/50 35/5/50 33/7/50 37/8/50
f 40/7/49 44/8/49 42/6/49 38/5/49
f 43/6/50 39/5/50 37/7/50 41/8/50
f 44/7/49 48/8/49 46/6/49 42/5/49
f 47/6/50 43/5/50 41/7/50 45/8/50
f 48/7/49 52/8/49 50/6/49 46/5/49
f 51/6/50 47/5/50 45/7/50 49/8/50
f 52/7/49 56/8/49 54/6/49 50/5/49
f 55/6/50 51/5/50 49/7/50 53/8/50
f 56/7/49 60/8/49 58/6/49 54/5/49
f 59/6/50 55/5/50 53/7/50 57/8/50
f 60/7/49 64/8/49 62/6/49 58/5/49
f 63/6/50 59/5/50 57/7/50 61/8/50
f 64/7/49 68/8/49 66/6/49 62/5/49
f 67/6/50 63/5/50 61/7/50 65/8/50
f 68/7/49 72/8/49 70/6/49 66/5/49
f 71/6/50 67/5/50 65/7/50 69/8/50
f 72/7/49 76/8/49 74/6/49 70/5/49
f 75/6/50 71/5/50 69/7/50 73/8/50
f 76/7/49 80/8/49 78/6/49 74/5/49
f 79/6/50 75/5/50 73/7/50 77/8/50
f 80/7/49 84/8/49 82/6/49 78/5/49
f 83/6/50 79/5/50 77/7/50 81/8/50
f 84/7/49 88/8/49 86/6/49 82/5/49
f 87/6/50 83/5/50 81/7/50 85/8/50
f 88/7/49 92/8/49 90/6/49 86/5/49
f 91/6/50 87/5/50 85/7/50 89/8/50
f 92/7/49 96/8/49 94/6/49 90/5/49
f 95/6/50 91/5/50 89/7/50 93/8/50
f 96/7/49 100/8/49 98/6/49 94/5/49
f 99/6/50 95/5/50 93/7/50 97/8/50

