# ProBuilder 4.5.2
# https://unity3d.com/unity/features/worldbuilding/probuilder
# 7/3/2022 1:57:12 PM

mtllib ./StratagemBMCurve1.mtl
o StratagemBMCurve1

g Arch (32)
v 0 0 0
v 2.274355E-08 0.01820058 -0.5559266
v -4 1.263618E-05 0
v -4 0.01821321 -0.5559268
v 1.578139E-06 0.51713 -0.5232236
v 1.549721E-06 0.5 1.460314E-06
v -3.999998 0.5171426 -0.5232234
v -3.999999 0.5000126 1.430511E-06
v 1.573877E-07 0.07272184 -1.109473
v -4 0.07273448 -1.109473
v 1.7259E-06 0.5684439 -1.044208
v -3.999998 0.5684565 -1.044208
v 4.07799E-07 0.1633301 -1.658267
v -4 0.1633427 -1.658267
v 1.933532E-06 0.6537224 -1.560721
v -3.999998 0.653735 -1.56072
v 7.629417E-07 0.2896371 -2.199961
v -3.999999 0.2896497 -2.199961
v 2.260771E-06 0.7725995 -2.07055
v -3.999998 0.7726121 -2.07055
v 1.237855E-06 0.4511015 -2.732234
v -3.999999 0.4511142 -2.732234
v 2.707749E-06 0.9245665 -2.571513
v -3.999997 0.9245791 -2.571513
v 1.832675E-06 0.6470335 -3.252807
v -3.999998 0.6470461 -3.252808
v 3.274592E-06 1.108973 -3.061464
v -3.999997 1.108985 -3.061464
v 2.517733E-06 0.8765926 -3.759451
v -3.999997 0.8766053 -3.759451
v 3.842216E-06 1.325028 -3.538306
v -3.999996 1.325041 -3.538306
v 3.322959E-06 1.138797 -4.249997
v -3.999997 1.138809 -4.249997
v 4.649162E-06 1.571808 -3.999995
v -3.999995 1.571821 -3.999995
v 4.12927E-06 1.432522 -4.722343
v -3.999996 1.432534 -4.722343
v 5.457129E-06 1.848256 -4.444557
v -3.999995 1.848269 -4.444557
v 5.175205E-06 1.756512 -5.174467
v -3.999995 1.756524 -5.174468
v 6.38544E-06 2.153187 -4.870085
v -3.999994 2.1532 -4.870085
v 6.103251E-06 2.109378 -5.604433
v -3.999994 2.109391 -5.604433
v 7.314994E-06 2.485297 -5.274759
v -3.999993 2.48531 -5.27476
v 7.271146E-06 2.48961 -6.0104
v -3.999993 2.489622 -6.0104
v 8.484312E-06 2.843162 -5.656846
v -3.999992 2.843175 -5.656847
v 8.678994E-06 2.895579 -6.39063
v -3.999991 2.895592 -6.39063
v 9.655075E-06 3.225251 -6.014709
v -3.99999 3.225264 -6.014709
v 9.850055E-06 3.325547 -6.743494
v -3.99999 3.32556 -6.743494
v 1.082737E-05 3.629927 -6.346816
v -3.999989 3.629939 -6.346816
v 1.126126E-05 3.777673 -7.067481
v -3.999989 3.777685 -7.067481
v 1.200129E-05 4.055458 -6.651745
v -3.999988 4.05547 -6.651744
v 1.291268E-05 4.250022 -7.361204
v -3.999987 4.250034 -7.361204
v 1.341532E-05 4.50002 -6.92819
v -3.999987 4.500032 -6.92819
v 1.432756E-05 4.740568 -7.623405
v -3.999986 4.740581 -7.623405
v 1.483113E-05 4.961711 -7.174968
v -3.999985 4.961724 -7.174968
v 1.574439E-05 5.247213 -7.852961
v -3.999984 5.247226 -7.852961
v 1.624876E-05 5.438554 -7.39102
v -3.999984 5.438566 -7.39102
v 1.716322E-05 5.767788 -8.048889
v -3.999983 5.7678 -8.048889
v 1.814512E-05 5.928506 -7.575424
v -3.999982 5.928518 -7.575424
v 1.906095E-05 6.300061 -8.210351
v -3.999981 6.300074 -8.21035
v 1.956657E-05 6.429469 -7.727388
v -3.99998 6.429482 -7.727388
v 2.048393E-05 6.841756 -8.336655
v -3.999979 6.841768 -8.336655
v 2.099E-05 6.939299 -7.846262
v -3.999979 6.939312 -7.846262
v 2.238588E-05 7.390551 -8.427259
v -3.999978 7.390563 -8.427259
v 2.241543E-05 7.455812 -7.931537
v -3.999978 7.455825 -7.931537
v 2.428998E-05 7.944096 -8.481778
v -3.999976 7.944108 -8.481777
v 2.431972E-05 7.976798 -7.982848
v -3.999976 7.97681 -7.982849
v 2.619624E-05 8.500025 -8.499975
v -3.999974 8.500037 -8.499975
v 2.622604E-05 8.500023 -7.999975
v -3.999974 8.500035 -7.999975
v -4.500113 1.314283E-05 4.768372E-07
v -4.500113 0.01821357 -0.5559273
v -4.500113 0.5000129 2.384186E-06
v -4.500113 0.5171428 -0.5232239
v 0.5000858 0.01820034 -0.5559267
v 0.5000858 -2.980903E-08 5.960464E-07
v 0.5000877 0.5171298 -0.5232233
v 0.5000877 0.4999999 2.563E-06
v -4.500113 0.07273459 -1.109472
v -4.500113 0.5684568 -1.044209
v 0.5000877 0.07272196 -1.109472
v 0.5000877 0.5684437 -1.044208
v -4.500113 0.1633426 -1.658268
v -4.500111 0.6537353 -1.56072
v 0.5000876 0.16333 -1.658267
v 0.5000876 0.6537224 -1.56072
v -4.500113 0.28965 -2.19996
v -4.500111 0.7726123 -2.07055
v 0.5000876 0.2896366 -2.19996
v 0.5000895 0.7725992 -2.07055
v -4.500113 0.4511144 -2.732233
v -4.500111 0.9245794 -2.571512
v 0.5000875 0.4511013 -2.732233
v 0.5000894 0.9245663 -2.571512
v -4.500113 0.6470463 -3.252808
v -4.500111 1.108986 -3.061464
v 0.5000876 0.6470332 -3.252807
v 0.5000894 1.108972 -3.061464
v -4.500111 0.876605 -3.75945
v -4.500109 1.325041 -3.538305
v 0.5000894 0.8765922 -3.75945
v 0.5000893 1.325028 -3.538305
v -4.500112 1.138809 -4.249996
v -4.500109 1.571821 -3.999996
v 0.5000894 1.138796 -4.249996
v 0.5000913 1.571808 -3.999995
v -4.500109 1.432535 -4.722342
v -4.500109 1.848269 -4.444558
v 0.5000911 1.432521 -4.722342
v 0.5000912 1.848256 -4.444556
v -4.50011 1.756525 -5.174467
v -4.500107 2.1532 -4.870084
v 0.5000912 1.756511 -5.174467
v 0.500093 2.153187 -4.870084
v -4.500108 2.10939 -5.604433
v -4.500107 2.48531 -5.274759
v 0.5000929 2.109378 -5.604432
v 0.5000929 2.485297 -5.274758
v -4.500107 2.489622 -6.0104
v -4.500106 2.843175 -5.656845
v 0.5000929 2.489609 -6.0104
v 0.5000948 2.843162 -5.656845
v -4.500105 2.895591 -6.39063
v -4.500103 3.225263 -6.014709
v 0.500095 2.895579 -6.39063
v 0.5000948 3.225251 -6.014709
v -4.500104 3.325559 -6.743493
v -4.500104 3.62994 -6.346814
v 0.5000966 3.325546 -6.743494
v 0.5000967 3.629927 -6.346815
v -4.500104 3.777685 -7.06748
v -4.500102 4.05547 -6.651745
v 0.5000966 3.777673 -7.067479
v 0.5000983 4.055457 -6.651744
v -4.500102 4.250035 -7.361203
v -4.5001 4.500032 -6.928189
v 0.5000987 4.250021 -7.361203
v 0.5001003 4.50002 -6.928189
v -4.5001 4.740581 -7.623404
v -4.5001 4.961724 -7.174966
v 0.5001004 4.740568 -7.623403
v 0.5001003 4.961711 -7.174966
v -4.500098 5.247226 -7.85296
v -4.500098 5.438566 -7.391019
v 0.5001022 5.247212 -7.85296
v 0.5001021 5.438554 -7.391019
v -4.500096 5.767799 -8.048889
v -4.500096 5.928518 -7.575424
v 0.5001038 5.767787 -8.048888
v 0.5001043 5.928505 -7.575423
v -4.500096 6.300075 -8.21035
v -4.500094 6.429482 -7.727387
v 0.5001041 6.300061 -8.210349
v 0.500106 6.429469 -7.727387
v -4.500094 6.841768 -8.336653
v -4.500093 6.939312 -7.846262
v 0.5001057 6.841755 -8.336654
v 0.5001059 6.939299 -7.846261
v -4.500093 7.390563 -8.427258
v -4.500093 7.455825 -7.931536
v 0.5001078 7.39055 -8.427258
v 0.5001076 7.455813 -7.931537
v -4.500091 7.944109 -8.481776
v -4.500091 7.97681 -7.982848
v 0.5001099 7.944096 -8.481776
v 0.5001097 7.976796 -7.982848
v -4.500088 8.500035 -8.499974
v -4.500088 8.500034 -7.999974
v 0.5001119 8.500023 -8.499974
v 0.5001119 8.500023 -7.999974

vt 1.192093E-07 2
vt 1.192093E-07 2.25
vt 2 2
vt 2 2.25
vt 2 -1.75
vt 2 -2
vt 0 -1.75
vt 0 -2
vt 1.192093E-07 2.5
vt 2 2.5
vt 2 -1.5
vt 0 -1.5
vt 1.192093E-07 2.75
vt 2 2.75
vt 2 -1.25
vt 0 -1.25
vt 1.192093E-07 3
vt 2 3
vt 2 -1
vt 5.960464E-08 -0.9999999
vt 1 0
vt 5.960464E-08 0
vt 1 1
vt 0 1

vn -3.157355E-06 -0.9994645 -0.03272164
vn 3.158817E-06 0.9994645 0.03272165
vn -3.137991E-06 -0.9951844 -0.09802024
vn 3.140913E-06 0.9951845 0.09801991
vn -3.107141E-06 -0.9866428 -0.1628987
vn 3.12656E-06 0.9866428 0.162899
vn -3.062985E-06 -0.9738763 -0.2270793
vn 3.090056E-06 0.9738764 0.227079
vn -3.040319E-06 -0.9569397 -0.2902867
vn 3.040319E-06 0.9569395 0.2902876
vn -2.977563E-06 -0.9359049 -0.352253
vn 2.956567E-06 0.9359049 0.3522528
vn -2.852858E-06 -0.9108626 -0.4127097
vn 2.877459E-06 0.910863 0.4127088
vn -2.786025E-06 -0.8819196 -0.4713999
vn 2.814122E-06 0.8819196 0.4713999
vn -2.63205E-06 -0.8492013 -0.5280694
vn 2.73328E-06 0.8492006 0.5280703
vn -2.519364E-06 -0.8128448 -0.5824804
vn 2.616265E-06 0.8128452 0.5824799
vn -2.320269E-06 -0.7730085 -0.6343957
vn 2.412419E-06 0.7730086 0.6343956
vn -2.430662E-06 -0.7298622 -0.6835943
vn 2.267681E-06 0.7298622 0.6835944
vn -2.118747E-06 -0.6835898 -0.7298664
vn 2.113231E-06 0.6835901 0.7298661
vn -1.96626E-06 -0.6343918 -0.7730117
vn 1.966258E-06 0.6343911 0.7730123
vn -1.777886E-06 -0.5824754 -0.8128483
vn 1.971682E-06 0.5824747 0.8128488
vn -1.636707E-06 -0.5280653 -0.8492038
vn 1.63671E-06 0.528066 0.8492033
vn -1.461059E-06 -0.4713942 -0.8819227
vn 1.517254E-06 0.4713943 0.8819226
vn -1.219767E-06 -0.4127043 -0.9108651
vn 1.279152E-06 0.412704 0.9108652
vn -1.13376E-06 -0.3522469 -0.9359071
vn 9.80202E-07 0.3522476 0.9359069
vn -8.997127E-07 -0.2902822 -0.9569411
vn 8.997131E-07 0.2902823 0.9569411
vn -9.359906E-07 -0.2270732 -0.9738777
vn 7.30867E-07 0.2270725 0.9738778
vn -5.048764E-07 -0.1628927 -0.9866438
vn 5.048762E-07 0.1628926 0.9866438
vn -3.037944E-07 -0.09801585 -0.9951849
vn 1.968412E-07 0.09801512 0.9951849
vn -3.396897E-07 -0.03271517 -0.9994648
vn 1.014015E-07 0.03271606 0.9994647
vn -1 0 0
vn 1 -3.807683E-06 -2.318754E-07

usemtl bm_tile06_C
f 7/7/2 8/8/2 6/6/2 5/5/2
f 12/12/4 7/7/4 5/5/4 11/11/4
f 16/16/6 12/12/6 11/11/6 15/15/6
f 20/20/8 16/16/8 15/15/8 19/19/8
f 24/7/10 20/8/10 19/6/10 23/5/10
f 28/12/12 24/7/12 23/5/12 27/11/12
f 32/16/14 28/12/14 27/11/14 31/15/14
f 36/20/16 32/16/16 31/15/16 35/19/16
f 40/7/18 36/8/18 35/6/18 39/5/18
f 44/12/20 40/7/20 39/5/20 43/11/20
f 48/16/22 44/12/22 43/11/22 47/15/22
f 52/20/24 48/16/24 47/15/24 51/19/24
f 56/7/26 52/8/26 51/6/26 55/5/26
f 60/12/28 56/7/28 55/5/28 59/11/28
f 64/16/30 60/12/30 59/11/30 63/15/30
f 68/20/32 64/16/32 63/15/32 67/19/32
f 72/7/34 68/8/34 67/6/34 71/5/34
f 76/12/36 72/7/36 71/5/36 75/11/36
f 80/16/38 76/12/38 75/11/38 79/15/38
f 84/20/40 80/16/40 79/15/40 83/19/40
f 88/7/42 84/8/42 83/6/42 87/5/42
f 92/12/44 88/7/44 87/5/44 91/11/44
f 96/16/46 92/12/46 91/11/46 95/15/46
f 100/20/48 96/16/48 95/15/48 99/19/48

usemtl bm_edge_white
f 103/23/49 104/24/49 102/22/49 101/21/49
f 107/23/50 108/24/50 106/22/50 105/21/50
f 104/23/49 110/24/49 109/22/49 102/21/49
f 112/23/50 107/24/50 105/22/50 111/21/50
f 110/23/49 114/24/49 113/22/49 109/21/49
f 116/23/50 112/24/50 111/22/50 115/21/50
f 114/23/49 118/24/49 117/22/49 113/21/49
f 120/23/50 116/24/50 115/22/50 119/21/50
f 118/23/49 122/24/49 121/22/49 117/21/49
f 124/23/50 120/24/50 119/22/50 123/21/50
f 122/23/49 126/24/49 125/22/49 121/21/49
f 128/23/50 124/24/50 123/22/50 127/21/50
f 126/23/49 130/24/49 129/22/49 125/21/49
f 132/23/50 128/24/50 127/22/50 131/21/50
f 130/23/49 134/24/49 133/22/49 129/21/49
f 136/23/50 132/24/50 131/22/50 135/21/50
f 134/23/49 138/24/49 137/22/49 133/21/49
f 140/23/50 136/24/50 135/22/50 139/21/50
f 138/23/49 142/24/49 141/22/49 137/21/49
f 144/23/50 140/24/50 139/22/50 143/21/50
f 142/23/49 146/24/49 145/22/49 141/21/49
f 148/23/50 144/24/50 143/22/50 147/21/50
f 146/23/49 150/24/49 149/22/49 145/21/49
f 152/23/50 148/24/50 147/22/50 151/21/50
f 150/23/49 154/24/49 153/22/49 149/21/49
f 156/23/50 152/24/50 151/22/50 155/21/50
f 154/23/49 158/24/49 157/22/49 153/21/49
f 160/23/50 156/24/50 155/22/50 159/21/50
f 158/23/49 162/24/49 161/22/49 157/21/49
f 164/23/50 160/24/50 159/22/50 163/21/50
f 162/23/49 166/24/49 165/22/49 161/21/49
f 168/23/50 164/24/50 163/22/50 167/21/50
f 166/23/49 170/24/49 169/22/49 165/21/49
f 172/23/50 168/24/50 167/22/50 171/21/50
f 170/23/49 174/24/49 173/22/49 169/21/49
f 176/23/50 172/24/50 171/22/50 175/21/50
f 174/23/49 178/24/49 177/22/49 173/21/49
f 180/23/50 176/24/50 175/22/50 179/21/50
f 178/23/49 182/24/49 181/22/49 177/21/49
f 184/23/50 180/24/50 179/22/50 183/21/50
f 182/23/49 186/24/49 185/22/49 181/21/49
f 188/23/50 184/24/50 183/22/50 187/21/50
f 186/23/49 190/24/49 189/22/49 185/21/49
f 192/23/50 188/24/50 187/22/50 191/21/50
f 190/23/49 194/24/49 193/22/49 189/21/49
f 196/23/50 192/24/50 191/22/50 195/21/50
f 194/23/49 198/24/49 197/22/49 193/21/49
f 200/23/50 196/24/50 195/22/50 199/21/50
f 101/21/1 102/23/1 4/24/1 3/22/1
f 104/24/2 103/22/2 8/21/2 7/23/2
f 102/21/3 109/23/3 10/24/3 4/22/3
f 110/24/4 104/22/4 7/21/4 12/23/4
f 109/21/5 113/23/5 14/24/5 10/22/5
f 114/24/6 110/22/6 12/21/6 16/23/6
f 113/21/7 117/23/7 18/24/7 14/22/7
f 118/24/8 114/22/8 16/21/8 20/23/8
f 117/21/9 121/23/9 22/24/9 18/22/9
f 122/24/10 118/22/10 20/21/10 24/23/10
f 121/21/11 125/23/11 26/24/11 22/22/11
f 126/24/12 122/22/12 24/21/12 28/23/12
f 125/21/13 129/23/13 30/24/13 26/22/13
f 130/24/14 126/22/14 28/21/14 32/23/14
f 129/21/15 133/23/15 34/24/15 30/22/15
f 134/24/16 130/22/16 32/21/16 36/23/16
f 133/21/17 137/23/17 38/24/17 34/22/17
f 138/24/18 134/22/18 36/21/18 40/23/18
f 137/21/19 141/23/19 42/24/19 38/22/19
f 142/24/20 138/22/20 40/21/20 44/23/20
f 141/21/21 145/23/21 46/24/21 42/22/21
f 146/24/22 142/22/22 44/21/22 48/23/22
f 145/21/23 149/23/23 50/24/23 46/22/23
f 150/24/24 146/22/24 48/21/24 52/23/24
f 149/21/25 153/23/25 54/24/25 50/22/25
f 154/24/26 150/22/26 52/21/26 56/23/26
f 153/21/27 157/23/27 58/24/27 54/22/27
f 158/24/28 154/22/28 56/21/28 60/23/28
f 157/21/29 161/23/29 62/24/29 58/22/29
f 162/24/30 158/22/30 60/21/30 64/23/30
f 161/21/31 165/23/31 66/24/31 62/22/31
f 166/24/32 162/22/32 64/21/32 68/23/32
f 165/21/33 169/23/33 70/24/33 66/22/33
f 170/24/34 166/22/34 68/21/34 72/23/34
f 169/21/35 173/23/35 74/24/35 70/22/35
f 174/24/36 170/22/36 72/21/36 76/23/36
f 173/21/37 177/23/37 78/24/37 74/22/37
f 178/24/38 174/22/38 76/21/38 80/23/38
f 177/21/39 181/23/39 82/24/39 78/22/39
f 182/24/40 178/22/40 80/21/40 84/23/40
f 181/21/41 185/23/41 86/24/41 82/22/41
f 186/24/42 182/22/42 84/21/42 88/23/42
f 185/21/43 189/23/43 90/24/43 86/22/43
f 190/24/44 186/22/44 88/21/44 92/23/44
f 189/21/45 193/23/45 94/24/45 90/22/45
f 194/24/46 190/22/46 92/21/46 96/23/46
f 193/21/47 197/23/47 98/24/47 94/22/47
f 198/24/48 194/22/48 96/21/48 100/23/48
f 105/24/1 106/22/1 1/21/1 2/23/1
f 107/21/4 112/23/4 11/24/4 5/22/4
f 108/21/2 107/23/2 5/24/2 6/22/2
f 111/24/3 105/22/3 2/21/3 9/23/3
f 112/21/6 116/23/6 15/24/6 11/22/6
f 115/24/5 111/22/5 9/21/5 13/23/5
f 116/21/8 120/23/8 19/24/8 15/22/8
f 119/24/7 115/22/7 13/21/7 17/23/7
f 120/21/10 124/23/10 23/24/10 19/22/10
f 123/24/9 119/22/9 17/21/9 21/23/9
f 124/21/12 128/23/12 27/24/12 23/22/12
f 127/24/11 123/22/11 21/21/11 25/23/11
f 128/21/14 132/23/14 31/24/14 27/22/14
f 131/24/13 127/22/13 25/21/13 29/23/13
f 132/21/16 136/23/16 35/24/16 31/22/16
f 135/24/15 131/22/15 29/21/15 33/23/15
f 136/21/18 140/23/18 39/24/18 35/22/18
f 139/24/17 135/22/17 33/21/17 37/23/17
f 140/21/20 144/23/20 43/24/20 39/22/20
f 143/24/19 139/22/19 37/21/19 41/23/19
f 144/21/22 148/23/22 47/24/22 43/22/22
f 147/24/21 143/22/21 41/21/21 45/23/21
f 148/21/24 152/23/24 51/24/24 47/22/24
f 151/24/23 147/22/23 45/21/23 49/23/23
f 152/21/26 156/23/26 55/24/26 51/22/26
f 155/24/25 151/22/25 49/21/25 53/23/25
f 156/21/28 160/23/28 59/24/28 55/22/28
f 159/24/27 155/22/27 53/21/27 57/23/27
f 160/21/30 164/23/30 63/24/30 59/22/30
f 163/24/29 159/22/29 57/21/29 61/23/29
f 164/21/32 168/23/32 67/24/32 63/22/32
f 167/24/31 163/22/31 61/21/31 65/23/31
f 168/21/34 172/23/34 71/24/34 67/22/34
f 171/24/33 167/22/33 65/21/33 69/23/33
f 172/21/36 176/23/36 75/24/36 71/22/36
f 175/24/35 171/22/35 69/21/35 73/23/35
f 176/21/38 180/23/38 79/24/38 75/22/38
f 179/24/37 175/22/37 73/21/37 77/23/37
f 180/21/40 184/23/40 83/24/40 79/22/40
f 183/24/39 179/22/39 77/21/39 81/23/39
f 184/21/42 188/23/42 87/24/42 83/22/42
f 187/24/41 183/22/41 81/21/41 85/23/41
f 188/21/44 192/23/44 91/24/44 87/22/44
f 191/24/43 187/22/43 85/21/43 89/23/43
f 192/21/46 196/23/46 95/24/46 91/22/46
f 195/24/45 191/22/45 89/21/45 93/23/45
f 196/21/48 200/23/48 99/24/48 95/22/48
f 199/24/47 195/22/47 93/21/47 97/23/47

usemtl bm_grid_blank4
f 3/3/1 4/4/1 2/2/1 1/1/1
f 4/4/3 10/10/3 9/9/3 2/2/3
f 10/10/5 14/14/5 13/13/5 9/9/5
f 14/14/7 18/18/7 17/17/7 13/13/7
f 18/3/9 22/4/9 21/2/9 17/1/9
f 22/4/11 26/10/11 25/9/11 21/2/11
f 26/10/13 30/14/13 29/13/13 25/9/13
f 30/14/15 34/18/15 33/17/15 29/13/15
f 34/3/17 38/4/17 37/2/17 33/1/17
f 38/4/19 42/10/19 41/9/19 37/2/19
f 42/10/21 46/14/21 45/13/21 41/9/21
f 46/14/23 50/18/23 49/17/23 45/13/23
f 50/3/25 54/4/25 53/2/25 49/1/25
f 54/4/27 58/10/27 57/9/27 53/2/27
f 58/10/29 62/14/29 61/13/29 57/9/29
f 62/14/31 66/18/31 65/17/31 61/13/31
f 66/3/33 70/4/33 69/2/33 65/1/33
f 70/4/35 74/10/35 73/9/35 69/2/35
f 74/10/37 78/14/37 77/13/37 73/9/37
f 78/14/39 82/18/39 81/17/39 77/13/39
f 82/3/41 86/4/41 85/2/41 81/1/41
f 86/4/43 90/10/43 89/9/43 85/2/43
f 90/10/45 94/14/45 93/13/45 89/9/45
f 94/14/47 98/18/47 97/17/47 93/13/47

