# ProBuilder 4.5.2
# https://unity3d.com/unity/features/worldbuilding/probuilder
# 4/15/2023 7:42:41 PM

mtllib ./IvresseBMTrimCurve3.mtl
o IvresseBMTrimCurve3

g Arch (57)
v 0 0 0
v 0.09874964 1.192093E-07 -1.128713
v 0 0.5 2.980232E-08
v 0.09874964 0.5000001 -1.128713
v 0.3919978 2.384186E-07 -2.223131
v 0.3919978 0.5000002 -2.223131
v 0.8708348 2.384186E-07 -3.25
v 0.8708348 0.5000002 -3.25
v 1.520711 4.768372E-07 -4.178119
v 1.520711 0.5000005 -4.178119
v 2.32188 4.768372E-07 -4.979289
v 2.32188 0.5000005 -4.979289
v 3.25 4.768372E-07 -5.629166
v 3.25 0.5000005 -5.629166
v 4.276869 4.768372E-07 -6.108002
v 4.276869 0.5000005 -6.108002
v 5.371286 4.768372E-07 -6.40125
v 5.371286 0.5000005 -6.40125
v 6.5 4.768372E-07 -6.5
v 6.5 0.5000005 -6.5
v 7.628713 4.768372E-07 -6.40125
v 7.628713 0.5000005 -6.40125
v 8.723131 4.768372E-07 -6.108002
v 8.723131 0.5000005 -6.108002
v 9.75 4.768372E-07 -5.629165
v 9.75 0.5000005 -5.629165
v 10.67812 4.768372E-07 -4.979289
v 10.67812 0.5000005 -4.979289
v 11.47929 4.768372E-07 -4.17812
v 11.47929 0.5000005 -4.17812
v 12.12917 2.384186E-07 -3.25
v 12.12917 0.5000002 -3.25
v 12.608 2.384186E-07 -2.223131
v 12.608 0.5000002 -2.223131
v 12.90125 1.192093E-07 -1.128714
v 12.90125 0.5000001 -1.128714
v 13 -5.684342E-14 5.68248E-07
v 13 0.5 5.960464E-07
v 0.5911536 1.192093E-07 -1.041889
v 0.5 0 0
v 0.8618441 2.384186E-07 -2.052121
v 1.303848 2.384186E-07 -3
v 1.903733 2.384186E-07 -3.856725
v 2.643274 4.768372E-07 -4.596267
v 3.5 4.768372E-07 -5.196153
v 4.447879 4.768372E-07 -5.638156
v 5.458111 4.768372E-07 -5.908846
v 6.5 4.768372E-07 -6
v 7.541889 4.768372E-07 -5.908846
v 8.55212 4.768372E-07 -5.638156
v 9.5 4.768372E-07 -5.196152
v 10.35673 4.768372E-07 -4.596267
v 11.09627 2.384186E-07 -3.856726
v 11.69615 2.384186E-07 -3
v 12.13816 2.384186E-07 -2.052121
v 12.40885 1.192093E-07 -1.04189
v 12.5 -5.684342E-14 5.245366E-07
v 0 2.5 0
v 0.09875107 2.5 -1.128714
v 0 3 0
v 0.09875107 3 -1.128714
v 0.5911522 2.5 -1.041889
v 0.5 2.5 0
v 0.5911522 3 -1.041889
v 0.5 3 0
v 0.3919983 2.5 -2.223131
v 0.3919983 3 -2.223131
v 0.8618431 2.5 -2.05212
v 0.8618431 3 -2.05212
v 0.8708344 2.5 -3.25
v 0.8708344 3 -3.25
v 1.303848 2.5 -3
v 1.303848 3 -3
v 1.52071 2.5 -4.17812
v 1.52071 3 -4.17812
v 1.903732 2.5 -3.856726
v 1.903732 3 -3.856726
v 2.32188 2.5 -4.97929
v 2.32188 3 -4.97929
v 2.643272 2.5 -4.596268
v 2.643272 3 -4.596268
v 3.25 2.5 -5.629166
v 3.25 3 -5.629166
v 3.5 2.5 -5.196152
v 3.5 3 -5.196152
v 4.276871 2.5 -6.108002
v 4.276871 3 -6.108002
v 4.44788 2.5 -5.638157
v 4.44788 3 -5.638157
v 5.371284 2.5 -6.401251
v 5.371284 3 -6.401251
v 5.458111 2.5 -5.908846
v 5.458111 3 -5.908846
v 6.5 2.5 -6.5
v 6.5 3 -6.5
v 6.5 2.5 -6
v 6.5 3 -6
v 7.628712 2.5 -6.401251
v 7.628712 3 -6.401251
v 7.541889 2.5 -5.908846
v 7.541889 3 -5.908846
v 8.723129 2.5 -6.108002
v 8.723129 3 -6.108002
v 8.55212 2.5 -5.638157
v 8.55212 3 -5.638157
v 9.75 2.5 -5.629166
v 9.75 3 -5.629166
v 9.5 2.5 -5.196152
v 9.5 3 -5.196152
v 10.67812 2.5 -4.97929
v 10.67812 3 -4.97929
v 10.35673 2.5 -4.596268
v 10.35673 3 -4.596268
v 11.47929 2.5 -4.17812
v 11.47929 3 -4.17812
v 11.09627 2.5 -3.856726
v 11.09627 3 -3.856726
v 12.12917 2.5 -3.25
v 12.12917 3 -3.25
v 11.69615 2.5 -3
v 11.69615 3 -3
v 12.608 2.5 -2.223131
v 12.608 3 -2.223131
v 12.13816 2.5 -2.05212
v 12.13816 3 -2.05212
v 12.90125 2.5 -1.128714
v 12.90125 3 -1.128714
v 12.40884 2.5 -1.041889
v 12.40884 3 -1.041889
v 13 2.5 0
v 13 3 0
v 12.5 2.5 0
v 12.5 3 0
v 5.022789 0 -0.2604713
v 5 0 0
v 5.022789 0.5 -0.2604713
v 5 0.5 0
v 5.090462 0 -0.513031
v 5.090462 0.5000001 -0.513031
v 5.200962 0 -0.75
v 5.200962 0.5000001 -0.75
v 5.350933 0 -0.9641819
v 5.350933 0.5000001 -0.9641819
v 5.53582 1.192093E-07 -1.149067
v 5.53582 0.5000001 -1.149067
v 5.75 1.192093E-07 -1.299038
v 5.75 0.5000001 -1.299038
v 5.986969 1.192093E-07 -1.409538
v 5.986969 0.5000001 -1.409538
v 6.239529 1.192093E-07 -1.477211
v 6.239529 0.5000001 -1.477211
v 6.5 1.192093E-07 -1.5
v 6.5 0.5000001 -1.5
v 6.760471 1.192093E-07 -1.477211
v 6.760471 0.5000001 -1.477211
v 7.013031 1.192093E-07 -1.409538
v 7.013031 0.5000001 -1.409538
v 7.25 1.192093E-07 -1.299038
v 7.25 0.5000001 -1.299038
v 7.46418 1.192093E-07 -1.149067
v 7.46418 0.5000001 -1.149067
v 7.649067 0 -0.9641819
v 7.649067 0.5000001 -0.9641819
v 7.799038 0 -0.75
v 7.799038 0.5000001 -0.75
v 7.909538 0 -0.513031
v 7.909538 0.5000001 -0.513031
v 7.977211 0 -0.2604733
v 7.977211 0.5 -0.2604733
v 8 0 0
v 8 0.5 0
v 4.5 0.5 0
v 4.530384 0.5 -0.3472958
v 4.530384 0 -0.3472958
v 4.5 0 0
v 4.620613 0.5000001 -0.6840401
v 4.620613 0 -0.6840401
v 4.767948 0.5000001 -1
v 4.767948 0 -1
v 4.967911 0.5000001 -1.285576
v 4.967911 1.192093E-07 -1.285576
v 5.214424 0.5000001 -1.532089
v 5.214424 1.192093E-07 -1.532089
v 5.5 0.5000001 -1.732052
v 5.5 1.192093E-07 -1.732052
v 5.81596 0.5000001 -1.879385
v 5.81596 1.192093E-07 -1.879385
v 6.152702 0.5000001 -1.969616
v 6.152702 1.192093E-07 -1.969616
v 6.5 0.5000001 -2
v 6.5 1.192093E-07 -2
v 6.847298 0.5000001 -1.969616
v 6.847298 1.192093E-07 -1.969616
v 7.18404 0.5000001 -1.879385
v 7.18404 1.192093E-07 -1.879385
v 7.5 0.5000001 -1.73205
v 7.5 1.192093E-07 -1.73205
v 7.785576 0.5000001 -1.532089
v 7.785576 1.192093E-07 -1.532089
v 8.032089 0.5000001 -1.285576
v 8.032089 1.192093E-07 -1.285576
v 8.232052 0.5000001 -1
v 8.232052 5.960464E-08 -1
v 8.379387 0.5000001 -0.6840401
v 8.379387 0 -0.6840401
v 8.469616 0.5 -0.3472958
v 8.469616 0 -0.3472958
v 8.5 0.5 0
v 8.5 0 0

vt 1 -2
vt -1 -2
vt 1 -1
vt -1 -1
vt 1 3
vt 1 1
vt 1.192093E-07 3
vt 1.192093E-07 1
vt -1 5.960464E-08
vt -3 -2.980232E-08
vt -1 1
vt -3 0.9999999
vt 0 0
vt 0 2
vt 1 0
vt 1 2

vn -0.9961947 5.194889E-09 -0.08715577
vn -0.9659259 0 -0.258819
vn -0.9063078 0 -0.4226183
vn -0.8191521 0 -0.5735765
vn -0.707107 0 -0.7071066
vn -0.5735765 0 -0.8191521
vn -0.4226182 0 -0.9063078
vn -0.258819 0 -0.9659259
vn -0.0871557 0 -0.9961947
vn 0.08715581 0 -0.9961947
vn 0.2588188 0 -0.9659259
vn 0.4226184 0 -0.9063078
vn 0.5735763 0 -0.8191522
vn 0.7071068 0 -0.7071068
vn 0.8191518 0 -0.5735767
vn 0.9063081 0 -0.4226176
vn 0.9659256 0 -0.2588198
vn 0.9961948 0 -0.08715525
vn 1.833988E-08 -1 -1.040107E-07
vn 0.9961948 0 0.08715452
vn 0.9659258 0 0.2588193
vn 0.9063072 0 0.4226195
vn 0.8191528 0 0.5735753
vn 0.7071077 0 0.7071059
vn 0.5735744 0 0.8191534
vn 0.4226195 0 0.9063072
vn 0.2588176 0 0.9659262
vn 0.08715633 0 0.9961947
vn -0.08715633 0 0.9961947
vn -0.2588176 0 0.9659262
vn -0.4226195 0 0.9063072
vn -0.5735744 0 0.8191534
vn -0.7071077 0 0.7071059
vn -0.8191528 0 0.5735753
vn -0.9063072 0 0.4226195
vn -0.9659266 0 0.2588159
vn -0.9961945 0 0.08715813
vn 0 1 0

usemtl bm_edge_white
f 3/3/1 4/4/1 2/2/1 1/1/1
f 4/3/2 6/4/2 5/2/2 2/1/2
f 6/3/3 8/4/3 7/2/3 5/1/3
f 8/3/4 10/4/4 9/2/4 7/1/4
f 10/3/5 12/4/5 11/2/5 9/1/5
f 12/3/6 14/4/6 13/2/6 11/1/6
f 14/3/7 16/4/7 15/2/7 13/1/7
f 16/3/8 18/4/8 17/2/8 15/1/8
f 18/3/9 20/4/9 19/2/9 17/1/9
f 20/3/10 22/4/10 21/2/10 19/1/10
f 22/3/11 24/4/11 23/2/11 21/1/11
f 24/3/12 26/4/12 25/2/12 23/1/12
f 26/3/13 28/4/13 27/2/13 25/1/13
f 28/3/14 30/4/14 29/2/14 27/1/14
f 30/3/15 32/4/15 31/2/15 29/1/15
f 32/3/16 34/4/16 33/2/16 31/1/16
f 34/3/17 36/4/17 35/2/17 33/1/17
f 36/3/18 38/4/18 37/2/18 35/1/18
f 39/7/19 40/8/19 1/6/19 2/5/19
f 41/7/19 39/8/19 2/6/19 5/5/19
f 42/7/19 41/8/19 5/6/19 7/5/19
f 43/7/19 42/8/19 7/6/19 9/5/19
f 44/7/19 43/8/19 9/6/19 11/5/19
f 45/7/19 44/8/19 11/6/19 13/5/19
f 46/7/19 45/8/19 13/6/19 15/5/19
f 47/7/19 46/8/19 15/6/19 17/5/19
f 48/7/19 47/8/19 17/6/19 19/5/19
f 49/7/19 48/8/19 19/6/19 21/5/19
f 50/7/19 49/8/19 21/6/19 23/5/19
f 51/7/19 50/8/19 23/6/19 25/5/19
f 52/7/19 51/8/19 25/6/19 27/5/19
f 53/7/19 52/8/19 27/6/19 29/5/19
f 54/7/19 53/8/19 29/6/19 31/5/19
f 55/7/19 54/8/19 31/6/19 33/5/19
f 56/7/19 55/8/19 33/6/19 35/5/19
f 57/7/19 56/8/19 35/6/19 37/5/19
f 60/3/1 61/4/1 59/2/1 58/1/1
f 64/11/20 65/12/20 63/10/20 62/9/20
f 61/3/2 67/4/2 66/2/2 59/1/2
f 69/11/21 64/12/21 62/10/21 68/9/21
f 67/3/3 71/4/3 70/2/3 66/1/3
f 73/11/22 69/12/22 68/10/22 72/9/22
f 71/3/4 75/4/4 74/2/4 70/1/4
f 77/11/23 73/12/23 72/10/23 76/9/23
f 75/3/5 79/4/5 78/2/5 74/1/5
f 81/11/24 77/12/24 76/10/24 80/9/24
f 79/3/6 83/4/6 82/2/6 78/1/6
f 85/11/25 81/12/25 80/10/25 84/9/25
f 83/3/7 87/4/7 86/2/7 82/1/7
f 89/11/26 85/12/26 84/10/26 88/9/26
f 87/3/8 91/4/8 90/2/8 86/1/8
f 93/11/27 89/12/27 88/10/27 92/9/27
f 91/3/9 95/4/9 94/2/9 90/1/9
f 97/11/28 93/12/28 92/10/28 96/9/28
f 95/3/10 99/4/10 98/2/10 94/1/10
f 101/11/29 97/12/29 96/10/29 100/9/29
f 99/3/11 103/4/11 102/2/11 98/1/11
f 105/11/30 101/12/30 100/10/30 104/9/30
f 103/3/12 107/4/12 106/2/12 102/1/12
f 109/11/31 105/12/31 104/10/31 108/9/31
f 107/3/13 111/4/13 110/2/13 106/1/13
f 113/11/32 109/12/32 108/10/32 112/9/32
f 111/3/14 115/4/14 114/2/14 110/1/14
f 117/11/33 113/12/33 112/10/33 116/9/33
f 115/3/15 119/4/15 118/2/15 114/1/15
f 121/11/34 117/12/34 116/10/34 120/9/34
f 119/3/16 123/4/16 122/2/16 118/1/16
f 125/11/35 121/12/35 120/10/35 124/9/35
f 123/3/17 127/4/17 126/2/17 122/1/17
f 129/11/36 125/12/36 124/10/36 128/9/36
f 127/3/18 131/4/18 130/2/18 126/1/18
f 133/11/37 129/12/37 128/10/37 132/9/37
f 65/15/38 64/16/38 61/14/38 60/13/38
f 64/15/38 69/16/38 67/14/38 61/13/38
f 69/15/38 73/16/38 71/14/38 67/13/38
f 73/15/38 77/16/38 75/14/38 71/13/38
f 77/15/38 81/16/38 79/14/38 75/13/38
f 81/15/38 85/16/38 83/14/38 79/13/38
f 85/15/38 89/16/38 87/14/38 83/13/38
f 89/15/38 93/16/38 91/14/38 87/13/38
f 93/15/38 97/16/38 95/14/38 91/13/38
f 97/15/38 101/16/38 99/14/38 95/13/38
f 101/15/38 105/16/38 103/14/38 99/13/38
f 105/15/38 109/16/38 107/14/38 103/13/38
f 109/15/38 113/16/38 111/14/38 107/13/38
f 113/15/38 117/16/38 115/14/38 111/13/38
f 117/15/38 121/16/38 119/14/38 115/13/38
f 121/15/38 125/16/38 123/14/38 119/13/38
f 125/15/38 129/16/38 127/14/38 123/13/38
f 129/15/38 133/16/38 131/14/38 127/13/38
f 136/6/20 137/8/20 135/13/20 134/15/20
f 139/6/21 136/8/21 134/13/21 138/15/21
f 141/6/22 139/8/22 138/13/22 140/15/22
f 143/6/23 141/8/23 140/13/23 142/15/23
f 145/6/24 143/8/24 142/13/24 144/15/24
f 147/6/25 145/8/25 144/13/25 146/15/25
f 149/6/26 147/8/26 146/13/26 148/15/26
f 151/6/27 149/8/27 148/13/27 150/15/27
f 153/6/28 151/8/28 150/13/28 152/15/28
f 155/6/29 153/8/29 152/13/29 154/15/29
f 157/6/30 155/8/30 154/13/30 156/15/30
f 159/6/31 157/8/31 156/13/31 158/15/31
f 161/6/32 159/8/32 158/13/32 160/15/32
f 163/6/33 161/8/33 160/13/33 162/15/33
f 165/6/34 163/8/34 162/13/34 164/15/34
f 167/6/35 165/8/35 164/13/35 166/15/35
f 169/6/36 167/8/36 166/13/36 168/15/36
f 171/6/37 169/8/37 168/13/37 170/15/37
f 137/15/38 136/6/38 173/8/38 172/13/38
f 134/8/19 135/13/19 175/15/19 174/6/19
f 136/15/38 139/6/38 176/8/38 173/13/38
f 138/8/19 134/13/19 174/15/19 177/6/19
f 139/15/38 141/6/38 178/8/38 176/13/38
f 140/8/19 138/13/19 177/15/19 179/6/19
f 141/15/38 143/6/38 180/8/38 178/13/38
f 142/8/19 140/13/19 179/15/19 181/6/19
f 143/15/38 145/6/38 182/8/38 180/13/38
f 144/8/19 142/13/19 181/15/19 183/6/19
f 145/15/38 147/6/38 184/8/38 182/13/38
f 146/8/19 144/13/19 183/15/19 185/6/19
f 147/15/38 149/6/38 186/8/38 184/13/38
f 148/8/19 146/13/19 185/15/19 187/6/19
f 149/15/38 151/6/38 188/8/38 186/13/38
f 150/8/19 148/13/19 187/15/19 189/6/19
f 151/15/38 153/6/38 190/8/38 188/13/38
f 152/8/19 150/13/19 189/15/19 191/6/19
f 153/15/38 155/6/38 192/8/38 190/13/38
f 154/8/19 152/13/19 191/15/19 193/6/19
f 155/15/38 157/6/38 194/8/38 192/13/38
f 156/8/19 154/13/19 193/15/19 195/6/19
f 157/15/38 159/6/38 196/8/38 194/13/38
f 158/8/19 156/13/19 195/15/19 197/6/19
f 159/15/38 161/6/38 198/8/38 196/13/38
f 160/8/19 158/13/19 197/15/19 199/6/19
f 161/15/38 163/6/38 200/8/38 198/13/38
f 162/8/19 160/13/19 199/15/19 201/6/19
f 163/15/38 165/6/38 202/8/38 200/13/38
f 164/8/19 162/13/19 201/15/19 203/6/19
f 165/15/38 167/6/38 204/8/38 202/13/38
f 166/8/19 164/13/19 203/15/19 205/6/19
f 167/15/38 169/6/38 206/8/38 204/13/38
f 168/8/19 166/13/19 205/15/19 207/6/19
f 169/15/38 171/6/38 208/8/38 206/13/38
f 170/8/19 168/13/19 207/15/19 209/6/19

