# ProBuilder 4.5.2
# https://unity3d.com/unity/features/worldbuilding/probuilder
# 4/15/2023 7:28:26 PM

mtllib ./IvresseBMTrimCurve1.mtl
o IvresseBMTrimCurve1

g Arch (44)
v 1.044272E-05 8.302835E-06 -3.499986
v -0.5229241 -0.02282286 -3.499988
v 1.193455E-05 1.016435E-05 -4.000001
v -0.5229226 -0.02282041 -4.000003
v -0.4793477 -0.5209193 -3.499989
v 8.952603E-06 -0.4999918 -3.499987
v -0.4793462 -0.5209175 -4.000003
v 1.050404E-05 -0.4999899 -4.000002
v -1.041879 -0.0911423 -3.49999
v -1.041878 -0.09114087 -4.000004
v -0.9550564 -0.5835473 -3.499991
v -0.9550549 -0.583545 -4.000005
v -1.552905 -0.2044332 -3.499992
v -1.552903 -0.2044308 -4.000006
v -1.423496 -0.6873967 -3.499993
v -1.423495 -0.6873942 -4.000007
v -2.052111 -0.3618317 -3.499994
v -2.05211 -0.3618286 -4.000008
v -1.881103 -0.8316784 -3.499995
v -1.881101 -0.831676 -4.000009
v -2.535701 -0.5621397 -3.499996
v -2.5357 -0.5621367 -4.00001
v -2.324393 -1.015293 -3.499997
v -2.324392 -1.015291 -4.00001
v -2.999993 -0.8038316 -3.499997
v -2.999991 -0.8038299 -4.000011
v -2.749994 -1.236845 -3.499997
v -2.749992 -1.236843 -4.000012
v -3.441452 -1.085072 -3.499999
v -3.44145 -1.085069 -4.000014
v -3.154665 -1.494648 -3.499999
v -3.154663 -1.494645 -4.000014
v -3.85672 -1.403716 -3.500001
v -3.856718 -1.403713 -4.000016
v -3.535327 -1.786738 -3.500001
v -3.535326 -1.786736 -4.000016
v -4.242636 -1.75734 -3.500003
v -4.242634 -1.757339 -4.000018
v -3.889083 -2.110896 -3.500003
v -3.889082 -2.110893 -4.000018
v -4.596263 -2.143254 -3.500005
v -4.596262 -2.143253 -4.00002
v -4.213242 -2.46465 -3.500005
v -4.21324 -2.464647 -4.00002
v -4.914909 -2.55852 -3.500007
v -4.914908 -2.558519 -4.000022
v -4.505335 -2.845311 -3.500007
v -4.505333 -2.845308 -4.000021
v -5.196152 -2.99998 -3.50001
v -5.19615 -2.999977 -4.000024
v -4.76314 -3.24998 -3.50001
v -4.763138 -3.249978 -4.000024
v -5.437848 -3.464269 -3.500012
v -5.437846 -3.464267 -4.000026
v -4.984694 -3.67558 -3.50001
v -4.984692 -3.675577 -4.000026
v -5.638158 -3.947858 -3.500014
v -5.638156 -3.947855 -4.000028
v -5.168312 -4.118868 -3.500012
v -5.16831 -4.118866 -4.000027
v -5.795559 -4.447063 -3.500014
v -5.795557 -4.447061 -4.00003
v -5.312595 -4.576474 -3.500015
v -5.312593 -4.576472 -4.000029
v -5.908852 -4.958088 -3.500017
v -5.908849 -4.958086 -4.000031
v -5.416447 -5.044914 -3.500015
v -5.416445 -5.044911 -4.00003
v -5.977175 -5.477043 -3.500017
v -5.977172 -5.47704 -4.000033
v -5.479077 -5.520622 -3.500017
v -5.479075 -5.52062 -4.000031
v -6.000009 -5.999978 -3.50002
v -6.000006 -5.999976 -4.000034
v -5.500008 -5.999979 -3.500017
v -5.500006 -5.999977 -4.000032
v -5.977178 -6.522912 -3.50002
v -5.977175 -6.52291 -4.000036
v -5.479081 -6.479336 -3.50002
v -5.479078 -6.479334 -4.000033
v -5.908857 -7.041867 -3.500022
v -5.908855 -7.041865 -4.000036
v -5.416453 -6.955045 -3.50002
v -5.416451 -6.955042 -4.000035
v -5.795568 -7.552893 -3.500022
v -5.795565 -7.55289 -4.000037
v -5.312604 -7.423484 -3.500021
v -5.312602 -7.423482 -4.000036
v -5.63817 -8.052099 -3.500023
v -5.638167 -8.052097 -4.000039
v -5.168323 -7.881091 -3.500021
v -5.16832 -7.881088 -4.000036
v -5.437862 -8.535688 -3.500023
v -5.43786 -8.535686 -4.000039
v -4.984707 -8.324382 -3.500023
v -4.984705 -8.324379 -4.000037
v -5.196169 -8.999979 -3.500024
v -5.196167 -8.999977 -4.000039
v -4.763155 -8.749981 -3.500024
v -4.763153 -8.749979 -4.000037
v -4.91493 -9.441439 -3.500024
v -4.914927 -9.441437 -4.000039
v -4.505353 -9.154652 -3.500024
v -4.50535 -9.15465 -4.000038
v -4.596286 -9.856707 -3.500025
v -4.596284 -9.856705 -4.000039
v -4.213263 -9.535314 -3.500022
v -4.213261 -9.535312 -4.000038
v -4.242661 -10.24262 -3.500025
v -4.242659 -10.24262 -4.000039
v -3.889107 -9.889071 -3.500022
v -3.889104 -9.889069 -4.000037
v -3.856747 -10.59625 -3.500025
v -3.856745 -10.59625 -4.000039
v -3.535353 -10.21323 -3.500023
v -3.53535 -10.21323 -4.000037
v -3.441482 -10.9149 -3.500024
v -3.441479 -10.91489 -4.000039
v -3.154692 -10.50532 -3.500023
v -3.15469 -10.50532 -4.000037
v -3.000024 -11.19614 -3.500024
v -3.000021 -11.19613 -4.000038
v -2.750022 -10.76313 -3.500021
v -2.750019 -10.76312 -4.000037
v -2.535733 -11.43783 -3.500024
v -2.535731 -11.43783 -4.000038
v -2.324424 -10.98468 -3.500022
v -2.324421 -10.98468 -4.000035
v -2.052146 -11.63814 -3.500022
v -2.052143 -11.63814 -4.000036
v -1.881135 -11.1683 -3.50002
v -1.881132 -11.16829 -4.000035
v -1.552939 -11.79554 -3.500021
v -1.552937 -11.79554 -4.000036
v -1.423529 -11.31258 -3.50002
v -1.423526 -11.31258 -4.000033
v -1.041915 -11.90884 -3.500021
v -1.041912 -11.90883 -4.000034
v -0.955089 -11.41643 -3.500018
v -0.9550862 -11.41643 -4.000033
v -0.5229605 -11.97716 -3.500019
v -0.5229577 -11.97716 -4.000033
v -0.4793807 -11.47906 -3.500016
v -0.4793779 -11.47906 -4.000031
v -2.484329E-05 -11.99999 -3.500017
v -2.187319E-05 -11.99999 -4.000031
v -2.383E-05 -11.49999 -3.500017
v -2.000955E-05 -11.49999 -4.000031

vt 1 0
vt 0 0
vt 1 1
vt 0 1

vn -0.04361814 0.9990483 3.589244E-06
vn 0.04361603 -0.9990484 -3.43759E-06
vn -0.1305219 0.9914455 4.456653E-06
vn 0.1305257 -0.9914449 -4.086523E-06
vn -0.2164383 0.9762962 2.07071E-06
vn 0.2164371 -0.9762965 -4.165558E-06
vn -0.3007044 0.9537174 3.615563E-06
vn 0.3007038 -0.9537176 -3.615566E-06
vn -0.3826812 0.9238805 4.632044E-06
vn 0.38268 -0.9238809 -2.467197E-06
vn -0.4617442 0.8870131 3.957146E-06
vn 0.461746 -0.8870122 -2.476802E-06
vn -0.5372996 0.8433914 1.021661E-06
vn 0.5372982 -0.8433923 -3.233485E-06
vn -0.6087586 0.7933555 3.642458E-06
vn 0.6087582 -0.7933559 -9.064122E-07
vn -0.6755871 0.7372801 1.612123E-06
vn 0.6755899 -0.7372777 -2.315205E-06
vn -0.7372749 0.6755928 -1.201705E-06
vn 0.7372742 -0.6755936 -4.08992E-07
vn -0.7933525 0.6087626 -1.284678E-06
vn 0.7933524 -0.6087627 -4.569561E-07
vn -0.8433902 0.5373015 -3.276031E-07
vn 0.8433892 -0.5373031 1.423792E-06
vn -0.887009 0.4617521 -7.414829E-07
vn 0.88701 -0.4617501 7.414961E-07
vn -0.9238788 0.3826851 -2.064433E-06
vn 0.9238783 -0.3826865 2.064422E-06
vn -0.9537156 0.3007101 -1.77402E-06
vn 0.9537163 -0.3007078 2.204191E-06
vn -0.9762956 0.2164416 -3.829564E-06
vn 0.9762955 -0.2164421 2.692115E-06
vn -0.9914445 0.130529 -4.105053E-06
vn 0.9914443 -0.1305304 3.284032E-06
vn -0.9990481 0.04362315 -4.555676E-06
vn 0.9990481 -0.04362263 4.555687E-06
vn -0.9990483 -0.04361781 -4.930079E-06
vn 0.9990484 0.04361581 4.930081E-06
vn -0.9914452 -0.1305234 -5.22532E-06
vn 0.9914451 0.1305242 5.349812E-06
vn -0.9762967 -0.2164364 -5.687237E-06
vn 0.9762967 0.2164364 5.687215E-06
vn -0.9537178 -0.3007032 -5.981369E-06
vn 0.9537175 0.3007042 5.981366E-06
vn -0.9238808 -0.3826805 -5.865035E-06
vn 0.9238811 0.3826799 6.594938E-06
vn -0.8870116 -0.4617473 -5.990838E-06
vn 0.8870117 0.461747 5.990863E-06
vn -0.8433934 -0.5372965 -6.071054E-06
vn 0.8433926 0.5372978 6.875373E-06
vn -0.7933555 -0.6087587 -6.861644E-06
vn 0.7933556 0.6087584 6.105057E-06
vn -0.7372786 -0.6755888 -6.092608E-06
vn 0.7372801 0.6755872 6.79571E-06
vn -0.6755939 -0.737274 -6.03379E-06
vn 0.675592 0.7372757 6.678061E-06
vn -0.6087624 -0.7933525 -7.732468E-06
vn 0.6087641 0.7933514 6.219318E-06
vn -0.5373024 -0.8433896 -6.291551E-06
vn 0.5373004 0.8433909 6.291541E-06
vn -0.4617514 -0.8870094 -7.71745E-06
vn 0.4617508 0.8870097 6.025672E-06
vn -0.3826853 -0.9238788 -7.476016E-06
vn 0.3826875 0.9238778 7.475999E-06
vn -0.3007075 -0.9537165 -5.358654E-06
vn 0.300707 0.9537166 5.358659E-06
vn -0.2164421 -0.9762955 -4.962614E-06
vn 0.2164411 0.9762957 3.04893E-06
vn -0.1305271 -0.9914448 -6.450919E-06
vn 0.1305293 0.9914445 4.505484E-06
vn -0.04362676 -0.9990479 -2.149903E-06
vn 0.0436237 0.9990481 4.144275E-06
vn 3.564123E-06 1.907338E-06 -1

usemtl bm_edge_white
f 3/3/1 4/4/1 2/2/1 1/1/1
f 7/3/2 8/4/2 6/2/2 5/1/2
f 4/3/3 10/4/3 9/2/3 2/1/3
f 12/3/4 7/4/4 5/2/4 11/1/4
f 10/3/5 14/4/5 13/2/5 9/1/5
f 16/3/6 12/4/6 11/2/6 15/1/6
f 14/3/7 18/4/7 17/2/7 13/1/7
f 20/3/8 16/4/8 15/2/8 19/1/8
f 18/3/9 22/4/9 21/2/9 17/1/9
f 24/3/10 20/4/10 19/2/10 23/1/10
f 22/3/11 26/4/11 25/2/11 21/1/11
f 28/3/12 24/4/12 23/2/12 27/1/12
f 26/3/13 30/4/13 29/2/13 25/1/13
f 32/3/14 28/4/14 27/2/14 31/1/14
f 30/3/15 34/4/15 33/2/15 29/1/15
f 36/3/16 32/4/16 31/2/16 35/1/16
f 34/3/17 38/4/17 37/2/17 33/1/17
f 40/3/18 36/4/18 35/2/18 39/1/18
f 38/3/19 42/4/19 41/2/19 37/1/19
f 44/3/20 40/4/20 39/2/20 43/1/20
f 42/3/21 46/4/21 45/2/21 41/1/21
f 48/3/22 44/4/22 43/2/22 47/1/22
f 46/3/23 50/4/23 49/2/23 45/1/23
f 52/3/24 48/4/24 47/2/24 51/1/24
f 50/3/25 54/4/25 53/2/25 49/1/25
f 56/3/26 52/4/26 51/2/26 55/1/26
f 54/3/27 58/4/27 57/2/27 53/1/27
f 60/3/28 56/4/28 55/2/28 59/1/28
f 58/3/29 62/4/29 61/2/29 57/1/29
f 64/3/30 60/4/30 59/2/30 63/1/30
f 62/3/31 66/4/31 65/2/31 61/1/31
f 68/3/32 64/4/32 63/2/32 67/1/32
f 66/3/33 70/4/33 69/2/33 65/1/33
f 72/3/34 68/4/34 67/2/34 71/1/34
f 70/3/35 74/4/35 73/2/35 69/1/35
f 76/3/36 72/4/36 71/2/36 75/1/36
f 74/3/37 78/4/37 77/2/37 73/1/37
f 80/3/38 76/4/38 75/2/38 79/1/38
f 78/3/39 82/4/39 81/2/39 77/1/39
f 84/3/40 80/4/40 79/2/40 83/1/40
f 82/3/41 86/4/41 85/2/41 81/1/41
f 88/3/42 84/4/42 83/2/42 87/1/42
f 86/3/43 90/4/43 89/2/43 85/1/43
f 92/3/44 88/4/44 87/2/44 91/1/44
f 90/3/45 94/4/45 93/2/45 89/1/45
f 96/3/46 92/4/46 91/2/46 95/1/46
f 94/3/47 98/4/47 97/2/47 93/1/47
f 100/3/48 96/4/48 95/2/48 99/1/48
f 98/3/49 102/4/49 101/2/49 97/1/49
f 104/3/50 100/4/50 99/2/50 103/1/50
f 102/3/51 106/4/51 105/2/51 101/1/51
f 108/3/52 104/4/52 103/2/52 107/1/52
f 106/3/53 110/4/53 109/2/53 105/1/53
f 112/3/54 108/4/54 107/2/54 111/1/54
f 110/3/55 114/4/55 113/2/55 109/1/55
f 116/3/56 112/4/56 111/2/56 115/1/56
f 114/3/57 118/4/57 117/2/57 113/1/57
f 120/3/58 116/4/58 115/2/58 119/1/58
f 118/3/59 122/4/59 121/2/59 117/1/59
f 124/3/60 120/4/60 119/2/60 123/1/60
f 122/3/61 126/4/61 125/2/61 121/1/61
f 128/3/62 124/4/62 123/2/62 127/1/62
f 126/3/63 130/4/63 129/2/63 125/1/63
f 132/3/64 128/4/64 127/2/64 131/1/64
f 130/3/65 134/4/65 133/2/65 129/1/65
f 136/3/66 132/4/66 131/2/66 135/1/66
f 134/3/67 138/4/67 137/2/67 133/1/67
f 140/3/68 136/4/68 135/2/68 139/1/68
f 138/3/69 142/4/69 141/2/69 137/1/69
f 144/3/70 140/4/70 139/2/70 143/1/70
f 142/3/71 146/4/71 145/2/71 141/1/71
f 148/3/72 144/4/72 143/2/72 147/1/72
f 8/3/73 7/4/73 4/2/73 3/1/73
f 7/3/73 12/4/73 10/2/73 4/1/73
f 12/3/73 16/4/73 14/2/73 10/1/73
f 16/3/73 20/4/73 18/2/73 14/1/73
f 20/3/73 24/4/73 22/2/73 18/1/73
f 24/3/73 28/4/73 26/2/73 22/1/73
f 28/3/73 32/4/73 30/2/73 26/1/73
f 32/3/73 36/4/73 34/2/73 30/1/73
f 36/3/73 40/4/73 38/2/73 34/1/73
f 40/3/73 44/4/73 42/2/73 38/1/73
f 44/3/73 48/4/73 46/2/73 42/1/73
f 48/3/73 52/4/73 50/2/73 46/1/73
f 52/3/73 56/4/73 54/2/73 50/1/73
f 56/3/73 60/4/73 58/2/73 54/1/73
f 60/3/73 64/4/73 62/2/73 58/1/73
f 64/3/73 68/4/73 66/2/73 62/1/73
f 68/3/73 72/4/73 70/2/73 66/1/73
f 72/3/73 76/4/73 74/2/73 70/1/73
f 76/3/73 80/4/73 78/2/73 74/1/73
f 80/3/73 84/4/73 82/2/73 78/1/73
f 84/3/73 88/4/73 86/2/73 82/1/73
f 88/3/73 92/4/73 90/2/73 86/1/73
f 92/3/73 96/4/73 94/2/73 90/1/73
f 96/3/73 100/4/73 98/2/73 94/1/73
f 100/3/73 104/4/73 102/2/73 98/1/73
f 104/3/73 108/4/73 106/2/73 102/1/73
f 108/3/73 112/4/73 110/2/73 106/1/73
f 112/3/73 116/4/73 114/2/73 110/1/73
f 116/3/73 120/4/73 118/2/73 114/1/73
f 120/3/73 124/4/73 122/2/73 118/1/73
f 124/3/73 128/4/73 126/2/73 122/1/73
f 128/3/73 132/4/73 130/2/73 126/1/73
f 132/3/73 136/4/73 134/2/73 130/1/73
f 136/3/73 140/4/73 138/2/73 134/1/73
f 140/3/73 144/4/73 142/2/73 138/1/73
f 144/3/73 148/4/73 146/2/73 142/1/73

