# ProBuilder 4.5.2
# https://unity3d.com/unity/features/worldbuilding/probuilder
# 4/15/2023 7:41:16 PM

mtllib ./IvresseBMTrimCurve2.mtl
o IvresseBMTrimCurve2

g Arch (61)
v -3.856747 -10.59625 -3.500025
v -3.441482 -10.9149 -3.500024
v -3.856745 -10.59625 -4.000039
v -3.441479 -10.91489 -4.000039
v -3.154692 -10.50532 -3.500023
v -3.535353 -10.21323 -3.500023
v -3.15469 -10.50532 -4.000037
v -3.53535 -10.21323 -4.000037
v -3.000024 -11.19614 -3.500024
v -3.000021 -11.19613 -4.000038
v -2.750022 -10.76313 -3.500021
v -2.750019 -10.76312 -4.000037
v -2.535733 -11.43783 -3.500024
v -2.535731 -11.43783 -4.000038
v -2.324424 -10.98468 -3.500022
v -2.324421 -10.98468 -4.000035
v -2.052146 -11.63814 -3.500022
v -2.052143 -11.63814 -4.000036
v -1.881135 -11.1683 -3.50002
v -1.881132 -11.16829 -4.000035
v -1.552939 -11.79554 -3.500021
v -1.552937 -11.79554 -4.000036
v -1.423529 -11.31258 -3.50002
v -1.423526 -11.31258 -4.000033
v -1.041915 -11.90884 -3.500021
v -1.041912 -11.90883 -4.000034
v -0.955089 -11.41643 -3.500018
v -0.9550862 -11.41643 -4.000033
v -0.5229605 -11.97716 -3.500019
v -0.5229577 -11.97716 -4.000033
v -0.4793807 -11.47906 -3.500016
v -0.4793779 -11.47906 -4.000031
v -2.484329E-05 -11.99999 -3.500017
v -2.187319E-05 -11.99999 -4.000031
v -2.383E-05 -11.49999 -3.500017
v -2.000955E-05 -11.49999 -4.000031
v -3.856752 -10.59625 2.999976
v -3.441488 -10.9149 2.999978
v -3.856749 -10.59625 2.499962
v -3.441483 -10.9149 2.499962
v -3.154697 -10.50532 2.999978
v -3.535358 -10.21323 2.999978
v -3.154694 -10.50532 2.499964
v -3.535355 -10.21323 2.499964
v -3.00003 -11.19614 2.999978
v -3.000025 -11.19614 2.499963
v -2.750026 -10.76313 2.99998
v -2.750022 -10.76313 2.499964
v -2.535738 -11.43784 2.999977
v -2.535733 -11.43783 2.499963
v -2.324426 -10.98468 2.999979
v -2.324424 -10.98468 2.499966
v -2.05215 -11.63815 2.999979
v -2.052147 -11.63814 2.499965
v -1.881138 -11.1683 2.999982
v -1.881136 -11.1683 2.499966
v -1.552944 -11.79555 2.99998
v -1.55294 -11.79554 2.499965
v -1.423533 -11.31258 2.999981
v -1.423531 -11.31258 2.499967
v -1.04192 -11.90884 2.99998
v -1.041916 -11.90884 2.499966
v -0.9550929 -11.41643 2.999983
v -0.9550886 -11.41643 2.499968
v -0.5229649 -11.97716 2.999983
v -0.5229605 -11.97716 2.499968
v -0.4793848 -11.47906 2.999985
v -0.4793805 -11.47906 2.49997
v -2.897811E-05 -12 2.999985
v -2.462523E-05 -11.99999 2.499969
v -2.611709E-05 -11.5 2.999985
v -2.17642E-05 -11.49999 2.49997
v -3.726868 -10.05253 2.999979
v -3.726864 -10.05253 2.499963
v -4.048262 -10.43556 2.999977
v -4.04826 -10.43555 2.499961
v -4.048264 -10.43556 -4.000108
v -3.726868 -10.05254 -4.000107

vt 1 0
vt 0 0
vt 1 1
vt 0 1
vt -2.928573E-08 -1
vt -0.9999999 -1
vt -1.48495E-07 -2
vt -0.9999999 -2
vt -1.192093E-07 4
vt -1.192093E-07 5
vt 0.5 4
vt 0.5 5
vt -2.980232E-08 2
vt -2.980232E-08 3
vt 0.5 2.000006
vt 0.5 3.000006
vt 1 4.999999
vt 1 3.999999
vt 0.4999999 4.999997
vt 0.4999999 3.999997
vt 1 3.000006
vt 0.9999999 2.000006
vt 0.5000001 2.999997
vt 0.5 1.999997
vt 0.5000004 18
vt 1 18
vt 0.5000001 4.999999
vt 1 5
vt 1.192093E-07 18
vt 0.4999999 5
vt -0.000199675 -0.9999999
vt 13 -2
vt 13 -1

vn -0.6087624 -0.7933525 -7.732468E-06
vn 0.6087641 0.7933514 6.219318E-06
vn -0.5373024 -0.8433896 -6.291551E-06
vn 0.5373004 0.8433909 6.291541E-06
vn -0.4617514 -0.8870094 -7.71745E-06
vn 0.4617508 0.8870097 6.025672E-06
vn -0.3826853 -0.9238788 -7.476016E-06
vn 0.3826875 0.9238778 7.475999E-06
vn -0.3007075 -0.9537165 -5.358654E-06
vn 0.300707 0.9537166 5.358659E-06
vn -0.2164421 -0.9762955 -4.962614E-06
vn 0.2164411 0.9762957 3.04893E-06
vn -0.1305271 -0.9914448 -6.450919E-06
vn 0.1305293 0.9914445 4.505484E-06
vn -0.04362676 -0.9990479 -2.149903E-06
vn 0.0436237 0.9990481 4.144275E-06
vn 2.324461E-06 3.029281E-06 -1
vn -2.531384E-06 1.190395E-06 1
vn -0.7660444 0.6427878 -4.488111E-06
vn 0.6427934 0.7660397 9.215732E-06
vn -0.6427919 -0.7660409 -7.754673E-06

usemtl bm_edge_white
f 3/3/1 4/4/1 2/2/1 1/1/1
f 7/3/2 8/4/2 6/2/2 5/1/2
f 4/3/3 10/4/3 9/2/3 2/1/3
f 12/3/4 7/4/4 5/2/4 11/1/4
f 10/3/5 14/4/5 13/2/5 9/1/5
f 16/3/6 12/4/6 11/2/6 15/1/6
f 14/3/7 18/4/7 17/2/7 13/1/7
f 20/3/8 16/4/8 15/2/8 19/1/8
f 18/3/9 22/4/9 21/2/9 17/1/9
f 24/3/10 20/4/10 19/2/10 23/1/10
f 22/3/11 26/4/11 25/2/11 21/1/11
f 28/3/12 24/4/12 23/2/12 27/1/12
f 26/3/13 30/4/13 29/2/13 25/1/13
f 32/3/14 28/4/14 27/2/14 31/1/14
f 30/3/15 34/4/15 33/2/15 29/1/15
f 36/3/16 32/4/16 31/2/16 35/1/16
f 8/3/17 7/4/17 4/2/17 3/1/17
f 5/3/18 6/4/18 1/2/18 2/1/18
f 7/3/17 12/4/17 10/2/17 4/1/17
f 11/3/18 5/4/18 2/2/18 9/1/18
f 12/3/17 16/4/17 14/2/17 10/1/17
f 15/3/18 11/4/18 9/2/18 13/1/18
f 16/3/17 20/4/17 18/2/17 14/1/17
f 19/3/18 15/4/18 13/2/18 17/1/18
f 20/3/17 24/4/17 22/2/17 18/1/17
f 23/3/18 19/4/18 17/2/18 21/1/18
f 24/3/17 28/4/17 26/2/17 22/1/17
f 27/3/18 23/4/18 21/2/18 25/1/18
f 28/3/17 32/4/17 30/2/17 26/1/17
f 31/3/18 27/4/18 25/2/18 29/1/18
f 32/3/17 36/4/17 34/2/17 30/1/17
f 35/3/18 31/4/18 29/2/18 33/1/18
f 39/3/1 40/4/1 38/2/1 37/1/1
f 43/3/2 44/4/2 42/2/2 41/1/2
f 40/3/3 46/4/3 45/2/3 38/1/3
f 48/3/4 43/4/4 41/2/4 47/1/4
f 46/3/5 50/4/5 49/2/5 45/1/5
f 52/3/6 48/4/6 47/2/6 51/1/6
f 50/3/7 54/4/7 53/2/7 49/1/7
f 56/3/8 52/4/8 51/2/8 55/1/8
f 54/3/9 58/4/9 57/2/9 53/1/9
f 60/3/10 56/4/10 55/2/10 59/1/10
f 58/3/11 62/4/11 61/2/11 57/1/11
f 64/3/12 60/4/12 59/2/12 63/1/12
f 62/3/13 66/4/13 65/2/13 61/1/13
f 68/3/14 64/4/14 63/2/14 67/1/14
f 66/3/15 70/4/15 69/2/15 65/1/15
f 72/3/16 68/4/16 67/2/16 71/1/16
f 44/3/17 43/4/17 40/2/17 39/1/17
f 41/3/18 42/4/18 37/2/18 38/1/18
f 43/3/17 48/4/17 46/2/17 40/1/17
f 47/3/18 41/4/18 38/2/18 45/1/18
f 48/3/17 52/4/17 50/2/17 46/1/17
f 51/3/18 47/4/18 45/2/18 49/1/18
f 52/3/17 56/4/17 54/2/17 50/1/17
f 55/3/18 51/4/18 49/2/18 53/1/18
f 56/3/17 60/4/17 58/2/17 54/1/17
f 59/3/18 55/4/18 53/2/18 57/1/18
f 60/3/17 64/4/17 62/2/17 58/1/17
f 63/3/18 59/4/18 57/2/18 61/1/18
f 64/3/17 68/4/17 66/2/17 62/1/17
f 67/3/18 63/4/18 61/2/18 65/1/18
f 68/3/17 72/4/17 70/2/17 66/1/17
f 71/3/18 67/4/18 65/2/18 69/1/18

usemtl bm_trim
f 76/8/19 75/7/19 73/5/19 74/6/19
f 74/11/20 73/12/20 42/10/20 44/9/20
f 73/15/18 75/16/18 37/14/18 42/13/18
f 75/19/21 76/20/21 39/18/21 37/17/21
f 77/23/17 78/24/17 8/22/17 3/21/17
f 77/27/21 3/28/21 39/26/21 76/25/21
f 8/10/20 78/30/20 74/25/20 44/29/20
f 78/32/19 77/33/19 76/31/19 74/7/19

