# ProBuilder 4.5.2
# https://unity3d.com/unity/features/worldbuilding/probuilder
# 2/24/2022 4:32:30 PM

mtllib ./MatrixSensationBMCurve1.mtl
o MatrixSensationBMCurve1

g Arch (10)
v 0 0 0
v 2.877335E-07 -0.05988348 -0.9136837
v 4 1.239777E-05 0
v 4 -0.05987108 -0.9136837
v 1.77007E-06 -0.555606 -0.8484221
v 1.490116E-06 -0.5000001 -1.430511E-06
v 4.000002 -0.5555936 -0.8484223
v 4.000002 -0.4999877 -1.430511E-06
v 9.312312E-07 -0.2385142 -1.811734
v 4.000001 -0.2385018 -1.811734
v 2.346316E-06 -0.7214777 -1.682326
v 4.000003 -0.7214653 -1.682326
v 1.928661E-06 -0.5328362 -2.678786
v 4.000002 -0.5328238 -2.678786
v 3.276758E-06 -0.9947766 -2.487446
v 4.000004 -0.9947642 -2.487446
v 3.218651E-06 -0.9378128 -3.500003
v 4.000004 -0.9378004 -3.500003
v 4.440546E-06 -1.370826 -3.250004
v 4.000005 -1.370814 -3.250004
v 4.799525E-06 -1.446515 -4.261335
v 4.000005 -1.446502 -4.261334
v 5.955332E-06 -1.843193 -3.956955
v 4.000007 -1.84318 -3.956955
v 6.788939E-06 -2.050239 -4.949754
v 4.000007 -2.050227 -4.949754
v 7.700466E-06 -2.403794 -4.596201
v 4.000008 -2.403782 -4.596201
v 8.768257E-06 -2.738655 -5.553482
v 4.000009 -2.738642 -5.553482
v 9.674644E-06 -3.043037 -5.156806
v 4.00001 -3.043025 -5.156806
v 1.121309E-05 -3.499984 -6.062189
v 4.000012 -3.499972 -6.06219
v 1.187672E-05 -3.749985 -5.629177
v 4.000012 -3.749973 -5.629176
v 1.364555E-05 -4.321199 -6.46717
v 4.000014 -4.321187 -6.46717
v 1.406732E-05 -4.512542 -6.00523
v 4.000015 -4.512529 -6.00523
v 1.606482E-05 -5.188249 -6.761497
v 4.000017 -5.188236 -6.761497
v 1.648408E-05 -5.317659 -6.278534
v 4.000017 -5.317647 -6.278534
v 1.894714E-05 -6.086298 -6.940133
v 4.00002 -6.086286 -6.940132
v 1.888804E-05 -6.151563 -6.44441
v 4.00002 -6.15155 -6.44441
v 2.18153E-05 -6.999982 -7.000021
v 4.000022 -6.99997 -7.000021
v 2.17557E-05 -6.999984 -6.500021
v 4.000022 -6.999971 -6.500021
v 2.419235E-05 -7.913665 -6.940137
v 4.000025 -7.913653 -6.940138
v 2.413325E-05 -7.848403 -6.444415
v 4.000025 -7.848391 -6.444416
v 2.750891E-05 -8.811716 -6.761507
v 4.000028 -8.811703 -6.761508
v 2.649766E-05 -8.682307 -6.278543
v 4.000027 -8.682295 -6.278543
v 2.938118E-05 -9.678766 -6.467185
v 4.00003 -9.678755 -6.467185
v 2.932611E-05 -9.487427 -6.005245
v 4.00003 -9.487413 -6.005246
v 3.219392E-05 -10.49998 -6.062209
v 4.000033 -10.49997 -6.062209
v 3.118863E-05 -10.24999 -5.629195
v 4.000031 -10.24997 -5.629195
v 3.404063E-05 -11.26132 -5.553506
v 4.000034 -11.2613 -5.553507
v 3.303967E-05 -10.95694 -5.156828
v 4.000033 -10.95692 -5.156829
v 3.5876E-05 -11.94973 -4.949782
v 4.000036 -11.94972 -4.949782
v 3.488018E-05 -11.59618 -4.596228
v 4.000035 -11.59617 -4.596228
v 3.770129E-05 -12.55346 -4.261366
v 4.000038 -12.55345 -4.261367
v 3.671133E-05 -12.15679 -3.956985
v 4.000037 -12.15677 -3.956985
v 3.951788E-05 -13.06217 -3.500038
v 4.00004 -13.06216 -3.500038
v 3.758073E-05 -12.62916 -3.250037
v 4.000038 -12.62915 -3.250037
v 4.037366E-05 -13.46715 -2.678823
v 4.000041 -13.46714 -2.678823
v 3.939717E-05 -13.00521 -2.48748
v 4.00004 -13.0052 -2.48748
v 4.122397E-05 -13.76148 -1.811774
v 4.000041 -13.76147 -1.811774
v 3.930119E-05 -13.27851 -1.682363
v 4.00004 -13.2785 -1.682362
v 4.207059E-05 -13.94011 -0.9137242
v 4.000042 -13.9401 -0.9137242
v 4.015546E-05 -13.44439 -0.8484597
v 4.000041 -13.44438 -0.8484595
v 4.196167E-05 -14 -3.944236E-05
v 4.000042 -13.99999 -3.933907E-05
v 4.005432E-05 -13.5 -3.805556E-05
v 4.000041 -13.49999 -3.814697E-05

vt 0.9999998 -1
vt 0.4999999 -1
vt 1 1
vt 0.5000001 1
vt 2.384186E-07 0.5
vt 2.384186E-07 1
vt 2 0.5
vt 2 1
vt -2.086163E-07 -1
vt 0.4999999 1
vt 1.192093E-07 0
vt 2 0
vt 2 0.9999998
vt 0 0.9999998
vt 4.768372E-07 9
vt 1 9

vn -3.092806E-06 0.9978591 -0.06540039
vn 3.096704E-06 -0.9978591 0.06540023
vn -3.036982E-06 0.9807858 -0.1950876
vn 3.039888E-06 -0.9807858 0.1950879
vn -2.915798E-06 0.9469309 -0.3214372
vn 2.954116E-06 -0.9469309 0.321437
vn -2.779808E-06 0.896874 -0.4422861
vn 2.779808E-06 -0.8968741 0.442286
vn -2.577097E-06 0.8314716 -0.5555673
vn 2.577096E-06 -0.8314711 0.5555681
vn -2.251687E-06 0.7518411 -0.6593443
vn 2.330288E-06 -0.7518412 0.6593442
vn -2.04361E-06 0.6593481 -0.7518378
vn 2.133237E-06 -0.6593482 0.7518377
vn -1.821084E-06 0.555573 -0.8314678
vn 1.523729E-06 -0.5555733 0.8314676
vn -1.477769E-06 0.4422907 -0.8968717
vn 1.370854E-06 -0.4422908 0.8968717
vn -9.96292E-07 0.3214425 -0.9469291
vn 9.962922E-07 -0.3214425 0.9469291
vn -7.215992E-07 0.1950934 -0.9807847
vn 6.046788E-07 -0.1950928 0.9807848
vn -8.376697E-08 0.06540566 -0.9978588
vn 2.027229E-07 -0.06540626 0.9978587
vn 2.027052E-07 -0.06540058 -0.9978591
vn -8.37501E-08 0.06540023 0.9978591
vn 4.877422E-07 -0.1950871 -0.9807859
vn -6.046635E-07 0.1950879 0.9807858
vn 9.600292E-07 -0.3214372 -0.9469309
vn -9.600263E-07 0.3214363 0.9469312
vn 1.372305E-06 -0.4422858 -0.8968742
vn -1.370841E-06 0.4422864 0.8968739
vn 1.854409E-06 -0.5555683 -0.831471
vn -1.622833E-06 0.5555685 0.8314708
vn 1.95397E-06 -0.6593436 -0.7518417
vn -2.043598E-06 0.6593439 0.7518415
vn 2.330277E-06 -0.7518378 -0.6593481
vn -2.509526E-06 0.751837 0.659349
vn 2.510855E-06 -0.8314676 -0.5555732
vn -2.577085E-06 0.8314674 0.5555735
vn 2.56597E-06 -0.8968718 -0.4422906
vn -2.565973E-06 0.8968726 0.4422891
vn 2.954111E-06 -0.9469295 -0.3214415
vn -2.96369E-06 0.9469289 0.3214431
vn 2.806046E-06 -0.9807844 -0.1950949
vn -3.048606E-06 0.9807847 0.1950934
vn 3.093779E-06 -0.9978588 -0.06540511
vn -3.09131E-06 0.9978588 0.06540567
vn 1 2.861023E-06 -1.875135E-07
vn -1 -3.005777E-06 -1.179151E-07
vn 8.867572E-12 -2.861023E-06 1

usemtl bm_tile08_A
f 7/7/2 8/8/2 6/6/2 5/5/2
f 12/12/4 7/7/4 5/5/4 11/11/4
f 16/7/6 12/8/6 11/6/6 15/5/6
f 20/12/8 16/7/8 15/5/8 19/11/8
f 24/7/10 20/8/10 19/6/10 23/5/10
f 28/12/12 24/7/12 23/5/12 27/11/12
f 32/7/14 28/8/14 27/6/14 31/5/14
f 36/12/16 32/7/16 31/5/16 35/11/16
f 40/7/18 36/8/18 35/6/18 39/5/18
f 44/12/20 40/7/20 39/5/20 43/11/20
f 48/7/22 44/8/22 43/6/22 47/5/22
f 52/12/24 48/7/24 47/5/24 51/11/24
f 56/7/26 52/8/26 51/6/26 55/5/26
f 60/12/28 56/7/28 55/5/28 59/11/28
f 64/7/30 60/8/30 59/6/30 63/5/30
f 68/12/32 64/7/32 63/5/32 67/11/32
f 72/7/34 68/8/34 67/6/34 71/5/34
f 76/12/36 72/7/36 71/5/36 75/11/36
f 80/7/38 76/8/38 75/6/38 79/5/38
f 84/12/40 80/7/40 79/5/40 83/11/40
f 88/7/42 84/8/42 83/6/42 87/5/42
f 92/12/44 88/7/44 87/5/44 91/11/44
f 96/7/46 92/8/46 91/6/46 95/5/46
f 100/12/48 96/7/48 95/5/48 99/11/48

usemtl bm_edge_white
f 8/13/49 7/14/49 4/11/49 3/12/49
f 5/13/50 6/14/50 1/11/50 2/12/50
f 7/13/49 12/14/49 10/11/49 4/12/49
f 11/13/50 5/14/50 2/11/50 9/12/50
f 12/13/49 16/14/49 14/11/49 10/12/49
f 15/13/50 11/14/50 9/11/50 13/12/50
f 16/13/49 20/14/49 18/11/49 14/12/49
f 19/13/50 15/14/50 13/11/50 17/12/50
f 20/13/49 24/14/49 22/11/49 18/12/49
f 23/13/50 19/14/50 17/11/50 21/12/50
f 24/13/49 28/14/49 26/11/49 22/12/49
f 27/13/50 23/14/50 21/11/50 25/12/50
f 28/13/49 32/14/49 30/11/49 26/12/49
f 31/13/50 27/14/50 25/11/50 29/12/50
f 32/13/49 36/14/49 34/11/49 30/12/49
f 35/13/50 31/14/50 29/11/50 33/12/50
f 36/13/49 40/14/49 38/11/49 34/12/49
f 39/13/50 35/14/50 33/11/50 37/12/50
f 40/13/49 44/14/49 42/11/49 38/12/49
f 43/13/50 39/14/50 37/11/50 41/12/50
f 44/13/49 48/14/49 46/11/49 42/12/49
f 47/13/50 43/14/50 41/11/50 45/12/50
f 48/13/49 52/14/49 50/11/49 46/12/49
f 51/13/50 47/14/50 45/11/50 49/12/50
f 52/13/49 56/14/49 54/11/49 50/12/49
f 55/13/50 51/14/50 49/11/50 53/12/50
f 56/13/49 60/14/49 58/11/49 54/12/49
f 59/13/50 55/14/50 53/11/50 57/12/50
f 60/13/49 64/14/49 62/11/49 58/12/49
f 63/13/50 59/14/50 57/11/50 61/12/50
f 64/13/49 68/14/49 66/11/49 62/12/49
f 67/13/50 63/14/50 61/11/50 65/12/50
f 68/13/49 72/14/49 70/11/49 66/12/49
f 71/13/50 67/14/50 65/11/50 69/12/50
f 72/13/49 76/14/49 74/11/49 70/12/49
f 75/13/50 71/14/50 69/11/50 73/12/50
f 76/13/49 80/14/49 78/11/49 74/12/49
f 79/13/50 75/14/50 73/11/50 77/12/50
f 80/13/49 84/14/49 82/11/49 78/12/49
f 83/13/50 79/14/50 77/11/50 81/12/50
f 84/13/49 88/14/49 86/11/49 82/12/49
f 87/13/50 83/14/50 81/11/50 85/12/50
f 88/13/49 92/14/49 90/11/49 86/12/49
f 91/13/50 87/14/50 85/11/50 89/12/50
f 92/13/49 96/14/49 94/11/49 90/12/49
f 95/13/50 91/14/50 89/11/50 93/12/50
f 96/13/49 100/14/49 98/11/49 94/12/49
f 99/13/50 95/14/50 93/11/50 97/12/50

usemtl bm_trim
f 6/3/51 8/16/51 3/15/51 1/6/51

usemtl bm_grid_blank2
f 3/3/1 4/4/1 2/2/1 1/1/1
f 4/10/3 10/6/3 9/9/3 2/2/3
f 10/3/5 14/4/5 13/2/5 9/1/5
f 14/10/7 18/6/7 17/9/7 13/2/7
f 18/3/9 22/4/9 21/2/9 17/1/9
f 22/10/11 26/6/11 25/9/11 21/2/11
f 26/3/13 30/4/13 29/2/13 25/1/13
f 30/10/15 34/6/15 33/9/15 29/2/15
f 34/3/17 38/4/17 37/2/17 33/1/17
f 38/10/19 42/6/19 41/9/19 37/2/19
f 42/3/21 46/4/21 45/2/21 41/1/21
f 46/10/23 50/6/23 49/9/23 45/2/23
f 50/3/25 54/4/25 53/2/25 49/1/25
f 54/10/27 58/6/27 57/9/27 53/2/27
f 58/3/29 62/4/29 61/2/29 57/1/29
f 62/10/31 66/6/31 65/9/31 61/2/31
f 66/3/33 70/4/33 69/2/33 65/1/33
f 70/10/35 74/6/35 73/9/35 69/2/35
f 74/3/37 78/4/37 77/2/37 73/1/37
f 78/10/39 82/6/39 81/9/39 77/2/39
f 82/3/41 86/4/41 85/2/41 81/1/41
f 86/10/43 90/6/43 89/9/43 85/2/43
f 90/3/45 94/4/45 93/2/45 89/1/45
f 94/10/47 98/6/47 97/9/47 93/2/47

