# ProBuilder 4.5.2
# https://unity3d.com/unity/features/worldbuilding/probuilder
# 2/24/2022 4:33:29 PM

mtllib ./MatrixSensationBMCurve2.mtl
o MatrixSensationBMCurve2

g Arch (13)
v 0 0 0
v 2.332737E-07 0.05988336 0.9136836
v 4 -1.215935E-05 -4.768372E-07
v 4 0.0598712 0.9136829
v 1.7195E-06 0.5556059 0.8484219
v 1.490116E-06 0.5 1.400709E-06
v 4.000002 0.5555937 0.8484213
v 4.000001 0.4999878 9.536743E-07
v 8.232435E-07 0.2385141 1.811734
v 4.000001 0.2385019 1.811733
v 2.246042E-06 0.7214776 1.682326
v 4.000002 0.7214655 1.682325
v 1.768993E-06 0.532836 2.678786
v 4.000001 0.5328238 2.678785
v 3.128495E-06 0.9947762 2.487445
v 4.000003 0.9947641 2.487445
v 3.010035E-06 0.9378123 3.500003
v 4.000003 0.9378002 3.500002
v 4.246831E-06 1.370826 3.250004
v 4.000004 1.370813 3.250003
v 4.545529E-06 1.446514 4.261334
v 4.000005 1.446502 4.261333
v 5.71948E-06 1.843192 3.956954
v 4.000006 1.84318 3.956954
v 6.493911E-06 2.050238 4.949753
v 4.000007 2.050226 4.949753
v 7.426512E-06 2.403793 4.5962
v 4.000008 2.403781 4.5962
v 8.437244E-06 2.738654 5.553481
v 4.000009 2.738642 5.553481
v 9.367275E-06 3.043036 5.156805
v 4.00001 3.043024 5.156805
v 1.085175E-05 3.499983 6.062188
v 4.000011 3.499971 6.062188
v 1.15412E-05 3.749984 5.629176
v 4.000011 3.749971 5.629176
v 1.326008E-05 4.321197 6.467168
v 4.000013 4.321185 6.467168
v 1.370938E-05 4.512541 6.005229
v 4.000014 4.512528 6.005229
v 1.56618E-05 5.188247 6.761495
v 4.000016 5.188234 6.761495
v 1.610985E-05 5.317657 6.278533
v 4.000016 5.317645 6.278532
v 1.853348E-05 6.086296 6.940131
v 4.000019 6.086284 6.940131
v 1.850393E-05 6.15156 6.444408
v 4.000019 6.151548 6.444408
v 2.139807E-05 6.99998 7.00002
v 4.000021 6.999968 7.000019
v 2.136827E-05 6.999981 6.50002
v 4.000021 6.999969 6.500019
v 2.377868E-05 7.913664 6.940136
v 4.000024 7.913651 6.940135
v 2.374914E-05 7.848402 6.444414
v 4.000024 7.84839 6.444413
v 2.71059E-05 8.811713 6.761506
v 4.000027 8.811701 6.761505
v 2.612343E-05 8.682305 6.278542
v 4.000026 8.682293 6.278542
v 2.89957E-05 9.678765 6.467184
v 4.000029 9.678753 6.467184
v 2.896817E-05 9.487425 6.005244
v 4.000029 9.487412 6.005243
v 3.183259E-05 10.49998 6.062207
v 4.000032 10.49997 6.062207
v 3.08531E-05 10.24998 5.629194
v 4.000031 10.24997 5.629193
v 3.370961E-05 11.26131 5.553505
v 4.000034 11.2613 5.553504
v 3.27323E-05 10.95694 5.156827
v 4.000033 10.95692 5.156826
v 3.558098E-05 11.94973 4.949781
v 4.000036 11.94972 4.94978
v 3.460623E-05 11.59618 4.596226
v 4.000035 11.59617 4.596226
v 3.744729E-05 12.55346 4.261365
v 4.000038 12.55345 4.261365
v 3.647548E-05 12.15679 3.956983
v 4.000036 12.15677 3.956983
v 3.930926E-05 13.06217 3.500037
v 4.000039 13.06215 3.500037
v 3.738701E-05 12.62916 3.250036
v 4.000037 12.62914 3.250035
v 4.021399E-05 13.46715 2.678822
v 4.00004 13.46714 2.678822
v 3.924891E-05 13.00521 2.487479
v 4.000039 13.0052 2.487478
v 4.111598E-05 13.76148 1.811772
v 4.000041 13.76146 1.811772
v 3.920092E-05 13.27851 1.682362
v 4.000039 13.2785 1.682361
v 4.201613E-05 13.94011 0.9137233
v 4.000042 13.9401 0.913723
v 4.010489E-05 13.44439 0.8484588
v 4.00004 13.44438 0.8484583
v 4.196167E-05 14 3.86079E-05
v 4.000042 13.99999 3.814697E-05
v 4.005432E-05 13.5 3.72509E-05
v 4.00004 13.49999 3.671646E-05

vt 0.9999998 -1
vt 0.4999999 -1
vt 1 1
vt 0.5000001 1
vt 2.384186E-07 0.5
vt 2.384186E-07 1
vt 2 0.5
vt 2 1
vt -2.086163E-07 -1
vt 0.4999999 1
vt 1.192093E-07 0
vt 2 0
vt 2 0.9999998
vt 0 0.9999998
vt -1.788139E-07 9
vt 0.9999998 9
vt 0.9999998 1

vn -3.025533E-06 -0.9978591 0.06540027
vn 3.024558E-06 0.9978591 -0.06540017
vn -2.949452E-06 -0.9807858 0.1950876
vn 2.958172E-06 0.9807857 -0.195088
vn -2.821038E-06 -0.946931 0.3214371
vn 2.840198E-06 0.9469311 -0.3214367
vn -2.673627E-06 -0.8968741 0.442286
vn 2.673627E-06 0.8968741 -0.4422859
vn -2.494423E-06 -0.8314714 0.5555676
vn 2.461307E-06 0.831471 -0.5555682
vn -2.162063E-06 -0.7518417 0.6593436
vn 2.162063E-06 0.7518417 -0.6593437
vn -1.875384E-06 -0.659348 0.7518378
vn 1.875384E-06 0.6593481 -0.7518378
vn -1.556616E-06 -0.5555724 0.8314682
vn 1.622848E-06 0.5555732 -0.8314676
vn -1.211214E-06 -0.4422908 0.8968717
vn 1.263938E-06 0.4422904 -0.8968719
vn -8.450904E-07 -0.3214425 0.9469291
vn 8.834091E-07 0.3214424 -0.9469292
vn -4.87762E-07 -0.1950934 0.9807847
vn 4.645036E-07 0.1950929 -0.9807848
vn -8.376708E-08 -0.06540569 0.9978588
vn 7.597183E-08 0.06540626 -0.9978587
vn 3.216591E-07 0.06540051 0.9978591
vn -3.21658E-07 -0.06540016 -0.9978591
vn 7.215808E-07 0.1950874 0.9807859
vn -7.215826E-07 -0.195088 -0.9807857
vn 1.109157E-06 0.3214366 0.9469311
vn -1.109156E-06 -0.3214363 -0.9469312
vn 1.477756E-06 0.4422862 0.896874
vn -1.477755E-06 -0.4422859 -0.8968741
vn 1.821069E-06 0.5555678 0.8314713
vn -1.821069E-06 -0.5555679 -0.8314712
vn 1.976027E-06 0.6593447 0.7518408
vn -2.133228E-06 -0.659345 -0.7518405
vn 2.229624E-06 0.7518371 0.659349
vn -2.268924E-06 -0.7518369 -0.6593492
vn 2.445079E-06 0.8314682 0.5555723
vn -2.643316E-06 -0.831468 -0.5555726
vn 2.806163E-06 0.8968713 0.4422915
vn -2.858889E-06 -0.8968716 -0.4422911
vn 2.973271E-06 0.9469291 0.3214425
vn -2.973271E-06 -0.9469293 -0.321442
vn 3.057328E-06 0.9807848 0.195093
vn -2.829305E-06 -0.9807849 -0.1950924
vn 3.097678E-06 0.9978588 0.06540616
vn -3.101544E-06 -0.9978587 -0.06540679
vn 1 -2.861023E-06 1.875132E-07
vn -1 3.005777E-06 5.831084E-08
vn -1.152227E-07 2.713998E-06 -1

usemtl bm_tile08_A
f 7/7/2 8/8/2 6/6/2 5/5/2
f 12/12/4 7/7/4 5/5/4 11/11/4
f 16/7/6 12/8/6 11/6/6 15/5/6
f 20/12/8 16/7/8 15/5/8 19/11/8
f 24/7/10 20/8/10 19/6/10 23/5/10
f 28/12/12 24/7/12 23/5/12 27/11/12
f 32/7/14 28/8/14 27/6/14 31/5/14
f 36/12/16 32/7/16 31/5/16 35/11/16
f 40/7/18 36/8/18 35/6/18 39/5/18
f 44/12/20 40/7/20 39/5/20 43/11/20
f 48/7/22 44/8/22 43/6/22 47/5/22
f 52/12/24 48/7/24 47/5/24 51/11/24
f 56/7/26 52/8/26 51/6/26 55/5/26
f 60/12/28 56/7/28 55/5/28 59/11/28
f 64/7/30 60/8/30 59/6/30 63/5/30
f 68/12/32 64/7/32 63/5/32 67/11/32
f 72/7/34 68/8/34 67/6/34 71/5/34
f 76/12/36 72/7/36 71/5/36 75/11/36
f 80/7/38 76/8/38 75/6/38 79/5/38
f 84/12/40 80/7/40 79/5/40 83/11/40
f 88/7/42 84/8/42 83/6/42 87/5/42
f 92/12/44 88/7/44 87/5/44 91/11/44
f 96/7/46 92/8/46 91/6/46 95/5/46
f 100/12/48 96/7/48 95/5/48 99/11/48

usemtl bm_edge_white
f 8/13/49 7/14/49 4/11/49 3/12/49
f 5/13/50 6/14/50 1/11/50 2/12/50
f 7/13/49 12/14/49 10/11/49 4/12/49
f 11/13/50 5/14/50 2/11/50 9/12/50
f 12/13/49 16/14/49 14/11/49 10/12/49
f 15/13/50 11/14/50 9/11/50 13/12/50
f 16/13/49 20/14/49 18/11/49 14/12/49
f 19/13/50 15/14/50 13/11/50 17/12/50
f 20/13/49 24/14/49 22/11/49 18/12/49
f 23/13/50 19/14/50 17/11/50 21/12/50
f 24/13/49 28/14/49 26/11/49 22/12/49
f 27/13/50 23/14/50 21/11/50 25/12/50
f 28/13/49 32/14/49 30/11/49 26/12/49
f 31/13/50 27/14/50 25/11/50 29/12/50
f 32/13/49 36/14/49 34/11/49 30/12/49
f 35/13/50 31/14/50 29/11/50 33/12/50
f 36/13/49 40/14/49 38/11/49 34/12/49
f 39/13/50 35/14/50 33/11/50 37/12/50
f 40/13/49 44/14/49 42/11/49 38/12/49
f 43/13/50 39/14/50 37/11/50 41/12/50
f 44/13/49 48/14/49 46/11/49 42/12/49
f 47/13/50 43/14/50 41/11/50 45/12/50
f 48/13/49 52/14/49 50/11/49 46/12/49
f 51/13/50 47/14/50 45/11/50 49/12/50
f 52/13/49 56/14/49 54/11/49 50/12/49
f 55/13/50 51/14/50 49/11/50 53/12/50
f 56/13/49 60/14/49 58/11/49 54/12/49
f 59/13/50 55/14/50 53/11/50 57/12/50
f 60/13/49 64/14/49 62/11/49 58/12/49
f 63/13/50 59/14/50 57/11/50 61/12/50
f 64/13/49 68/14/49 66/11/49 62/12/49
f 67/13/50 63/14/50 61/11/50 65/12/50
f 68/13/49 72/14/49 70/11/49 66/12/49
f 71/13/50 67/14/50 65/11/50 69/12/50
f 72/13/49 76/14/49 74/11/49 70/12/49
f 75/13/50 71/14/50 69/11/50 73/12/50
f 76/13/49 80/14/49 78/11/49 74/12/49
f 79/13/50 75/14/50 73/11/50 77/12/50
f 80/13/49 84/14/49 82/11/49 78/12/49
f 83/13/50 79/14/50 77/11/50 81/12/50
f 84/13/49 88/14/49 86/11/49 82/12/49
f 87/13/50 83/14/50 81/11/50 85/12/50
f 88/13/49 92/14/49 90/11/49 86/12/49
f 91/13/50 87/14/50 85/11/50 89/12/50
f 92/13/49 96/14/49 94/11/49 90/12/49
f 95/13/50 91/14/50 89/11/50 93/12/50
f 96/13/49 100/14/49 98/11/49 94/12/49
f 99/13/50 95/14/50 93/11/50 97/12/50

usemtl bm_trim
f 100/17/51 99/16/51 97/15/51 98/6/51

usemtl bm_grid_blank2
f 3/3/1 4/4/1 2/2/1 1/1/1
f 4/10/3 10/6/3 9/9/3 2/2/3
f 10/3/5 14/4/5 13/2/5 9/1/5
f 14/10/7 18/6/7 17/9/7 13/2/7
f 18/3/9 22/4/9 21/2/9 17/1/9
f 22/10/11 26/6/11 25/9/11 21/2/11
f 26/3/13 30/4/13 29/2/13 25/1/13
f 30/10/15 34/6/15 33/9/15 29/2/15
f 34/3/17 38/4/17 37/2/17 33/1/17
f 38/10/19 42/6/19 41/9/19 37/2/19
f 42/3/21 46/4/21 45/2/21 41/1/21
f 46/10/23 50/6/23 49/9/23 45/2/23
f 50/3/25 54/4/25 53/2/25 49/1/25
f 54/10/27 58/6/27 57/9/27 53/2/27
f 58/3/29 62/4/29 61/2/29 57/1/29
f 62/10/31 66/6/31 65/9/31 61/2/31
f 66/3/33 70/4/33 69/2/33 65/1/33
f 70/10/35 74/6/35 73/9/35 69/2/35
f 74/3/37 78/4/37 77/2/37 73/1/37
f 78/10/39 82/6/39 81/9/39 77/2/39
f 82/3/41 86/4/41 85/2/41 81/1/41
f 86/10/43 90/6/43 89/9/43 85/2/43
f 90/3/45 94/4/45 93/2/45 89/1/45
f 94/10/47 98/6/47 97/9/47 93/2/47

