# ProBuilder 4.5.2
# https://unity3d.com/unity/features/worldbuilding/probuilder
# 4/30/2023 10:33:02 PM

mtllib ./PathfindingIngenuityTrimCurve1.mtl
o PathfindingIngenuityTrimCurve1

g Arch (61)
v 0 0 0
v 1.109473 3.33786E-06 0.07271539
v -1.564622E-06 0.5 0
v 1.109471 0.5000033 0.0727154
v 2.199963 6.67572E-06 0.2896245
v 2.199961 0.5000067 0.2896245
v 3.252811 9.775162E-06 0.6470147
v 3.25281 0.5000098 0.6470147
v 4.250003 1.28746E-05 1.138772
v 4.250002 0.5000129 1.138772
v 5.174478 1.573563E-05 1.756482
v 5.174476 0.5000157 1.756482
v 6.010415 1.811981E-05 2.489575
v 6.010413 0.5000181 2.489575
v 6.743513 2.0504E-05 3.325508
v 6.743511 0.5000205 3.325509
v 7.361229 2.193451E-05 4.249979
v 7.361228 0.5000219 4.249979
v 7.852991 2.336502E-05 5.247169
v 7.852989 0.5000234 5.247169
v 8.210387 2.479553E-05 6.300015
v 8.210385 0.5000248 6.300015
v 8.427302 2.574921E-05 7.390503
v 8.4273 0.5000257 7.390503
v 8.500025 2.479553E-05 8.499976
v 8.500023 0.5000248 8.499976
v -1.341105E-07 0.5 0.5
v 1.04421 0.5000032 0.5684379
v 1.044211 3.218651E-06 0.5684379
v 1.430511E-06 -2.980232E-08 0.5000001
v 2.070553 0.5000062 0.7725876
v 2.070554 6.198883E-06 0.7725876
v 3.061469 0.5000093 1.108955
v 3.061471 9.298325E-06 1.108955
v 4.000003 0.5000122 1.571785
v 4.000005 1.215935E-05 1.571785
v 4.870096 0.5000148 2.153159
v 4.870098 1.478195E-05 2.153159
v 5.656861 0.5000172 2.84313
v 5.656862 1.716614E-05 2.84313
v 6.346836 0.5000191 3.62989
v 6.346837 1.907349E-05 3.62989
v 6.928215 0.5000205 4.49998
v 6.928216 2.0504E-05 4.49998
v 7.39105 0.5000219 5.438512
v 7.391052 2.193451E-05 5.438512
v 7.727424 0.5000229 6.429426
v 7.727425 2.288818E-05 6.429426
v 7.931579 0.5000238 7.455768
v 7.93158 2.384186E-05 7.455768
v 8.000023 0.5000238 8.499977
v 8.000025 2.384186E-05 8.499977
v 0.4568439 1.102686E-06 5.029943
v -2.980232E-07 -2.980678E-07 5.000001
v 0.4568401 0.5000011 5.029943
v -3.72529E-07 0.4999997 5.000001
v 0.9058684 2.44379E-06 5.119257
v 0.9058684 0.5000024 5.119258
v 1.339393 3.218651E-06 5.266419
v 1.339393 0.5000032 5.266419
v 1.750004 5.00679E-06 5.468907
v 1.75 0.500005 5.468907
v 2.130668 6.198883E-06 5.723258
v 2.130668 0.5000062 5.723258
v 2.474876 7.152557E-06 6.025121
v 2.474876 0.5000072 6.025122
v 2.776741 7.867813E-06 6.369329
v 2.77674 0.5000079 6.369329
v 3.031097 8.34465E-06 6.749993
v 3.031093 0.5000083 6.749993
v 3.233585 8.821487E-06 7.160601
v 3.233585 0.5000088 7.160601
v 3.380749 9.298325E-06 7.594125
v 3.380749 0.5000093 7.594126
v 3.470065 1.001358E-05 8.04315
v 3.470065 0.50001 8.04315
v 3.500011 1.0252E-05 8.499992
v 3.500011 0.5000103 8.499992
v -3.129244E-07 0.4999997 4.500001
v 0.522102 0.5000018 4.53422
v 0.5221058 1.788139E-06 4.53422
v -2.682209E-07 -2.682609E-07 4.500001
v 1.035274 0.5000024 4.636294
v 1.035278 2.384186E-06 4.636294
v 1.530731 0.5000044 4.804479
v 1.530735 4.410744E-06 4.804479
v 2 0.5000057 5.035893
v 2 5.722046E-06 5.035893
v 2.435047 0.5000072 5.326581
v 2.435047 7.152557E-06 5.326581
v 2.82843 0.5000079 5.671566
v 2.82843 7.867813E-06 5.671566
v 3.173415 0.5000086 6.064947
v 3.173416 8.583069E-06 6.064947
v 3.464107 0.5000095 6.499992
v 3.464107 9.536743E-06 6.499992
v 3.695522 0.5000103 6.969257
v 3.695526 1.0252E-05 6.969257
v 3.863708 0.5000107 7.464714
v 3.863712 1.072884E-05 7.464714
v 3.965786 0.5000112 7.977887
v 3.965789 1.120567E-05 7.977886
v 4.000008 0.5000112 8.49999
v 4.000011 1.072884E-05 8.49999

vt 0 -2
vt 5.960464E-08 0
vt 1 -2
vt 1 0
vt 0 1
vt 1 1

vn 0.06540016 2.04653E-07 -0.9978591
vn 0.1950879 6.338933E-07 -0.9807858
vn 0.3214365 8.631957E-07 -0.9469311
vn 0.4422863 1.369374E-06 -0.896874
vn 0.5555677 1.589492E-06 -0.8314713
vn 0.6593438 2.515197E-06 -0.7518416
vn 0.7518379 2.151025E-06 -0.659348
vn 0.8314678 2.643766E-06 -0.555573
vn 0.8968719 2.565971E-06 -0.4422905
vn 0.9469292 2.709186E-06 -0.3214422
vn 0.9807847 3.741397E-06 -0.1950934
vn 0.9978587 3.806529E-06 -0.06540646
vn -3.012417E-06 1 5.961326E-08
vn 2.998399E-06 -1 1.542632E-07
vn -0.06539967 -5.02858E-07 0.9978592
vn -0.195087 -9.353504E-07 0.980786
vn -0.3214395 0 0.9469301
vn -0.4422843 -3.47981E-06 0.896875
vn -0.5555683 -2.649156E-07 0.8314709
vn -0.6593466 -1.434019E-06 0.7518392
vn -0.7518376 -3.585041E-07 0.6593484
vn -0.8314644 -6.34357E-06 0.5555781
vn -0.8968742 0 0.4422858
vn -0.9469289 -3.06552E-07 0.3214431
vn -0.9807852 0 0.1950909
vn -0.9978585 -4.75816E-07 0.06540977

usemtl bm_edge_white
f 3/3/1 4/4/1 2/2/1 1/1/1
f 4/3/2 6/4/2 5/2/2 2/1/2
f 6/3/3 8/4/3 7/2/3 5/1/3
f 8/3/4 10/4/4 9/2/4 7/1/4
f 10/3/5 12/4/5 11/2/5 9/1/5
f 12/3/6 14/4/6 13/2/6 11/1/6
f 14/3/7 16/4/7 15/2/7 13/1/7
f 16/3/8 18/4/8 17/2/8 15/1/8
f 18/3/9 20/4/9 19/2/9 17/1/9
f 20/3/10 22/4/10 21/2/10 19/1/10
f 22/3/11 24/4/11 23/2/11 21/1/11
f 24/3/12 26/4/12 25/2/12 23/1/12
f 27/3/13 28/4/13 4/2/13 3/1/13
f 29/3/14 30/4/14 1/2/14 2/1/14
f 28/3/13 31/4/13 6/2/13 4/1/13
f 32/3/14 29/4/14 2/2/14 5/1/14
f 31/3/13 33/4/13 8/2/13 6/1/13
f 34/3/14 32/4/14 5/2/14 7/1/14
f 33/3/13 35/4/13 10/2/13 8/1/13
f 36/3/14 34/4/14 7/2/14 9/1/14
f 35/3/13 37/4/13 12/2/13 10/1/13
f 38/3/14 36/4/14 9/2/14 11/1/14
f 37/3/13 39/4/13 14/2/13 12/1/13
f 40/3/14 38/4/14 11/2/14 13/1/14
f 39/3/13 41/4/13 16/2/13 14/1/13
f 42/3/14 40/4/14 13/2/14 15/1/14
f 41/3/13 43/4/13 18/2/13 16/1/13
f 44/3/14 42/4/14 15/2/14 17/1/14
f 43/3/13 45/4/13 20/2/13 18/1/13
f 46/3/14 44/4/14 17/2/14 19/1/14
f 45/3/13 47/4/13 22/2/13 20/1/13
f 48/3/14 46/4/14 19/2/14 21/1/14
f 47/3/13 49/4/13 24/2/13 22/1/13
f 50/3/14 48/4/14 21/2/14 23/1/14
f 49/3/13 51/4/13 26/2/13 24/1/13
f 52/3/14 50/4/14 23/2/14 25/1/14
f 55/4/15 56/6/15 54/5/15 53/2/15
f 58/4/16 55/6/16 53/5/16 57/2/16
f 60/4/17 58/6/17 57/5/17 59/2/17
f 62/4/18 60/6/18 59/5/18 61/2/18
f 64/4/19 62/6/19 61/5/19 63/2/19
f 66/4/20 64/6/20 63/5/20 65/2/20
f 68/4/21 66/6/21 65/5/21 67/2/21
f 70/4/22 68/6/22 67/5/22 69/2/22
f 72/4/23 70/6/23 69/5/23 71/2/23
f 74/4/24 72/6/24 71/5/24 73/2/24
f 76/4/25 74/6/25 73/5/25 75/2/25
f 78/4/26 76/6/26 75/5/26 77/2/26
f 56/4/13 55/6/13 80/5/13 79/2/13
f 53/4/14 54/6/14 82/5/14 81/2/14
f 55/4/13 58/6/13 83/5/13 80/2/13
f 57/4/14 53/6/14 81/5/14 84/2/14
f 58/4/13 60/6/13 85/5/13 83/2/13
f 59/4/14 57/6/14 84/5/14 86/2/14
f 60/4/13 62/6/13 87/5/13 85/2/13
f 61/4/14 59/6/14 86/5/14 88/2/14
f 62/4/13 64/6/13 89/5/13 87/2/13
f 63/4/14 61/6/14 88/5/14 90/2/14
f 64/4/13 66/6/13 91/5/13 89/2/13
f 65/4/14 63/6/14 90/5/14 92/2/14
f 66/4/13 68/6/13 93/5/13 91/2/13
f 67/4/14 65/6/14 92/5/14 94/2/14
f 68/4/13 70/6/13 95/5/13 93/2/13
f 69/4/14 67/6/14 94/5/14 96/2/14
f 70/4/13 72/6/13 97/5/13 95/2/13
f 71/4/14 69/6/14 96/5/14 98/2/14
f 72/4/13 74/6/13 99/5/13 97/2/13
f 73/4/14 71/6/14 98/5/14 100/2/14
f 74/4/13 76/6/13 101/5/13 99/2/13
f 75/4/14 73/6/14 100/5/14 102/2/14
f 76/4/13 78/6/13 103/5/13 101/2/13
f 77/4/14 75/6/14 102/5/14 104/2/14

