# ProBuilder 4.5.2
# https://unity3d.com/unity/features/worldbuilding/probuilder
# 2/22/2022 7:55:58 PM

mtllib ./ProCourseCurve3.mtl
o ProCourseCurve3

g Arch (9)
v 0 0 -16
v 0.02407646 0.4900856 -16
v 0 0 2
v 0.02407646 0.4900857 2
v 2.014446 0.2940514 -16
v 2 0 -16
v 2.014446 0.2940514 2
v 2 0 2
v 0.09607315 0.9754515 -16
v 0.09607363 0.9754516 2
v 2.057644 0.5852709 -16
v 2.057644 0.585271 2
v 0.2152977 1.451423 -16
v 0.2152982 1.451423 2
v 2.129179 0.8708539 -16
v 2.129179 0.870854 2
v 0.3806019 1.913417 -16
v 0.3806024 1.913417 2
v 2.228361 1.14805 -16
v 2.228362 1.14805 2
v 0.5903931 2.356984 -16
v 0.5903935 2.356984 2
v 2.354237 1.41419 -16
v 2.354236 1.41419 2
v 0.8426514 2.777851 -16
v 0.8426518 2.777851 2
v 2.505591 1.666711 -16
v 2.505591 1.666711 2
v 1.134948 3.171966 -16
v 1.134948 3.171966 2
v 2.680968 1.90318 -16
v 2.680969 1.90318 2
v 1.464466 3.535534 -16
v 1.464466 3.535534 2
v 2.878679 2.12132 -16
v 2.87868 2.12132 2
v 1.828033 3.865052 -16
v 1.828034 3.865052 2
v 3.09682 2.319031 -16
v 3.09682 2.319031 2
v 2.222149 4.157348 -16
v 2.222149 4.157348 2
v 3.333289 2.494409 -16
v 3.333289 2.494409 2
v 2.643016 4.409606 -16
v 2.643016 4.409606 2
v 3.58581 2.645764 -16
v 3.58581 2.645764 2
v 3.086583 4.619398 -16
v 3.086583 4.619398 2
v 3.85195 2.771638 -16
v 3.85195 2.771638 2
v 3.548576 4.784702 -16
v 3.548577 4.784702 2
v 4.129147 2.870821 -16
v 4.129146 2.870821 2
v 4.024548 4.903926 -16
v 4.024548 4.903926 2
v 4.414729 2.942356 -16
v 4.414729 2.942356 2
v 4.509914 4.975924 -16
v 4.509914 4.975924 2
v 4.705948 2.985554 -16
v 4.705949 2.985554 2
v 5 5 -16
v 5 5 2
v 5 3 -16
v 5 3 2
v 5.490086 4.975924 -16
v 5.490086 4.975924 2
v 5.294052 2.985554 -16
v 5.294051 2.985554 2
v 5.975452 4.903926 -16
v 5.975451 4.903926 2
v 5.58527 2.942356 -16
v 5.585271 2.942356 2
v 6.451424 4.784701 -16
v 6.451424 4.784701 2
v 5.870853 2.870821 -16
v 5.870854 2.870821 2
v 6.913418 4.619398 -16
v 6.913417 4.619398 2
v 6.14805 2.771639 -16
v 6.14805 2.771639 2
v 7.356983 4.409606 -16
v 7.356983 4.409606 2
v 6.41419 2.645764 -16
v 6.41419 2.645764 2
v 7.777851 4.157348 -16
v 7.777851 4.157348 2
v 6.66671 2.494409 -16
v 6.666711 2.494409 2
v 8.171967 3.865052 -16
v 8.171967 3.865052 2
v 6.903179 2.319031 -16
v 6.90318 2.319031 2
v 8.535534 3.535534 -16
v 8.535534 3.535534 2
v 7.121321 2.12132 -16
v 7.12132 2.12132 2
v 8.865051 3.171966 -16
v 8.865052 3.171966 2
v 7.319031 1.90318 -16
v 7.319032 1.90318 2
v 9.157349 2.777851 -16
v 9.157349 2.777851 2
v 7.49441 1.666711 -16
v 7.494409 1.666711 2
v 9.409607 2.356984 -16
v 9.409606 2.356984 2
v 7.645763 1.414191 -16
v 7.645763 1.414191 2
v 9.619398 1.913417 -16
v 9.619398 1.913417 2
v 7.771639 1.14805 -16
v 7.771638 1.14805 2
v 9.784702 1.451424 -16
v 9.784702 1.451424 2
v 7.870821 0.8708541 -16
v 7.870821 0.8708541 2
v 9.903927 0.9754515 -16
v 9.903927 0.9754515 2
v 7.942356 0.5852709 -16
v 7.942356 0.5852709 2
v 9.975924 0.4900856 -16
v 9.975924 0.4900855 2
v 7.985554 0.2940512 -16
v 7.985554 0.2940513 2
v 10 -4.768372E-07 -16
v 10 -4.371139E-07 2
v 8 -2.384186E-07 -16
v 8 -2.622683E-07 2

vt -14.99998 -1.519918E-06
vt -15 0.2499982
vt -6 2.384186E-07
vt -6.000013 0.25
vt -15 1.749999
vt -15 1.999999
vt -6 1.749999
vt -6 1.999999
vt -15 0.4999981
vt -6.000019 0.4999999
vt -15 1.499999
vt -6 1.499999
vt -15 0.4999984
vt -15.00001 0.7499982
vt -6.000011 0.5000001
vt -6.000025 0.7499999
vt -15 1.249999
vt -6 1.249999
vt -15.00002 0.9999982
vt -6.000018 0.7500001
vt -6.000031 0.9999999
vt -14.99998 0.7499983
vt -14.99998 0.9999983
vt -6 1
vt -5.999999 0
vt -5.999999 0.25
vt -5.999999 0.5
vt -5.999999 0.75
vt -5.999999 1
vt -5 1.311302E-06
vt -5 0.2500008
vt 1 0.7500029
vt 1 1.000002
vt 2 0.7500026
vt 2 1.000002
vt -5 0.5000006
vt 1 0.5000031
vt 2 0.5000029
vt -5 0.7500006
vt 1 0.2500031
vt 2 0.2500029
vt -5 1.000001
vt 0.9999999 3.129244E-06
vt 2 2.831221E-06

vn -0.9987954 0.04906788 0
vn 0.9987953 -0.04906916 2.645904E-08
vn -0.9891767 0.1467294 -9.717505E-10
vn 0.9891769 -0.1467282 -2.52325E-08
vn -0.9700313 0.2429799 2.408786E-08
vn 0.970031 -0.2429811 1.6092E-09
vn -0.9415441 0.3368899 2.271127E-08
vn 0.9415444 -0.3368888 -2.494241E-08
vn -0.9039894 0.427555 2.394754E-08
vn 0.9039885 -0.4275569 2.111592E-08
vn -0.8577285 0.5141028 2.272204E-08
vn 0.8577288 -0.5141023 1.136103E-08
vn -0.8032069 0.5957002 2.127772E-08
vn 0.8032085 -0.595698 -1.063888E-08
vn -0.7409513 0.6715588 -9.814253E-09
vn 0.740951 -0.6715592 -1.96285E-08
vn -0.671559 0.7409511 0
vn 0.6715587 -0.7409514 -8.895116E-09
vn -0.5956993 0.8032075 7.890321E-09
vn 0.5956994 -0.8032075 0
vn -0.5141025 0.8577287 0
vn 0.5141022 -0.857729 0
vn -0.427555 0.9039893 5.66317E-09
vn 0.4275549 -0.9039894 0
vn -0.3368905 0.9415438 -4.462276E-09
vn 0.3368898 -0.9415441 8.924532E-09
vn -0.2429801 0.9700313 6.436775E-09
vn 0.24298 -0.9700313 0
vn -0.1467301 0.9891766 3.88702E-09
vn 0.1467317 -0.9891763 -7.774124E-09
vn -0.04906788 0.9987954 0
vn 0.04906743 -0.9987954 0
vn 0.04906788 0.9987954 0
vn -0.04906743 -0.9987954 -2.599686E-09
vn 0.1467301 0.9891766 0
vn -0.1467322 -0.9891763 7.774149E-09
vn 0.242981 0.970031 1.28736E-08
vn -0.2429792 -0.9700315 1.28735E-08
vn 0.336889 0.9415443 0
vn -0.3368891 -0.9415444 0
vn 0.4275558 0.903989 2.265272E-08
vn -0.4275549 -0.9039894 -1.132634E-08
vn 0.5141025 0.8577288 0
vn -0.5141037 -0.8577281 2.723819E-08
vn 0.595699 0.8032078 0
vn -0.5956994 -0.8032075 3.156129E-08
vn 0.6715593 0.7409508 0
vn -0.6715575 -0.7409524 -1.77902E-08
vn 0.7409523 0.6715577 0
vn -0.7409526 -0.6715574 3.925708E-08
vn 0.8032061 0.5957012 -4.255539E-08
vn -0.8032055 -0.5957021 -2.127768E-08
vn 0.8577282 0.5141035 0
vn -0.85773 -0.5141006 0
vn 0.9039895 0.4275547 4.789509E-08
vn -0.9039885 -0.4275565 -2.111592E-08
vn 0.9415439 0.3368901 0
vn -0.9415444 -0.3368891 0
vn 0.9700314 0.2429796 0
vn -0.9700311 -0.2429809 8.045995E-10
vn 0.9891767 0.1467294 -4.858752E-10
vn -0.9891769 -0.1467281 2.717598E-08
vn 0.9987954 0.04906783 3.249634E-10
vn -0.9987953 -0.04906916 -6.501592E-11
vn 0 0 1
vn 0 0 -1

usemtl bm_grid_blank4
f 3/3/1 4/4/1 2/2/1 1/1/1
f 7/7/2 8/8/2 6/6/2 5/5/2
f 4/4/3 10/10/3 9/9/3 2/2/3
f 12/12/4 7/7/4 5/5/4 11/11/4
f 10/15/5 14/16/5 13/14/5 9/13/5
f 16/18/6 12/12/6 11/11/6 15/17/6
f 14/20/7 18/21/7 17/19/7 13/14/7
f 20/21/8 16/18/8 15/17/8 19/19/8
f 18/3/9 22/4/9 21/2/9 17/1/9
f 24/7/10 20/8/10 19/6/10 23/5/10
f 22/4/11 26/15/11 25/13/11 21/2/11
f 28/12/12 24/7/12 23/5/12 27/11/12
f 26/15/13 30/20/13 29/22/13 25/13/13
f 32/18/14 28/12/14 27/11/14 31/17/14
f 30/20/15 34/24/15 33/23/15 29/22/15
f 36/21/16 32/18/16 31/17/16 35/19/16
f 34/3/17 38/4/17 37/2/17 33/1/17
f 40/7/18 36/8/18 35/6/18 39/5/18
f 38/4/19 42/15/19 41/13/19 37/2/19
f 44/12/20 40/7/20 39/5/20 43/11/20
f 42/15/21 46/20/21 45/22/21 41/13/21
f 48/18/22 44/12/22 43/11/22 47/17/22
f 46/20/23 50/24/23 49/23/23 45/22/23
f 52/21/24 48/18/24 47/17/24 51/19/24
f 50/3/25 54/4/25 53/2/25 49/1/25
f 56/7/26 52/8/26 51/6/26 55/5/26
f 54/4/27 58/15/27 57/13/27 53/2/27
f 60/12/28 56/7/28 55/5/28 59/11/28
f 58/15/29 62/20/29 61/22/29 57/13/29
f 64/18/30 60/12/30 59/11/30 63/17/30
f 62/20/31 66/24/31 65/23/31 61/22/31
f 68/21/32 64/18/32 63/17/32 67/19/32
f 66/3/33 70/4/33 69/2/33 65/1/33
f 72/7/34 68/8/34 67/6/34 71/5/34
f 70/4/35 74/15/35 73/13/35 69/2/35
f 76/12/36 72/7/36 71/5/36 75/11/36
f 74/15/37 78/20/37 77/22/37 73/13/37
f 80/18/38 76/12/38 75/11/38 79/17/38
f 78/20/39 82/24/39 81/23/39 77/22/39
f 84/21/40 80/18/40 79/17/40 83/19/40
f 82/3/41 86/4/41 85/2/41 81/1/41
f 88/7/42 84/8/42 83/6/42 87/5/42
f 86/4/43 90/15/43 89/13/43 85/2/43
f 92/12/44 88/7/44 87/5/44 91/11/44
f 90/15/45 94/20/45 93/22/45 89/13/45
f 96/18/46 92/12/46 91/11/46 95/17/46
f 94/20/47 98/24/47 97/23/47 93/22/47
f 100/21/48 96/18/48 95/17/48 99/19/48
f 98/3/49 102/4/49 101/2/49 97/1/49
f 104/7/50 100/8/50 99/6/50 103/5/50
f 102/4/51 106/15/51 105/13/51 101/2/51
f 108/12/52 104/7/52 103/5/52 107/11/52
f 106/15/53 110/20/53 109/22/53 105/13/53
f 112/18/54 108/12/54 107/11/54 111/17/54
f 110/20/55 114/24/55 113/23/55 109/22/55
f 116/21/56 112/18/56 111/17/56 115/19/56
f 114/25/57 118/26/57 117/2/57 113/1/57
f 120/7/58 116/8/58 115/6/58 119/5/58
f 118/26/59 122/27/59 121/13/59 117/2/59
f 124/12/60 120/7/60 119/5/60 123/11/60
f 122/27/61 126/28/61 125/22/61 121/13/61
f 128/18/62 124/12/62 123/11/62 127/17/62
f 126/28/63 130/29/63 129/23/63 125/22/63
f 132/21/64 128/18/64 127/17/64 131/19/64
f 8/30/65 7/31/65 4/4/65 3/3/65
f 5/34/66 6/35/66 1/33/66 2/32/66
f 7/31/65 12/36/65 10/15/65 4/4/65
f 11/38/66 5/34/66 2/32/66 9/37/66
f 12/36/65 16/39/65 14/20/65 10/15/65
f 15/41/66 11/38/66 9/37/66 13/40/66
f 16/39/65 20/42/65 18/24/65 14/20/65
f 19/44/66 15/41/66 13/40/66 17/43/66
f 20/30/65 24/31/65 22/4/65 18/3/65
f 23/34/66 19/35/66 17/33/66 21/32/66
f 24/31/65 28/36/65 26/15/65 22/4/65
f 27/38/66 23/34/66 21/32/66 25/37/66
f 28/36/65 32/39/65 30/20/65 26/15/65
f 31/41/66 27/38/66 25/37/66 29/40/66
f 32/39/65 36/42/65 34/24/65 30/20/65
f 35/44/66 31/41/66 29/40/66 33/43/66
f 36/30/65 40/31/65 38/4/65 34/3/65
f 39/34/66 35/35/66 33/33/66 37/32/66
f 40/31/65 44/36/65 42/15/65 38/4/65
f 43/38/66 39/34/66 37/32/66 41/37/66
f 44/36/65 48/39/65 46/20/65 42/15/65
f 47/41/66 43/38/66 41/37/66 45/40/66
f 48/39/65 52/42/65 50/24/65 46/20/65
f 51/44/66 47/41/66 45/40/66 49/43/66
f 52/30/65 56/31/65 54/4/65 50/3/65
f 55/34/66 51/35/66 49/33/66 53/32/66
f 56/31/65 60/36/65 58/15/65 54/4/65
f 59/38/66 55/34/66 53/32/66 57/37/66
f 60/36/65 64/39/65 62/20/65 58/15/65
f 63/41/66 59/38/66 57/37/66 61/40/66
f 64/39/65 68/42/65 66/24/65 62/20/65
f 67/44/66 63/41/66 61/40/66 65/43/66
f 68/30/65 72/31/65 70/4/65 66/3/65
f 71/34/66 67/35/66 65/33/66 69/32/66
f 72/31/65 76/36/65 74/15/65 70/4/65
f 75/38/66 71/34/66 69/32/66 73/37/66
f 76/36/65 80/39/65 78/20/65 74/15/65
f 79/41/66 75/38/66 73/37/66 77/40/66
f 80/39/65 84/42/65 82/24/65 78/20/65
f 83/44/66 79/41/66 77/40/66 81/43/66
f 84/30/65 88/31/65 86/4/65 82/3/65
f 87/34/66 83/35/66 81/33/66 85/32/66
f 88/31/65 92/36/65 90/15/65 86/4/65
f 91/38/66 87/34/66 85/32/66 89/37/66
f 92/36/65 96/39/65 94/20/65 90/15/65
f 95/41/66 91/38/66 89/37/66 93/40/66
f 96/39/65 100/42/65 98/24/65 94/20/65
f 99/44/66 95/41/66 93/40/66 97/43/66
f 100/30/65 104/31/65 102/4/65 98/3/65
f 103/34/66 99/35/66 97/33/66 101/32/66
f 104/31/65 108/36/65 106/15/65 102/4/65
f 107/38/66 103/34/66 101/32/66 105/37/66
f 108/36/65 112/39/65 110/20/65 106/15/65
f 111/41/66 107/38/66 105/37/66 109/40/66
f 112/39/65 116/42/65 114/24/65 110/20/65
f 115/44/66 111/41/66 109/40/66 113/43/66
f 116/30/65 120/31/65 118/4/65 114/3/65
f 119/34/66 115/35/66 113/33/66 117/32/66
f 120/31/65 124/36/65 122/15/65 118/4/65
f 123/38/66 119/34/66 117/32/66 121/37/66
f 124/36/65 128/39/65 126/20/65 122/15/65
f 127/41/66 123/38/66 121/37/66 125/40/66
f 128/39/65 132/42/65 130/24/65 126/20/65
f 131/44/66 127/41/66 125/40/66 129/43/66

