# ProBuilder 4.5.2
# https://unity3d.com/unity/features/worldbuilding/probuilder
# 10/25/2022 2:41:25 PM

mtllib ./PursuitCurve.mtl
o PursuitCurve

g PursuitCurve
v 0 0 0
v 0.5881029 0.02888983 -1.942597E-06
v -1.72275E-06 1.4488E-06 -0.5
v 0.5881011 0.02889127 -0.500002
v 0.5390958 0.5264823 -3.31919E-07
v 1.460314E-06 0.5 1.448795E-06
v 0.5390941 0.5264838 -0.5000004
v -2.624363E-07 0.5000014 -0.4999986
v 1.170542 0.1152853 -3.699053E-06
v 1.170541 0.1152867 -0.5000037
v 1.072999 0.6056777 -1.942004E-06
v 1.072997 0.6056792 -0.500002
v 1.741709 0.2583528 -5.252455E-06
v 1.741707 0.2583542 -0.5000052
v 1.596568 0.7368232 -3.365956E-06
v 1.596566 0.7368246 -0.5000033
v 2.296102 0.4567163 -6.587838E-06
v 2.2961 0.4567177 -0.5000066
v 2.104762 0.9186563 -4.590058E-06
v 2.10476 0.9186578 -0.5000046
v 2.828382 0.7084639 -7.692347E-06
v 2.828381 0.7084653 -0.5000077
v 2.592685 1.149426 -5.602521E-06
v 2.592684 1.149427 -0.5000056
v 3.333425 1.011172 -8.55534E-06
v 3.333423 1.011173 -0.5000085
v 3.055641 1.426908 -6.393601E-06
v 3.055639 1.426909 -0.5000064
v 3.806364 1.361926 -9.168511E-06
v 3.806362 1.361927 -0.5000092
v 3.489168 1.748432 -6.955673E-06
v 3.489166 1.748433 -0.500007
v 4.242646 1.757347 -9.525947E-06
v 4.242644 1.757348 -0.5000096
v 3.889093 2.110901 -7.283324E-06
v 3.889092 2.110903 -0.5000072
v 4.638069 2.193626 -9.624215E-06
v 4.638067 2.193628 -0.5000096
v 4.251565 2.510824 -7.3734E-06
v 4.251563 2.510826 -0.5000074
v 4.988826 2.666564 -9.462362E-06
v 4.988824 2.666565 -0.5000094
v 4.573092 2.94435 -7.225037E-06
v 4.57309 2.944351 -0.5000072
v 5.291536 3.171603 -9.041949E-06
v 5.291534 3.171605 -0.5000091
v 4.850577 3.407304 -6.839659E-06
v 4.850575 3.407305 -0.5000068
v 5.543287 3.703883 -8.367025E-06
v 5.543285 3.703884 -0.5000083
v 5.081349 3.895226 -6.220978E-06
v 5.081347 3.895227 -0.5000063
v 5.741654 4.258275 -7.44409E-06
v 5.741652 4.258276 -0.5000075
v 5.263185 4.403419 -5.374955E-06
v 5.263183 4.40342 -0.5000054
v 5.884726 4.82944 -6.282033E-06
v 5.884724 4.829441 -0.5000063
v 5.394333 4.926986 -4.309736E-06
v 5.394331 4.926988 -0.5000043
v 5.971124 5.411879 -4.892045E-06
v 5.971122 5.41188 -0.5000049
v 5.473532 5.460889 -3.035579E-06
v 5.47353 5.460891 -0.500003
v 6.000018 5.999982 -3.287509E-06
v 6.000016 5.999983 -0.5000032
v 5.500018 5.999984 -1.564755E-06
v 5.500016 5.999985 -0.5000015
v -2.011019E-06 1.310572E-06 -5.000096
v 0.5881013 0.02889001 -5.000098
v -6.102764E-07 0.5000013 -5.000094
v 0.5390939 0.5264829 -5.000096
v 1.170541 0.1152853 -5.0001
v 1.072996 0.6056778 -5.000098
v 1.741707 0.2583536 -5.000101
v 1.596566 0.7368234 -5.0001
v 2.2961 0.4567177 -5.000102
v 2.104759 0.9186566 -5.000101
v 2.828381 0.7084649 -5.000103
v 2.592683 1.149427 -5.000101
v 3.333422 1.011173 -5.000104
v 3.055638 1.426908 -5.000102
v 3.806362 1.361926 -5.000105
v 3.489166 1.748433 -5.000103
v 4.242644 1.757348 -5.000105
v 3.889091 2.110902 -5.000103
v 4.638066 2.193627 -5.000106
v 4.251562 2.510825 -5.000103
v 4.988823 2.666564 -5.000105
v 4.573089 2.94435 -5.000103
v 5.291534 3.171603 -5.000105
v 4.850574 3.407303 -5.000103
v 5.543285 3.703883 -5.000104
v 5.081347 3.895226 -5.000102
v 5.741652 4.258276 -5.000103
v 5.263183 4.40342 -5.000101
v 5.884723 4.829437 -5.000102
v 5.394331 4.926986 -5.0001
v 5.971122 5.41188 -5.000101
v 5.473529 5.460891 -5.000099
v 6.000015 5.999982 -5.0001
v 5.500015 5.999982 -5.000098
v -2.011019E-06 1.310573E-06 -4.500096
v 0.5881013 0.02889001 -4.500098
v 0.5390939 0.5264829 -4.500097
v -6.102809E-07 0.5000013 -4.500095
v 1.170541 0.1152852 -4.5001
v 1.072996 0.6056778 -4.500098
v 1.741707 0.2583535 -4.500101
v 1.596566 0.7368233 -4.5001
v 2.2961 0.4567177 -4.500103
v 2.10476 0.9186566 -4.500101
v 2.828381 0.7084651 -4.500104
v 2.592683 1.149427 -4.500102
v 3.333423 1.011173 -4.500105
v 3.055639 1.426908 -4.500103
v 3.806362 1.361926 -4.500106
v 3.489166 1.748433 -4.500103
v 4.242644 1.757348 -4.500105
v 3.889091 2.110902 -4.500103
v 4.638066 2.193627 -4.500106
v 4.251562 2.510825 -4.500103
v 4.988823 2.666564 -4.500106
v 4.573089 2.94435 -4.500104
v 5.291534 3.171603 -4.500105
v 4.850574 3.407303 -4.500103
v 5.543285 3.703883 -4.500104
v 5.081347 3.895226 -4.500102
v 5.741652 4.258276 -4.500104
v 5.263183 4.40342 -4.500102
v 5.884723 4.829439 -4.500103
v 5.394331 4.926988 -4.5001
v 5.971122 5.41188 -4.500102
v 5.473529 5.460891 -4.5001
v 6.000015 5.999983 -4.5001
v 5.500015 5.999983 -4.500098

vt 1 0
vt 0 0
vt 1 1
vt 0 1
vt 1 2
vt 0.75 2
vt 1 4
vt 0.7500002 4
vt 0.2499999 -2
vt -2.980232E-07 -2
vt 0.2500002 -2.384186E-07
vt 0.5 2
vt 0.5000002 4
vt 0.4999998 -2
vt 0.5000001 -2.384186E-07
vt 0.25 2
vt 0.5 4
vt 0.2500002 4
vt 0.7499999 -2
vt 0.7500001 -2.384186E-07
vt -2.980232E-08 2
vt 0.25 4
vt 2.086163E-07 4
vt 0.9999999 -2

vn 0.04906461 -0.9987956 -3.063163E-06
vn -0.0490646 0.9987956 3.027197E-06
vn 0.1467283 -0.9891769 -3.337307E-06
vn -0.1467276 0.989177 3.319814E-06
vn 0.2429766 -0.9700322 -3.586306E-06
vn -0.2429771 0.970032 3.586308E-06
vn 0.3368875 -0.941545 -3.818266E-06
vn -0.3368874 0.941545 3.818265E-06
vn 0.4275519 -0.9039908 -4.013448E-06
vn -0.4275528 0.9039904 4.013449E-06
vn 0.5140997 -0.8577304 -4.169979E-06
vn -0.5140995 0.8577304 4.415121E-06
vn 0.5956972 -0.8032091 -4.570405E-06
vn -0.5956966 0.8032095 4.570403E-06
vn 0.671557 -0.7409528 -4.041223E-06
vn -0.6715573 0.7409527 4.361447E-06
vn 0.740949 -0.6715613 -4.747848E-06
vn -0.7409489 0.6715614 4.747848E-06
vn 0.8032057 -0.5957018 -4.768303E-06
vn -0.8032057 0.5957018 4.768303E-06
vn 0.8577273 -0.5141049 -4.742837E-06
vn -0.8577275 0.5141047 4.742837E-06
vn 0.9039883 -0.4275572 -4.671693E-06
vn -0.9039879 0.4275582 4.671694E-06
vn 0.9415428 -0.3368934 -4.555561E-06
vn -0.941543 0.3368928 4.555559E-06
vn 0.9700305 -0.2429832 -4.395553E-06
vn -0.9700305 0.2429829 4.395553E-06
vn 0.989176 -0.1467336 -4.193216E-06
vn -0.9891762 0.1467329 4.193214E-06
vn 0.9987953 -0.04907078 -3.950494E-06
vn -0.9987953 0.0490712 3.950496E-06
vn -3.383759E-06 2.861032E-06 -1
vn 3.4455E-06 -2.897601E-06 1

usemtl bm_edge_white
f 3/3/1 4/4/1 2/2/1 1/1/1
f 7/3/2 8/4/2 6/2/2 5/1/2
f 4/3/3 10/4/3 9/2/3 2/1/3
f 12/3/4 7/4/4 5/2/4 11/1/4
f 10/3/5 14/4/5 13/2/5 9/1/5
f 16/3/6 12/4/6 11/2/6 15/1/6
f 14/3/7 18/4/7 17/2/7 13/1/7
f 20/3/8 16/4/8 15/2/8 19/1/8
f 18/3/9 22/4/9 21/2/9 17/1/9
f 24/3/10 20/4/10 19/2/10 23/1/10
f 22/3/11 26/4/11 25/2/11 21/1/11
f 28/3/12 24/4/12 23/2/12 27/1/12
f 26/3/13 30/4/13 29/2/13 25/1/13
f 32/3/14 28/4/14 27/2/14 31/1/14
f 30/3/15 34/4/15 33/2/15 29/1/15
f 36/3/16 32/4/16 31/2/16 35/1/16
f 34/3/17 38/4/17 37/2/17 33/1/17
f 40/3/18 36/4/18 35/2/18 39/1/18
f 38/3/19 42/4/19 41/2/19 37/1/19
f 44/3/20 40/4/20 39/2/20 43/1/20
f 42/3/21 46/4/21 45/2/21 41/1/21
f 48/3/22 44/4/22 43/2/22 47/1/22
f 46/3/23 50/4/23 49/2/23 45/1/23
f 52/3/24 48/4/24 47/2/24 51/1/24
f 50/3/25 54/4/25 53/2/25 49/1/25
f 56/3/26 52/4/26 51/2/26 55/1/26
f 54/3/27 58/4/27 57/2/27 53/1/27
f 60/3/28 56/4/28 55/2/28 59/1/28
f 58/3/29 62/4/29 61/2/29 57/1/29
f 64/3/30 60/4/30 59/2/30 63/1/30
f 62/3/31 66/4/31 65/2/31 61/1/31
f 68/3/32 64/4/32 63/2/32 67/1/32
f 71/3/33 72/4/33 70/2/33 69/1/33
f 5/3/34 6/4/34 1/2/34 2/1/34
f 72/3/33 74/4/33 73/2/33 70/1/33
f 11/3/34 5/4/34 2/2/34 9/1/34
f 74/3/33 76/4/33 75/2/33 73/1/33
f 15/3/34 11/4/34 9/2/34 13/1/34
f 76/3/33 78/4/33 77/2/33 75/1/33
f 19/3/34 15/4/34 13/2/34 17/1/34
f 78/3/33 80/4/33 79/2/33 77/1/33
f 23/3/34 19/4/34 17/2/34 21/1/34
f 80/3/33 82/4/33 81/2/33 79/1/33
f 27/3/34 23/4/34 21/2/34 25/1/34
f 82/3/33 84/4/33 83/2/33 81/1/33
f 31/3/34 27/4/34 25/2/34 29/1/34
f 84/3/33 86/4/33 85/2/33 83/1/33
f 35/3/34 31/4/34 29/2/34 33/1/34
f 86/3/33 88/4/33 87/2/33 85/1/33
f 39/3/34 35/4/34 33/2/34 37/1/34
f 88/3/33 90/4/33 89/2/33 87/1/33
f 43/3/34 39/4/34 37/2/34 41/1/34
f 90/3/33 92/4/33 91/2/33 89/1/33
f 47/3/34 43/4/34 41/2/34 45/1/34
f 92/3/33 94/4/33 93/2/33 91/1/33
f 51/3/34 47/4/34 45/2/34 49/1/34
f 94/3/33 96/4/33 95/2/33 93/1/33
f 55/3/34 51/4/34 49/2/34 53/1/34
f 96/3/33 98/4/33 97/2/33 95/1/33
f 59/3/34 55/4/34 53/2/34 57/1/34
f 98/3/33 100/4/33 99/2/33 97/1/33
f 63/3/34 59/4/34 57/2/34 61/1/34
f 100/3/33 102/4/33 101/2/33 99/1/33
f 67/3/34 63/4/34 61/2/34 65/1/34
f 69/3/1 70/4/1 104/2/1 103/1/1
f 72/3/2 71/4/2 106/2/2 105/1/2
f 70/3/3 73/4/3 107/2/3 104/1/3
f 74/3/4 72/4/4 105/2/4 108/1/4
f 73/3/5 75/4/5 109/2/5 107/1/5
f 76/3/6 74/4/6 108/2/6 110/1/6
f 75/3/7 77/4/7 111/2/7 109/1/7
f 78/3/8 76/4/8 110/2/8 112/1/8
f 77/3/9 79/4/9 113/2/9 111/1/9
f 80/3/10 78/4/10 112/2/10 114/1/10
f 79/3/11 81/4/11 115/2/11 113/1/11
f 82/3/12 80/4/12 114/2/12 116/1/12
f 81/3/13 83/4/13 117/2/13 115/1/13
f 84/3/14 82/4/14 116/2/14 118/1/14
f 83/3/15 85/4/15 119/2/15 117/1/15
f 86/3/16 84/4/16 118/2/16 120/1/16
f 85/3/17 87/4/17 121/2/17 119/1/17
f 88/3/18 86/4/18 120/2/18 122/1/18
f 87/3/19 89/4/19 123/2/19 121/1/19
f 90/3/20 88/4/20 122/2/20 124/1/20
f 89/3/21 91/4/21 125/2/21 123/1/21
f 92/3/22 90/4/22 124/2/22 126/1/22
f 91/3/23 93/4/23 127/2/23 125/1/23
f 94/3/24 92/4/24 126/2/24 128/1/24
f 93/3/25 95/4/25 129/2/25 127/1/25
f 96/3/26 94/4/26 128/2/26 130/1/26
f 95/3/27 97/4/27 131/2/27 129/1/27
f 98/3/28 96/4/28 130/2/28 132/1/28
f 97/3/29 99/4/29 133/2/29 131/1/29
f 100/3/30 98/4/30 132/2/30 134/1/30
f 99/3/31 101/4/31 135/2/31 133/1/31
f 102/3/32 100/4/32 134/2/32 136/1/32

usemtl bm_tile10_B
f 105/11/2 106/2/2 8/10/2 7/9/2
f 108/15/4 105/11/4 7/9/4 12/14/4
f 110/20/6 108/15/6 12/14/6 16/19/6
f 112/1/8 110/20/8 16/19/8 20/24/8
f 114/11/10 112/2/10 20/10/10 24/9/10
f 116/15/12 114/11/12 24/9/12 28/14/12
f 118/20/14 116/15/14 28/14/14 32/19/14
f 120/1/16 118/20/16 32/19/16 36/24/16
f 122/11/18 120/2/18 36/10/18 40/9/18
f 124/15/20 122/11/20 40/9/20 44/14/20
f 126/20/22 124/15/22 44/14/22 48/19/22
f 128/1/24 126/20/24 48/19/24 52/24/24
f 130/11/26 128/2/26 52/10/26 56/9/26
f 132/15/28 130/11/28 56/9/28 60/14/28
f 134/20/30 132/15/30 60/14/30 64/19/30
f 136/1/32 134/20/32 64/19/32 68/24/32

usemtl bm_grid_blank4
f 103/7/1 104/8/1 4/6/1 3/5/1
f 104/8/3 107/13/3 10/12/3 4/6/3
f 107/17/5 109/18/5 14/16/5 10/12/5
f 109/22/7 111/23/7 18/21/7 14/16/7
f 111/7/9 113/8/9 22/6/9 18/5/9
f 113/8/11 115/13/11 26/12/11 22/6/11
f 115/17/13 117/18/13 30/16/13 26/12/13
f 117/22/15 119/23/15 34/21/15 30/16/15
f 119/7/17 121/8/17 38/6/17 34/5/17
f 121/8/19 123/13/19 42/12/19 38/6/19
f 123/17/21 125/18/21 46/16/21 42/12/21
f 125/22/23 127/23/23 50/21/23 46/16/23
f 127/7/25 129/8/25 54/6/25 50/5/25
f 129/8/27 131/13/27 58/12/27 54/6/27
f 131/17/29 133/18/29 62/16/29 58/12/29
f 133/22/31 135/23/31 66/21/31 62/16/31

