# ProBuilder 4.5.2
# https://unity3d.com/unity/features/worldbuilding/probuilder
# 7/6/2023 3:03:01 PM

mtllib ./TrampledTrimArch1.mtl
o TrampledTrimArch1

g TrampledTrimArch1
v 0 0 0
v -3.72529E-09 0.5873679 0.03849793
v -0.5000001 0 -5.960464E-08
v -0.5000001 0.5873679 0.03849787
v -5.960464E-08 0.5221048 0.5342205
v -5.960464E-08 0 0.5000001
v -0.5000001 0.5221048 0.5342204
v -0.5000001 0 0.4999999
v -1.490116E-08 1.164686 0.1533337
v -0.5000001 1.164686 0.1533336
v -5.960464E-08 1.035276 0.6362968
v -0.5000001 1.035276 0.6362967
v -2.980232E-08 1.722076 0.3425422
v -0.5000001 1.722076 0.3425421
v -1.192093E-07 1.530734 0.8044821
v -0.5000002 1.530734 0.804482
v -5.960464E-08 2.25 0.6028858
v -0.5000001 2.25 0.6028857
v -1.192093E-07 2 1.035899
v -0.5000002 2 1.035898
v -1.192093E-07 2.739426 0.9299103
v -0.5000002 2.739426 0.9299102
v -1.192093E-07 2.435046 1.326587
v -0.5000002 2.435046 1.326587
v -1.192093E-07 3.18198 1.31802
v -0.5000002 3.18198 1.31802
v -2.384186E-07 2.828427 1.671573
v -0.5000003 2.828427 1.671573
v -2.384186E-07 3.57009 1.760574
v -0.5000003 3.57009 1.760574
v -2.384186E-07 3.173413 2.064955
v -0.5000003 3.173413 2.064955
v -2.384186E-07 3.897115 2.25
v -0.5000003 3.897115 2.25
v -2.384186E-07 3.464102 2.5
v -0.5000003 3.464102 2.5
v -2.384186E-07 4.157458 2.777925
v -0.5000003 4.157458 2.777925
v -2.384186E-07 3.695518 2.969267
v -0.5000003 3.695518 2.969267
v -4.768372E-07 4.346666 3.335315
v -0.5000005 4.346666 3.335315
v -4.768372E-07 3.863703 3.464724
v -0.5000005 3.863703 3.464724
v -4.768372E-07 4.461502 3.912632
v -0.5000005 4.461502 3.912632
v -4.768372E-07 3.965779 3.977895
v -0.5000005 3.965779 3.977896
v -4.768372E-07 4.5 4.5
v -0.5000005 4.5 4.5
v -4.768372E-07 4 4.5
v -0.5000005 4 4.5
v -4.768372E-07 4.461502 5.087368
v -0.5000005 4.461502 5.087368
v -4.768372E-07 3.96578 5.022105
v -0.5000005 3.96578 5.022105
v -4.768372E-07 4.346666 5.664686
v -0.5000005 4.346666 5.664686
v -4.768372E-07 3.863703 5.535277
v -0.5000005 3.863703 5.535277
v -9.536743E-07 4.157458 6.222076
v -0.500001 4.157458 6.222076
v -9.536743E-07 3.695518 6.030735
v -0.500001 3.695518 6.030735
v -9.536743E-07 3.897114 6.750001
v -0.500001 3.897114 6.750001
v -9.536743E-07 3.464102 6.500001
v -0.500001 3.464102 6.500001
v -9.536743E-07 3.57009 7.239428
v -0.500001 3.57009 7.239428
v -9.536743E-07 3.173413 6.935047
v -0.500001 3.173413 6.935047
v -9.536743E-07 3.18198 7.681981
v -0.500001 3.18198 7.681981
v -9.536743E-07 2.828427 7.328428
v -0.500001 2.828427 7.328428
v -9.536743E-07 2.739426 8.07009
v -0.500001 2.739426 8.07009
v -9.536743E-07 2.435046 7.673414
v -0.500001 2.435046 7.673414
v -9.536743E-07 2.25 8.397115
v -0.500001 2.25 8.397115
v -9.536743E-07 2 7.964103
v -0.500001 2 7.964103
v -9.536743E-07 1.722076 8.657458
v -0.500001 1.722076 8.657458
v -9.536743E-07 1.530734 8.195519
v -0.500001 1.530734 8.195519
v -9.536743E-07 1.164686 8.846667
v -0.500001 1.164686 8.846667
v -9.536743E-07 1.035277 8.363704
v -0.500001 1.035277 8.363704
v -9.536743E-07 0.5873684 8.961503
v -0.500001 0.5873684 8.961503
v -9.536743E-07 0.5221053 8.46578
v -0.500001 0.5221053 8.46578
v -9.536743E-07 -3.934025E-07 9.000001
v -0.500001 -3.934025E-07 9.000001
v -9.536743E-07 -3.496911E-07 8.500001
v -0.500001 -3.496911E-07 8.500001

vt 0 0
vt 0 1
vt 1 0
vt 1 1

vn 1.18954E-07 0.0654028 -0.9978589
vn -2.379081E-07 -0.06540294 0.9978589
vn 1.242261E-07 0.1950905 -0.9807853
vn -2.338374E-07 -0.1950906 0.9807853
vn 1.411035E-07 0.3214397 -0.9469301
vn -1.128829E-07 -0.3214396 0.9469301
vn 1.603733E-07 0.4422888 -0.8968727
vn -2.138311E-07 -0.4422887 0.8968728
vn 1.982377E-07 0.5555705 -0.8314694
vn -1.982378E-07 -0.5555702 0.8314696
vn 8.962628E-08 0.6593459 -0.7518398
vn 0 -0.6593459 0.7518397
vn 1.572002E-07 0.7518399 -0.6593457
vn 0 -0.7518399 0.6593458
vn 0 0.8314694 -0.5555706
vn 0 -0.8314694 0.5555705
vn 0 0.8968729 -0.4422885
vn 0 -0.8968731 0.4422881
vn 0 0.9469301 -0.3214396
vn 0 -0.9469301 0.3214396
vn 0 0.9807854 -0.1950897
vn 9.302622E-08 -0.9807853 0.1950902
vn 0 0.9978589 -0.06540358
vn 0 -0.9978589 0.06540337
vn 0 0.9978589 0.06540278
vn 0 -0.9978589 -0.06540295
vn 0 0.9807853 0.1950905
vn 0 -0.9807853 -0.1950905
vn 0 0.9469301 0.3214395
vn 0 -0.9469303 -0.3214391
vn 0 0.8968727 0.4422886
vn 0 -0.8968726 -0.4422889
vn 0 0.8314696 0.5555703
vn 0 -0.8314696 -0.5555702
vn 0 0.7518395 0.6593463
vn 0 -0.7518399 -0.6593456
vn 0 0.6593456 0.75184
vn 0 -0.6593455 -0.7518401
vn 0 0.5555707 0.8314694
vn 0 -0.5555708 -0.8314693
vn 0 0.4422886 0.8968727
vn 0 -0.442289 -0.8968726
vn 0 0.3214406 0.9469298
vn 0 -0.321438 -0.9469306
vn 0 0.1950905 0.9807853
vn 0 -0.1950911 -0.9807851
vn 0 0.06540269 0.9978589
vn 0 -0.06540329 -0.9978589
vn -1 7.813349E-09 -1.192093E-07
vn 1 -1.036927E-09 1.125865E-07

usemtl bm_edge_white
f 3/3/1 4/4/1 2/2/1 1/1/1
f 7/3/2 8/4/2 6/2/2 5/1/2
f 4/3/3 10/4/3 9/2/3 2/1/3
f 12/3/4 7/4/4 5/2/4 11/1/4
f 10/3/5 14/4/5 13/2/5 9/1/5
f 16/3/6 12/4/6 11/2/6 15/1/6
f 14/3/7 18/4/7 17/2/7 13/1/7
f 20/3/8 16/4/8 15/2/8 19/1/8
f 18/3/9 22/4/9 21/2/9 17/1/9
f 24/3/10 20/4/10 19/2/10 23/1/10
f 22/3/11 26/4/11 25/2/11 21/1/11
f 28/3/12 24/4/12 23/2/12 27/1/12
f 26/3/13 30/4/13 29/2/13 25/1/13
f 32/3/14 28/4/14 27/2/14 31/1/14
f 30/3/15 34/4/15 33/2/15 29/1/15
f 36/3/16 32/4/16 31/2/16 35/1/16
f 34/3/17 38/4/17 37/2/17 33/1/17
f 40/3/18 36/4/18 35/2/18 39/1/18
f 38/3/19 42/4/19 41/2/19 37/1/19
f 44/3/20 40/4/20 39/2/20 43/1/20
f 42/3/21 46/4/21 45/2/21 41/1/21
f 48/3/22 44/4/22 43/2/22 47/1/22
f 46/3/23 50/4/23 49/2/23 45/1/23
f 52/3/24 48/4/24 47/2/24 51/1/24
f 50/3/25 54/4/25 53/2/25 49/1/25
f 56/3/26 52/4/26 51/2/26 55/1/26
f 54/3/27 58/4/27 57/2/27 53/1/27
f 60/3/28 56/4/28 55/2/28 59/1/28
f 58/3/29 62/4/29 61/2/29 57/1/29
f 64/3/30 60/4/30 59/2/30 63/1/30
f 62/3/31 66/4/31 65/2/31 61/1/31
f 68/3/32 64/4/32 63/2/32 67/1/32
f 66/3/33 70/4/33 69/2/33 65/1/33
f 72/3/34 68/4/34 67/2/34 71/1/34
f 70/3/35 74/4/35 73/2/35 69/1/35
f 76/3/36 72/4/36 71/2/36 75/1/36
f 74/3/37 78/4/37 77/2/37 73/1/37
f 80/3/38 76/4/38 75/2/38 79/1/38
f 78/3/39 82/4/39 81/2/39 77/1/39
f 84/3/40 80/4/40 79/2/40 83/1/40
f 82/3/41 86/4/41 85/2/41 81/1/41
f 88/3/42 84/4/42 83/2/42 87/1/42
f 86/3/43 90/4/43 89/2/43 85/1/43
f 92/3/44 88/4/44 87/2/44 91/1/44
f 90/3/45 94/4/45 93/2/45 89/1/45
f 96/3/46 92/4/46 91/2/46 95/1/46
f 94/3/47 98/4/47 97/2/47 93/1/47
f 100/3/48 96/4/48 95/2/48 99/1/48
f 8/3/49 7/4/49 4/2/49 3/1/49
f 5/3/50 6/4/50 1/2/50 2/1/50
f 7/3/49 12/4/49 10/2/49 4/1/49
f 11/3/50 5/4/50 2/2/50 9/1/50
f 12/3/49 16/4/49 14/2/49 10/1/49
f 15/3/50 11/4/50 9/2/50 13/1/50
f 16/3/49 20/4/49 18/2/49 14/1/49
f 19/3/50 15/4/50 13/2/50 17/1/50
f 20/3/49 24/4/49 22/2/49 18/1/49
f 23/3/50 19/4/50 17/2/50 21/1/50
f 24/3/49 28/4/49 26/2/49 22/1/49
f 27/3/50 23/4/50 21/2/50 25/1/50
f 28/3/49 32/4/49 30/2/49 26/1/49
f 31/3/50 27/4/50 25/2/50 29/1/50
f 32/3/49 36/4/49 34/2/49 30/1/49
f 35/3/50 31/4/50 29/2/50 33/1/50
f 36/3/49 40/4/49 38/2/49 34/1/49
f 39/3/50 35/4/50 33/2/50 37/1/50
f 40/3/49 44/4/49 42/2/49 38/1/49
f 43/3/50 39/4/50 37/2/50 41/1/50
f 44/3/49 48/4/49 46/2/49 42/1/49
f 47/3/50 43/4/50 41/2/50 45/1/50
f 48/3/49 52/4/49 50/2/49 46/1/49
f 51/3/50 47/4/50 45/2/50 49/1/50
f 52/3/49 56/4/49 54/2/49 50/1/49
f 55/3/50 51/4/50 49/2/50 53/1/50
f 56/3/49 60/4/49 58/2/49 54/1/49
f 59/3/50 55/4/50 53/2/50 57/1/50
f 60/3/49 64/4/49 62/2/49 58/1/49
f 63/3/50 59/4/50 57/2/50 61/1/50
f 64/3/49 68/4/49 66/2/49 62/1/49
f 67/3/50 63/4/50 61/2/50 65/1/50
f 68/3/49 72/4/49 70/2/49 66/1/49
f 71/3/50 67/4/50 65/2/50 69/1/50
f 72/3/49 76/4/49 74/2/49 70/1/49
f 75/3/50 71/4/50 69/2/50 73/1/50
f 76/3/49 80/4/49 78/2/49 74/1/49
f 79/3/50 75/4/50 73/2/50 77/1/50
f 80/3/49 84/4/49 82/2/49 78/1/49
f 83/3/50 79/4/50 77/2/50 81/1/50
f 84/3/49 88/4/49 86/2/49 82/1/49
f 87/3/50 83/4/50 81/2/50 85/1/50
f 88/3/49 92/4/49 90/2/49 86/1/49
f 91/3/50 87/4/50 85/2/50 89/1/50
f 92/3/49 96/4/49 94/2/49 90/1/49
f 95/3/50 91/4/50 89/2/50 93/1/50
f 96/3/49 100/4/49 98/2/49 94/1/49
f 99/3/50 95/4/50 93/2/50 97/1/50

