# ProBuilder 4.5.2
# https://unity3d.com/unity/features/worldbuilding/probuilder
# 7/6/2023 3:04:46 PM

mtllib ./TrampledTrimCurve.mtl
o TrampledTrimCurve

g TrampledTrimCurve
v 0 0 0
v -0.5152106 0.01264912 0
v 0 0 0.5
v -0.5152106 0.01264912 0.5
v -0.4906753 0.5120473 0
v 1.460314E-06 0.5 0
v -0.4906753 0.5120473 0.5
v 1.460314E-06 0.5 0.5
v -1.02918 0.05056298 0
v -1.02918 0.05056298 0.5
v -0.9801698 0.5481558 0
v -0.9801698 0.5481558 0.5
v -1.54067 0.113651 0
v -1.54067 0.113651 0.5
v -1.467303 0.6082387 0
v -1.467303 0.6082387 0.5
v -2.048448 0.2017605 0
v -2.048448 0.2017605 0.5
v -1.950901 0.692153 0
v -1.950901 0.692153 0.5
v -2.551291 0.3146789 0
v -2.551291 0.3146789 0.5
v -2.4298 0.7996945 0
v -2.4298 0.7996945 0.5
v -3.047987 0.4521353 0
v -3.047987 0.4521353 0.5
v -2.902844 0.9306049 0
v -2.902844 0.9306049 0.5
v -3.537342 0.6137977 0
v -3.537342 0.6137977 0.5
v -3.368895 1.084569 0
v -3.368895 1.084569 0.5
v -4.018174 0.7992768 0
v -4.018174 0.7992768 0.5
v -3.826831 1.261216 0
v -3.826831 1.261216 0.5
v -4.489326 1.008125 0
v -4.489326 1.008125 0.5
v -4.275547 1.460119 0
v -4.275547 1.460119 0.5
v -4.949662 1.239841 0
v -4.949662 1.239841 0.5
v -4.713963 1.680801 0
v -4.713963 1.680801 0.5
v -5.398075 1.493865 0
v -5.398075 1.493865 0.5
v -5.141022 1.922729 0
v -5.141022 1.922729 0.5
v -5.833482 1.769587 0
v -5.833482 1.769587 0.5
v -5.555696 2.18532 0
v -5.555696 2.18532 0.5
v -6.254837 2.066339 0
v -6.254837 2.066339 0.5
v -5.956986 2.467942 0
v -5.956986 2.467942 0.5
v -6.661122 2.38341 0
v -6.661122 2.38341 0.5
v -6.343925 2.769914 0
v -6.343925 2.769914 0.5
v -7.051361 2.720034 0
v -7.051361 2.720034 0.5
v -6.71558 3.090508 0
v -6.71558 3.090508 0.5
v -7.424612 3.0754 0
v -7.424612 3.0754 0.5
v -7.071058 3.428953 0
v -7.071058 3.428953 0.5
v -7.779977 3.448654 0
v -7.779977 3.448654 0.5
v -7.4095 3.784432 0
v -7.4095 3.784432 0.5
v -8.116598 3.838895 0
v -8.116598 3.838895 0.5
v -7.730093 4.156089 0
v -7.730093 4.156089 0.5
v -8.433666 4.245182 0
v -8.433666 4.245182 0.5
v -8.032062 4.543031 0
v -8.032062 4.543031 0.5
v -8.730417 4.666538 0
v -8.730417 4.666538 0.5
v -8.314682 4.944322 0
v -8.314682 4.944322 0.5
v -9.006136 5.101947 0
v -9.006136 5.101947 0.5
v -8.577271 5.358996 0
v -8.577271 5.358996 0.5
v -9.260157 5.550361 0
v -9.260157 5.550361 0.5
v -8.819195 5.786057 0
v -8.819195 5.786057 0.5
v -9.491871 6.010699 0
v -9.491871 6.010699 0.5
v -9.039875 6.224475 0
v -9.039875 6.224475 0.5
v -9.700716 6.481853 0
v -9.700716 6.481853 0.5
v -9.238775 6.673192 0
v -9.238775 6.673192 0.5
v -9.886192 6.962686 0
v -9.886192 6.962686 0.5
v -9.41542 7.13113 0
v -9.41542 7.13113 0.5
v -10.04785 7.452042 0
v -10.04785 7.452042 0.5
v -9.569382 7.597181 0
v -9.569382 7.597181 0.5
v -10.1853 7.948738 0
v -10.1853 7.948738 0.5
v -9.700289 8.070228 0
v -9.700289 8.070228 0.5
v -10.29822 8.451583 0
v -10.29822 8.451583 0.5
v -9.807828 8.549125 0
v -9.807828 8.549125 0.5
v -10.38633 8.959361 0
v -10.38633 8.959361 0.5
v -9.891739 9.032724 0
v -9.891739 9.032724 0.5
v -10.44941 9.470852 0
v -10.44941 9.470852 0.5
v -9.951819 9.519857 0
v -9.951819 9.519857 0.5
v -10.48732 9.984819 0
v -10.48732 9.984819 0.5
v -9.987925 10.00935 0
v -9.987925 10.00935 0.5
v -10.49997 10.50003 0
v -10.49997 10.50003 0.5
v -9.999969 10.50003 0
v -9.999969 10.50003 0.5
v -10.48732 11.01524 0
v -10.48732 11.01524 0.5
v -9.987922 10.99071 0
v -9.987922 10.99071 0.5
v -10.44941 11.52921 0
v -10.44941 11.52921 0.5
v -9.951814 11.4802 0
v -9.951814 11.4802 0.5
v -10.38632 12.0407 0
v -10.38632 12.0407 0.5
v -9.89173 11.96733 0
v -9.89173 11.96733 0.5
v -10.29821 12.54848 0
v -10.29821 12.54848 0.5
v -9.807817 12.45093 0
v -9.807817 12.45093 0.5
v -10.18529 13.05132 0
v -10.18529 13.05132 0.5
v -9.700274 12.92983 0
v -9.700274 12.92983 0.5
v -10.04783 13.54802 0
v -10.04783 13.54802 0.5
v -9.569364 13.40287 0
v -9.569364 13.40287 0.5
v -9.886171 14.03737 0
v -9.886171 14.03737 0.5
v -9.415401 13.86893 0
v -9.415401 13.86893 0.5
v -9.700693 14.5182 0
v -9.700693 14.5182 0.5
v -9.238753 14.32686 0
v -9.238753 14.32686 0.5
v -9.491844 14.98936 0
v -9.491844 14.98936 0.5
v -9.03985 14.77558 0
v -9.03985 14.77558 0.5
v -9.260129 15.44969 0
v -9.260129 15.44969 0.5
v -8.819168 15.21399 0
v -8.819168 15.21399 0.5
v -9.006104 15.8981 0
v -9.006104 15.8981 0.5
v -8.57724 15.64105 0
v -8.57724 15.64105 0.5
v -8.730384 16.33351 0
v -8.730384 16.33351 0.5
v -8.314649 16.05573 0
v -8.314649 16.05573 0.5
v -8.433629 16.75487 0
v -8.433629 16.75487 0.5
v -8.032027 16.45702 0
v -8.032027 16.45702 0.5
v -8.116561 17.16115 0
v -8.116561 17.16115 0.5
v -7.730055 16.84396 0
v -7.730055 16.84396 0.5
v -7.779936 17.55139 0
v -7.779936 17.55139 0.5
v -7.409463 17.21561 0
v -7.409463 17.21561 0.5
v -7.42457 17.92464 0
v -7.42457 17.92464 0.5
v -7.071016 17.57109 0
v -7.071016 17.57109 0.5
v -7.051316 18.28001 0
v -7.051316 18.28001 0.5
v -6.715539 17.90953 0
v -6.715539 17.90953 0.5
v -6.661074 18.61663 0
v -6.661074 18.61663 0.5
v -6.343879 18.23012 0
v -6.343879 18.23012 0.5
v -6.254788 18.93369 0
v -6.254788 18.93369 0.5
v -5.95694 18.53209 0
v -5.95694 18.53209 0.5
v -5.833432 19.23045 0
v -5.833432 19.23045 0.5
v -5.555646 18.81471 0
v -5.555646 18.81471 0.5
v -5.398022 19.50616 0
v -5.398022 19.50616 0.5
v -5.140972 19.0773 0
v -5.140972 19.0773 0.5
v -4.94961 19.76019 0
v -4.94961 19.76019 0.5
v -4.713911 19.31923 0
v -4.713911 19.31923 0.5
v -4.489269 19.9919 0
v -4.489269 19.9919 0.5
v -4.275493 19.53991 0
v -4.275493 19.53991 0.5
v -4.018117 20.20075 0
v -4.018117 20.20075 0.5
v -3.826778 19.73881 0
v -3.826778 19.73881 0.5
v -3.537284 20.38622 0
v -3.537284 20.38622 0.5
v -3.368841 19.91545 0
v -3.368841 19.91545 0.5
v -3.04793 20.54788 0
v -3.04793 20.54788 0.5
v -2.902788 20.06941 0
v -2.902788 20.06941 0.5
v -2.551232 20.68533 0
v -2.551232 20.68533 0.5
v -2.429744 20.20032 0
v -2.429744 20.20032 0.5
v -2.048387 20.79825 0
v -2.048387 20.79825 0.5
v -1.950844 20.30786 0
v -1.950844 20.30786 0.5
v -1.54061 20.88636 0
v -1.54061 20.88636 0.5
v -1.467247 20.39177 0
v -1.467247 20.39177 0.5
v -1.029119 20.94944 0
v -1.029119 20.94944 0.5
v -0.9801118 20.45185 0
v -0.9801118 20.45185 0.5
v -0.5151501 20.98735 0
v -0.5151501 20.98735 0.5
v -0.4906181 20.48796 0
v -0.4906181 20.48796 0.5
v 6.19531E-05 21 0
v 6.19531E-05 21 0.5
v 6.000204E-05 20.5 0
v 6.000204E-05 20.5 0.5

vt 0 0
vt 0 1
vt 1 0
vt 1 1

vn -0.02454396 -0.9996988 0
vn 0.024545 0.9996987 0
vn -0.0735669 -0.9972903 0
vn 0.07356701 0.9972903 0
vn -0.1224141 -0.9924791 0
vn 0.1224122 0.9924794 0
vn -0.170965 -0.9852771 0
vn 0.1709659 0.9852769 0
vn -0.2191033 -0.9757017 0
vn 0.2191038 0.9757016 0
vn -0.2667164 -0.9637751 0
vn 0.2667154 0.9637753 0
vn -0.3136845 -0.9495273 0
vn 0.313685 0.9495271 0
vn -0.359898 -0.9329917 0
vn 0.3598975 0.9329919 0
vn -0.4052426 -0.9142092 0
vn 0.4052436 0.9142088 0
vn -0.4496139 -0.893223 0
vn 0.4496139 0.893223 0
vn -0.4929019 -0.8700849 0
vn 0.4929014 0.8700852 0
vn -0.5350007 -0.8448516 0
vn 0.535 0.8448521 0
vn -0.57581 -0.8175836 0
vn 0.5758106 0.8175831 0
vn -0.6152338 -0.7883447 0
vn 0.6152337 0.7883449 0
vn -0.6531749 -0.7572071 0
vn 0.6531748 0.7572072 0
vn -0.6895428 -0.7242449 0
vn 0.6895429 0.7242449 0
vn -0.7242489 -0.6895386 0
vn 0.7242497 0.6895379 0
vn -0.7572118 -0.6531695 0
vn 0.7572099 0.6531717 0
vn -0.7883479 -0.6152297 0
vn 0.7883494 0.6152278 0
vn -0.8175862 -0.5758063 0
vn 0.8175853 0.5758075 0
vn -0.8448542 -0.5349966 0
vn 0.8448549 0.5349956 0
vn -0.8700892 -0.4928944 0
vn 0.8700895 0.4928938 0
vn -0.8932248 -0.4496102 0
vn 0.8932248 0.4496104 0
vn -0.914212 -0.4052362 0
vn 0.9142116 0.4052372 0
vn -0.9329935 -0.3598932 0
vn 0.9329941 0.3598916 0
vn -0.9495294 -0.313678 0
vn 0.9495284 0.3136811 0
vn -0.9637768 -0.2667103 0
vn 0.9637774 0.266708 0
vn -0.9757028 -0.2190983 0
vn 0.9757025 0.2190998 0
vn -0.9852779 -0.1709605 0
vn 0.9852782 0.1709588 0
vn -0.99248 -0.1224073 0
vn 0.99248 0.1224075 0
vn -0.9972908 -0.07356059 0
vn 0.9972908 0.07356028 0
vn -0.9996989 -0.0245392 0
vn 0.9996988 0.02454009 0
vn -0.9996988 0.02454475 0
vn 0.9996987 -0.02454601 0
vn -0.9972903 0.07356611 0
vn 0.9972904 -0.07356608 0
vn -0.9924791 0.1224146 0
vn 0.9924792 -0.1224132 0
vn -0.9852774 0.1709634 0
vn 0.9852771 -0.1709651 0
vn -0.9757015 0.2191044 0
vn 0.9757016 -0.2191036 0
vn -0.9637753 0.2667155 0
vn 0.963775 -0.2667168 0
vn -0.9495265 0.3136868 0
vn 0.949528 -0.3136823 0
vn -0.9329923 0.3598964 0
vn 0.9329907 -0.3599006 0
vn -0.9142087 0.4052438 0
vn 0.91421 -0.4052407 0
vn -0.893223 0.4496139 0
vn 0.893222 -0.4496159 0
vn -0.8700848 0.4929022 0
vn 0.8700852 -0.4929014 0
vn -0.8448534 0.5349979 0
vn 0.8448522 -0.5349997 0
vn -0.8175815 0.5758129 0
vn 0.8175831 -0.5758107 0
vn -0.7883471 0.6152306 0
vn 0.7883455 -0.6152328 0
vn -0.7572058 0.6531764 0
vn 0.7572062 -0.653176 0
vn -0.7242467 0.689541 0
vn 0.7242457 -0.689542 0
vn -0.6895357 0.7242517 0
vn 0.6895418 -0.7242459 0
vn -0.6531717 0.7572098 0
vn 0.6531671 -0.7572138 0
vn -0.615226 0.7883508 0
vn 0.6152283 -0.788349 0
vn -0.5758088 0.8175845 0
vn 0.5758086 -0.8175845 0
vn -0.5349927 0.8448567 0
vn 0.5349932 -0.8448563 0
vn -0.4929016 0.8700851 0
vn 0.4928938 -0.8700895 0
vn -0.4496054 0.8932273 0
vn 0.4496131 -0.8932234 0
vn -0.4052414 0.9142098 0
vn 0.4052385 -0.914211 0
vn -0.3598922 0.9329938 0
vn 0.3598907 -0.9329945 0
vn -0.3136761 0.94953 0
vn 0.3136785 -0.9495293 0
vn -0.266706 0.963778 0
vn 0.2667091 -0.9637771 0
vn -0.2191001 0.9757023 0
vn 0.2191004 -0.9757023 0
vn -0.1709589 0.9852781 0
vn 0.1709577 -0.9852784 0
vn -0.122409 0.9924798 0
vn 0.122409 -0.9924797 0
vn -0.07356413 0.9972904 0
vn 0.07355843 -0.9972909 0
vn -0.02453731 0.9996989 0
vn 0.02454008 -0.9996988 0
vn 0 0 1
vn 0 0 -1

usemtl bm_edge_white
f 3/3/1 4/4/1 2/2/1 1/1/1
f 7/3/2 8/4/2 6/2/2 5/1/2
f 4/3/3 10/4/3 9/2/3 2/1/3
f 12/3/4 7/4/4 5/2/4 11/1/4
f 10/3/5 14/4/5 13/2/5 9/1/5
f 16/3/6 12/4/6 11/2/6 15/1/6
f 14/3/7 18/4/7 17/2/7 13/1/7
f 20/3/8 16/4/8 15/2/8 19/1/8
f 18/3/9 22/4/9 21/2/9 17/1/9
f 24/3/10 20/4/10 19/2/10 23/1/10
f 22/3/11 26/4/11 25/2/11 21/1/11
f 28/3/12 24/4/12 23/2/12 27/1/12
f 26/3/13 30/4/13 29/2/13 25/1/13
f 32/3/14 28/4/14 27/2/14 31/1/14
f 30/3/15 34/4/15 33/2/15 29/1/15
f 36/3/16 32/4/16 31/2/16 35/1/16
f 34/3/17 38/4/17 37/2/17 33/1/17
f 40/3/18 36/4/18 35/2/18 39/1/18
f 38/3/19 42/4/19 41/2/19 37/1/19
f 44/3/20 40/4/20 39/2/20 43/1/20
f 42/3/21 46/4/21 45/2/21 41/1/21
f 48/3/22 44/4/22 43/2/22 47/1/22
f 46/3/23 50/4/23 49/2/23 45/1/23
f 52/3/24 48/4/24 47/2/24 51/1/24
f 50/3/25 54/4/25 53/2/25 49/1/25
f 56/3/26 52/4/26 51/2/26 55/1/26
f 54/3/27 58/4/27 57/2/27 53/1/27
f 60/3/28 56/4/28 55/2/28 59/1/28
f 58/3/29 62/4/29 61/2/29 57/1/29
f 64/3/30 60/4/30 59/2/30 63/1/30
f 62/3/31 66/4/31 65/2/31 61/1/31
f 68/3/32 64/4/32 63/2/32 67/1/32
f 66/3/33 70/4/33 69/2/33 65/1/33
f 72/3/34 68/4/34 67/2/34 71/1/34
f 70/3/35 74/4/35 73/2/35 69/1/35
f 76/3/36 72/4/36 71/2/36 75/1/36
f 74/3/37 78/4/37 77/2/37 73/1/37
f 80/3/38 76/4/38 75/2/38 79/1/38
f 78/3/39 82/4/39 81/2/39 77/1/39
f 84/3/40 80/4/40 79/2/40 83/1/40
f 82/3/41 86/4/41 85/2/41 81/1/41
f 88/3/42 84/4/42 83/2/42 87/1/42
f 86/3/43 90/4/43 89/2/43 85/1/43
f 92/3/44 88/4/44 87/2/44 91/1/44
f 90/3/45 94/4/45 93/2/45 89/1/45
f 96/3/46 92/4/46 91/2/46 95/1/46
f 94/3/47 98/4/47 97/2/47 93/1/47
f 100/3/48 96/4/48 95/2/48 99/1/48
f 98/3/49 102/4/49 101/2/49 97/1/49
f 104/3/50 100/4/50 99/2/50 103/1/50
f 102/3/51 106/4/51 105/2/51 101/1/51
f 108/3/52 104/4/52 103/2/52 107/1/52
f 106/3/53 110/4/53 109/2/53 105/1/53
f 112/3/54 108/4/54 107/2/54 111/1/54
f 110/3/55 114/4/55 113/2/55 109/1/55
f 116/3/56 112/4/56 111/2/56 115/1/56
f 114/3/57 118/4/57 117/2/57 113/1/57
f 120/3/58 116/4/58 115/2/58 119/1/58
f 118/3/59 122/4/59 121/2/59 117/1/59
f 124/3/60 120/4/60 119/2/60 123/1/60
f 122/3/61 126/4/61 125/2/61 121/1/61
f 128/3/62 124/4/62 123/2/62 127/1/62
f 126/3/63 130/4/63 129/2/63 125/1/63
f 132/3/64 128/4/64 127/2/64 131/1/64
f 130/3/65 134/4/65 133/2/65 129/1/65
f 136/3/66 132/4/66 131/2/66 135/1/66
f 134/3/67 138/4/67 137/2/67 133/1/67
f 140/3/68 136/4/68 135/2/68 139/1/68
f 138/3/69 142/4/69 141/2/69 137/1/69
f 144/3/70 140/4/70 139/2/70 143/1/70
f 142/3/71 146/4/71 145/2/71 141/1/71
f 148/3/72 144/4/72 143/2/72 147/1/72
f 146/3/73 150/4/73 149/2/73 145/1/73
f 152/3/74 148/4/74 147/2/74 151/1/74
f 150/3/75 154/4/75 153/2/75 149/1/75
f 156/3/76 152/4/76 151/2/76 155/1/76
f 154/3/77 158/4/77 157/2/77 153/1/77
f 160/3/78 156/4/78 155/2/78 159/1/78
f 158/3/79 162/4/79 161/2/79 157/1/79
f 164/3/80 160/4/80 159/2/80 163/1/80
f 162/3/81 166/4/81 165/2/81 161/1/81
f 168/3/82 164/4/82 163/2/82 167/1/82
f 166/3/83 170/4/83 169/2/83 165/1/83
f 172/3/84 168/4/84 167/2/84 171/1/84
f 170/3/85 174/4/85 173/2/85 169/1/85
f 176/3/86 172/4/86 171/2/86 175/1/86
f 174/3/87 178/4/87 177/2/87 173/1/87
f 180/3/88 176/4/88 175/2/88 179/1/88
f 178/3/89 182/4/89 181/2/89 177/1/89
f 184/3/90 180/4/90 179/2/90 183/1/90
f 182/3/91 186/4/91 185/2/91 181/1/91
f 188/3/92 184/4/92 183/2/92 187/1/92
f 186/3/93 190/4/93 189/2/93 185/1/93
f 192/3/94 188/4/94 187/2/94 191/1/94
f 190/3/95 194/4/95 193/2/95 189/1/95
f 196/3/96 192/4/96 191/2/96 195/1/96
f 194/3/97 198/4/97 197/2/97 193/1/97
f 200/3/98 196/4/98 195/2/98 199/1/98
f 198/3/99 202/4/99 201/2/99 197/1/99
f 204/3/100 200/4/100 199/2/100 203/1/100
f 202/3/101 206/4/101 205/2/101 201/1/101
f 208/3/102 204/4/102 203/2/102 207/1/102
f 206/3/103 210/4/103 209/2/103 205/1/103
f 212/3/104 208/4/104 207/2/104 211/1/104
f 210/3/105 214/4/105 213/2/105 209/1/105
f 216/3/106 212/4/106 211/2/106 215/1/106
f 214/3/107 218/4/107 217/2/107 213/1/107
f 220/3/108 216/4/108 215/2/108 219/1/108
f 218/3/109 222/4/109 221/2/109 217/1/109
f 224/3/110 220/4/110 219/2/110 223/1/110
f 222/3/111 226/4/111 225/2/111 221/1/111
f 228/3/112 224/4/112 223/2/112 227/1/112
f 226/3/113 230/4/113 229/2/113 225/1/113
f 232/3/114 228/4/114 227/2/114 231/1/114
f 230/3/115 234/4/115 233/2/115 229/1/115
f 236/3/116 232/4/116 231/2/116 235/1/116
f 234/3/117 238/4/117 237/2/117 233/1/117
f 240/3/118 236/4/118 235/2/118 239/1/118
f 238/3/119 242/4/119 241/2/119 237/1/119
f 244/3/120 240/4/120 239/2/120 243/1/120
f 242/3/121 246/4/121 245/2/121 241/1/121
f 248/3/122 244/4/122 243/2/122 247/1/122
f 246/3/123 250/4/123 249/2/123 245/1/123
f 252/3/124 248/4/124 247/2/124 251/1/124
f 250/3/125 254/4/125 253/2/125 249/1/125
f 256/3/126 252/4/126 251/2/126 255/1/126
f 254/3/127 258/4/127 257/2/127 253/1/127
f 260/3/128 256/4/128 255/2/128 259/1/128
f 8/3/129 7/4/129 4/2/129 3/1/129
f 5/3/130 6/4/130 1/2/130 2/1/130
f 7/3/129 12/4/129 10/2/129 4/1/129
f 11/3/130 5/4/130 2/2/130 9/1/130
f 12/3/129 16/4/129 14/2/129 10/1/129
f 15/3/130 11/4/130 9/2/130 13/1/130
f 16/3/129 20/4/129 18/2/129 14/1/129
f 19/3/130 15/4/130 13/2/130 17/1/130
f 20/3/129 24/4/129 22/2/129 18/1/129
f 23/3/130 19/4/130 17/2/130 21/1/130
f 24/3/129 28/4/129 26/2/129 22/1/129
f 27/3/130 23/4/130 21/2/130 25/1/130
f 28/3/129 32/4/129 30/2/129 26/1/129
f 31/3/130 27/4/130 25/2/130 29/1/130
f 32/3/129 36/4/129 34/2/129 30/1/129
f 35/3/130 31/4/130 29/2/130 33/1/130
f 36/3/129 40/4/129 38/2/129 34/1/129
f 39/3/130 35/4/130 33/2/130 37/1/130
f 40/3/129 44/4/129 42/2/129 38/1/129
f 43/3/130 39/4/130 37/2/130 41/1/130
f 44/3/129 48/4/129 46/2/129 42/1/129
f 47/3/130 43/4/130 41/2/130 45/1/130
f 48/3/129 52/4/129 50/2/129 46/1/129
f 51/3/130 47/4/130 45/2/130 49/1/130
f 52/3/129 56/4/129 54/2/129 50/1/129
f 55/3/130 51/4/130 49/2/130 53/1/130
f 56/3/129 60/4/129 58/2/129 54/1/129
f 59/3/130 55/4/130 53/2/130 57/1/130
f 60/3/129 64/4/129 62/2/129 58/1/129
f 63/3/130 59/4/130 57/2/130 61/1/130
f 64/3/129 68/4/129 66/2/129 62/1/129
f 67/3/130 63/4/130 61/2/130 65/1/130
f 68/3/129 72/4/129 70/2/129 66/1/129
f 71/3/130 67/4/130 65/2/130 69/1/130
f 72/3/129 76/4/129 74/2/129 70/1/129
f 75/3/130 71/4/130 69/2/130 73/1/130
f 76/3/129 80/4/129 78/2/129 74/1/129
f 79/3/130 75/4/130 73/2/130 77/1/130
f 80/3/129 84/4/129 82/2/129 78/1/129
f 83/3/130 79/4/130 77/2/130 81/1/130
f 84/3/129 88/4/129 86/2/129 82/1/129
f 87/3/130 83/4/130 81/2/130 85/1/130
f 88/3/129 92/4/129 90/2/129 86/1/129
f 91/3/130 87/4/130 85/2/130 89/1/130
f 92/3/129 96/4/129 94/2/129 90/1/129
f 95/3/130 91/4/130 89/2/130 93/1/130
f 96/3/129 100/4/129 98/2/129 94/1/129
f 99/3/130 95/4/130 93/2/130 97/1/130
f 100/3/129 104/4/129 102/2/129 98/1/129
f 103/3/130 99/4/130 97/2/130 101/1/130
f 104/3/129 108/4/129 106/2/129 102/1/129
f 107/3/130 103/4/130 101/2/130 105/1/130
f 108/3/129 112/4/129 110/2/129 106/1/129
f 111/3/130 107/4/130 105/2/130 109/1/130
f 112/3/129 116/4/129 114/2/129 110/1/129
f 115/3/130 111/4/130 109/2/130 113/1/130
f 116/3/129 120/4/129 118/2/129 114/1/129
f 119/3/130 115/4/130 113/2/130 117/1/130
f 120/3/129 124/4/129 122/2/129 118/1/129
f 123/3/130 119/4/130 117/2/130 121/1/130
f 124/3/129 128/4/129 126/2/129 122/1/129
f 127/3/130 123/4/130 121/2/130 125/1/130
f 128/3/129 132/4/129 130/2/129 126/1/129
f 131/3/130 127/4/130 125/2/130 129/1/130
f 132/3/129 136/4/129 134/2/129 130/1/129
f 135/3/130 131/4/130 129/2/130 133/1/130
f 136/3/129 140/4/129 138/2/129 134/1/129
f 139/3/130 135/4/130 133/2/130 137/1/130
f 140/3/129 144/4/129 142/2/129 138/1/129
f 143/3/130 139/4/130 137/2/130 141/1/130
f 144/3/129 148/4/129 146/2/129 142/1/129
f 147/3/130 143/4/130 141/2/130 145/1/130
f 148/3/129 152/4/129 150/2/129 146/1/129
f 151/3/130 147/4/130 145/2/130 149/1/130
f 152/3/129 156/4/129 154/2/129 150/1/129
f 155/3/130 151/4/130 149/2/130 153/1/130
f 156/3/129 160/4/129 158/2/129 154/1/129
f 159/3/130 155/4/130 153/2/130 157/1/130
f 160/3/129 164/4/129 162/2/129 158/1/129
f 163/3/130 159/4/130 157/2/130 161/1/130
f 164/3/129 168/4/129 166/2/129 162/1/129
f 167/3/130 163/4/130 161/2/130 165/1/130
f 168/3/129 172/4/129 170/2/129 166/1/129
f 171/3/130 167/4/130 165/2/130 169/1/130
f 172/3/129 176/4/129 174/2/129 170/1/129
f 175/3/130 171/4/130 169/2/130 173/1/130
f 176/3/129 180/4/129 178/2/129 174/1/129
f 179/3/130 175/4/130 173/2/130 177/1/130
f 180/3/129 184/4/129 182/2/129 178/1/129
f 183/3/130 179/4/130 177/2/130 181/1/130
f 184/3/129 188/4/129 186/2/129 182/1/129
f 187/3/130 183/4/130 181/2/130 185/1/130
f 188/3/129 192/4/129 190/2/129 186/1/129
f 191/3/130 187/4/130 185/2/130 189/1/130
f 192/3/129 196/4/129 194/2/129 190/1/129
f 195/3/130 191/4/130 189/2/130 193/1/130
f 196/3/129 200/4/129 198/2/129 194/1/129
f 199/3/130 195/4/130 193/2/130 197/1/130
f 200/3/129 204/4/129 202/2/129 198/1/129
f 203/3/130 199/4/130 197/2/130 201/1/130
f 204/3/129 208/4/129 206/2/129 202/1/129
f 207/3/130 203/4/130 201/2/130 205/1/130
f 208/3/129 212/4/129 210/2/129 206/1/129
f 211/3/130 207/4/130 205/2/130 209/1/130
f 212/3/129 216/4/129 214/2/129 210/1/129
f 215/3/130 211/4/130 209/2/130 213/1/130
f 216/3/129 220/4/129 218/2/129 214/1/129
f 219/3/130 215/4/130 213/2/130 217/1/130
f 220/3/129 224/4/129 222/2/129 218/1/129
f 223/3/130 219/4/130 217/2/130 221/1/130
f 224/3/129 228/4/129 226/2/129 222/1/129
f 227/3/130 223/4/130 221/2/130 225/1/130
f 228/3/129 232/4/129 230/2/129 226/1/129
f 231/3/130 227/4/130 225/2/130 229/1/130
f 232/3/129 236/4/129 234/2/129 230/1/129
f 235/3/130 231/4/130 229/2/130 233/1/130
f 236/3/129 240/4/129 238/2/129 234/1/129
f 239/3/130 235/4/130 233/2/130 237/1/130
f 240/3/129 244/4/129 242/2/129 238/1/129
f 243/3/130 239/4/130 237/2/130 241/1/130
f 244/3/129 248/4/129 246/2/129 242/1/129
f 247/3/130 243/4/130 241/2/130 245/1/130
f 248/3/129 252/4/129 250/2/129 246/1/129
f 251/3/130 247/4/130 245/2/130 249/1/130
f 252/3/129 256/4/129 254/2/129 250/1/129
f 255/3/130 251/4/130 249/2/130 253/1/130
f 256/3/129 260/4/129 258/2/129 254/1/129
f 259/3/130 255/4/130 253/2/130 257/1/130

