# ProBuilder 4.5.2
# https://unity3d.com/unity/features/worldbuilding/probuilder
# 7/6/2023 3:03:28 PM

mtllib ./TrampledTrimArch2.mtl
o TrampledTrimArch2

g TrampledTrimArch2
v 0 0 0
v -1.862645E-09 0.5099841 0.02003765
v -0.5000001 0 -5.960464E-08
v -0.5000001 0.5099841 0.02003759
v -5.960464E-08 0.4707546 0.5184961
v -5.960464E-08 0 0.5000001
v -0.5000001 0.4707546 0.518496
v -0.5000001 0 0.4999999
v -7.450581E-09 1.016824 0.08002568
v -0.5000001 1.016824 0.08002561
v -5.960464E-08 0.9386069 0.5738698
v -0.5000001 0.9386069 0.5738696
v -1.490116E-08 1.517395 0.1795955
v -0.5000001 1.517395 0.1795954
v -5.960464E-08 1.400672 0.6657806
v -0.5000001 1.400672 0.6657805
v -2.980232E-08 2.00861 0.3181324
v -0.5000001 2.00861 0.3181323
v -1.192093E-07 1.854102 0.7936608
v -0.5000002 1.854102 0.7936607
v -5.960464E-08 2.487442 0.4947835
v -0.5000001 2.487442 0.4947834
v -1.192093E-07 2.296101 0.9567233
v -0.5000002 2.296101 0.9567233
v -5.960464E-08 2.950938 0.7084575
v -0.5000001 2.950938 0.7084574
v -1.192093E-07 2.723943 1.153961
v -0.5000002 2.723943 1.153961
v -1.192093E-07 3.39624 0.9578391
v -0.5000002 3.39624 0.9578391
v -1.192093E-07 3.134991 1.384159
v -0.5000002 3.134991 1.384159
v -1.192093E-07 3.820604 1.241389
v -0.5000002 3.820604 1.241389
v -2.384186E-07 3.526711 1.645898
v -0.5000003 3.526711 1.645898
v -2.384186E-07 4.221412 1.557361
v -0.5000003 4.221412 1.557361
v -2.384186E-07 3.896688 1.937565
v -0.5000003 3.896688 1.937565
v -2.384186E-07 4.596194 1.903806
v -0.5000003 4.596194 1.903806
v -2.384186E-07 4.24264 2.25736
v -0.5000003 4.24264 2.25736
v -2.384186E-07 4.942639 2.278588
v -0.5000003 4.942639 2.278588
v -2.384186E-07 4.562436 2.603312
v -0.5000003 4.562436 2.603312
v -2.384186E-07 5.258611 2.679396
v -0.5000003 5.258611 2.679396
v -2.384186E-07 4.854102 2.973288
v -0.5000003 4.854102 2.973288
v -4.768372E-07 5.542161 3.10376
v -0.5000005 5.542161 3.10376
v -4.768372E-07 5.115841 3.365009
v -0.5000005 5.115841 3.365009
v -4.768372E-07 5.791543 3.549062
v -0.5000005 5.791543 3.549062
v -4.768372E-07 5.346039 3.776057
v -0.5000005 5.346039 3.776057
v -4.768372E-07 6.005217 4.012558
v -0.5000005 6.005217 4.012558
v -4.768372E-07 5.543277 4.2039
v -0.5000005 5.543277 4.2039
v -4.768372E-07 6.181868 4.49139
v -0.5000005 6.181868 4.49139
v -4.768372E-07 5.706339 4.645898
v -0.5000005 5.706339 4.645898
v -4.768372E-07 6.320405 4.982605
v -0.5000005 6.320405 4.982605
v -4.768372E-07 5.834219 5.099328
v -0.5000005 5.834219 5.099328
v -4.768372E-07 6.419974 5.483176
v -0.5000005 6.419974 5.483176
v -4.768372E-07 5.92613 5.561393
v -0.5000005 5.92613 5.561393
v -4.768372E-07 6.479962 5.990016
v -0.5000005 6.479962 5.990016
v -9.536743E-07 5.981504 6.029246
v -0.500001 5.981504 6.029246
v -9.536743E-07 6.5 6.500001
v -0.500001 6.5 6.500001
v -9.536743E-07 6 6.500001
v -0.500001 6 6.500001
v -9.536743E-07 6.479962 7.009985
v -0.500001 6.479962 7.009985
v -9.536743E-07 5.981504 6.970755
v -0.500001 5.981504 6.970755
v -9.536743E-07 6.419974 7.516825
v -0.500001 6.419974 7.516825
v -9.536743E-07 5.92613 7.438608
v -0.500001 5.92613 7.438608
v -9.536743E-07 6.320405 8.017396
v -0.500001 6.320405 8.017396
v -9.536743E-07 5.834219 7.900673
v -0.500001 5.834219 7.900673
v -9.536743E-07 6.181868 8.508611
v -0.500001 6.181868 8.508611
v -9.536743E-07 5.706339 8.354102
v -0.500001 5.706339 8.354102
v -9.536743E-07 6.005217 8.987443
v -0.500001 6.005217 8.987443
v -9.536743E-07 5.543277 8.796102
v -0.500001 5.543277 8.796102
v -9.536743E-07 5.791543 9.450938
v -0.500001 5.791543 9.450938
v -9.536743E-07 5.34604 9.223943
v -0.500001 5.34604 9.223943
v -9.536743E-07 5.542161 9.896241
v -0.500001 5.542161 9.896241
v -9.536743E-07 5.115841 9.634992
v -0.500001 5.115841 9.634992
v -9.536743E-07 5.258611 10.3206
v -0.500001 5.258611 10.3206
v -9.536743E-07 4.854102 10.02671
v -0.500001 4.854102 10.02671
v -9.536743E-07 4.942639 10.72141
v -0.500001 4.942639 10.72141
v -9.536743E-07 4.562436 10.39669
v -0.500001 4.562436 10.39669
v -9.536743E-07 4.596194 11.09619
v -0.500001 4.596194 11.09619
v -9.536743E-07 4.24264 10.74264
v -0.500001 4.24264 10.74264
v -9.536743E-07 4.221412 11.44264
v -0.500001 4.221412 11.44264
v -9.536743E-07 3.896688 11.06244
v -0.500001 3.896688 11.06244
v -9.536743E-07 3.820604 11.75861
v -0.500001 3.820604 11.75861
v -9.536743E-07 3.526711 11.3541
v -0.500001 3.526711 11.3541
v -1.907349E-06 3.396241 12.04216
v -0.500002 3.396241 12.04216
v -9.536743E-07 3.134992 11.61584
v -0.500001 3.134992 11.61584
v -1.907349E-06 2.950939 12.29154
v -0.500002 2.950939 12.29154
v -9.536743E-07 2.723943 11.84604
v -0.500001 2.723943 11.84604
v -1.907349E-06 2.487443 12.50522
v -0.500002 2.487443 12.50522
v -1.907349E-06 2.296101 12.04328
v -0.500002 2.296101 12.04328
v -1.907349E-06 2.008611 12.68187
v -0.500002 2.008611 12.68187
v -1.907349E-06 1.854102 12.20634
v -0.500002 1.854102 12.20634
v -1.907349E-06 1.517395 12.82041
v -0.500002 1.517395 12.82041
v -1.907349E-06 1.400672 12.33422
v -0.500002 1.400672 12.33422
v -1.907349E-06 1.016824 12.91998
v -0.500002 1.016824 12.91998
v -1.907349E-06 0.9386067 12.42613
v -0.500002 0.9386067 12.42613
v -1.907349E-06 0.5099838 12.97997
v -0.500002 0.5099838 12.97997
v -1.907349E-06 0.4707542 12.48151
v -0.500002 0.4707542 12.48151
v -1.907349E-06 -5.68248E-07 13
v -0.500002 -5.68248E-07 13
v -1.907349E-06 -5.245366E-07 12.5
v -0.500002 -5.245366E-07 12.5

vt 0 0
vt 0 1
vt 1 0
vt 1 1

vn 1.191174E-07 0.03926045 -0.999229
vn -2.382347E-07 -0.0392599 0.999229
vn 1.220825E-07 0.1175366 -0.9930686
vn -2.36766E-07 -0.1175368 0.9930686
vn 1.315335E-07 0.1950905 -0.9807852
vn -2.338374E-07 -0.195091 0.9807851
vn 1.43417E-07 0.2714401 -0.9624553
vn -1.147336E-07 -0.2714399 0.9624554
vn 1.677616E-07 0.3461181 -0.938191
vn -1.118411E-07 -0.3461183 0.9381909
vn 1.082591E-07 0.4186591 -0.9081435
vn -2.165183E-07 -0.4186588 0.9081436
vn 2.080192E-07 0.4886218 -0.8724957
vn -2.080192E-07 -0.4886218 0.8724957
vn 9.911894E-08 0.5555696 -0.83147
vn 0 -0.5555699 0.8314699
vn 1.872341E-07 0.6190944 -0.7853166
vn 0 -0.6190944 0.7853165
vn 0 0.6788014 -0.734322
vn 0 -0.6788009 0.7343224
vn 0 0.734322 -0.6788014
vn 0 -0.7343224 0.6788009
vn 0 0.7853163 -0.6190947
vn 0 -0.7853162 0.6190949
vn 0 0.8314701 -0.5555694
vn 0 -0.8314701 0.5555695
vn 0 0.8724959 -0.4886215
vn 0 -0.8724958 0.4886216
vn 1.996319E-07 0.9081437 -0.4186586
vn 0 -0.9081437 0.4186586
vn 0 0.9381909 -0.3461182
vn 0 -0.9381908 0.3461184
vn 0 0.9624553 -0.2714403
vn 0 -0.9624554 0.2714399
vn 0 0.9807852 -0.1950905
vn 0 -0.9807851 0.195091
vn 0 0.9930686 -0.1175365
vn 0 -0.9930686 0.1175366
vn 0 0.999229 -0.03926038
vn 0 -0.999229 0.03925985
vn 0 0.999229 0.03926049
vn 0 -0.999229 -0.03925997
vn 0 0.9930686 0.1175366
vn 0 -0.9930686 -0.1175367
vn 0 0.9807853 0.1950903
vn 1.860531E-07 -0.9807852 -0.1950908
vn 0 0.9624552 0.2714405
vn 0 -0.9624553 -0.2714404
vn 0 0.9381913 0.346117
vn 0 -0.9381914 -0.3461168
vn 0 0.9081433 0.4186594
vn 0 -0.9081432 -0.4186597
vn 0 0.8724961 0.4886211
vn 0 -0.8724961 -0.4886211
vn 0 0.8314693 0.5555707
vn 0 -0.8314692 -0.5555708
vn 0 0.7853176 0.6190931
vn 0 -0.7853175 -0.6190932
vn 0 0.7343212 0.6788023
vn 0 -0.7343221 -0.6788012
vn 0 0.6788023 0.7343211
vn 0 -0.6788015 -0.7343219
vn 0 0.6190932 0.7853176
vn 0 -0.6190933 -0.7853175
vn 0 0.555571 0.8314692
vn 0 -0.5555711 -0.8314691
vn 0 0.488622 0.8724955
vn 0 -0.4886206 -0.8724964
vn 0 0.4186597 0.9081432
vn 0 -0.4186611 -0.9081426
vn 0 0.346118 0.9381909
vn 0 -0.3461173 -0.9381912
vn 0 0.2714391 0.9624556
vn 0 -0.2714397 -0.9624555
vn 0 0.1950913 0.9807851
vn 0 -0.1950919 -0.980785
vn 0 0.1175384 0.9930683
vn 0 -0.1175377 -0.9930685
vn 0 0.03925856 0.9992291
vn 0 -0.03925887 -0.9992291
vn -1 4.68382E-09 -1.192093E-07
vn 1 -8.963535E-10 1.157706E-07

usemtl bm_edge_white
f 3/3/1 4/4/1 2/2/1 1/1/1
f 7/3/2 8/4/2 6/2/2 5/1/2
f 4/3/3 10/4/3 9/2/3 2/1/3
f 12/3/4 7/4/4 5/2/4 11/1/4
f 10/3/5 14/4/5 13/2/5 9/1/5
f 16/3/6 12/4/6 11/2/6 15/1/6
f 14/3/7 18/4/7 17/2/7 13/1/7
f 20/3/8 16/4/8 15/2/8 19/1/8
f 18/3/9 22/4/9 21/2/9 17/1/9
f 24/3/10 20/4/10 19/2/10 23/1/10
f 22/3/11 26/4/11 25/2/11 21/1/11
f 28/3/12 24/4/12 23/2/12 27/1/12
f 26/3/13 30/4/13 29/2/13 25/1/13
f 32/3/14 28/4/14 27/2/14 31/1/14
f 30/3/15 34/4/15 33/2/15 29/1/15
f 36/3/16 32/4/16 31/2/16 35/1/16
f 34/3/17 38/4/17 37/2/17 33/1/17
f 40/3/18 36/4/18 35/2/18 39/1/18
f 38/3/19 42/4/19 41/2/19 37/1/19
f 44/3/20 40/4/20 39/2/20 43/1/20
f 42/3/21 46/4/21 45/2/21 41/1/21
f 48/3/22 44/4/22 43/2/22 47/1/22
f 46/3/23 50/4/23 49/2/23 45/1/23
f 52/3/24 48/4/24 47/2/24 51/1/24
f 50/3/25 54/4/25 53/2/25 49/1/25
f 56/3/26 52/4/26 51/2/26 55/1/26
f 54/3/27 58/4/27 57/2/27 53/1/27
f 60/3/28 56/4/28 55/2/28 59/1/28
f 58/3/29 62/4/29 61/2/29 57/1/29
f 64/3/30 60/4/30 59/2/30 63/1/30
f 62/3/31 66/4/31 65/2/31 61/1/31
f 68/3/32 64/4/32 63/2/32 67/1/32
f 66/3/33 70/4/33 69/2/33 65/1/33
f 72/3/34 68/4/34 67/2/34 71/1/34
f 70/3/35 74/4/35 73/2/35 69/1/35
f 76/3/36 72/4/36 71/2/36 75/1/36
f 74/3/37 78/4/37 77/2/37 73/1/37
f 80/3/38 76/4/38 75/2/38 79/1/38
f 78/3/39 82/4/39 81/2/39 77/1/39
f 84/3/40 80/4/40 79/2/40 83/1/40
f 82/3/41 86/4/41 85/2/41 81/1/41
f 88/3/42 84/4/42 83/2/42 87/1/42
f 86/3/43 90/4/43 89/2/43 85/1/43
f 92/3/44 88/4/44 87/2/44 91/1/44
f 90/3/45 94/4/45 93/2/45 89/1/45
f 96/3/46 92/4/46 91/2/46 95/1/46
f 94/3/47 98/4/47 97/2/47 93/1/47
f 100/3/48 96/4/48 95/2/48 99/1/48
f 98/3/49 102/4/49 101/2/49 97/1/49
f 104/3/50 100/4/50 99/2/50 103/1/50
f 102/3/51 106/4/51 105/2/51 101/1/51
f 108/3/52 104/4/52 103/2/52 107/1/52
f 106/3/53 110/4/53 109/2/53 105/1/53
f 112/3/54 108/4/54 107/2/54 111/1/54
f 110/3/55 114/4/55 113/2/55 109/1/55
f 116/3/56 112/4/56 111/2/56 115/1/56
f 114/3/57 118/4/57 117/2/57 113/1/57
f 120/3/58 116/4/58 115/2/58 119/1/58
f 118/3/59 122/4/59 121/2/59 117/1/59
f 124/3/60 120/4/60 119/2/60 123/1/60
f 122/3/61 126/4/61 125/2/61 121/1/61
f 128/3/62 124/4/62 123/2/62 127/1/62
f 126/3/63 130/4/63 129/2/63 125/1/63
f 132/3/64 128/4/64 127/2/64 131/1/64
f 130/3/65 134/4/65 133/2/65 129/1/65
f 136/3/66 132/4/66 131/2/66 135/1/66
f 134/3/67 138/4/67 137/2/67 133/1/67
f 140/3/68 136/4/68 135/2/68 139/1/68
f 138/3/69 142/4/69 141/2/69 137/1/69
f 144/3/70 140/4/70 139/2/70 143/1/70
f 142/3/71 146/4/71 145/2/71 141/1/71
f 148/3/72 144/4/72 143/2/72 147/1/72
f 146/3/73 150/4/73 149/2/73 145/1/73
f 152/3/74 148/4/74 147/2/74 151/1/74
f 150/3/75 154/4/75 153/2/75 149/1/75
f 156/3/76 152/4/76 151/2/76 155/1/76
f 154/3/77 158/4/77 157/2/77 153/1/77
f 160/3/78 156/4/78 155/2/78 159/1/78
f 158/3/79 162/4/79 161/2/79 157/1/79
f 164/3/80 160/4/80 159/2/80 163/1/80
f 8/3/81 7/4/81 4/2/81 3/1/81
f 5/3/82 6/4/82 1/2/82 2/1/82
f 7/3/81 12/4/81 10/2/81 4/1/81
f 11/3/82 5/4/82 2/2/82 9/1/82
f 12/3/81 16/4/81 14/2/81 10/1/81
f 15/3/82 11/4/82 9/2/82 13/1/82
f 16/3/81 20/4/81 18/2/81 14/1/81
f 19/3/82 15/4/82 13/2/82 17/1/82
f 20/3/81 24/4/81 22/2/81 18/1/81
f 23/3/82 19/4/82 17/2/82 21/1/82
f 24/3/81 28/4/81 26/2/81 22/1/81
f 27/3/82 23/4/82 21/2/82 25/1/82
f 28/3/81 32/4/81 30/2/81 26/1/81
f 31/3/82 27/4/82 25/2/82 29/1/82
f 32/3/81 36/4/81 34/2/81 30/1/81
f 35/3/82 31/4/82 29/2/82 33/1/82
f 36/3/81 40/4/81 38/2/81 34/1/81
f 39/3/82 35/4/82 33/2/82 37/1/82
f 40/3/81 44/4/81 42/2/81 38/1/81
f 43/3/82 39/4/82 37/2/82 41/1/82
f 44/3/81 48/4/81 46/2/81 42/1/81
f 47/3/82 43/4/82 41/2/82 45/1/82
f 48/3/81 52/4/81 50/2/81 46/1/81
f 51/3/82 47/4/82 45/2/82 49/1/82
f 52/3/81 56/4/81 54/2/81 50/1/81
f 55/3/82 51/4/82 49/2/82 53/1/82
f 56/3/81 60/4/81 58/2/81 54/1/81
f 59/3/82 55/4/82 53/2/82 57/1/82
f 60/3/81 64/4/81 62/2/81 58/1/81
f 63/3/82 59/4/82 57/2/82 61/1/82
f 64/3/81 68/4/81 66/2/81 62/1/81
f 67/3/82 63/4/82 61/2/82 65/1/82
f 68/3/81 72/4/81 70/2/81 66/1/81
f 71/3/82 67/4/82 65/2/82 69/1/82
f 72/3/81 76/4/81 74/2/81 70/1/81
f 75/3/82 71/4/82 69/2/82 73/1/82
f 76/3/81 80/4/81 78/2/81 74/1/81
f 79/3/82 75/4/82 73/2/82 77/1/82
f 80/3/81 84/4/81 82/2/81 78/1/81
f 83/3/82 79/4/82 77/2/82 81/1/82
f 84/3/81 88/4/81 86/2/81 82/1/81
f 87/3/82 83/4/82 81/2/82 85/1/82
f 88/3/81 92/4/81 90/2/81 86/1/81
f 91/3/82 87/4/82 85/2/82 89/1/82
f 92/3/81 96/4/81 94/2/81 90/1/81
f 95/3/82 91/4/82 89/2/82 93/1/82
f 96/3/81 100/4/81 98/2/81 94/1/81
f 99/3/82 95/4/82 93/2/82 97/1/82
f 100/3/81 104/4/81 102/2/81 98/1/81
f 103/3/82 99/4/82 97/2/82 101/1/82
f 104/3/81 108/4/81 106/2/81 102/1/81
f 107/3/82 103/4/82 101/2/82 105/1/82
f 108/3/81 112/4/81 110/2/81 106/1/81
f 111/3/82 107/4/82 105/2/82 109/1/82
f 112/3/81 116/4/81 114/2/81 110/1/81
f 115/3/82 111/4/82 109/2/82 113/1/82
f 116/3/81 120/4/81 118/2/81 114/1/81
f 119/3/82 115/4/82 113/2/82 117/1/82
f 120/3/81 124/4/81 122/2/81 118/1/81
f 123/3/82 119/4/82 117/2/82 121/1/82
f 124/3/81 128/4/81 126/2/81 122/1/81
f 127/3/82 123/4/82 121/2/82 125/1/82
f 128/3/81 132/4/81 130/2/81 126/1/81
f 131/3/82 127/4/82 125/2/82 129/1/82
f 132/3/81 136/4/81 134/2/81 130/1/81
f 135/3/82 131/4/82 129/2/82 133/1/82
f 136/3/81 140/4/81 138/2/81 134/1/81
f 139/3/82 135/4/82 133/2/82 137/1/82
f 140/3/81 144/4/81 142/2/81 138/1/81
f 143/3/82 139/4/82 137/2/82 141/1/82
f 144/3/81 148/4/81 146/2/81 142/1/81
f 147/3/82 143/4/82 141/2/82 145/1/82
f 148/3/81 152/4/81 150/2/81 146/1/81
f 151/3/82 147/4/82 145/2/82 149/1/82
f 152/3/81 156/4/81 154/2/81 150/1/81
f 155/3/82 151/4/82 149/2/82 153/1/82
f 156/3/81 160/4/81 158/2/81 154/1/81
f 159/3/82 155/4/82 153/2/82 157/1/82
f 160/3/81 164/4/81 162/2/81 158/1/81
f 163/3/82 159/4/82 157/2/82 161/1/82

