# ProBuilder 4.5.2
# https://unity3d.com/unity/features/worldbuilding/probuilder
# 6/17/2022 9:54:48 PM

mtllib ./ComplexityAscentCurve4.mtl
o ComplexityAscentCurve4

g Arch (31)
v 0 0 0
v -0.5881031 1.907349E-06 -0.02888629
v 1.579523E-06 0.5 0
v -0.5881015 0.5000019 -0.02888629
v -0.3920867 1.192093E-06 -2.019257
v -1.788139E-05 -5.960464E-08 -2
v -0.3920851 0.5000012 -2.019257
v -1.630187E-05 0.4999999 -2
v -1.170543 3.814697E-06 -0.1152782
v -1.170542 0.5000038 -0.1152782
v -0.7803799 2.44379E-06 -2.076852
v -0.7803783 0.5000024 -2.076852
v -1.74171 5.602837E-06 -0.2583424
v -1.741709 0.5000056 -0.2583424
v -1.161158 3.576279E-06 -2.172228
v -1.161156 0.5000036 -2.172228
v -2.296105 7.390976E-06 -0.4567026
v -2.296103 0.5000074 -0.4567026
v -1.530754 4.768372E-06 -2.304468
v -1.530753 0.5000048 -2.304468
v -2.828387 9.059906E-06 -0.7084468
v -2.828385 0.5000091 -0.7084469
v -1.885609 5.960464E-06 -2.472298
v -1.885607 0.500006 -2.472298
v -3.333431 1.072884E-05 -1.011152
v -3.333429 0.5000107 -1.011152
v -2.222305 7.152557E-06 -2.674101
v -2.222303 0.5000072 -2.674101
v -3.806372 1.215935E-05 -1.361903
v -3.80637 0.5000122 -1.361903
v -2.537599 8.106232E-06 -2.907935
v -2.537597 0.5000081 -2.907935
v -4.242656 1.382828E-05 -1.757321
v -4.242655 0.5000138 -1.757321
v -2.828455 9.059906E-06 -3.171547
v -2.828454 0.5000091 -3.171547
v -4.638082 1.478195E-05 -2.193598
v -4.638081 0.5000148 -2.193598
v -3.092073 1.001358E-05 -3.462399
v -3.092071 0.50001 -3.462399
v -4.988842 1.621246E-05 -2.666533
v -4.98884 0.5000162 -2.666533
v -3.325912 1.072884E-05 -3.777689
v -3.325911 0.5000107 -3.777689
v -5.291555 1.716614E-05 -3.171572
v -5.291554 0.5000172 -3.171572
v -3.527722 1.120567E-05 -4.114381
v -3.52772 0.5000112 -4.114381
v -5.54331 1.764297E-05 -3.703849
v -5.543308 0.5000176 -3.703849
v -3.695558 1.168251E-05 -4.469233
v -3.695556 0.5000117 -4.469233
v -5.74168 1.859665E-05 -4.25824
v -5.741679 0.5000186 -4.25824
v -3.827805 1.215935E-05 -4.838827
v -3.827803 0.5000122 -4.838827
v -5.884755 1.907349E-05 -4.829404
v -5.884753 0.5000191 -4.829404
v -3.923188 1.239777E-05 -5.219603
v -3.923186 0.5000124 -5.219603
v -5.971157 1.907349E-05 -5.411843
v -5.971155 0.5000191 -5.411843
v -3.980789 1.263618E-05 -5.607895
v -3.980787 0.5000126 -5.607895
v -6.000054 1.907349E-05 -5.999946
v -6.000052 0.5000191 -5.999946
v -4.000053 1.263618E-05 -5.999964
v -4.000051 0.5000126 -5.999964

vt 1 0
vt 0 0
vt 1 1
vt 0 1
vt 0.9999998 -3.576279E-07
vt 0.7059482 0.01444578
vt 0.9999999 0.9999996
vt 0.8039657 1.00963
vt -1.705949 0.01444554
vt -2 4.768372E-07
vt -1.803966 1.009631
vt -2 1
vt 0.414729 0.05764437
vt 0.6098194 1.038429
vt -1.414729 0.05764413
vt -1.609819 1.03843
vt 0.129146 0.129179
vt 0.4194307 1.086119
vt -1.129146 0.1291788
vt -1.419431 1.086119
vt -0.1480504 0.2283616
vt 0.2346329 1.152241
vt -0.85195 0.2283614
vt -1.234633 1.152241
vt -0.4141904 0.3542361
vt 0.05720657 1.236157
vt -0.5858099 0.3542359
vt -1.057207 1.236157
vt -0.666711 0.5055911
vt -0.1111405 1.337061
vt -0.3332894 0.5055909
vt -0.8888595 1.337061
vt -0.90318 0.6809685
vt -0.2687865 1.453979
vt -0.09682012 0.6809683
vt -0.7312136 1.453979
vt -1.12132 0.8786795
vt -0.4142136 1.585786
vt 0.1213202 0.8786795
vt -0.5857862 1.585786
vt -1.319031 1.09682
vt -0.5460209 1.731213
vt 0.3190312 1.09682
vt -0.4539789 1.731213
vt -1.494409 1.333289
vt -0.662939 1.88886
vt 0.4944088 1.333289
vt -0.3370608 1.888859
vt -1.645763 1.585809
vt -0.7638425 2.057206
vt 0.6457636 1.585809
vt -0.2361572 2.057206
vt -1.771638 1.851949
vt -0.8477589 2.234633
vt 0.7716386 1.851949
vt -0.1522408 2.234633
vt -1.870821 2.129146
vt -0.9138807 2.41943
vt 0.8708212 2.129145
vt -0.08611882 2.41943
vt -1.942356 2.414729
vt -0.9615704 2.609819
vt 0.942356 2.414728
vt -0.03842914 2.609819
vt -1.985554 2.705949
vt -0.9903692 2.803966
vt 0.9855546 2.705948
vt -0.009630293 2.803965
vt -2 3
vt -0.9999999 3
vt 1.000001 2.999999
vt 3.576279E-07 3

vn -0.04905859 1.549784E-07 0.9987959
vn 0.04905833 -1.549775E-07 -0.9987959
vn -0.1467224 4.584424E-07 0.9891778
vn 0.1467222 -4.547569E-07 -0.9891778
vn -0.2429708 7.819831E-07 0.9700336
vn 0.2429708 -7.530737E-07 -0.9700336
vn -0.336882 1.124465E-06 0.9415469
vn 0.3368816 -1.044145E-06 -0.941547
vn -0.4275461 1.427089E-06 0.9039935
vn 0.4275467 -1.325156E-06 -0.9039932
vn -0.5140951 2.063367E-06 0.8577332
vn 0.5140952 -1.715978E-06 -0.8577331
vn -0.595692 1.988336E-06 0.8032129
vn 0.5956921 -1.988337E-06 -0.8032129
vn -0.6715529 2.064892E-06 0.7409567
vn 0.6715525 -2.241549E-06 -0.7409569
vn -0.7409449 2.11986E-06 0.6715659
vn 0.7409451 -2.473171E-06 -0.6715657
vn -0.803202 2.297979E-06 0.5957068
vn 0.803202 -2.680976E-06 -0.5957068
vn -0.8577244 2.453969E-06 0.5141097
vn 0.857724 -2.862963E-06 -0.5141104
vn -0.9039852 1.724215E-06 0.4275637
vn 0.9039853 -3.017376E-06 -0.4275635
vn -0.941541 3.591694E-06 0.3368985
vn 0.941541 -3.142732E-06 -0.3368986
vn -0.9700291 2.775276E-06 0.2429887
vn 0.9700292 -3.237822E-06 -0.2429883
vn -0.9891752 2.830053E-06 0.1467393
vn 0.9891752 -3.301728E-06 -0.1467392
vn -0.998795 2.857575E-06 0.04907724
vn 0.998795 -3.810101E-06 -0.04907625
vn 3.244687E-06 1 -2.983133E-08
vn -3.245175E-06 -1 3.976561E-08

usemtl bm_tile10_A
f 8/7/33 7/8/33 4/6/33 3/5/33
f 7/8/33 12/14/33 10/13/33 4/6/33
f 12/14/33 16/18/33 14/17/33 10/13/33
f 16/18/33 20/22/33 18/21/33 14/17/33
f 20/22/33 24/26/33 22/25/33 18/21/33
f 24/26/33 28/30/33 26/29/33 22/25/33
f 28/30/33 32/34/33 30/33/33 26/29/33
f 32/34/33 36/38/33 34/37/33 30/33/33
f 36/38/33 40/42/33 38/41/33 34/37/33
f 40/42/33 44/46/33 42/45/33 38/41/33
f 44/46/33 48/50/33 46/49/33 42/45/33
f 48/50/33 52/54/33 50/53/33 46/49/33
f 52/54/33 56/58/33 54/57/33 50/53/33
f 56/58/33 60/62/33 58/61/33 54/57/33
f 60/62/33 64/66/33 62/65/33 58/61/33
f 64/66/33 68/70/33 66/69/33 62/65/33

usemtl bm_edge_white
f 3/3/1 4/4/1 2/2/1 1/1/1
f 7/3/2 8/4/2 6/2/2 5/1/2
f 4/3/3 10/4/3 9/2/3 2/1/3
f 12/3/4 7/4/4 5/2/4 11/1/4
f 10/3/5 14/4/5 13/2/5 9/1/5
f 16/3/6 12/4/6 11/2/6 15/1/6
f 14/3/7 18/4/7 17/2/7 13/1/7
f 20/3/8 16/4/8 15/2/8 19/1/8
f 18/3/9 22/4/9 21/2/9 17/1/9
f 24/3/10 20/4/10 19/2/10 23/1/10
f 22/3/11 26/4/11 25/2/11 21/1/11
f 28/3/12 24/4/12 23/2/12 27/1/12
f 26/3/13 30/4/13 29/2/13 25/1/13
f 32/3/14 28/4/14 27/2/14 31/1/14
f 30/3/15 34/4/15 33/2/15 29/1/15
f 36/3/16 32/4/16 31/2/16 35/1/16
f 34/3/17 38/4/17 37/2/17 33/1/17
f 40/3/18 36/4/18 35/2/18 39/1/18
f 38/3/19 42/4/19 41/2/19 37/1/19
f 44/3/20 40/4/20 39/2/20 43/1/20
f 42/3/21 46/4/21 45/2/21 41/1/21
f 48/3/22 44/4/22 43/2/22 47/1/22
f 46/3/23 50/4/23 49/2/23 45/1/23
f 52/3/24 48/4/24 47/2/24 51/1/24
f 50/3/25 54/4/25 53/2/25 49/1/25
f 56/3/26 52/4/26 51/2/26 55/1/26
f 54/3/27 58/4/27 57/2/27 53/1/27
f 60/3/28 56/4/28 55/2/28 59/1/28
f 58/3/29 62/4/29 61/2/29 57/1/29
f 64/3/30 60/4/30 59/2/30 63/1/30
f 62/3/31 66/4/31 65/2/31 61/1/31
f 68/3/32 64/4/32 63/2/32 67/1/32

usemtl bm_grid_blank4
f 5/11/34 6/12/34 1/10/34 2/9/34
f 11/16/34 5/11/34 2/9/34 9/15/34
f 15/20/34 11/16/34 9/15/34 13/19/34
f 19/24/34 15/20/34 13/19/34 17/23/34
f 23/28/34 19/24/34 17/23/34 21/27/34
f 27/32/34 23/28/34 21/27/34 25/31/34
f 31/36/34 27/32/34 25/31/34 29/35/34
f 35/40/34 31/36/34 29/35/34 33/39/34
f 39/44/34 35/40/34 33/39/34 37/43/34
f 43/48/34 39/44/34 37/43/34 41/47/34
f 47/52/34 43/48/34 41/47/34 45/51/34
f 51/56/34 47/52/34 45/51/34 49/55/34
f 55/60/34 51/56/34 49/55/34 53/59/34
f 59/64/34 55/60/34 53/59/34 57/63/34
f 63/68/34 59/64/34 57/63/34 61/67/34
f 67/72/34 63/68/34 61/67/34 65/71/34

