# ProBuilder 4.5.2
# https://unity3d.com/unity/features/worldbuilding/probuilder
# 6/17/2022 9:53:50 PM

mtllib ./ComplexityAscentCurve2.mtl
o ComplexityAscentCurve2

g Arch (29)
v 0 0 0
v 0.5881029 1.788139E-06 0.02888985
v -1.564622E-06 0.5 0
v 0.5881013 0.5000018 0.02888983
v 0.3920743 1.072884E-06 2.01926
v 5.722046E-06 -1.192093E-07 2
v 0.3920727 0.5000011 2.01926
v 4.157424E-06 0.4999999 2
v 1.170542 3.576279E-06 0.1152853
v 1.170541 0.5000036 0.1152853
v 0.7803673 2.264977E-06 2.076857
v 0.7803657 0.5000023 2.076857
v 1.741709 5.245209E-06 0.2583529
v 1.741707 0.5000052 0.2583529
v 1.161145 3.457069E-06 2.172235
v 1.161143 0.5000035 2.172235
v 2.296102 6.914139E-06 0.4567166
v 2.2961 0.5000069 0.4567165
v 1.53074 4.529953E-06 2.304478
v 1.530739 0.5000045 2.304478
v 2.828382 8.583069E-06 0.708464
v 2.828381 0.5000086 0.708464
v 1.885594 5.602837E-06 2.47231
v 1.885592 0.5000056 2.47231
v 3.333424 1.0252E-05 1.011173
v 3.333423 0.5000103 1.011173
v 2.222289 6.437302E-06 2.674115
v 2.222287 0.5000064 2.674115
v 3.806364 1.168251E-05 1.361926
v 3.806362 0.5000117 1.361926
v 2.537581 7.390976E-06 2.907951
v 2.53758 0.5000074 2.907951
v 4.242645 1.28746E-05 1.757347
v 4.242644 0.5000129 1.757347
v 2.828436 8.34465E-06 3.171565
v 2.828434 0.5000083 3.171565
v 4.638069 1.430511E-05 2.193627
v 4.638067 0.5000143 2.193627
v 3.092052 9.059906E-06 3.462418
v 3.09205 0.5000091 3.462418
v 4.988825 1.525879E-05 2.666564
v 4.988824 0.5000153 2.666564
v 3.325889 9.775162E-06 3.77771
v 3.325887 0.5000098 3.77771
v 5.291536 1.621246E-05 3.171604
v 5.291535 0.5000162 3.171604
v 3.527697 1.049042E-05 4.114403
v 3.527695 0.5000105 4.114403
v 5.543287 1.66893E-05 3.703884
v 5.543286 0.5000167 3.703884
v 3.695531 1.096725E-05 4.469256
v 3.695529 0.500011 4.469256
v 5.741654 1.716614E-05 4.258276
v 5.741653 0.5000172 4.258276
v 3.827775 1.144409E-05 4.838851
v 3.827774 0.5000114 4.838851
v 5.884725 1.764297E-05 4.829441
v 5.884724 0.5000176 4.829441
v 3.923156 1.168251E-05 5.219628
v 3.923154 0.5000117 5.219628
v 5.971124 1.764297E-05 5.41188
v 5.971122 0.5000176 5.41188
v 3.980755 1.192093E-05 5.607921
v 3.980753 0.5000119 5.607921
v 6.000017 1.764297E-05 5.999984
v 6.000016 0.5000176 5.999984
v 4.000017 1.168251E-05 5.99999
v 4.000015 0.5000117 5.99999

vt 1 0
vt 0 0
vt 1 1
vt 0 1
vt -2 3
vt -1.705949 2.985554
vt -2 2
vt -1.803966 1.99037
vt 0.705949 2.985554
vt 1 3
vt 0.8039656 1.990369
vt 1 2
vt -1.414729 2.942356
vt -1.609819 1.961571
vt 0.4147292 2.942356
vt 0.6098195 1.96157
vt -1.129146 2.870821
vt -1.419431 1.913881
vt 0.1291462 2.870821
vt 0.4194308 1.913881
vt -0.8519498 2.771638
vt -1.234633 1.847759
vt -0.1480501 2.771638
vt 0.234633 1.847759
vt -0.5858098 2.645764
vt -1.057207 1.763843
vt -0.4141901 2.645764
vt 0.05720669 1.763842
vt -0.3332892 2.494409
vt -0.8888596 1.662939
vt -0.6667106 2.494409
vt -0.1111404 1.662939
vt -0.09682018 2.319031
vt -0.7312136 1.546021
vt -0.9031798 2.319031
vt -0.2687864 1.546021
vt 0.1213202 2.12132
vt -0.5857864 1.414214
vt -1.12132 2.12132
vt -0.4142136 1.414214
vt 0.3190312 1.90318
vt -0.4539791 1.268787
vt -1.319031 1.90318
vt -0.5460209 1.268787
vt 0.4944088 1.666711
vt -0.337061 1.11114
vt -1.494409 1.666711
vt -0.662939 1.111141
vt 0.6457633 1.414191
vt -0.2361575 0.9427936
vt -1.645763 1.414191
vt -0.7638426 0.9427938
vt 0.7716383 1.148051
vt -0.1522411 0.7653668
vt -1.771638 1.148051
vt -0.847759 0.765367
vt 0.8708209 0.8708541
vt -0.08611923 0.5805695
vt -1.870821 0.8708543
vt -0.9138809 0.5805695
vt 0.9423556 0.5852711
vt -0.03842956 0.3901808
vt -1.942356 0.5852715
vt -0.9615706 0.3901808
vt 0.9855542 0.2940513
vt -0.00963074 0.1960342
vt -1.985554 0.2940518
vt -0.9903694 0.1960347
vt 0.9999999 -1.192093E-07
vt -2 5.960464E-07
vt -1 2.384186E-07

vn 0.04906464 1.535352E-07 -0.9987956
vn -0.04906472 -1.520732E-07 0.9987956
vn 0.1467284 4.252963E-07 -0.9891769
vn -0.1467276 -9.264501E-07 0.9891769
vn 0.2429768 7.675469E-07 -0.9700321
vn -0.2429773 -7.530941E-07 0.970032
vn 0.3368877 1.044164E-06 -0.9415448
vn -0.3368871 -1.044162E-06 0.9415451
vn 0.4275517 1.577098E-06 -0.9039909
vn -0.4275523 -1.325173E-06 0.9039906
vn 0.5141005 1.858888E-06 -0.85773
vn -0.5141007 -1.715996E-06 0.8577299
vn 0.5956969 2.179853E-06 -0.8032094
vn -0.5956966 -1.988352E-06 0.8032095
vn 0.6715576 1.921342E-06 -0.7409523
vn -0.6715574 -2.241565E-06 0.7409526
vn 0.7409489 1.413248E-06 -0.6715615
vn -0.7409492 -2.473185E-06 0.6715612
vn 0.8032055 2.29799E-06 -0.5957019
vn -0.8032059 -2.680989E-06 0.5957015
vn 0.8577275 2.453978E-06 -0.5141047
vn -0.8577267 -2.862972E-06 0.5141059
vn 0.9039882 2.586331E-06 -0.4275573
vn -0.9039883 -3.017386E-06 0.4275572
vn 0.9415428 2.693776E-06 -0.3368934
vn -0.9415432 -3.142739E-06 0.3368924
vn 0.9700307 2.77528E-06 -0.2429822
vn -0.9700307 -3.237827E-06 0.2429823
vn 0.989176 2.830055E-06 -0.1467337
vn -0.989176 -3.301731E-06 0.1467342
vn 0.9987953 2.857576E-06 -0.0490707
vn -0.9987953 -3.810102E-06 0.04907013
vn -3.04345E-06 1 5.961334E-08
vn 3.04345E-06 -1 -5.961331E-08

usemtl bm_tile10_A
f 8/7/33 7/8/33 4/6/33 3/5/33
f 7/8/33 12/14/33 10/13/33 4/6/33
f 12/14/33 16/18/33 14/17/33 10/13/33
f 16/18/33 20/22/33 18/21/33 14/17/33
f 20/22/33 24/26/33 22/25/33 18/21/33
f 24/26/33 28/30/33 26/29/33 22/25/33
f 28/30/33 32/34/33 30/33/33 26/29/33
f 32/34/33 36/38/33 34/37/33 30/33/33
f 36/38/33 40/42/33 38/41/33 34/37/33
f 40/42/33 44/46/33 42/45/33 38/41/33
f 44/46/33 48/50/33 46/49/33 42/45/33
f 48/50/33 52/54/33 50/53/33 46/49/33
f 52/54/33 56/58/33 54/57/33 50/53/33
f 56/58/33 60/62/33 58/61/33 54/57/33
f 60/62/33 64/66/33 62/65/33 58/61/33
f 64/66/33 68/2/33 66/69/33 62/65/33

usemtl bm_edge_white
f 3/3/1 4/4/1 2/2/1 1/1/1
f 7/3/2 8/4/2 6/2/2 5/1/2
f 4/3/3 10/4/3 9/2/3 2/1/3
f 12/3/4 7/4/4 5/2/4 11/1/4
f 10/3/5 14/4/5 13/2/5 9/1/5
f 16/3/6 12/4/6 11/2/6 15/1/6
f 14/3/7 18/4/7 17/2/7 13/1/7
f 20/3/8 16/4/8 15/2/8 19/1/8
f 18/3/9 22/4/9 21/2/9 17/1/9
f 24/3/10 20/4/10 19/2/10 23/1/10
f 22/3/11 26/4/11 25/2/11 21/1/11
f 28/3/12 24/4/12 23/2/12 27/1/12
f 26/3/13 30/4/13 29/2/13 25/1/13
f 32/3/14 28/4/14 27/2/14 31/1/14
f 30/3/15 34/4/15 33/2/15 29/1/15
f 36/3/16 32/4/16 31/2/16 35/1/16
f 34/3/17 38/4/17 37/2/17 33/1/17
f 40/3/18 36/4/18 35/2/18 39/1/18
f 38/3/19 42/4/19 41/2/19 37/1/19
f 44/3/20 40/4/20 39/2/20 43/1/20
f 42/3/21 46/4/21 45/2/21 41/1/21
f 48/3/22 44/4/22 43/2/22 47/1/22
f 46/3/23 50/4/23 49/2/23 45/1/23
f 52/3/24 48/4/24 47/2/24 51/1/24
f 50/3/25 54/4/25 53/2/25 49/1/25
f 56/3/26 52/4/26 51/2/26 55/1/26
f 54/3/27 58/4/27 57/2/27 53/1/27
f 60/3/28 56/4/28 55/2/28 59/1/28
f 58/3/29 62/4/29 61/2/29 57/1/29
f 64/3/30 60/4/30 59/2/30 63/1/30
f 62/3/31 66/4/31 65/2/31 61/1/31
f 68/3/32 64/4/32 63/2/32 67/1/32

usemtl bm_grid_blank4
f 5/11/34 6/12/34 1/10/34 2/9/34
f 11/16/34 5/11/34 2/9/34 9/15/34
f 15/20/34 11/16/34 9/15/34 13/19/34
f 19/24/34 15/20/34 13/19/34 17/23/34
f 23/28/34 19/24/34 17/23/34 21/27/34
f 27/32/34 23/28/34 21/27/34 25/31/34
f 31/36/34 27/32/34 25/31/34 29/35/34
f 35/40/34 31/36/34 29/35/34 33/39/34
f 39/44/34 35/40/34 33/39/34 37/43/34
f 43/48/34 39/44/34 37/43/34 41/47/34
f 47/52/34 43/48/34 41/47/34 45/51/34
f 51/56/34 47/52/34 45/51/34 49/55/34
f 55/60/34 51/56/34 49/55/34 53/59/34
f 59/64/34 55/60/34 53/59/34 57/63/34
f 63/68/34 59/64/34 57/63/34 61/67/34
f 67/71/34 63/68/34 61/67/34 65/70/34

