# ProBuilder 4.5.2
# https://unity3d.com/unity/features/worldbuilding/probuilder
# 6/17/2022 9:52:39 PM

mtllib ./ComplexityAscentCurve1.mtl
o ComplexityAscentCurve1

g Arch (28)
v 0 0 0
v 0.02889156 1.728535E-06 -0.5881028
v 0 0.5 1.460314E-06
v 0.02889156 0.5000017 -0.5881014
v 2.019261 1.132488E-06 -0.3920686
v 2 0 0
v 2.019261 0.5000011 -0.3920671
v 2 0.5 1.460314E-06
v 0.1152887 3.457069E-06 -1.170542
v 0.1152887 0.5000035 -1.170541
v 2.076859 2.264977E-06 -0.7803613
v 2.076859 0.5000023 -0.7803599
v 0.258358 5.125999E-06 -1.741708
v 0.258358 0.5000051 -1.741707
v 2.172239 3.33786E-06 -1.161139
v 2.172239 0.5000033 -1.161137
v 0.4567232 6.67572E-06 -2.296101
v 0.4567232 0.5000067 -2.296099
v 2.304482 4.529953E-06 -1.530734
v 2.304482 0.5000045 -1.530732
v 0.7084723 8.34465E-06 -2.82838
v 0.7084723 0.5000083 -2.828379
v 2.472315 5.483627E-06 -1.885587
v 2.472315 0.5000055 -1.885585
v 1.011182 9.775162E-06 -3.333421
v 1.011182 0.5000098 -3.33342
v 2.674122 6.437302E-06 -2.222281
v 2.674122 0.5000064 -2.22228
v 1.361937 1.120567E-05 -3.80636
v 1.361937 0.5000112 -3.806358
v 2.907958 7.390976E-06 -2.537573
v 2.907958 0.5000074 -2.537572
v 1.75736 1.239777E-05 -4.24264
v 1.75736 0.5000124 -4.242639
v 3.171573 8.34465E-06 -2.828427
v 3.171573 0.5000083 -2.828426
v 2.19364 1.335144E-05 -4.638062
v 2.19364 0.5000134 -4.638061
v 3.462427 9.059906E-06 -3.092042
v 3.462427 0.5000091 -3.09204
v 2.666579 1.478195E-05 -4.988818
v 2.666579 0.5000148 -4.988816
v 3.777719 9.775162E-06 -3.325878
v 3.777719 0.5000098 -3.325877
v 3.171619 1.525879E-05 -5.291527
v 3.171619 0.5000153 -5.291526
v 4.114413 1.0252E-05 -3.527685
v 4.114413 0.5000103 -3.527683
v 3.703899 1.621246E-05 -5.543277
v 3.703899 0.5000162 -5.543275
v 4.469266 1.072884E-05 -3.695518
v 4.469266 0.5000107 -3.695517
v 4.258292 1.66893E-05 -5.741642
v 4.258292 0.5000167 -5.741641
v 4.838861 1.120567E-05 -3.827761
v 4.838861 0.5000112 -3.82776
v 4.829458 1.716614E-05 -5.884711
v 4.829458 0.5000172 -5.88471
v 5.219639 1.144409E-05 -3.923141
v 5.219639 0.5000114 -3.92314
v 5.411897 1.764297E-05 -5.971108
v 5.411897 0.5000176 -5.971107
v 5.607932 1.168251E-05 -3.980739
v 5.607932 0.5000117 -3.980737
v 6 1.764297E-05 -6
v 6 0.5000176 -5.999999
v 6 1.168251E-05 -4
v 6 0.5000117 -3.999999

vt 1 0
vt 0 0
vt 1 1
vt 0 1
vt 0.9999999 1
vt 1.014446 1.294051
vt 2 1
vt 2.00963 1.196034
vt 0.9855542 0.2940514
vt 0.9999997 0
vt -0.009630561 0.1960343
vt 1.057644 1.585271
vt 2.038429 1.390181
vt 0.9423556 0.5852709
vt -0.03842962 0.3901806
vt 1.129179 1.870854
vt 2.086119 1.580569
vt 0.8708209 0.8708539
vt -0.08611929 0.5805693
vt 1.228361 2.14805
vt 2.152241 1.765367
vt 0.7716383 1.14805
vt -0.1522411 0.765367
vt 1.354236 2.41419
vt 2.236157 1.942793
vt 0.6457638 1.41419
vt -0.2361575 0.9427934
vt 1.505591 2.666711
vt 2.337061 2.11114
vt 0.4944087 1.666711
vt -0.3370608 1.11114
vt 1.680969 2.90318
vt 2.453979 2.268786
vt 0.3190314 1.90318
vt -0.4539791 1.268786
vt 1.87868 3.12132
vt 2.585786 2.414214
vt 0.1213201 2.12132
vt -0.5857865 1.414214
vt 2.09682 3.319031
vt 2.731213 2.546021
vt -0.09682024 2.319031
vt -0.7312135 1.546021
vt 2.333289 3.494409
vt 2.88886 2.662939
vt -0.3332893 2.494409
vt -0.8888594 1.662939
vt 2.585809 3.645763
vt 3.057206 2.763843
vt -0.5858096 2.645763
vt -1.057206 1.763843
vt 2.851949 3.771638
vt 3.234633 2.847759
vt -0.8519496 2.771638
vt -1.234633 1.847759
vt 3.129146 3.870821
vt 3.41943 2.913881
vt -1.129146 2.870821
vt -1.419431 1.913881
vt 3.414729 3.942356
vt 3.609819 2.961571
vt -1.414729 2.942356
vt -1.609819 1.961571
vt 3.705949 3.985554
vt 3.803966 2.990369
vt -1.705949 2.985554
vt -1.803965 1.990369
vt 4 4
vt 4 3
vt -2 3
vt -2 2

vn -0.9987955 1.43308E-07 -0.04906755
vn 0.9987954 -1.462333E-07 0.04906775
vn -0.9891763 4.198015E-07 -0.1467313
vn 0.9891765 -4.197999E-07 0.1467307
vn -0.9700314 6.951701E-07 -0.2429796
vn 0.9700314 -6.951707E-07 0.2429798
vn -0.9415439 9.638513E-07 -0.3368904
vn 0.941544 -9.638504E-07 0.3368902
vn -0.9039897 1.223243E-06 -0.4275544
vn 0.9039894 -1.325181E-06 0.4275548
vn -0.8577285 1.47086E-06 -0.5141028
vn 0.8577285 -1.47086E-06 0.5141029
vn -0.8032078 1.704309E-06 -0.5956991
vn 0.8032078 -1.704309E-06 0.5956991
vn -0.7409506 1.921347E-06 -0.6715596
vn 0.7409508 -1.921346E-06 0.6715593
vn -0.6715592 2.119878E-06 -0.740951
vn 0.6715589 -2.119878E-06 0.7409512
vn -0.5956996 2.297995E-06 -0.8032073
vn 0.5956995 -2.297995E-06 0.8032075
vn -0.5141024 2.453982E-06 -0.8577288
vn 0.5141029 -2.862978E-06 0.8577285
vn -0.4275549 2.586334E-06 -0.9039894
vn 0.4275547 -2.586335E-06 0.9039895
vn -0.3368903 2.693779E-06 -0.9415439
vn 0.3368903 -3.142742E-06 0.9415439
vn -0.2429798 2.775282E-06 -0.9700314
vn 0.2429798 -2.775282E-06 0.9700314
vn -0.1467312 2.830056E-06 -0.9891765
vn 0.1467307 -3.301733E-06 0.9891765
vn -0.04906751 2.857577E-06 -0.9987955
vn 0.04906777 -2.857577E-06 0.9987954
vn 0 1 2.939171E-06
vn -9.934137E-09 -1 -2.939659E-06

usemtl bm_tile10_A
f 8/7/33 7/8/33 4/6/33 3/5/33
f 7/8/33 12/13/33 10/12/33 4/6/33
f 12/13/33 16/17/33 14/16/33 10/12/33
f 16/17/33 20/21/33 18/20/33 14/16/33
f 20/21/33 24/25/33 22/24/33 18/20/33
f 24/25/33 28/29/33 26/28/33 22/24/33
f 28/29/33 32/33/33 30/32/33 26/28/33
f 32/33/33 36/37/33 34/36/33 30/32/33
f 36/37/33 40/41/33 38/40/33 34/36/33
f 40/41/33 44/45/33 42/44/33 38/40/33
f 44/45/33 48/49/33 46/48/33 42/44/33
f 48/49/33 52/53/33 50/52/33 46/48/33
f 52/53/33 56/57/33 54/56/33 50/52/33
f 56/57/33 60/61/33 58/60/33 54/56/33
f 60/61/33 64/65/33 62/64/33 58/60/33
f 64/65/33 68/69/33 66/68/33 62/64/33

usemtl bm_edge_white
f 3/3/1 4/4/1 2/2/1 1/1/1
f 7/3/2 8/4/2 6/2/2 5/1/2
f 4/3/3 10/4/3 9/2/3 2/1/3
f 12/3/4 7/4/4 5/2/4 11/1/4
f 10/3/5 14/4/5 13/2/5 9/1/5
f 16/3/6 12/4/6 11/2/6 15/1/6
f 14/3/7 18/4/7 17/2/7 13/1/7
f 20/3/8 16/4/8 15/2/8 19/1/8
f 18/3/9 22/4/9 21/2/9 17/1/9
f 24/3/10 20/4/10 19/2/10 23/1/10
f 22/3/11 26/4/11 25/2/11 21/1/11
f 28/3/12 24/4/12 23/2/12 27/1/12
f 26/3/13 30/4/13 29/2/13 25/1/13
f 32/3/14 28/4/14 27/2/14 31/1/14
f 30/3/15 34/4/15 33/2/15 29/1/15
f 36/3/16 32/4/16 31/2/16 35/1/16
f 34/3/17 38/4/17 37/2/17 33/1/17
f 40/3/18 36/4/18 35/2/18 39/1/18
f 38/3/19 42/4/19 41/2/19 37/1/19
f 44/3/20 40/4/20 39/2/20 43/1/20
f 42/3/21 46/4/21 45/2/21 41/1/21
f 48/3/22 44/4/22 43/2/22 47/1/22
f 46/3/23 50/4/23 49/2/23 45/1/23
f 52/3/24 48/4/24 47/2/24 51/1/24
f 50/3/25 54/4/25 53/2/25 49/1/25
f 56/3/26 52/4/26 51/2/26 55/1/26
f 54/3/27 58/4/27 57/2/27 53/1/27
f 60/3/28 56/4/28 55/2/28 59/1/28
f 58/3/29 62/4/29 61/2/29 57/1/29
f 64/3/30 60/4/30 59/2/30 63/1/30
f 62/3/31 66/4/31 65/2/31 61/1/31
f 68/3/32 64/4/32 63/2/32 67/1/32

usemtl bm_grid_blank4
f 5/11/34 6/2/34 1/10/34 2/9/34
f 11/15/34 5/11/34 2/9/34 9/14/34
f 15/19/34 11/15/34 9/14/34 13/18/34
f 19/23/34 15/19/34 13/18/34 17/22/34
f 23/27/34 19/23/34 17/22/34 21/26/34
f 27/31/34 23/27/34 21/26/34 25/30/34
f 31/35/34 27/31/34 25/30/34 29/34/34
f 35/39/34 31/35/34 29/34/34 33/38/34
f 39/43/34 35/39/34 33/38/34 37/42/34
f 43/47/34 39/43/34 37/42/34 41/46/34
f 47/51/34 43/47/34 41/46/34 45/50/34
f 51/55/34 47/51/34 45/50/34 49/54/34
f 55/59/34 51/55/34 49/54/34 53/58/34
f 59/63/34 55/59/34 53/58/34 57/62/34
f 63/67/34 59/63/34 57/62/34 61/66/34
f 67/71/34 63/67/34 61/66/34 65/70/34

