# ProBuilder 4.5.2
# https://unity3d.com/unity/features/worldbuilding/probuilder
# 6/17/2022 9:54:22 PM

mtllib ./ComplexityAscentCurve3.mtl
o ComplexityAscentCurve3

g Arch (30)
v 0 0 0
v -0.02888808 1.788139E-06 0.5881031
v -3.161495E-08 0.5000001 -1.66893E-06
v -0.02888811 0.5000018 0.5881014
v -2.019259 1.072884E-06 0.3920806
v -2 -1.264211E-07 1.188541E-05
v -2.019259 0.5000011 0.3920789
v -2 0.4999999 1.019239E-05
v -0.1152818 3.576279E-06 1.170543
v -0.1152818 0.5000036 1.170541
v -2.076855 2.264977E-06 0.7803738
v -2.076855 0.5000023 0.7803721
v -0.2583477 5.245209E-06 1.74171
v -0.2583477 0.5000052 1.741708
v -2.172232 3.457069E-06 1.161152
v -2.172232 0.5000035 1.16115
v -0.4567097 6.914139E-06 2.296103
v -0.4567097 0.5000069 2.296102
v -2.304473 4.529953E-06 1.530748
v -2.304473 0.5000046 1.530746
v -0.7084556 8.583069E-06 2.828385
v -0.7084556 0.5000086 2.828383
v -2.472304 5.602837E-06 1.885602
v -2.472304 0.5000057 1.8856
v -1.011163 1.0252E-05 3.333428
v -1.011163 0.5000103 3.333426
v -2.674109 6.437302E-06 2.222297
v -2.674109 0.5000064 2.222296
v -1.361915 1.168251E-05 3.806368
v -1.361915 0.5000117 3.806367
v -2.907943 7.390976E-06 2.537591
v -2.907943 0.5000074 2.537589
v -1.757335 1.28746E-05 4.242651
v -1.757335 0.5000129 4.24265
v -3.171557 8.34465E-06 2.828446
v -3.171557 0.5000083 2.828444
v -2.193613 1.430511E-05 4.638076
v -2.193613 0.5000143 4.638074
v -3.462409 9.059906E-06 3.092063
v -3.462409 0.5000091 3.092061
v -2.666549 1.525879E-05 4.988834
v -2.666549 0.5000153 4.988832
v -3.7777 9.775162E-06 3.325901
v -3.7777 0.5000098 3.3259
v -3.171589 1.621246E-05 5.291547
v -3.171589 0.5000162 5.291545
v -4.114393 1.049042E-05 3.52771
v -4.114393 0.5000105 3.527708
v -3.703867 1.66893E-05 5.543299
v -3.703867 0.5000167 5.543298
v -4.469245 1.096725E-05 3.695545
v -4.469245 0.500011 3.695543
v -4.258259 1.716614E-05 5.741668
v -4.258259 0.5000172 5.741666
v -4.83884 1.144409E-05 3.827791
v -4.83884 0.5000114 3.827789
v -4.829424 1.764297E-05 5.88474
v -4.829424 0.5000176 5.884739
v -5.219616 1.168251E-05 3.923172
v -5.219616 0.5000117 3.923171
v -5.411863 1.764297E-05 5.971141
v -5.411863 0.5000176 5.97114
v -5.607909 1.192093E-05 3.980773
v -5.607909 0.5000119 3.980771
v -5.999967 1.764297E-05 6.000037
v -5.999967 0.5000176 6.000035
v -5.999978 1.168251E-05 4.000036
v -5.999978 0.5000117 4.000034

vt 1 0
vt 0 0
vt 1 1
vt 0 1
vt 1 3
vt 0.9855542 2.705948
vt 2.980232E-07 3
vt -0.009630382 2.803966
vt -1.985554 2.705949
vt -2 3
vt -0.9903694 2.803966
vt -0.9999998 3
vt 0.9423556 2.414729
vt -0.03842944 2.609819
vt -1.942356 2.414729
vt -0.9615704 2.609819
vt 0.870821 2.129146
vt -0.08611915 2.419431
vt -1.870821 2.129146
vt -0.9138807 2.419431
vt 0.7716384 1.85195
vt -0.152241 2.234633
vt -1.771639 1.85195
vt -0.847759 2.234633
vt 0.6457639 1.58581
vt -0.2361571 2.057207
vt -1.645764 1.58581
vt -0.7638426 2.057207
vt 0.4944088 1.333289
vt -0.3370607 1.88886
vt -1.494409 1.333289
vt -0.6629394 1.88886
vt 0.3190315 1.09682
vt -0.4539788 1.731214
vt -1.319032 1.09682
vt -0.5460211 1.731214
vt 0.1213205 0.8786798
vt -0.5857863 1.585786
vt -1.12132 0.8786798
vt -0.4142138 1.585786
vt -0.09682015 0.6809688
vt -0.7312133 1.453979
vt -0.9031802 0.6809688
vt -0.2687869 1.453979
vt -0.3332892 0.5055912
vt -0.8888595 1.337061
vt -0.6667113 0.5055912
vt -0.111141 1.337061
vt -0.5858095 0.3542366
vt -1.057206 1.236158
vt -0.414191 0.3542364
vt 0.05720603 1.236157
vt -0.8519495 0.2283616
vt -1.234633 1.152241
vt -0.1480511 0.2283614
vt 0.2346327 1.152241
vt -1.129146 0.129179
vt -1.41943 1.086119
vt 0.1291454 0.1291788
vt 0.4194302 1.086119
vt -1.414729 0.05764437
vt -1.609819 1.03843
vt 0.4147282 0.05764401
vt 0.6098189 1.038429
vt -1.705949 0.01444578
vt -1.803966 1.009631
vt 0.7059477 0.01444542
vt 0.803965 1.00963
vt -2 1.192093E-07
vt -2 1
vt 0.9999989 -5.960464E-07
vt 0.9999995 0.9999996

vn 0.9987958 2.269145E-07 0.04906162
vn -0.9987957 -1.666853E-07 -0.04906166
vn 0.9891773 5.523934E-07 0.1467254
vn -0.9891773 -4.897482E-07 -0.1467252
vn 0.9700329 9.412151E-07 0.2429738
vn -0.9700329 -8.110122E-07 -0.2429737
vn 0.9415458 1.180595E-06 0.3368849
vn -0.941546 -1.124473E-06 -0.3368845
vn 0.9039922 1.277109E-06 0.4275489
vn -0.903992 -1.4271E-06 -0.4275494
vn 0.8577316 1.818236E-06 0.5140979
vn -0.8577316 -1.715987E-06 -0.5140979
vn 0.8032113 1.988344E-06 0.5956942
vn -0.8032112 -1.704296E-06 -0.5956945
vn 0.7409543 2.418216E-06 0.6715555
vn -0.7409546 -2.594872E-06 -0.6715552
vn 0.6715635 2.826489E-06 0.7409471
vn -0.6715634 -2.473178E-06 -0.7409471
vn 0.5957043 2.582039E-06 0.8032038
vn -0.5957043 -2.680982E-06 -0.8032038
vn 0.5141077 3.271964E-06 0.8577257
vn -0.5141082 -3.271962E-06 -0.8577253
vn 0.4275598 3.448437E-06 0.9039871
vn -0.4275596 -3.017383E-06 -0.9039872
vn 0.3368961 2.693773E-06 0.9415419
vn -0.3368964 -3.591697E-06 -0.9415417
vn 0.2429853 3.007007E-06 0.97003
vn -0.2429852 -3.237824E-06 -0.97003
vn 0.1467369 2.830054E-06 0.9891756
vn -0.1467368 -3.30173E-06 -0.9891756
vn 0.04907474 1.90505E-06 0.9987951
vn -0.04907371 -3.810101E-06 -0.9987952
vn -5.962269E-08 1 -3.043449E-06
vn 5.962278E-08 -1 3.043449E-06

usemtl bm_tile10_A
f 8/7/33 7/8/33 4/6/33 3/5/33
f 7/8/33 12/14/33 10/13/33 4/6/33
f 12/14/33 16/18/33 14/17/33 10/13/33
f 16/18/33 20/22/33 18/21/33 14/17/33
f 20/22/33 24/26/33 22/25/33 18/21/33
f 24/26/33 28/30/33 26/29/33 22/25/33
f 28/30/33 32/34/33 30/33/33 26/29/33
f 32/34/33 36/38/33 34/37/33 30/33/33
f 36/38/33 40/42/33 38/41/33 34/37/33
f 40/42/33 44/46/33 42/45/33 38/41/33
f 44/46/33 48/50/33 46/49/33 42/45/33
f 48/50/33 52/54/33 50/53/33 46/49/33
f 52/54/33 56/58/33 54/57/33 50/53/33
f 56/58/33 60/62/33 58/61/33 54/57/33
f 60/62/33 64/66/33 62/65/33 58/61/33
f 64/66/33 68/70/33 66/69/33 62/65/33

usemtl bm_edge_white
f 3/3/1 4/4/1 2/2/1 1/1/1
f 7/3/2 8/4/2 6/2/2 5/1/2
f 4/3/3 10/4/3 9/2/3 2/1/3
f 12/3/4 7/4/4 5/2/4 11/1/4
f 10/3/5 14/4/5 13/2/5 9/1/5
f 16/3/6 12/4/6 11/2/6 15/1/6
f 14/3/7 18/4/7 17/2/7 13/1/7
f 20/3/8 16/4/8 15/2/8 19/1/8
f 18/3/9 22/4/9 21/2/9 17/1/9
f 24/3/10 20/4/10 19/2/10 23/1/10
f 22/3/11 26/4/11 25/2/11 21/1/11
f 28/3/12 24/4/12 23/2/12 27/1/12
f 26/3/13 30/4/13 29/2/13 25/1/13
f 32/3/14 28/4/14 27/2/14 31/1/14
f 30/3/15 34/4/15 33/2/15 29/1/15
f 36/3/16 32/4/16 31/2/16 35/1/16
f 34/3/17 38/4/17 37/2/17 33/1/17
f 40/3/18 36/4/18 35/2/18 39/1/18
f 38/3/19 42/4/19 41/2/19 37/1/19
f 44/3/20 40/4/20 39/2/20 43/1/20
f 42/3/21 46/4/21 45/2/21 41/1/21
f 48/3/22 44/4/22 43/2/22 47/1/22
f 46/3/23 50/4/23 49/2/23 45/1/23
f 52/3/24 48/4/24 47/2/24 51/1/24
f 50/3/25 54/4/25 53/2/25 49/1/25
f 56/3/26 52/4/26 51/2/26 55/1/26
f 54/3/27 58/4/27 57/2/27 53/1/27
f 60/3/28 56/4/28 55/2/28 59/1/28
f 58/3/29 62/4/29 61/2/29 57/1/29
f 64/3/30 60/4/30 59/2/30 63/1/30
f 62/3/31 66/4/31 65/2/31 61/1/31
f 68/3/32 64/4/32 63/2/32 67/1/32

usemtl bm_grid_blank4
f 5/11/34 6/12/34 1/10/34 2/9/34
f 11/16/34 5/11/34 2/9/34 9/15/34
f 15/20/34 11/16/34 9/15/34 13/19/34
f 19/24/34 15/20/34 13/19/34 17/23/34
f 23/28/34 19/24/34 17/23/34 21/27/34
f 27/32/34 23/28/34 21/27/34 25/31/34
f 31/36/34 27/32/34 25/31/34 29/35/34
f 35/40/34 31/36/34 29/35/34 33/39/34
f 39/44/34 35/40/34 33/39/34 37/43/34
f 43/48/34 39/44/34 37/43/34 41/47/34
f 47/52/34 43/48/34 41/47/34 45/51/34
f 51/56/34 47/52/34 45/51/34 49/55/34
f 55/60/34 51/56/34 49/55/34 53/59/34
f 59/64/34 55/60/34 53/59/34 57/63/34
f 63/68/34 59/64/34 57/63/34 61/67/34
f 67/72/34 63/68/34 61/67/34 65/71/34

