# ProBuilder 4.5.2
# https://unity3d.com/unity/features/worldbuilding/probuilder
# 10/14/2022 12:09:23 PM

mtllib ./RingRiotRingTeleporter.mtl
o RingRiotRingTeleporter

g Pipe (7)
v 0.02994299 0 0.4568417
v 0 0 0
v 0.02994299 0.5 0.4568417
v 0 0.5 0
v 0.5 0 0
v 0.5256653 0 0.3915786
v 0.5 0.5 0
v 0.5256653 0.5 0.3915786
v 0.1192596 0 0.9058666
v 0.1192596 0.5 0.9058666
v 0.6022224 0 0.7764571
v 0.6022224 0.5 0.7764571
v 0.2664218 0 1.339392
v 0.2664218 0.5 1.339392
v 0.7283616 0 1.14805
v 0.7283616 0.5 1.14805
v 0.4689112 0 1.75
v 0.4689112 0.5 1.75
v 0.9019239 0 1.5
v 0.9019239 0.5 1.5
v 0.7232633 0 2.130665
v 0.7232633 0.5 2.130665
v 1.11994 0 1.826284
v 1.11994 0.5 1.826284
v 1.025126 0 2.474874
v 1.025126 0.5 2.474874
v 1.37868 0 2.12132
v 1.37868 0.5 2.12132
v 1.369335 0 2.776737
v 1.369335 0.5 2.776737
v 1.673716 0 2.38006
v 1.673716 0.5 2.38006
v 1.75 0 3.031089
v 1.75 0.5 3.031089
v 2 0 2.598076
v 2 0.5 2.598076
v 2.160608 0 3.233578
v 2.160608 0.5 3.233578
v 2.35195 0 2.771638
v 2.35195 0.5 2.771638
v 2.594133 0 3.38074
v 2.594133 0.5 3.38074
v 2.723543 0 2.897778
v 2.723543 0.5 2.897778
v 3.043158 0 3.470057
v 3.043158 0.5 3.470057
v 3.108421 0 2.974334
v 3.108421 0.5 2.974334
v 3.5 0 3.5
v 3.5 0.5 3.5
v 3.5 0 3
v 3.5 0.5 3
v 3.956842 0 3.470057
v 3.956842 0.5 3.470057
v 3.891579 0 2.974335
v 3.891579 0.5 2.974335
v 4.405867 0 3.38074
v 4.405867 0.5 3.38074
v 4.276457 0 2.897778
v 4.276457 0.5 2.897778
v 4.839392 0 3.233578
v 4.839392 0.5 3.233578
v 4.64805 0 2.771639
v 4.64805 0.5 2.771639
v 5.25 0 3.031089
v 5.25 0.5 3.031089
v 5 0 2.598076
v 5 0.5 2.598076
v 5.630665 0 2.776737
v 5.630665 0.5 2.776737
v 5.326284 0 2.38006
v 5.326284 0.5 2.38006
v 5.974874 0 2.474874
v 5.974874 0.5 2.474874
v 5.62132 0 2.12132
v 5.62132 0.5 2.12132
v 6.276737 0 2.130665
v 6.276737 0.5 2.130665
v 5.88006 0 1.826284
v 5.88006 0.5 1.826284
v 6.531089 0 1.75
v 6.531089 0.5 1.75
v 6.098076 0 1.5
v 6.098076 0.5 1.5
v 6.733578 0 1.339392
v 6.733578 0.5 1.339392
v 6.271638 0 1.14805
v 6.271638 0.5 1.14805
v 6.88074 0 0.905867
v 6.88074 0.5 0.905867
v 6.397778 0 0.7764574
v 6.397778 0.5 0.7764574
v 6.970057 0 0.4568421
v 6.970057 0.5 0.4568421
v 6.474335 0 0.391579
v 6.474335 0.5 0.391579
v 7 0 -3.059797E-07
v 7 0.5 -3.059797E-07
v 6.5 0 -2.622683E-07
v 6.5 0.5 -2.622683E-07
v 6.970057 0 -0.4568419
v 6.970057 0.5 -0.4568419
v 6.474335 0 -0.3915788
v 6.474335 0.5 -0.3915788
v 6.88074 0 -0.9058667
v 6.88074 0.5 -0.9058667
v 6.397778 0 -0.7764572
v 6.397778 0.5 -0.7764572
v 6.733578 0 -1.339392
v 6.733578 0.5 -1.339392
v 6.271638 0 -1.14805
v 6.271638 0.5 -1.14805
v 6.531089 0 -1.75
v 6.531089 0.5 -1.75
v 6.098076 0 -1.5
v 6.098076 0.5 -1.5
v 6.276737 0 -2.130665
v 6.276737 0.5 -2.130665
v 5.88006 0 -1.826284
v 5.88006 0.5 -1.826284
v 5.974874 0 -2.474874
v 5.974874 0.5 -2.474874
v 5.621321 0 -2.12132
v 5.621321 0.5 -2.12132
v 5.630665 0 -2.776736
v 5.630665 0.5 -2.776736
v 5.326284 0 -2.38006
v 5.326284 0.5 -2.38006
v 5.25 0 -3.031089
v 5.25 0.5 -3.031089
v 5 0 -2.598076
v 5 0.5 -2.598076
v 4.839393 0 -3.233578
v 4.839393 0.5 -3.233578
v 4.648051 0 -2.771638
v 4.648051 0.5 -2.771638
v 4.405867 0 -3.380741
v 4.405867 0.5 -3.380741
v 4.276457 0 -2.897778
v 4.276457 0.5 -2.897778
v 3.956842 0 -3.470057
v 3.956842 0.5 -3.470057
v 3.891579 0 -2.974334
v 3.891579 0.5 -2.974334
v 3.5 0 -3.5
v 3.5 0.5 -3.5
v 3.5 0 -3
v 3.5 0.5 -3
v 3.043159 0 -3.470057
v 3.043159 0.5 -3.470057
v 3.108422 0 -2.974335
v 3.108422 0.5 -2.974335
v 2.594133 0 -3.38074
v 2.594133 0.5 -3.38074
v 2.723543 0 -2.897778
v 2.723543 0.5 -2.897778
v 2.160607 0 -3.233578
v 2.160607 0.5 -3.233578
v 2.351949 0 -2.771638
v 2.351949 0.5 -2.771638
v 1.75 0 -3.031089
v 1.75 0.5 -3.031089
v 2 0 -2.598076
v 2 0.5 -2.598076
v 1.369335 0 -2.776736
v 1.369335 0.5 -2.776736
v 1.673715 0 -2.38006
v 1.673715 0.5 -2.38006
v 1.025127 0 -2.474874
v 1.025127 0.5 -2.474874
v 1.37868 0 -2.121321
v 1.37868 0.5 -2.121321
v 0.7232633 0 -2.130665
v 0.7232633 0.5 -2.130665
v 1.11994 0 -1.826284
v 1.11994 0.5 -1.826284
v 0.4689114 0 -1.750001
v 0.4689114 0.5 -1.750001
v 0.9019241 0 -1.5
v 0.9019241 0.5 -1.5
v 0.2664216 0 -1.339392
v 0.2664216 0.5 -1.339392
v 0.7283614 0 -1.14805
v 0.7283614 0.5 -1.14805
v 0.1192598 0 -0.9058675
v 0.1192598 0.5 -0.9058675
v 0.6022227 0 -0.7764578
v 0.6022227 0.5 -0.7764578
v 0.02994299 0 -0.4568418
v 0.02994299 0.5 -0.4568418
v 0.5256653 0 -0.3915787
v 0.5256653 0.5 -0.3915787

vt 0 0
vt 0 1
vt 1 0
vt 1 1

vn -0.9978589 0 0.06540313
vn 0.9978589 0 -0.06540278
vn -0.9807853 0 0.1950903
vn 0.9807853 0 -0.1950905
vn -0.9469301 0 0.3214398
vn 0.9469299 0 -0.3214401
vn -0.8968728 0 0.4422886
vn 0.8968729 0 -0.4422885
vn -0.8314698 0 0.55557
vn 0.8314697 0 -0.5555702
vn -0.7518398 0 0.6593459
vn 0.7518397 0 -0.659346
vn -0.6593459 0 0.7518398
vn 0.659346 0 -0.7518397
vn -0.5555702 0 0.8314697
vn 0.5555706 0 -0.8314694
vn -0.4422882 0 0.896873
vn 0.442288 0 -0.8968731
vn -0.3214398 0 0.94693
vn 0.3214402 0 -0.9469299
vn -0.1950904 0 0.9807853
vn 0.1950898 0 -0.9807854
vn -0.06540307 0 0.9978589
vn 0.06540334 0 -0.9978589
vn 0.06540317 0 0.9978589
vn -0.06540281 0 -0.9978589
vn 0.1950903 0 0.9807853
vn -0.1950904 0 -0.9807853
vn 0.3214395 0 0.9469301
vn -0.3214397 0 -0.94693
vn 0.4422887 0 0.8968728
vn -0.442289 0 -0.8968726
vn 0.5555702 0 0.8314697
vn -0.5555701 0 -0.8314698
vn 0.6593459 0 0.7518398
vn -0.6593462 0 -0.7518395
vn 0.7518395 0 0.6593461
vn -0.7518394 0 -0.6593463
vn 0.8314697 0 0.5555702
vn -0.83147 0 -0.5555696
vn 0.8968728 0 0.4422885
vn -0.8968727 0 -0.4422889
vn 0.9469302 0 0.3214394
vn -0.9469299 0 -0.3214402
vn 0.9807852 0 0.1950908
vn -0.9807853 0 -0.1950905
vn 0.9978589 0 0.06540303
vn -0.9978589 0 -0.06540268
vn 0 -1 0
vn 0 1 0

usemtl bm_beam
f 3/3/1 4/4/1 2/2/1 1/1/1
f 7/3/2 8/4/2 6/2/2 5/1/2
f 10/3/3 3/4/3 1/2/3 9/1/3
f 8/3/4 12/4/4 11/2/4 6/1/4
f 14/3/5 10/4/5 9/2/5 13/1/5
f 12/3/6 16/4/6 15/2/6 11/1/6
f 18/3/7 14/4/7 13/2/7 17/1/7
f 16/3/8 20/4/8 19/2/8 15/1/8
f 22/3/9 18/4/9 17/2/9 21/1/9
f 20/3/10 24/4/10 23/2/10 19/1/10
f 26/3/11 22/4/11 21/2/11 25/1/11
f 24/3/12 28/4/12 27/2/12 23/1/12
f 30/3/13 26/4/13 25/2/13 29/1/13
f 28/3/14 32/4/14 31/2/14 27/1/14
f 34/3/15 30/4/15 29/2/15 33/1/15
f 32/3/16 36/4/16 35/2/16 31/1/16
f 38/3/17 34/4/17 33/2/17 37/1/17
f 36/3/18 40/4/18 39/2/18 35/1/18
f 42/3/19 38/4/19 37/2/19 41/1/19
f 40/3/20 44/4/20 43/2/20 39/1/20
f 46/3/21 42/4/21 41/2/21 45/1/21
f 44/3/22 48/4/22 47/2/22 43/1/22
f 50/3/23 46/4/23 45/2/23 49/1/23
f 48/3/24 52/4/24 51/2/24 47/1/24
f 54/3/25 50/4/25 49/2/25 53/1/25
f 52/3/26 56/4/26 55/2/26 51/1/26
f 58/3/27 54/4/27 53/2/27 57/1/27
f 56/3/28 60/4/28 59/2/28 55/1/28
f 62/3/29 58/4/29 57/2/29 61/1/29
f 60/3/30 64/4/30 63/2/30 59/1/30
f 66/3/31 62/4/31 61/2/31 65/1/31
f 64/3/32 68/4/32 67/2/32 63/1/32
f 70/3/33 66/4/33 65/2/33 69/1/33
f 68/3/34 72/4/34 71/2/34 67/1/34
f 74/3/35 70/4/35 69/2/35 73/1/35
f 72/3/36 76/4/36 75/2/36 71/1/36
f 78/3/37 74/4/37 73/2/37 77/1/37
f 76/3/38 80/4/38 79/2/38 75/1/38
f 82/3/39 78/4/39 77/2/39 81/1/39
f 80/3/40 84/4/40 83/2/40 79/1/40
f 86/3/41 82/4/41 81/2/41 85/1/41
f 84/3/42 88/4/42 87/2/42 83/1/42
f 90/3/43 86/4/43 85/2/43 89/1/43
f 88/3/44 92/4/44 91/2/44 87/1/44
f 94/3/45 90/4/45 89/2/45 93/1/45
f 92/3/46 96/4/46 95/2/46 91/1/46
f 98/3/47 94/4/47 93/2/47 97/1/47
f 96/3/48 100/4/48 99/2/48 95/1/48
f 102/3/2 98/4/2 97/2/2 101/1/2
f 100/3/1 104/4/1 103/2/1 99/1/1
f 106/3/4 102/4/4 101/2/4 105/1/4
f 104/3/3 108/4/3 107/2/3 103/1/3
f 110/3/6 106/4/6 105/2/6 109/1/6
f 108/3/5 112/4/5 111/2/5 107/1/5
f 114/3/8 110/4/8 109/2/8 113/1/8
f 112/3/7 116/4/7 115/2/7 111/1/7
f 118/3/10 114/4/10 113/2/10 117/1/10
f 116/3/9 120/4/9 119/2/9 115/1/9
f 122/3/12 118/4/12 117/2/12 121/1/12
f 120/3/11 124/4/11 123/2/11 119/1/11
f 126/3/14 122/4/14 121/2/14 125/1/14
f 124/3/13 128/4/13 127/2/13 123/1/13
f 130/3/16 126/4/16 125/2/16 129/1/16
f 128/3/15 132/4/15 131/2/15 127/1/15
f 134/3/18 130/4/18 129/2/18 133/1/18
f 132/3/17 136/4/17 135/2/17 131/1/17
f 138/3/20 134/4/20 133/2/20 137/1/20
f 136/3/19 140/4/19 139/2/19 135/1/19
f 142/3/22 138/4/22 137/2/22 141/1/22
f 140/3/21 144/4/21 143/2/21 139/1/21
f 146/3/24 142/4/24 141/2/24 145/1/24
f 144/3/23 148/4/23 147/2/23 143/1/23
f 150/3/26 146/4/26 145/2/26 149/1/26
f 148/3/25 152/4/25 151/2/25 147/1/25
f 154/3/28 150/4/28 149/2/28 153/1/28
f 152/3/27 156/4/27 155/2/27 151/1/27
f 158/3/30 154/4/30 153/2/30 157/1/30
f 156/3/29 160/4/29 159/2/29 155/1/29
f 162/3/32 158/4/32 157/2/32 161/1/32
f 160/3/31 164/4/31 163/2/31 159/1/31
f 166/3/34 162/4/34 161/2/34 165/1/34
f 164/3/33 168/4/33 167/2/33 163/1/33
f 170/3/36 166/4/36 165/2/36 169/1/36
f 168/3/35 172/4/35 171/2/35 167/1/35
f 174/3/38 170/4/38 169/2/38 173/1/38
f 172/3/37 176/4/37 175/2/37 171/1/37
f 178/3/40 174/4/40 173/2/40 177/1/40
f 176/3/39 180/4/39 179/2/39 175/1/39
f 182/3/42 178/4/42 177/2/42 181/1/42
f 180/3/41 184/4/41 183/2/41 179/1/41
f 186/3/44 182/4/44 181/2/44 185/1/44
f 184/3/43 188/4/43 187/2/43 183/1/43
f 190/3/46 186/4/46 185/2/46 189/1/46
f 188/3/45 192/4/45 191/2/45 187/1/45
f 4/3/48 190/4/48 189/2/48 2/1/48
f 192/3/47 7/4/47 5/2/47 191/1/47
f 5/3/49 6/4/49 1/2/49 2/1/49
f 8/3/50 7/4/50 4/2/50 3/1/50
f 6/3/49 11/4/49 9/2/49 1/1/49
f 12/3/50 8/4/50 3/2/50 10/1/50
f 11/3/49 15/4/49 13/2/49 9/1/49
f 16/3/50 12/4/50 10/2/50 14/1/50
f 15/3/49 19/4/49 17/2/49 13/1/49
f 20/3/50 16/4/50 14/2/50 18/1/50
f 19/3/49 23/4/49 21/2/49 17/1/49
f 24/3/50 20/4/50 18/2/50 22/1/50
f 23/3/49 27/4/49 25/2/49 21/1/49
f 28/3/50 24/4/50 22/2/50 26/1/50
f 27/3/49 31/4/49 29/2/49 25/1/49
f 32/3/50 28/4/50 26/2/50 30/1/50
f 31/3/49 35/4/49 33/2/49 29/1/49
f 36/3/50 32/4/50 30/2/50 34/1/50
f 35/3/49 39/4/49 37/2/49 33/1/49
f 40/3/50 36/4/50 34/2/50 38/1/50
f 39/3/49 43/4/49 41/2/49 37/1/49
f 44/3/50 40/4/50 38/2/50 42/1/50
f 43/3/49 47/4/49 45/2/49 41/1/49
f 48/3/50 44/4/50 42/2/50 46/1/50
f 47/3/49 51/4/49 49/2/49 45/1/49
f 52/3/50 48/4/50 46/2/50 50/1/50
f 51/3/49 55/4/49 53/2/49 49/1/49
f 56/3/50 52/4/50 50/2/50 54/1/50
f 55/3/49 59/4/49 57/2/49 53/1/49
f 60/3/50 56/4/50 54/2/50 58/1/50
f 59/3/49 63/4/49 61/2/49 57/1/49
f 64/3/50 60/4/50 58/2/50 62/1/50
f 63/3/49 67/4/49 65/2/49 61/1/49
f 68/3/50 64/4/50 62/2/50 66/1/50
f 67/3/49 71/4/49 69/2/49 65/1/49
f 72/3/50 68/4/50 66/2/50 70/1/50
f 71/3/49 75/4/49 73/2/49 69/1/49
f 76/3/50 72/4/50 70/2/50 74/1/50
f 75/3/49 79/4/49 77/2/49 73/1/49
f 80/3/50 76/4/50 74/2/50 78/1/50
f 79/3/49 83/4/49 81/2/49 77/1/49
f 84/3/50 80/4/50 78/2/50 82/1/50
f 83/3/49 87/4/49 85/2/49 81/1/49
f 88/3/50 84/4/50 82/2/50 86/1/50
f 87/3/49 91/4/49 89/2/49 85/1/49
f 92/3/50 88/4/50 86/2/50 90/1/50
f 91/3/49 95/4/49 93/2/49 89/1/49
f 96/3/50 92/4/50 90/2/50 94/1/50
f 95/3/49 99/4/49 97/2/49 93/1/49
f 100/3/50 96/4/50 94/2/50 98/1/50
f 99/3/49 103/4/49 101/2/49 97/1/49
f 104/3/50 100/4/50 98/2/50 102/1/50
f 103/3/49 107/4/49 105/2/49 101/1/49
f 108/3/50 104/4/50 102/2/50 106/1/50
f 107/3/49 111/4/49 109/2/49 105/1/49
f 112/3/50 108/4/50 106/2/50 110/1/50
f 111/3/49 115/4/49 113/2/49 109/1/49
f 116/3/50 112/4/50 110/2/50 114/1/50
f 115/3/49 119/4/49 117/2/49 113/1/49
f 120/3/50 116/4/50 114/2/50 118/1/50
f 119/3/49 123/4/49 121/2/49 117/1/49
f 124/3/50 120/4/50 118/2/50 122/1/50
f 123/3/49 127/4/49 125/2/49 121/1/49
f 128/3/50 124/4/50 122/2/50 126/1/50
f 127/3/49 131/4/49 129/2/49 125/1/49
f 132/3/50 128/4/50 126/2/50 130/1/50
f 131/3/49 135/4/49 133/2/49 129/1/49
f 136/3/50 132/4/50 130/2/50 134/1/50
f 135/3/49 139/4/49 137/2/49 133/1/49
f 140/3/50 136/4/50 134/2/50 138/1/50
f 139/3/49 143/4/49 141/2/49 137/1/49
f 144/3/50 140/4/50 138/2/50 142/1/50
f 143/3/49 147/4/49 145/2/49 141/1/49
f 148/3/50 144/4/50 142/2/50 146/1/50
f 147/3/49 151/4/49 149/2/49 145/1/49
f 152/3/50 148/4/50 146/2/50 150/1/50
f 151/3/49 155/4/49 153/2/49 149/1/49
f 156/3/50 152/4/50 150/2/50 154/1/50
f 155/3/49 159/4/49 157/2/49 153/1/49
f 160/3/50 156/4/50 154/2/50 158/1/50
f 159/3/49 163/4/49 161/2/49 157/1/49
f 164/3/50 160/4/50 158/2/50 162/1/50
f 163/3/49 167/4/49 165/2/49 161/1/49
f 168/3/50 164/4/50 162/2/50 166/1/50
f 167/3/49 171/4/49 169/2/49 165/1/49
f 172/3/50 168/4/50 166/2/50 170/1/50
f 171/3/49 175/4/49 173/2/49 169/1/49
f 176/3/50 172/4/50 170/2/50 174/1/50
f 175/3/49 179/4/49 177/2/49 173/1/49
f 180/3/50 176/4/50 174/2/50 178/1/50
f 179/3/49 183/4/49 181/2/49 177/1/49
f 184/3/50 180/4/50 178/2/50 182/1/50
f 183/3/49 187/4/49 185/2/49 181/1/49
f 188/3/50 184/4/50 182/2/50 186/1/50
f 187/3/49 191/4/49 189/2/49 185/1/49
f 192/3/50 188/4/50 186/2/50 190/1/50
f 191/3/49 5/4/49 2/2/49 189/1/49
f 7/3/50 192/4/50 190/2/50 4/1/50

