# ProBuilder 4.5.2
# https://unity3d.com/unity/features/worldbuilding/probuilder
# 10/14/2022 12:04:27 PM

mtllib ./RingRiotRing2x2.mtl
o RingRiotRing2x2

g Pipe (6)
v 0.06814837 0 0.5176381
v 0 0 0
v 0.06814837 0.5 0.5176381
v 0 0.5 0
v 0.5 0 0
v 0.5511112 0 0.3882286
v 0.5 0.5 0
v 0.5511112 0.5 0.3882286
v 0.2679492 0 1
v 0.2679492 0.5 1
v 0.7009619 0 0.75
v 0.7009619 0.5 0.75
v 0.5857865 0 1.414214
v 0.5857865 0.5 1.414214
v 0.9393399 0 1.06066
v 0.9393399 0.5 1.06066
v 1 0 1.732051
v 1 0.5 1.732051
v 1.25 0 1.299038
v 1.25 0.5 1.299038
v 1.482362 0 1.931852
v 1.482362 0.5 1.931852
v 1.611771 0 1.448889
v 1.611771 0.5 1.448889
v 2 0 2
v 2 0.5 2
v 2 0 1.5
v 2 0.5 1.5
v 2.517638 0 1.931852
v 2.517638 0.5 1.931852
v 2.388229 0 1.448889
v 2.388229 0.5 1.448889
v 3 0 1.732051
v 3 0.5 1.732051
v 2.75 0 1.299038
v 2.75 0.5 1.299038
v 3.414214 0 1.414214
v 3.414214 0.5 1.414214
v 3.06066 0 1.06066
v 3.06066 0.5 1.06066
v 3.732051 0 1
v 3.732051 0.5 1
v 3.299038 0 0.7500001
v 3.299038 0.5 0.7500001
v 3.931852 0 0.5176383
v 3.931852 0.5 0.5176383
v 3.448889 0 0.3882287
v 3.448889 0.5 0.3882287
v 4 0 -1.748456E-07
v 4 0.5 -1.748456E-07
v 3.5 0 -1.311342E-07
v 3.5 0.5 -1.311342E-07
v 3.931852 0 -0.5176381
v 3.931852 0.5 -0.5176381
v 3.448889 0 -0.3882286
v 3.448889 0.5 -0.3882286
v 3.732051 0 -0.9999999
v 3.732051 0.5 -0.9999999
v 3.299038 0 -0.7499999
v 3.299038 0.5 -0.7499999
v 3.414214 0 -1.414213
v 3.414214 0.5 -1.414213
v 3.06066 0 -1.06066
v 3.06066 0.5 -1.06066
v 3 0 -1.732051
v 3 0.5 -1.732051
v 2.75 0 -1.299038
v 2.75 0.5 -1.299038
v 2.517638 0 -1.931852
v 2.517638 0.5 -1.931852
v 2.388228 0 -1.448889
v 2.388228 0.5 -1.448889
v 2 0 -2
v 2 0.5 -2
v 2 0 -1.5
v 2 0.5 -1.5
v 1.482362 0 -1.931852
v 1.482362 0.5 -1.931852
v 1.611771 0 -1.448889
v 1.611771 0.5 -1.448889
v 1 0 -1.732051
v 1 0.5 -1.732051
v 1.25 0 -1.299038
v 1.25 0.5 -1.299038
v 0.5857867 0 -1.414214
v 0.5857867 0.5 -1.414214
v 0.93934 0 -1.06066
v 0.93934 0.5 -1.06066
v 0.2679493 0 -1
v 0.2679493 0.5 -1
v 0.7009621 0 -0.7500002
v 0.7009621 0.5 -0.7500002
v 0.06814849 0 -0.5176386
v 0.06814849 0.5 -0.5176386
v 0.5511113 0 -0.3882289
v 0.5511113 0.5 -0.3882289

vt 0 0
vt 0 1
vt 1 0
vt 1 1

vn -0.9914449 0 0.1305262
vn 0.9914449 0 -0.1305261
vn -0.9238795 0 0.3826834
vn 0.9238794 0 -0.3826836
vn -0.7933533 0 0.6087614
vn 0.7933533 0 -0.6087615
vn -0.6087616 0 0.7933533
vn 0.6087617 0 -0.7933531
vn -0.3826833 0 0.9238796
vn 0.3826835 0 -0.9238795
vn -0.1305262 0 0.9914449
vn 0.1305261 0 -0.9914449
vn 0.1305262 0 0.9914449
vn -0.1305261 0 -0.9914449
vn 0.3826835 0 0.9238795
vn -0.3826837 0 -0.9238794
vn 0.6087614 0 0.7933534
vn -0.6087615 0 -0.7933533
vn 0.7933533 0 0.6087615
vn -0.7933533 0 -0.6087614
vn 0.9238796 0 0.3826833
vn -0.9238793 0 -0.3826839
vn 0.9914448 0 0.1305261
vn -0.9914449 0 -0.130526
vn 0 -1 0
vn 0 1 0

usemtl bm_beam
f 3/3/1 4/4/1 2/2/1 1/1/1
f 7/3/2 8/4/2 6/2/2 5/1/2
f 10/3/3 3/4/3 1/2/3 9/1/3
f 8/3/4 12/4/4 11/2/4 6/1/4
f 14/3/5 10/4/5 9/2/5 13/1/5
f 12/3/6 16/4/6 15/2/6 11/1/6
f 18/3/7 14/4/7 13/2/7 17/1/7
f 16/3/8 20/4/8 19/2/8 15/1/8
f 22/3/9 18/4/9 17/2/9 21/1/9
f 20/3/10 24/4/10 23/2/10 19/1/10
f 26/3/11 22/4/11 21/2/11 25/1/11
f 24/3/12 28/4/12 27/2/12 23/1/12
f 30/3/13 26/4/13 25/2/13 29/1/13
f 28/3/14 32/4/14 31/2/14 27/1/14
f 34/3/15 30/4/15 29/2/15 33/1/15
f 32/3/16 36/4/16 35/2/16 31/1/16
f 38/3/17 34/4/17 33/2/17 37/1/17
f 36/3/18 40/4/18 39/2/18 35/1/18
f 42/3/19 38/4/19 37/2/19 41/1/19
f 40/3/20 44/4/20 43/2/20 39/1/20
f 46/3/21 42/4/21 41/2/21 45/1/21
f 44/3/22 48/4/22 47/2/22 43/1/22
f 50/3/23 46/4/23 45/2/23 49/1/23
f 48/3/24 52/4/24 51/2/24 47/1/24
f 54/3/2 50/4/2 49/2/2 53/1/2
f 52/3/1 56/4/1 55/2/1 51/1/1
f 58/3/4 54/4/4 53/2/4 57/1/4
f 56/3/3 60/4/3 59/2/3 55/1/3
f 62/3/6 58/4/6 57/2/6 61/1/6
f 60/3/5 64/4/5 63/2/5 59/1/5
f 66/3/8 62/4/8 61/2/8 65/1/8
f 64/3/7 68/4/7 67/2/7 63/1/7
f 70/3/10 66/4/10 65/2/10 69/1/10
f 68/3/9 72/4/9 71/2/9 67/1/9
f 74/3/12 70/4/12 69/2/12 73/1/12
f 72/3/11 76/4/11 75/2/11 71/1/11
f 78/3/14 74/4/14 73/2/14 77/1/14
f 76/3/13 80/4/13 79/2/13 75/1/13
f 82/3/16 78/4/16 77/2/16 81/1/16
f 80/3/15 84/4/15 83/2/15 79/1/15
f 86/3/18 82/4/18 81/2/18 85/1/18
f 84/3/17 88/4/17 87/2/17 83/1/17
f 90/3/20 86/4/20 85/2/20 89/1/20
f 88/3/19 92/4/19 91/2/19 87/1/19
f 94/3/22 90/4/22 89/2/22 93/1/22
f 92/3/21 96/4/21 95/2/21 91/1/21
f 4/3/24 94/4/24 93/2/24 2/1/24
f 96/3/23 7/4/23 5/2/23 95/1/23
f 5/3/25 6/4/25 1/2/25 2/1/25
f 8/3/26 7/4/26 4/2/26 3/1/26
f 6/3/25 11/4/25 9/2/25 1/1/25
f 12/3/26 8/4/26 3/2/26 10/1/26
f 11/3/25 15/4/25 13/2/25 9/1/25
f 16/3/26 12/4/26 10/2/26 14/1/26
f 15/3/25 19/4/25 17/2/25 13/1/25
f 20/3/26 16/4/26 14/2/26 18/1/26
f 19/3/25 23/4/25 21/2/25 17/1/25
f 24/3/26 20/4/26 18/2/26 22/1/26
f 23/3/25 27/4/25 25/2/25 21/1/25
f 28/3/26 24/4/26 22/2/26 26/1/26
f 27/3/25 31/4/25 29/2/25 25/1/25
f 32/3/26 28/4/26 26/2/26 30/1/26
f 31/3/25 35/4/25 33/2/25 29/1/25
f 36/3/26 32/4/26 30/2/26 34/1/26
f 35/3/25 39/4/25 37/2/25 33/1/25
f 40/3/26 36/4/26 34/2/26 38/1/26
f 39/3/25 43/4/25 41/2/25 37/1/25
f 44/3/26 40/4/26 38/2/26 42/1/26
f 43/3/25 47/4/25 45/2/25 41/1/25
f 48/3/26 44/4/26 42/2/26 46/1/26
f 47/3/25 51/4/25 49/2/25 45/1/25
f 52/3/26 48/4/26 46/2/26 50/1/26
f 51/3/25 55/4/25 53/2/25 49/1/25
f 56/3/26 52/4/26 50/2/26 54/1/26
f 55/3/25 59/4/25 57/2/25 53/1/25
f 60/3/26 56/4/26 54/2/26 58/1/26
f 59/3/25 63/4/25 61/2/25 57/1/25
f 64/3/26 60/4/26 58/2/26 62/1/26
f 63/3/25 67/4/25 65/2/25 61/1/25
f 68/3/26 64/4/26 62/2/26 66/1/26
f 67/3/25 71/4/25 69/2/25 65/1/25
f 72/3/26 68/4/26 66/2/26 70/1/26
f 71/3/25 75/4/25 73/2/25 69/1/25
f 76/3/26 72/4/26 70/2/26 74/1/26
f 75/3/25 79/4/25 77/2/25 73/1/25
f 80/3/26 76/4/26 74/2/26 78/1/26
f 79/3/25 83/4/25 81/2/25 77/1/25
f 84/3/26 80/4/26 78/2/26 82/1/26
f 83/3/25 87/4/25 85/2/25 81/1/25
f 88/3/26 84/4/26 82/2/26 86/1/26
f 87/3/25 91/4/25 89/2/25 85/1/25
f 92/3/26 88/4/26 86/2/26 90/1/26
f 91/3/25 95/4/25 93/2/25 89/1/25
f 96/3/26 92/4/26 90/2/26 94/1/26
f 95/3/25 5/4/25 2/2/25 93/1/25
f 7/3/26 96/4/26 94/2/26 4/1/26

