# ProBuilder 4.5.2
# https://unity3d.com/unity/features/worldbuilding/probuilder
# 2/1/2023 11:07:33 PM

mtllib ./StormChaserBMCurve2.mtl
o StormChaserBMCurve2

g Arch (55)
v -3.098659E-06 8.94288E-08 -0.4997323
v -0.6867516 2.264977E-06 -0.477784
v -7.077269E-06 -0.4999999 -0.4997323
v -0.6867533 -0.4999977 -0.477784
v -0.4904994 1.758337E-06 2.516327
v 1.722496E-05 -8.944698E-08 2.499733
v -0.4905011 -0.4999983 2.516327
v 1.324635E-05 -0.5 2.499733
v -1.370561 4.529953E-06 -0.4104331
v -1.370563 -0.4999955 -0.4104331
v -0.9789047 3.397465E-06 2.564432
v -0.9789063 -0.4999965 2.564432
v -2.048501 6.67572E-06 -0.2985025
v -2.048503 -0.4999933 -0.2985025
v -1.463118 4.887581E-06 2.644377
v -1.46312 -0.4999951 2.644377
v -2.71767 8.821487E-06 -0.1424722
v -2.717672 -0.4999912 -0.1424722
v -1.941066 6.437302E-06 2.755821
v -1.941068 -0.4999936 2.755821
v -3.3752 1.096725E-05 0.05698913
v -3.375202 -0.499989 0.05698913
v -2.410702 8.106232E-06 2.898284
v -2.410704 -0.4999919 2.898284
v -4.018278 1.335144E-05 0.2990284
v -4.01828 -0.4999866 0.2990284
v -2.870015 9.536743E-06 3.071159
v -2.870017 -0.4999905 3.071159
v -4.644148 1.525879E-05 0.5826089
v -4.64415 -0.4999847 0.582609
v -3.317038 1.120567E-05 3.273704
v -3.31704 -0.4999888 3.273704
v -5.250132 1.716614E-05 0.906516
v -5.250134 -0.4999828 0.906516
v -3.749857 1.263618E-05 3.505052
v -3.749858 -0.4999874 3.505052
v -5.833633 1.907349E-05 1.269362
v -5.833635 -0.4999809 1.269362
v -4.166618 1.382828E-05 3.764212
v -4.16662 -0.4999862 3.764212
v -6.392153 2.098083E-05 1.669595
v -6.392155 -0.499979 1.669595
v -4.565537 1.525879E-05 4.050076
v -4.565539 -0.4999847 4.050076
v -6.923302 2.288818E-05 2.105499
v -6.923304 -0.4999771 2.105499
v -4.944906 1.66893E-05 4.361416
v -4.944908 -0.4999833 4.361416
v -7.424804 2.43187E-05 2.57521
v -7.424806 -0.4999757 2.57521
v -5.303099 1.764297E-05 4.696903
v -5.303101 -0.4999824 4.696903
v -7.894512 2.574921E-05 3.076714
v -7.894514 -0.4999743 3.076714
v -5.638584 1.907349E-05 5.055099
v -5.638586 -0.4999809 5.055099
v -8.330413 2.765656E-05 3.607865
v -8.330415 -0.4999723 3.607865
v -5.949923 2.002716E-05 5.434469
v -5.949925 -0.49998 5.434469
v -8.730642 2.861023E-05 4.166388
v -8.730644 -0.4999714 4.166388
v -6.235784 2.098083E-05 5.833389
v -6.235786 -0.499979 5.833389
v -9.093487 2.95639E-05 4.749891
v -9.093489 -0.4999704 4.749891
v -6.494943 2.193451E-05 6.250153
v -6.494945 -0.4999781 6.250153
v -9.417391 3.051758E-05 5.355876
v -9.417393 -0.4999695 5.355876
v -6.726288 2.241135E-05 6.682972
v -6.72629 -0.4999776 6.682972
v -9.700966 3.147125E-05 5.981748
v -9.700968 -0.4999685 5.981748
v -6.92883 2.336502E-05 7.129997
v -6.928832 -0.4999766 7.129997
v -9.943003 3.242493E-05 6.624827
v -9.943005 -0.4999676 6.624827
v -7.101702 2.384186E-05 7.58931
v -7.101704 -0.4999762 7.58931
v -10.14246 3.33786E-05 7.282358
v -10.14246 -0.4999666 7.282358
v -7.244164 2.43187E-05 8.058946
v -7.244166 -0.4999757 8.058946
v -10.29849 3.33786E-05 7.951528
v -10.29849 -0.4999666 7.951528
v -7.355605 2.479553E-05 8.536896
v -7.355607 -0.4999752 8.536896
v -10.41041 3.528595E-05 8.629468
v -10.41041 -0.4999647 8.629468
v -7.435547 2.479553E-05 9.021109
v -7.435549 -0.4999752 9.021109
v -10.47776 3.528595E-05 9.313277
v -10.47776 -0.4999647 9.313277
v -7.48365 2.479553E-05 9.509515
v -7.483652 -0.4999752 9.509515
v -10.4997 3.33786E-05 10.00006
v -10.49971 -0.4999666 10.00006
v -7.500242 2.384186E-05 10.00004
v -7.500242 -0.4999757 10.00004
v -1.683831E-06 -0.5 0
v -0.6540329 -0.4999978 0.0214127
v 3.561378E-06 -0.4999999 2
v -0.5232215 -0.4999982 2.01713
v -0.6540313 2.145767E-06 0.0214127
v 0 0 0
v -0.5232198 1.847744E-06 2.01713
v 5.245209E-06 1.192093E-07 2
v -1.305263 -0.4999957 0.08555475
v -1.044206 -0.4999964 2.068444
v -1.305262 4.291534E-06 0.08555477
v -1.044204 3.576279E-06 2.068444
v -1.950904 -0.4999936 0.1921525
v -1.560719 -0.4999949 2.153722
v -1.950903 6.437302E-06 0.1921525
v -1.560717 5.245209E-06 2.153723
v -2.588191 -0.4999914 0.3407491
v -2.070548 -0.4999931 2.272599
v -2.58819 8.583069E-06 0.3407491
v -2.070546 6.914139E-06 2.272599
v -3.214395 -0.4999895 0.5307074
v -2.571511 -0.4999914 2.424566
v -3.214393 1.049042E-05 0.5307075
v -2.571509 8.583069E-06 2.424566
v -3.826834 -0.4999876 0.7612151
v -3.061462 -0.4999897 2.608973
v -3.826833 1.263618E-05 0.7612151
v -3.061461 1.0252E-05 2.608972
v -4.422886 -0.4999857 1.031285
v -3.538304 -0.4999878 2.825028
v -4.422884 1.430511E-05 1.031285
v -3.538302 1.192093E-05 2.825028
v -4.999999 -0.4999838 1.33976
v -3.999994 -0.4999866 3.071808
v -4.999997 1.621246E-05 1.33976
v -3.999992 1.311302E-05 3.071808
v -5.5557 -0.4999819 1.685319
v -4.444555 -0.4999852 3.348256
v -5.555698 1.811981E-05 1.685319
v -4.444553 1.478195E-05 3.348256
v -6.08761 -0.49998 2.066483
v -4.870084 -0.4999843 3.653187
v -6.087608 2.002716E-05 2.066483
v -4.870082 1.573563E-05 3.653187
v -6.593453 -0.4999785 2.48162
v -5.274758 -0.4999828 3.985296
v -6.593451 2.145767E-05 2.48162
v -5.274756 1.716614E-05 3.985296
v -7.071062 -0.4999766 2.928951
v -5.656845 -0.4999809 4.343162
v -7.07106 2.336502E-05 2.928952
v -5.656843 1.907349E-05 4.343162
v -7.518392 -0.4999752 3.406563
v -6.014708 -0.49998 4.72525
v -7.51839 2.479553E-05 3.406563
v -6.014706 2.002716E-05 4.72525
v -7.933525 -0.4999738 3.912408
v -6.346815 -0.4999785 5.129926
v -7.933523 2.622604E-05 3.912408
v -6.346813 2.145767E-05 5.129926
v -8.314687 -0.4999723 4.444321
v -6.651744 -0.4999776 5.555456
v -8.314685 2.765656E-05 4.444321
v -6.651742 2.241135E-05 5.555456
v -8.660243 -0.4999714 5.000024
v -6.92819 -0.4999766 6.00002
v -8.660241 2.861023E-05 5.000024
v -6.928188 2.336502E-05 6.00002
v -8.968714 -0.4999704 5.577137
v -7.174967 -0.4999762 6.461711
v -8.968712 2.95639E-05 5.577137
v -7.174965 2.384186E-05 6.461711
v -9.238781 -0.4999695 6.173192
v -7.39102 -0.4999752 6.938554
v -9.238779 3.051758E-05 6.173192
v -7.391018 2.479553E-05 6.938554
v -9.469286 -0.4999685 6.785632
v -7.575423 -0.4999752 7.428505
v -9.469284 3.147125E-05 6.785632
v -7.575421 2.527237E-05 7.428505
v -9.659241 -0.4999685 7.411836
v -7.727387 -0.4999738 7.929469
v -9.659239 3.147125E-05 7.411836
v -7.727386 2.574921E-05 7.929469
v -9.807834 -0.4999666 8.049124
v -7.846262 -0.4999738 8.4393
v -9.807832 3.33786E-05 8.049124
v -7.84626 2.622604E-05 8.4393
v -9.914427 -0.4999666 8.694765
v -7.931537 -0.4999728 8.955812
v -9.914425 3.33786E-05 8.694765
v -7.931535 2.670288E-05 8.955812
v -9.978566 -0.4999666 9.345996
v -7.982849 -0.4999733 9.476796
v -9.978564 3.33786E-05 9.345996
v -7.982847 2.670288E-05 9.476796
v -9.999975 -0.4999666 10.00003
v -7.999975 -0.4999723 10.00002
v -9.999973 3.33786E-05 10.00003
v -7.999973 2.717972E-05 10.00002

vt 0 0
vt 0 1
vt 1 0
vt 1 1
vt -5.960464E-08 -4
vt -5.960464E-08 -3.75
vt 0.9999999 -4
vt 0.9999999 -3.75
vt -5.960464E-08 -1.25
vt -5.960464E-08 -1
vt 0.9999999 -1.25
vt 0.9999999 -1
vt -5.960464E-08 -3.5
vt 0.9999999 -3.5
vt -5.960464E-08 -1.5
vt 0.9999999 -1.5
vt -5.960464E-08 -3.25
vt 0.9999999 -3.25
vt -5.960464E-08 -1.75
vt 0.9999999 -1.75
vt -5.960464E-08 -3
vt 0.9999999 -3
vt -5.960464E-08 -2
vt 0.9999999 -2

vn -0.03194352 1.946074E-07 -0.9994897
vn 0.03381065 -1.148705E-07 0.9994283
vn -0.09801936 3.27175E-07 -0.9951845
vn 0.09801925 -3.271746E-07 0.9951845
vn -0.1628985 5.437324E-07 -0.9866428
vn 0.1628987 -5.437329E-07 0.9866428
vn -0.2270792 7.579585E-07 -0.9738762
vn 0.2270789 -7.579577E-07 0.9738764
vn -0.2902871 9.118995E-07 -0.9569396
vn 0.2902875 -9.689392E-07 0.9569395
vn -0.3522523 1.175769E-06 -0.935905
vn 0.3522529 -1.175771E-06 0.9359049
vn -0.41271 1.574364E-06 -0.9108625
vn 0.4127087 -1.377564E-06 0.910863
vn -0.4713992 1.693112E-06 -0.8819199
vn 0.4713999 -1.573467E-06 0.8819196
vn -0.5280694 2.014425E-06 -0.8492012
vn 0.5280697 -2.014426E-06 0.849201
vn -0.5824807 2.221988E-06 -0.8128445
vn 0.5824801 -2.221985E-06 0.812845
vn -0.6343951 2.420025E-06 -0.7730091
vn 0.6343949 -2.420024E-06 0.7730092
vn -0.6835942 2.607705E-06 -0.7298623
vn 0.6835946 -2.607707E-06 0.7298619
vn -0.7298657 2.784217E-06 -0.6835907
vn 0.7298666 -2.78422E-06 0.6835896
vn -0.7730128 2.94881E-06 -0.6343905
vn 0.7730118 -2.948806E-06 0.6343917
vn -0.8128482 3.378516E-06 -0.5824757
vn 0.812848 -3.100769E-06 0.5824758
vn -0.8492032 3.239453E-06 -0.5280663
vn 0.8492035 -3.239454E-06 0.5280657
vn -0.8819222 3.364266E-06 -0.471395
vn 0.8819228 -3.364269E-06 0.4713938
vn -0.910866 3.474678E-06 -0.4127023
vn 0.9108652 -3.474675E-06 0.412704
vn -0.9359065 3.5702E-06 -0.3522487
vn 0.9359068 -3.906131E-06 0.3522478
vn -0.9569409 3.65044E-06 -0.2902825
vn 0.9569407 -3.650439E-06 0.2902836
vn -0.9738778 3.715049E-06 -0.2270728
vn 0.9738777 -3.715049E-06 0.227073
vn -0.9866439 3.763748E-06 -0.1628922
vn 0.9866439 -3.763748E-06 0.1628922
vn -0.9951848 3.796329E-06 -0.0980159
vn 0.9951848 -3.796329E-06 0.09801617
vn -0.99949 3.812752E-06 -0.03193421
vn 0.9994285 -9.531302E-07 0.03380446
vn -3.370015E-06 -1 5.961348E-08
vn 3.278686E-06 1 -6.557363E-08

usemtl bm_tile03_C
f 107/11/50 108/12/50 106/10/50 105/9/50
f 112/16/50 107/11/50 105/9/50 111/15/50
f 116/20/50 112/16/50 111/15/50 115/19/50
f 120/24/50 116/20/50 115/19/50 119/23/50
f 124/11/50 120/12/50 119/10/50 123/9/50
f 128/16/50 124/11/50 123/9/50 127/15/50
f 132/20/50 128/16/50 127/15/50 131/19/50
f 136/24/50 132/20/50 131/19/50 135/23/50
f 140/11/50 136/12/50 135/10/50 139/9/50
f 144/16/50 140/11/50 139/9/50 143/15/50
f 148/20/50 144/16/50 143/15/50 147/19/50
f 152/24/50 148/20/50 147/19/50 151/23/50
f 156/11/50 152/12/50 151/10/50 155/9/50
f 160/16/50 156/11/50 155/9/50 159/15/50
f 164/20/50 160/16/50 159/15/50 163/19/50
f 168/24/50 164/20/50 163/19/50 167/23/50
f 172/11/50 168/12/50 167/10/50 171/9/50
f 176/16/50 172/11/50 171/9/50 175/15/50
f 180/20/50 176/16/50 175/15/50 179/19/50
f 184/24/50 180/20/50 179/19/50 183/23/50
f 188/11/50 184/12/50 183/10/50 187/9/50
f 192/16/50 188/11/50 187/9/50 191/15/50
f 196/20/50 192/16/50 191/15/50 195/19/50
f 200/24/50 196/20/50 195/19/50 199/23/50

usemtl bm_edge_white
f 3/3/1 4/4/1 2/2/1 1/1/1
f 7/3/2 8/4/2 6/2/2 5/1/2
f 4/3/3 10/4/3 9/2/3 2/1/3
f 12/3/4 7/4/4 5/2/4 11/1/4
f 10/3/5 14/4/5 13/2/5 9/1/5
f 16/3/6 12/4/6 11/2/6 15/1/6
f 14/3/7 18/4/7 17/2/7 13/1/7
f 20/3/8 16/4/8 15/2/8 19/1/8
f 18/3/9 22/4/9 21/2/9 17/1/9
f 24/3/10 20/4/10 19/2/10 23/1/10
f 22/3/11 26/4/11 25/2/11 21/1/11
f 28/3/12 24/4/12 23/2/12 27/1/12
f 26/3/13 30/4/13 29/2/13 25/1/13
f 32/3/14 28/4/14 27/2/14 31/1/14
f 30/3/15 34/4/15 33/2/15 29/1/15
f 36/3/16 32/4/16 31/2/16 35/1/16
f 34/3/17 38/4/17 37/2/17 33/1/17
f 40/3/18 36/4/18 35/2/18 39/1/18
f 38/3/19 42/4/19 41/2/19 37/1/19
f 44/3/20 40/4/20 39/2/20 43/1/20
f 42/3/21 46/4/21 45/2/21 41/1/21
f 48/3/22 44/4/22 43/2/22 47/1/22
f 46/3/23 50/4/23 49/2/23 45/1/23
f 52/3/24 48/4/24 47/2/24 51/1/24
f 50/3/25 54/4/25 53/2/25 49/1/25
f 56/3/26 52/4/26 51/2/26 55/1/26
f 54/3/27 58/4/27 57/2/27 53/1/27
f 60/3/28 56/4/28 55/2/28 59/1/28
f 58/3/29 62/4/29 61/2/29 57/1/29
f 64/3/30 60/4/30 59/2/30 63/1/30
f 62/3/31 66/4/31 65/2/31 61/1/31
f 68/3/32 64/4/32 63/2/32 67/1/32
f 66/3/33 70/4/33 69/2/33 65/1/33
f 72/3/34 68/4/34 67/2/34 71/1/34
f 70/3/35 74/4/35 73/2/35 69/1/35
f 76/3/36 72/4/36 71/2/36 75/1/36
f 74/3/37 78/4/37 77/2/37 73/1/37
f 80/3/38 76/4/38 75/2/38 79/1/38
f 78/3/39 82/4/39 81/2/39 77/1/39
f 84/3/40 80/4/40 79/2/40 83/1/40
f 82/3/41 86/4/41 85/2/41 81/1/41
f 88/3/42 84/4/42 83/2/42 87/1/42
f 86/3/43 90/4/43 89/2/43 85/1/43
f 92/3/44 88/4/44 87/2/44 91/1/44
f 90/3/45 94/4/45 93/2/45 89/1/45
f 96/3/46 92/4/46 91/2/46 95/1/46
f 94/3/47 98/4/47 97/2/47 93/1/47
f 100/3/48 96/4/48 95/2/48 99/1/48
f 99/3/50 95/4/50 196/2/50 200/1/50
f 96/3/49 100/4/49 198/2/49 194/1/49
f 95/3/50 91/4/50 192/2/50 196/1/50
f 92/3/49 96/4/49 194/2/49 190/1/49
f 91/3/50 87/4/50 188/2/50 192/1/50
f 88/3/49 92/4/49 190/2/49 186/1/49
f 87/3/50 83/4/50 184/2/50 188/1/50
f 84/3/49 88/4/49 186/2/49 182/1/49
f 83/3/50 79/4/50 180/2/50 184/1/50
f 80/3/49 84/4/49 182/2/49 178/1/49
f 79/3/50 75/4/50 176/2/50 180/1/50
f 76/3/49 80/4/49 178/2/49 174/1/49
f 75/3/50 71/4/50 172/2/50 176/1/50
f 72/3/49 76/4/49 174/2/49 170/1/49
f 71/3/50 67/4/50 168/2/50 172/1/50
f 68/3/49 72/4/49 170/2/49 166/1/49
f 67/3/50 63/4/50 164/2/50 168/1/50
f 64/3/49 68/4/49 166/2/49 162/1/49
f 63/3/50 59/4/50 160/2/50 164/1/50
f 60/3/49 64/4/49 162/2/49 158/1/49
f 59/3/50 55/4/50 156/2/50 160/1/50
f 56/3/49 60/4/49 158/2/49 154/1/49
f 55/3/50 51/4/50 152/2/50 156/1/50
f 52/3/49 56/4/49 154/2/49 150/1/49
f 51/3/50 47/4/50 148/2/50 152/1/50
f 48/3/49 52/4/49 150/2/49 146/1/49
f 47/3/50 43/4/50 144/2/50 148/1/50
f 44/3/49 48/4/49 146/2/49 142/1/49
f 43/3/50 39/4/50 140/2/50 144/1/50
f 40/3/49 44/4/49 142/2/49 138/1/49
f 39/3/50 35/4/50 136/2/50 140/1/50
f 36/3/49 40/4/49 138/2/49 134/1/49
f 35/3/50 31/4/50 132/2/50 136/1/50
f 32/3/49 36/4/49 134/2/49 130/1/49
f 31/3/50 27/4/50 128/2/50 132/1/50
f 28/3/49 32/4/49 130/2/49 126/1/49
f 27/3/50 23/4/50 124/2/50 128/1/50
f 24/3/49 28/4/49 126/2/49 122/1/49
f 23/3/50 19/4/50 120/2/50 124/1/50
f 20/3/49 24/4/49 122/2/49 118/1/49
f 19/3/50 15/4/50 116/2/50 120/1/50
f 16/3/49 20/4/49 118/2/49 114/1/49
f 15/3/50 11/4/50 112/2/50 116/1/50
f 12/3/49 16/4/49 114/2/49 110/1/49
f 11/3/50 5/4/50 107/2/50 112/1/50
f 7/3/49 12/4/49 110/2/49 104/1/49
f 5/3/50 6/4/50 108/2/50 107/1/50
f 8/3/49 7/4/49 104/2/49 103/1/49
f 93/3/50 97/4/50 199/2/50 195/1/50
f 94/3/49 90/4/49 189/2/49 193/1/49
f 98/3/49 94/4/49 193/2/49 197/1/49
f 89/3/50 93/4/50 195/2/50 191/1/50
f 90/3/49 86/4/49 185/2/49 189/1/49
f 85/3/50 89/4/50 191/2/50 187/1/50
f 86/3/49 82/4/49 181/2/49 185/1/49
f 81/3/50 85/4/50 187/2/50 183/1/50
f 82/3/49 78/4/49 177/2/49 181/1/49
f 77/3/50 81/4/50 183/2/50 179/1/50
f 78/3/49 74/4/49 173/2/49 177/1/49
f 73/3/50 77/4/50 179/2/50 175/1/50
f 74/3/49 70/4/49 169/2/49 173/1/49
f 69/3/50 73/4/50 175/2/50 171/1/50
f 70/3/49 66/4/49 165/2/49 169/1/49
f 65/3/50 69/4/50 171/2/50 167/1/50
f 66/3/49 62/4/49 161/2/49 165/1/49
f 61/3/50 65/4/50 167/2/50 163/1/50
f 62/3/49 58/4/49 157/2/49 161/1/49
f 57/3/50 61/4/50 163/2/50 159/1/50
f 58/3/49 54/4/49 153/2/49 157/1/49
f 53/3/50 57/4/50 159/2/50 155/1/50
f 54/3/49 50/4/49 149/2/49 153/1/49
f 49/3/50 53/4/50 155/2/50 151/1/50
f 50/3/49 46/4/49 145/2/49 149/1/49
f 45/3/50 49/4/50 151/2/50 147/1/50
f 46/3/49 42/4/49 141/2/49 145/1/49
f 41/3/50 45/4/50 147/2/50 143/1/50
f 42/3/49 38/4/49 137/2/49 141/1/49
f 37/3/50 41/4/50 143/2/50 139/1/50
f 38/3/49 34/4/49 133/2/49 137/1/49
f 33/3/50 37/4/50 139/2/50 135/1/50
f 34/3/49 30/4/49 129/2/49 133/1/49
f 29/3/50 33/4/50 135/2/50 131/1/50
f 30/3/49 26/4/49 125/2/49 129/1/49
f 25/3/50 29/4/50 131/2/50 127/1/50
f 26/3/49 22/4/49 121/2/49 125/1/49
f 21/3/50 25/4/50 127/2/50 123/1/50
f 22/3/49 18/4/49 117/2/49 121/1/49
f 17/3/50 21/4/50 123/2/50 119/1/50
f 18/3/49 14/4/49 113/2/49 117/1/49
f 13/3/50 17/4/50 119/2/50 115/1/50
f 14/3/49 10/4/49 109/2/49 113/1/49
f 9/3/50 13/4/50 115/2/50 111/1/50
f 10/3/49 4/4/49 102/2/49 109/1/49
f 2/3/50 9/4/50 111/2/50 105/1/50
f 4/3/49 3/4/49 101/2/49 102/1/49
f 1/3/50 2/4/50 105/2/50 106/1/50

usemtl bm_grid_blank4
f 103/7/49 104/8/49 102/6/49 101/5/49
f 104/8/49 110/14/49 109/13/49 102/6/49
f 110/14/49 114/18/49 113/17/49 109/13/49
f 114/18/49 118/22/49 117/21/49 113/17/49
f 118/7/49 122/8/49 121/6/49 117/5/49
f 122/8/49 126/14/49 125/13/49 121/6/49
f 126/14/49 130/18/49 129/17/49 125/13/49
f 130/18/49 134/22/49 133/21/49 129/17/49
f 134/7/49 138/8/49 137/6/49 133/5/49
f 138/8/49 142/14/49 141/13/49 137/6/49
f 142/14/49 146/18/49 145/17/49 141/13/49
f 146/18/49 150/22/49 149/21/49 145/17/49
f 150/7/49 154/8/49 153/6/49 149/5/49
f 154/8/49 158/14/49 157/13/49 153/6/49
f 158/14/49 162/18/49 161/17/49 157/13/49
f 162/18/49 166/22/49 165/21/49 161/17/49
f 166/7/49 170/8/49 169/6/49 165/5/49
f 170/8/49 174/14/49 173/13/49 169/6/49
f 174/14/49 178/18/49 177/17/49 173/13/49
f 178/18/49 182/22/49 181/21/49 177/17/49
f 182/7/49 186/8/49 185/6/49 181/5/49
f 186/8/49 190/14/49 189/13/49 185/6/49
f 190/14/49 194/18/49 193/17/49 189/13/49
f 194/18/49 198/22/49 197/21/49 193/17/49

