# ProBuilder 4.5.2
# https://unity3d.com/unity/features/worldbuilding/probuilder
# 8/10/2023 12:52:31 PM

mtllib ./MudnessBMCurve.mtl
o MudnessBMCurve

g MudnessBM_Curve
v 0 0 0
v 1.341105E-07 -0.0418551 -0.9587132
v 4 1.28746E-05 0
v 4 -0.04184222 -0.9587131
v 1.728535E-06 -0.5399526 -0.9151368
v 1.609325E-06 -0.5 -1.370907E-06
v 4.000002 -0.5399398 -0.9151368
v 4.000001 -0.4999871 -1.430511E-06
v 5.364418E-07 -0.16711 -1.910131
v 4 -0.1670971 -1.910131
v 2.145767E-06 -0.6595142 -1.823308
v 4.000002 -0.6595013 -1.823308
v 1.192093E-06 -0.3748081 -2.84701
v 4.000001 -0.3747952 -2.847011
v 2.741814E-06 -0.8577712 -2.717602
v 4.000003 -0.8577583 -2.717602
v 2.145767E-06 -0.6633713 -3.762223
v 4.000002 -0.6633584 -3.762223
v 3.695488E-06 -1.133218 -3.591214
v 4.000004 -1.133205 -3.591214
v 3.33786E-06 -1.030602 -4.648804
v 4.000003 -1.030589 -4.648804
v 4.768372E-06 -1.483756 -4.437496
v 4.000005 -1.483743 -4.437496
v 4.768372E-06 -1.473705 -5.500004
v 4.000005 -1.473692 -5.500004
v 6.079674E-06 -1.906719 -5.250005
v 4.000006 -1.906706 -5.250005
v 6.437302E-06 -1.98931 -6.309346
v 4.000007 -1.989297 -6.309347
v 7.629395E-06 -2.398887 -6.022559
v 4.000008 -2.398874 -6.022559
v 8.34465E-06 -2.573492 -7.070671
v 4.000009 -2.573479 -7.070671
v 9.536743E-06 -2.956515 -6.749278
v 4.00001 -2.956502 -6.749278
v 1.0252E-05 -3.221804 -7.778183
v 4.00001 -3.221791 -7.778183
v 1.144409E-05 -3.575358 -7.424631
v 4.000011 -3.575346 -7.424631
v 1.263618E-05 -3.929313 -8.426499
v 4.000012 -3.9293 -8.426499
v 1.382828E-05 -4.250708 -8.043478
v 4.000014 -4.250696 -8.043478
v 1.525879E-05 -4.690634 -9.010685
v 4.000015 -4.690622 -9.010685
v 1.621246E-05 -4.977424 -8.60111
v 4.000016 -4.97741 -8.60111
v 1.764297E-05 -5.499975 -9.526295
v 4.000018 -5.499962 -9.526295
v 1.859665E-05 -5.749976 -9.093284
v 4.000019 -5.749962 -9.093283
v 2.0504E-05 -6.351171 -9.969403
v 4.000021 -6.351158 -9.969403
v 2.098083E-05 -6.562483 -9.516251
v 4.000021 -6.562469 -9.516251
v 2.336502E-05 -7.23775 -10.33664
v 4.000023 -7.237736 -10.33664
v 2.384186E-05 -7.408762 -9.866793
v 4.000024 -7.40875 -9.866793
v 2.670288E-05 -8.152961 -10.62521
v 4.000027 -8.152947 -10.62521
v 2.670288E-05 -8.282372 -10.14224
v 4.000027 -8.28236 -10.14224
v 2.95639E-05 -9.08984 -10.83291
v 4.00003 -9.089827 -10.83291
v 2.95639E-05 -9.176665 -10.34051
v 4.00003 -9.176652 -10.34051
v 3.242493E-05 -10.04126 -10.95817
v 4.000032 -10.04124 -10.95817
v 3.242493E-05 -10.08484 -10.46007
v 4.000032 -10.08482 -10.46007
v 3.528595E-05 -10.99997 -11.00003
v 4.000035 -10.99996 -11.00003
v 3.528595E-05 -10.99997 -10.50003
v 4.000035 -10.99996 -10.50003
v 3.814697E-05 -11.95868 -10.95817
v 4.000038 -11.95867 -10.95818
v 3.814697E-05 -11.91511 -10.46008
v 4.000038 -11.91509 -10.46008
v 4.196167E-05 -12.9101 -10.83292
v 4.000042 -12.91009 -10.83292
v 4.1008E-05 -12.82328 -10.34052
v 4.000041 -12.82326 -10.34052
v 4.482269E-05 -13.84698 -10.62522
v 4.000045 -13.84697 -10.62522
v 4.386902E-05 -13.71757 -10.14226
v 4.000044 -13.71756 -10.14226
v 4.768372E-05 -14.76219 -10.33666
v 4.000048 -14.76218 -10.33666
v 4.673004E-05 -14.59118 -9.866813
v 4.000047 -14.59117 -9.866813
v 5.054474E-05 -15.64877 -9.969428
v 4.000051 -15.64876 -9.969428
v 4.959106E-05 -15.43747 -9.516273
v 4.00005 -15.43745 -9.516273
v 5.340576E-05 -16.49997 -9.526324
v 4.000053 -16.49996 -9.526325
v 5.149841E-05 -16.24998 -9.093311
v 4.000051 -16.24996 -9.093311
v 5.531311E-05 -17.30932 -9.010719
v 4.000055 -17.3093 -9.010719
v 5.531311E-05 -17.02253 -8.601143
v 4.000055 -17.02251 -8.601143
v 5.722046E-05 -18.07064 -8.426538
v 4.000057 -18.07063 -8.426538
v 5.722046E-05 -17.74925 -8.043515
v 4.000057 -17.74924 -8.043515
v 6.103516E-05 -18.77815 -7.778226
v 4.000061 -18.77814 -7.778226
v 5.912781E-05 -18.4246 -7.424672
v 4.000059 -18.42459 -7.424672
v 6.29425E-05 -19.42647 -7.070717
v 4.000063 -19.42646 -7.070717
v 6.103516E-05 -19.04345 -6.749322
v 4.000061 -19.04344 -6.749322
v 6.484985E-05 -20.01066 -6.309396
v 4.000065 -20.01064 -6.309396
v 6.29425E-05 -19.60108 -6.022606
v 4.000063 -19.60107 -6.022606
v 6.67572E-05 -20.52626 -5.500057
v 4.000067 -20.52625 -5.500056
v 6.484985E-05 -20.09325 -5.250056
v 4.000065 -20.09324 -5.250055
v 6.67572E-05 -20.96937 -4.64886
v 4.000067 -20.96936 -4.648859
v 6.67572E-05 -20.51622 -4.437549
v 4.000067 -20.51621 -4.437549
v 6.866455E-05 -21.33661 -3.762281
v 4.000069 -21.3366 -3.762281
v 6.67572E-05 -20.86676 -3.591269
v 4.000067 -20.86675 -3.591269
v 6.866455E-05 -21.62518 -2.84707
v 4.000069 -21.62516 -2.84707
v 6.866455E-05 -21.14222 -2.717659
v 4.000069 -21.1422 -2.717659
v 7.05719E-05 -21.83288 -1.910191
v 4.000071 -21.83287 -1.910191
v 6.866455E-05 -21.34048 -1.823366
v 4.000069 -21.34046 -1.823365
v 7.05719E-05 -21.95814 -0.9587749
v 4.000071 -21.95812 -0.9587748
v 6.866455E-05 -21.46004 -0.9151955
v 4.000069 -21.46003 -0.9151957
v 7.05719E-05 -22 -5.935825E-05
v 4.000071 -21.99999 -5.936623E-05
v 6.866455E-05 -21.5 -5.803106E-05
v 4.000069 -21.49999 -5.793571E-05

vt 2 2
vt 2 1.5
vt 1.192093E-07 2
vt 1.192093E-07 1.5
vt 2.980232E-07 0.5
vt 3.576279E-07 1
vt 2 0.5
vt 2 1
vt 2 0.9999999
vt 2.384186E-07 0
vt 2 0
vt 2 9
vt 0 9
vt 2 10
vt 0 10
vt 2 8
vt 0 8

vn -3.215588E-06 0.9990484 -0.04361603
vn 3.216238E-06 -0.9990484 0.04361608
vn -3.185281E-06 0.9914451 -0.1305246
vn 3.202785E-06 -0.9914451 0.1305247
vn -3.142359E-06 0.9762967 -0.2164365
vn 3.142358E-06 -0.9762968 0.2164361
vn -3.087608E-06 0.9537176 -0.3007037
vn 3.069684E-06 -0.9537178 0.3007034
vn -2.973649E-06 0.9238806 -0.3826808
vn 2.973649E-06 -0.9238806 0.3826807
vn -2.854983E-06 0.8870123 -0.4617458
vn 2.854981E-06 -0.8870119 0.4617466
vn -2.714587E-06 0.8433928 -0.5372974
vn 2.714588E-06 -0.843393 0.5372972
vn -2.698672E-06 0.793355 -0.6087592
vn 2.553533E-06 -0.7933549 0.6087594
vn -2.373044E-06 0.7372792 -0.6755883
vn 2.373045E-06 -0.7372795 0.6755878
vn -2.086605E-06 0.6755921 -0.7372756
vn 2.093958E-06 -0.6755919 0.7372758
vn -2.031968E-06 0.6087636 -0.7933517
vn 2.031967E-06 -0.6087635 0.7933518
vn -1.665336E-06 0.5373018 -0.84339
vn 1.592362E-06 -0.5373029 0.8433894
vn -1.431172E-06 0.4617516 -0.8870093
vn 1.54126E-06 -0.4617508 0.8870097
vn -1.277351E-06 0.3826857 -0.9238786
vn 1.18611E-06 -0.3826851 0.9238788
vn -1.003722E-06 0.3007082 -0.9537162
vn 9.320303E-07 -0.3007091 0.9537159
vn -7.224534E-07 0.2164421 -0.9762955
vn 7.224497E-07 -0.216441 0.9762957
vn -4.35692E-07 0.1305304 -0.9914443
vn 4.356929E-07 -0.1305306 0.9914443
vn -1.352028E-07 0.04362168 -0.9990481
vn 1.456037E-07 -0.04362188 0.9990481
vn 1.455868E-07 -0.04361681 -0.9990484
vn -1.455865E-07 0.04361673 0.9990484
vn 1.681733E-07 -0.1305242 -0.9914451
vn -4.356719E-07 0.1305243 0.9914451
vn 7.224344E-07 -0.2164364 -0.9762967
vn -4.380652E-07 0.2164366 0.9762967
vn 1.003709E-06 -0.3007042 -0.9537175
vn -9.320108E-07 0.3007028 0.9537179
vn 1.277333E-06 -0.3826802 -0.9238809
vn -1.186098E-06 0.3826813 0.9238804
vn 1.431157E-06 -0.4617466 -0.8870119
vn -1.541244E-06 0.461746 0.8870122
vn 1.336138E-06 -0.537297 -0.8433931
vn -2.049627E-06 0.5372973 0.843393
vn 2.031953E-06 -0.6087591 -0.7933551
vn -2.031953E-06 0.6087591 0.7933551
vn 2.255017E-06 -0.6755877 -0.7372797
vn -2.16713E-06 0.6755887 0.7372788
vn 2.460923E-06 -0.7372756 -0.6755921
vn -2.46092E-06 0.7372747 0.6755931
vn 2.720666E-06 -0.7933514 -0.6087641
vn -2.720669E-06 0.7933522 0.6087629
vn 2.751068E-06 -0.8433905 -0.5373011
vn -2.879169E-06 0.8433899 0.5373021
vn 2.5928E-06 -0.8870099 -0.4617506
vn -2.960713E-06 0.8870093 0.4617516
vn 2.688856E-06 -0.923878 -0.3826871
vn -2.643241E-06 0.9238796 0.3826833
vn 3.183372E-06 -0.9537165 -0.3007074
vn -3.183367E-06 0.9537147 0.3007128
vn 2.780302E-06 -0.9762952 -0.2164431
vn -2.806107E-06 0.9762962 0.2164389
vn 3.301524E-06 -0.9914447 -0.1305274
vn -3.303467E-06 0.9914442 0.1305316
vn 3.335333E-06 -0.9990481 -0.04362362
vn -3.335723E-06 0.9990482 0.04362078
vn 1 2.861023E-06 -1.249054E-07
vn -1 -3.20104E-06 -1.36233E-10

usemtl bm_friction_mud
f 7/7/2 8/8/2 6/6/2 5/5/2
f 12/11/4 7/7/4 5/5/4 11/10/4
f 16/7/6 12/8/6 11/6/6 15/5/6
f 20/11/8 16/7/8 15/5/8 19/10/8
f 24/7/10 20/8/10 19/6/10 23/5/10
f 28/11/12 24/7/12 23/5/12 27/10/12
f 32/7/14 28/8/14 27/6/14 31/5/14
f 36/11/16 32/7/16 31/5/16 35/10/16
f 40/7/18 36/8/18 35/6/18 39/5/18
f 44/11/20 40/7/20 39/5/20 43/10/20
f 48/7/22 44/8/22 43/6/22 47/5/22
f 52/11/24 48/7/24 47/5/24 51/10/24
f 56/7/26 52/8/26 51/6/26 55/5/26
f 60/11/28 56/7/28 55/5/28 59/10/28
f 64/7/30 60/8/30 59/6/30 63/5/30
f 68/11/32 64/7/32 63/5/32 67/10/32
f 72/7/34 68/8/34 67/6/34 71/5/34
f 76/11/36 72/7/36 71/5/36 75/10/36
f 80/7/38 76/8/38 75/6/38 79/5/38
f 84/11/40 80/7/40 79/5/40 83/10/40
f 88/7/42 84/8/42 83/6/42 87/5/42
f 92/11/44 88/7/44 87/5/44 91/10/44
f 96/7/46 92/8/46 91/6/46 95/5/46
f 100/11/48 96/7/48 95/5/48 99/10/48
f 104/7/50 100/8/50 99/6/50 103/5/50
f 108/11/52 104/7/52 103/5/52 107/10/52
f 112/7/54 108/8/54 107/6/54 111/5/54
f 116/11/56 112/7/56 111/5/56 115/10/56
f 120/7/58 116/8/58 115/6/58 119/5/58
f 124/11/60 120/7/60 119/5/60 123/10/60
f 128/7/62 124/8/62 123/6/62 127/5/62
f 132/11/64 128/7/64 127/5/64 131/10/64
f 136/7/66 132/8/66 131/6/66 135/5/66
f 140/11/68 136/7/68 135/5/68 139/10/68
f 144/7/70 140/8/70 139/6/70 143/5/70
f 148/11/72 144/7/72 143/5/72 147/10/72

usemtl bm_edge_white
f 8/14/73 7/15/73 4/13/73 3/12/73
f 5/12/74 6/13/74 1/17/74 2/16/74
f 7/14/73 12/15/73 10/13/73 4/12/73
f 11/12/74 5/13/74 2/17/74 9/16/74
f 12/14/73 16/15/73 14/13/73 10/12/73
f 15/12/74 11/13/74 9/17/74 13/16/74
f 16/14/73 20/15/73 18/13/73 14/12/73
f 19/12/74 15/13/74 13/17/74 17/16/74
f 20/14/73 24/15/73 22/13/73 18/12/73
f 23/12/74 19/13/74 17/17/74 21/16/74
f 24/14/73 28/15/73 26/13/73 22/12/73
f 27/12/74 23/13/74 21/17/74 25/16/74
f 28/14/73 32/15/73 30/13/73 26/12/73
f 31/12/74 27/13/74 25/17/74 29/16/74
f 32/14/73 36/15/73 34/13/73 30/12/73
f 35/12/74 31/13/74 29/17/74 33/16/74
f 36/14/73 40/15/73 38/13/73 34/12/73
f 39/12/74 35/13/74 33/17/74 37/16/74
f 40/14/73 44/15/73 42/13/73 38/12/73
f 43/12/74 39/13/74 37/17/74 41/16/74
f 44/14/73 48/15/73 46/13/73 42/12/73
f 47/12/74 43/13/74 41/17/74 45/16/74
f 48/14/73 52/15/73 50/13/73 46/12/73
f 51/12/74 47/13/74 45/17/74 49/16/74
f 52/14/73 56/15/73 54/13/73 50/12/73
f 55/12/74 51/13/74 49/17/74 53/16/74
f 56/14/73 60/15/73 58/13/73 54/12/73
f 59/12/74 55/13/74 53/17/74 57/16/74
f 60/14/73 64/15/73 62/13/73 58/12/73
f 63/12/74 59/13/74 57/17/74 61/16/74
f 64/14/73 68/15/73 66/13/73 62/12/73
f 67/12/74 63/13/74 61/17/74 65/16/74
f 68/14/73 72/15/73 70/13/73 66/12/73
f 71/12/74 67/13/74 65/17/74 69/16/74
f 72/14/73 76/15/73 74/13/73 70/12/73
f 75/12/74 71/13/74 69/17/74 73/16/74
f 76/14/73 80/15/73 78/13/73 74/12/73
f 79/12/74 75/13/74 73/17/74 77/16/74
f 80/14/73 84/15/73 82/13/73 78/12/73
f 83/12/74 79/13/74 77/17/74 81/16/74
f 84/14/73 88/15/73 86/13/73 82/12/73
f 87/12/74 83/13/74 81/17/74 85/16/74
f 88/14/73 92/15/73 90/13/73 86/12/73
f 91/12/74 87/13/74 85/17/74 89/16/74
f 92/14/73 96/15/73 94/13/73 90/12/73
f 95/12/74 91/13/74 89/17/74 93/16/74
f 96/14/73 100/15/73 98/13/73 94/12/73
f 99/12/74 95/13/74 93/17/74 97/16/74
f 100/14/73 104/15/73 102/13/73 98/12/73
f 103/12/74 99/13/74 97/17/74 101/16/74
f 104/14/73 108/15/73 106/13/73 102/12/73
f 107/12/74 103/13/74 101/17/74 105/16/74
f 108/14/73 112/15/73 110/13/73 106/12/73
f 111/12/74 107/13/74 105/17/74 109/16/74
f 112/14/73 116/15/73 114/13/73 110/12/73
f 115/12/74 111/13/74 109/17/74 113/16/74
f 116/14/73 120/15/73 118/13/73 114/12/73
f 119/12/74 115/13/74 113/17/74 117/16/74
f 120/14/73 124/15/73 122/13/73 118/12/73
f 123/12/74 119/13/74 117/17/74 121/16/74
f 124/14/73 128/15/73 126/13/73 122/12/73
f 127/12/74 123/13/74 121/17/74 125/16/74
f 128/14/73 132/15/73 130/13/73 126/12/73
f 131/12/74 127/13/74 125/17/74 129/16/74
f 132/14/73 136/15/73 134/13/73 130/12/73
f 135/12/74 131/13/74 129/17/74 133/16/74
f 136/14/73 140/15/73 138/13/73 134/12/73
f 139/12/74 135/13/74 133/17/74 137/16/74
f 140/14/73 144/15/73 142/13/73 138/12/73
f 143/12/74 139/13/74 137/17/74 141/16/74
f 144/14/73 148/15/73 146/13/73 142/12/73
f 147/12/74 143/13/74 141/17/74 145/16/74

usemtl bm_grid_blank2
f 3/3/1 4/4/1 2/2/1 1/1/1
f 4/4/3 10/6/3 9/9/3 2/2/3
f 10/3/5 14/4/5 13/2/5 9/1/5
f 14/4/7 18/6/7 17/9/7 13/2/7
f 18/3/9 22/4/9 21/2/9 17/1/9
f 22/4/11 26/6/11 25/9/11 21/2/11
f 26/3/13 30/4/13 29/2/13 25/1/13
f 30/4/15 34/6/15 33/9/15 29/2/15
f 34/3/17 38/4/17 37/2/17 33/1/17
f 38/4/19 42/6/19 41/9/19 37/2/19
f 42/3/21 46/4/21 45/2/21 41/1/21
f 46/4/23 50/6/23 49/9/23 45/2/23
f 50/3/25 54/4/25 53/2/25 49/1/25
f 54/4/27 58/6/27 57/9/27 53/2/27
f 58/3/29 62/4/29 61/2/29 57/1/29
f 62/4/31 66/6/31 65/9/31 61/2/31
f 66/3/33 70/4/33 69/2/33 65/1/33
f 70/4/35 74/6/35 73/9/35 69/2/35
f 74/3/37 78/4/37 77/2/37 73/1/37
f 78/4/39 82/6/39 81/9/39 77/2/39
f 82/3/41 86/4/41 85/2/41 81/1/41
f 86/4/43 90/6/43 89/9/43 85/2/43
f 90/3/45 94/4/45 93/2/45 89/1/45
f 94/4/47 98/6/47 97/9/47 93/2/47
f 98/3/49 102/4/49 101/2/49 97/1/49
f 102/4/51 106/6/51 105/9/51 101/2/51
f 106/3/53 110/4/53 109/2/53 105/1/53
f 110/4/55 114/6/55 113/9/55 109/2/55
f 114/3/57 118/4/57 117/2/57 113/1/57
f 118/4/59 122/6/59 121/9/59 117/2/59
f 122/3/61 126/4/61 125/2/61 121/1/61
f 126/4/63 130/6/63 129/9/63 125/2/63
f 130/3/65 134/4/65 133/2/65 129/1/65
f 134/4/67 138/6/67 137/9/67 133/2/67
f 138/3/69 142/4/69 141/2/69 137/1/69
f 142/4/71 146/6/71 145/9/71 141/2/71

