# ProBuilder 4.5.2
# https://unity3d.com/unity/features/worldbuilding/probuilder
# 7/28/2023 6:57:24 PM

mtllib ./VanillaPassTrimCircle1BM.mtl
o VanillaPassTrimCircle1BM

g VanillaPassTrimCircle1BM
v 0.03849792 0 0.5873679
v 0 0 0
v 0.03849792 0.5 0.5873679
v 0 0.5 0
v 0.1533337 0 1.164686
v 0.1533337 0.5 1.164686
v 0.3425422 0 1.722076
v 0.3425422 0.5 1.722076
v 0.6028857 0 2.25
v 0.6028857 0.5 2.25
v 0.9299102 0 2.739426
v 0.9299102 0.5 2.739426
v 1.31802 0 3.18198
v 1.31802 0.5 3.18198
v 1.760574 0 3.57009
v 1.760574 0.5 3.57009
v 2.25 0 3.897115
v 2.25 0.5 3.897115
v 2.777925 0 4.157458
v 2.777925 0.5 4.157458
v 3.335314 0 4.346666
v 3.335314 0.5 4.346666
v 3.912632 0 4.461502
v 3.912632 0.5 4.461502
v 4.5 0 4.5
v 4.5 0.5 4.5
v 5.087368 0 4.461502
v 5.087368 0.5 4.461502
v 5.664686 0 4.346666
v 5.664686 0.5 4.346666
v 6.222075 0 4.157458
v 6.222075 0.5 4.157458
v 6.75 0 3.897114
v 6.75 0.5 3.897114
v 7.239427 0 3.57009
v 7.239427 0.5 3.57009
v 7.68198 0 3.18198
v 7.68198 0.5 3.18198
v 8.070089 0 2.739426
v 8.070089 0.5 2.739426
v 8.397114 0 2.25
v 8.397114 0.5 2.25
v 8.657457 0 1.722076
v 8.657457 0.5 1.722076
v 8.846666 0 1.164686
v 8.846666 0.5 1.164686
v 8.961502 0 0.5873684
v 8.961502 0.5 0.5873684
v 9 0 -3.934025E-07
v 9 0.5 -3.934025E-07
v 8.961502 0 -0.5873682
v 8.961502 0.5 -0.5873682
v 8.846666 0 -1.164686
v 8.846666 0.5 -1.164686
v 8.657457 0 -1.722075
v 8.657457 0.5 -1.722075
v 8.397114 0 -2.25
v 8.397114 0.5 -2.25
v 8.07009 0 -2.739426
v 8.07009 0.5 -2.739426
v 7.681981 0 -3.18198
v 7.681981 0.5 -3.18198
v 7.239427 0 -3.57009
v 7.239427 0.5 -3.57009
v 6.75 0 -3.897115
v 6.75 0.5 -3.897115
v 6.222076 0 -4.157458
v 6.222076 0.5 -4.157458
v 5.664685 0 -4.346666
v 5.664685 0.5 -4.346666
v 5.087369 0 -4.461502
v 5.087369 0.5 -4.461502
v 4.5 0 -4.5
v 4.5 0.5 -4.5
v 3.912633 0 -4.461502
v 3.912633 0.5 -4.461502
v 3.335314 0 -4.346666
v 3.335314 0.5 -4.346666
v 2.777924 0 -4.157457
v 2.777924 0.5 -4.157457
v 2.25 0 -3.897115
v 2.25 0.5 -3.897115
v 1.760573 0 -3.57009
v 1.760573 0.5 -3.57009
v 1.31802 0 -3.181981
v 1.31802 0.5 -3.181981
v 0.9299097 0 -2.739426
v 0.9299097 0.5 -2.739426
v 0.602886 0 -2.250001
v 0.602886 0.5 -2.250001
v 0.3425422 0 -1.722075
v 0.3425422 0.5 -1.722075
v 0.1533341 0 -1.164687
v 0.1533341 0.5 -1.164687
v 0.03849792 0 -0.587368
v 0.03849792 0.5 -0.587368
v 0.5 0 0
v 0.5342205 0 0.5221048
v 0.5342205 0.5 0.5221048
v 0.5 0.5 0
v 0.6362967 0 1.035276
v 0.6362967 0.5 1.035276
v 0.804482 0 1.530734
v 0.804482 0.5 1.530734
v 1.035898 0 2
v 1.035898 0.5 2
v 1.326587 0 2.435046
v 1.326587 0.5 2.435046
v 1.671573 0 2.828427
v 1.671573 0.5 2.828427
v 2.064954 0 3.173413
v 2.064954 0.5 3.173413
v 2.5 0 3.464102
v 2.5 0.5 3.464102
v 2.969266 0 3.695518
v 2.969266 0.5 3.695518
v 3.464724 0 3.863703
v 3.464724 0.5 3.863703
v 3.977895 0 3.965779
v 3.977895 0.5 3.965779
v 4.5 0 4
v 4.5 0.5 4
v 5.022105 0 3.96578
v 5.022105 0.5 3.96578
v 5.535276 0 3.863703
v 5.535276 0.5 3.863703
v 6.030734 0 3.695518
v 6.030734 0.5 3.695518
v 6.5 0 3.464102
v 6.5 0.5 3.464102
v 6.935046 0 3.173413
v 6.935046 0.5 3.173413
v 7.328427 0 2.828427
v 7.328427 0.5 2.828427
v 7.673413 0 2.435046
v 7.673413 0.5 2.435046
v 7.964102 0 2
v 7.964102 0.5 2
v 8.195518 0 1.530734
v 8.195518 0.5 1.530734
v 8.363703 0 1.035277
v 8.363703 0.5 1.035277
v 8.465779 0 0.5221053
v 8.465779 0.5 0.5221053
v 8.5 0 -3.496911E-07
v 8.5 0.5 -3.496911E-07
v 8.465779 0 -0.522105
v 8.465779 0.5 -0.522105
v 8.363703 0 -1.035276
v 8.363703 0.5 -1.035276
v 8.195518 0 -1.530734
v 8.195518 0.5 -1.530734
v 7.964102 0 -2
v 7.964102 0.5 -2
v 7.673413 0 -2.435045
v 7.673413 0.5 -2.435045
v 7.328427 0 -2.828427
v 7.328427 0.5 -2.828427
v 6.935046 0 -3.173413
v 6.935046 0.5 -3.173413
v 6.5 0 -3.464102
v 6.5 0.5 -3.464102
v 6.030734 0 -3.695518
v 6.030734 0.5 -3.695518
v 5.535276 0 -3.863703
v 5.535276 0.5 -3.863703
v 5.022106 0 -3.965779
v 5.022106 0.5 -3.965779
v 4.5 0 -4
v 4.5 0.5 -4
v 3.977896 0 -3.96578
v 3.977896 0.5 -3.96578
v 3.464724 0 -3.863703
v 3.464724 0.5 -3.863703
v 2.969265 0 -3.695518
v 2.969265 0.5 -3.695518
v 2.5 0 -3.464102
v 2.5 0.5 -3.464102
v 2.064954 0 -3.173413
v 2.064954 0.5 -3.173413
v 1.671573 0 -2.828428
v 1.671573 0.5 -2.828428
v 1.326586 0 -2.435045
v 1.326586 0.5 -2.435045
v 1.035899 0 -2.000001
v 1.035899 0.5 -2.000001
v 0.8044817 0 -1.530734
v 0.8044817 0.5 -1.530734
v 0.636297 0 -1.035277
v 0.636297 0.5 -1.035277
v 0.5342205 0 -0.5221049
v 0.5342205 0.5 -0.5221049

vt 1 0
vt 0 0
vt 1 1
vt 0 1

vn -0.9978589 0 0.06540279
vn -0.9807853 0 0.1950905
vn -0.9469301 0 0.3214397
vn -0.8968727 0 0.4422887
vn -0.8314694 0 0.5555705
vn -0.7518398 0 0.6593458
vn -0.6593458 0 0.7518398
vn -0.5555706 0 0.8314694
vn -0.4422885 0 0.8968728
vn -0.3214398 0 0.9469301
vn -0.1950897 0 0.9807854
vn -0.06540358 0 0.9978589
vn 0.06540278 0 0.9978589
vn 0.1950905 0 0.9807853
vn 0.3214398 0 0.9469301
vn 0.4422887 0 0.8968728
vn 0.5555703 0 0.8314696
vn 0.6593462 0 0.7518395
vn 0.7518399 0 0.6593456
vn 0.8314694 0 0.5555707
vn 0.8968728 0 0.4422887
vn 0.9469298 0 0.3214405
vn 0.9807853 0 0.1950905
vn 0.9978589 0 0.06540269
vn 0.9978589 0 -0.06540281
vn 0.9807853 0 -0.1950905
vn 0.9469298 0 -0.3214405
vn 0.8968727 0 -0.4422888
vn 0.8314702 0 -0.5555694
vn 0.7518396 0 -0.659346
vn 0.6593458 0 -0.7518398
vn 0.5555705 0 -0.8314695
vn 0.442289 0 -0.8968726
vn 0.3214393 0 -0.9469302
vn 0.1950902 0 -0.9807853
vn 0.06540348 0 -0.9978589
vn -0.06540291 0 -0.9978589
vn -0.1950901 0 -0.9807853
vn -0.3214401 0 -0.9469299
vn -0.4422885 0 -0.8968729
vn -0.5555701 0 -0.8314697
vn -0.6593459 0 -0.7518398
vn -0.7518397 0 -0.659346
vn -0.8314695 0 -0.5555704
vn -0.8968728 0 -0.4422885
vn -0.9469301 0 -0.3214396
vn -0.9807852 0 -0.1950909
vn -0.9978589 0 -0.06540278
vn 0 -1 0
vn 0 1 0

usemtl bm_edge_white
f 3/3/1 4/4/1 2/2/1 1/1/1
f 6/3/2 3/4/2 1/2/2 5/1/2
f 8/3/3 6/4/3 5/2/3 7/1/3
f 10/3/4 8/4/4 7/2/4 9/1/4
f 12/3/5 10/4/5 9/2/5 11/1/5
f 14/3/6 12/4/6 11/2/6 13/1/6
f 16/3/7 14/4/7 13/2/7 15/1/7
f 18/3/8 16/4/8 15/2/8 17/1/8
f 20/3/9 18/4/9 17/2/9 19/1/9
f 22/3/10 20/4/10 19/2/10 21/1/10
f 24/3/11 22/4/11 21/2/11 23/1/11
f 26/3/12 24/4/12 23/2/12 25/1/12
f 28/3/13 26/4/13 25/2/13 27/1/13
f 30/3/14 28/4/14 27/2/14 29/1/14
f 32/3/15 30/4/15 29/2/15 31/1/15
f 34/3/16 32/4/16 31/2/16 33/1/16
f 36/3/17 34/4/17 33/2/17 35/1/17
f 38/3/18 36/4/18 35/2/18 37/1/18
f 40/3/19 38/4/19 37/2/19 39/1/19
f 42/3/20 40/4/20 39/2/20 41/1/20
f 44/3/21 42/4/21 41/2/21 43/1/21
f 46/3/22 44/4/22 43/2/22 45/1/22
f 48/3/23 46/4/23 45/2/23 47/1/23
f 50/3/24 48/4/24 47/2/24 49/1/24
f 52/3/25 50/4/25 49/2/25 51/1/25
f 54/3/26 52/4/26 51/2/26 53/1/26
f 56/3/27 54/4/27 53/2/27 55/1/27
f 58/3/28 56/4/28 55/2/28 57/1/28
f 60/3/29 58/4/29 57/2/29 59/1/29
f 62/3/30 60/4/30 59/2/30 61/1/30
f 64/3/31 62/4/31 61/2/31 63/1/31
f 66/3/32 64/4/32 63/2/32 65/1/32
f 68/3/33 66/4/33 65/2/33 67/1/33
f 70/3/34 68/4/34 67/2/34 69/1/34
f 72/3/35 70/4/35 69/2/35 71/1/35
f 74/3/36 72/4/36 71/2/36 73/1/36
f 76/3/37 74/4/37 73/2/37 75/1/37
f 78/3/38 76/4/38 75/2/38 77/1/38
f 80/3/39 78/4/39 77/2/39 79/1/39
f 82/3/40 80/4/40 79/2/40 81/1/40
f 84/3/41 82/4/41 81/2/41 83/1/41
f 86/3/42 84/4/42 83/2/42 85/1/42
f 88/3/43 86/4/43 85/2/43 87/1/43
f 90/3/44 88/4/44 87/2/44 89/1/44
f 92/3/45 90/4/45 89/2/45 91/1/45
f 94/3/46 92/4/46 91/2/46 93/1/46
f 96/3/47 94/4/47 93/2/47 95/1/47
f 4/3/48 96/4/48 95/2/48 2/1/48
f 97/3/49 98/4/49 1/2/49 2/1/49
f 99/3/50 100/4/50 4/2/50 3/1/50
f 98/3/49 101/4/49 5/2/49 1/1/49
f 102/3/50 99/4/50 3/2/50 6/1/50
f 101/3/49 103/4/49 7/2/49 5/1/49
f 104/3/50 102/4/50 6/2/50 8/1/50
f 103/3/49 105/4/49 9/2/49 7/1/49
f 106/3/50 104/4/50 8/2/50 10/1/50
f 105/3/49 107/4/49 11/2/49 9/1/49
f 108/3/50 106/4/50 10/2/50 12/1/50
f 107/3/49 109/4/49 13/2/49 11/1/49
f 110/3/50 108/4/50 12/2/50 14/1/50
f 109/3/49 111/4/49 15/2/49 13/1/49
f 112/3/50 110/4/50 14/2/50 16/1/50
f 111/3/49 113/4/49 17/2/49 15/1/49
f 114/3/50 112/4/50 16/2/50 18/1/50
f 113/3/49 115/4/49 19/2/49 17/1/49
f 116/3/50 114/4/50 18/2/50 20/1/50
f 115/3/49 117/4/49 21/2/49 19/1/49
f 118/3/50 116/4/50 20/2/50 22/1/50
f 117/3/49 119/4/49 23/2/49 21/1/49
f 120/3/50 118/4/50 22/2/50 24/1/50
f 119/3/49 121/4/49 25/2/49 23/1/49
f 122/3/50 120/4/50 24/2/50 26/1/50
f 121/3/49 123/4/49 27/2/49 25/1/49
f 124/3/50 122/4/50 26/2/50 28/1/50
f 123/3/49 125/4/49 29/2/49 27/1/49
f 126/3/50 124/4/50 28/2/50 30/1/50
f 125/3/49 127/4/49 31/2/49 29/1/49
f 128/3/50 126/4/50 30/2/50 32/1/50
f 127/3/49 129/4/49 33/2/49 31/1/49
f 130/3/50 128/4/50 32/2/50 34/1/50
f 129/3/49 131/4/49 35/2/49 33/1/49
f 132/3/50 130/4/50 34/2/50 36/1/50
f 131/3/49 133/4/49 37/2/49 35/1/49
f 134/3/50 132/4/50 36/2/50 38/1/50
f 133/3/49 135/4/49 39/2/49 37/1/49
f 136/3/50 134/4/50 38/2/50 40/1/50
f 135/3/49 137/4/49 41/2/49 39/1/49
f 138/3/50 136/4/50 40/2/50 42/1/50
f 137/3/49 139/4/49 43/2/49 41/1/49
f 140/3/50 138/4/50 42/2/50 44/1/50
f 139/3/49 141/4/49 45/2/49 43/1/49
f 142/3/50 140/4/50 44/2/50 46/1/50
f 141/3/49 143/4/49 47/2/49 45/1/49
f 144/3/50 142/4/50 46/2/50 48/1/50
f 143/3/49 145/4/49 49/2/49 47/1/49
f 146/3/50 144/4/50 48/2/50 50/1/50
f 145/3/49 147/4/49 51/2/49 49/1/49
f 148/3/50 146/4/50 50/2/50 52/1/50
f 147/3/49 149/4/49 53/2/49 51/1/49
f 150/3/50 148/4/50 52/2/50 54/1/50
f 149/3/49 151/4/49 55/2/49 53/1/49
f 152/3/50 150/4/50 54/2/50 56/1/50
f 151/3/49 153/4/49 57/2/49 55/1/49
f 154/3/50 152/4/50 56/2/50 58/1/50
f 153/3/49 155/4/49 59/2/49 57/1/49
f 156/3/50 154/4/50 58/2/50 60/1/50
f 155/3/49 157/4/49 61/2/49 59/1/49
f 158/3/50 156/4/50 60/2/50 62/1/50
f 157/3/49 159/4/49 63/2/49 61/1/49
f 160/3/50 158/4/50 62/2/50 64/1/50
f 159/3/49 161/4/49 65/2/49 63/1/49
f 162/3/50 160/4/50 64/2/50 66/1/50
f 161/3/49 163/4/49 67/2/49 65/1/49
f 164/3/50 162/4/50 66/2/50 68/1/50
f 163/3/49 165/4/49 69/2/49 67/1/49
f 166/3/50 164/4/50 68/2/50 70/1/50
f 165/3/49 167/4/49 71/2/49 69/1/49
f 168/3/50 166/4/50 70/2/50 72/1/50
f 167/3/49 169/4/49 73/2/49 71/1/49
f 170/3/50 168/4/50 72/2/50 74/1/50
f 169/3/49 171/4/49 75/2/49 73/1/49
f 172/3/50 170/4/50 74/2/50 76/1/50
f 171/3/49 173/4/49 77/2/49 75/1/49
f 174/3/50 172/4/50 76/2/50 78/1/50
f 173/3/49 175/4/49 79/2/49 77/1/49
f 176/3/50 174/4/50 78/2/50 80/1/50
f 175/3/49 177/4/49 81/2/49 79/1/49
f 178/3/50 176/4/50 80/2/50 82/1/50
f 177/3/49 179/4/49 83/2/49 81/1/49
f 180/3/50 178/4/50 82/2/50 84/1/50
f 179/3/49 181/4/49 85/2/49 83/1/49
f 182/3/50 180/4/50 84/2/50 86/1/50
f 181/3/49 183/4/49 87/2/49 85/1/49
f 184/3/50 182/4/50 86/2/50 88/1/50
f 183/3/49 185/4/49 89/2/49 87/1/49
f 186/3/50 184/4/50 88/2/50 90/1/50
f 185/3/49 187/4/49 91/2/49 89/1/49
f 188/3/50 186/4/50 90/2/50 92/1/50
f 187/3/49 189/4/49 93/2/49 91/1/49
f 190/3/50 188/4/50 92/2/50 94/1/50
f 189/3/49 191/4/49 95/2/49 93/1/49
f 192/3/50 190/4/50 94/2/50 96/1/50
f 191/3/49 97/4/49 2/2/49 95/1/49
f 100/3/50 192/4/50 96/2/50 4/1/50

