# ProBuilder 4.5.2
# https://unity3d.com/unity/features/worldbuilding/probuilder
# 7/28/2023 6:56:02 PM

mtllib ./VanillaPassTrimCurve2BM.mtl
o VanillaPassTrimCurve2BM

g VanillaPassTrimCurve2BM
v -4.830894E-07 1.342084E-08 0.500001
v -0.6371123 0.03129864 0.5000024
v 2.486664E-06 -3.161011E-07 1
v -0.637109 0.03129858 1.000002
v -0.5881029 0.5288917 0.5000025
v -4.830898E-07 0.5000001 0.500001
v -0.5881006 0.528891 1.000002
v 2.307851E-06 0.4999997 1
v -1.268088 0.1248956 0.5000044
v -1.268085 0.1248952 1.000003
v -1.170543 0.6152884 0.5000044
v -1.17054 0.6152879 1.000003
v -1.886851 0.2798873 0.5000058
v -1.886848 0.2798866 1.000005
v -1.74171 0.7583578 0.5000058
v -1.741706 0.7583573 1.000005
v -2.487443 0.4947824 0.5000073
v -2.487441 0.4947822 1.000006
v -2.296102 0.9567225 0.5000072
v -2.296099 0.9567223 1.000006
v -3.064081 0.7675104 0.5000086
v -3.064077 0.7675102 1.000008
v -2.828382 1.208471 0.5000086
v -2.828379 1.208471 1.000007
v -3.611209 1.095447 0.5000106
v -3.611205 1.095446 1.000009
v -3.333423 1.511182 0.5000096
v -3.33342 1.511181 1.000009
v -4.123559 1.475431 0.5000115
v -4.123555 1.47543 1.000011
v -3.806362 1.861936 0.500011
v -3.806359 1.861935 1.00001
v -4.596196 1.903806 0.5000129
v -4.596192 1.903804 1.000012
v -4.242642 2.25736 0.5000125
v -4.24264 2.257358 1.000011
v -5.02457 2.376443 0.5000144
v -5.024567 2.376441 1.000013
v -4.638065 2.69364 0.5000134
v -4.638062 2.693639 1.000012
v -5.404556 2.888793 0.5000153
v -5.404552 2.888792 1.000014
v -4.98882 3.166578 0.5000144
v -4.988817 3.166576 1.000013
v -5.732491 3.435921 0.5000163
v -5.732488 3.435919 1.000015
v -5.29153 3.671618 0.5000153
v -5.291527 3.671618 1.000014
v -6.00522 4.012557 0.5000172
v -6.005217 4.012555 1.000016
v -5.543281 4.203899 0.5000162
v -5.543276 4.203898 1.000015
v -6.220118 4.613148 0.5000176
v -6.220112 4.613147 1.000017
v -5.741645 4.758293 0.5000167
v -5.741642 4.758291 1.000016
v -6.375109 5.231912 0.5000187
v -6.375104 5.231911 1.000018
v -5.884716 5.329458 0.5000172
v -5.884711 5.329456 1.000016
v -6.468706 5.862889 0.5000191
v -6.468701 5.862887 1.000018
v -5.971113 5.911897 0.5000176
v -5.971108 5.911895 1.000017
v -6.500006 6.500001 0.5000191
v -6.500001 6.499999 1.000018
v -6.000006 6.5 0.5000181
v -6.000001 6.5 1.000017
v -6.468706 7.137111 0.5000191
v -6.468702 7.137109 1.000018
v -5.971113 7.088104 0.5000182
v -5.971109 7.088101 1.000017
v -6.375109 7.768088 0.5000191
v -6.375105 7.768085 1.000018
v -5.884716 7.670543 0.5000182
v -5.884712 7.67054 1.000017
v -6.220118 8.386852 0.5000191
v -6.220113 8.386848 1.000018
v -5.741647 8.241709 0.5000178
v -5.741643 8.241707 1.000017
v -6.005222 8.987444 0.5000187
v -6.005219 8.98744 1.000018
v -5.543283 8.796102 0.5000177
v -5.543278 8.796099 1.000017
v -5.732494 9.56408 0.5000182
v -5.732491 9.564077 1.000017
v -5.291533 9.328381 0.5000172
v -5.291529 9.328379 1.000016
v -5.404558 10.11121 0.5000177
v -5.404555 10.11121 1.000017
v -4.988824 9.833424 0.5000167
v -4.98882 9.83342 1.000015
v -5.024574 10.62356 0.5000167
v -5.02457 10.62355 1.000016
v -4.638069 10.30636 0.5000158
v -4.638065 10.30636 1.000015
v -4.5962 11.0962 0.5000158
v -4.596196 11.09619 1.000015
v -4.242647 10.74264 0.5000148
v -4.242642 10.74264 1.000014
v -4.123561 11.52457 0.5000148
v -4.123558 11.52457 1.000014
v -3.806365 11.13807 0.5000139
v -3.806362 11.13806 1.000013
v -3.611213 11.90456 0.5000139
v -3.611208 11.90455 1.000013
v -3.333427 11.48882 0.5000129
v -3.333423 11.48882 1.000012
v -3.064087 12.23249 0.5000125
v -3.064082 12.23249 1.000011
v -2.828387 11.79153 0.500012
v -2.828383 11.79153 1.000011
v -2.487449 12.50522 0.500011
v -2.487445 12.50522 1.00001
v -2.296108 12.04328 0.5000106
v -2.296103 12.04328 1.00001
v -1.886857 12.72012 0.5000096
v -1.886853 12.72011 1.000009
v -1.741714 12.24165 0.5000091
v -1.741711 12.24164 1.000008
v -1.268092 12.87511 0.5000082
v -1.268089 12.87511 1.000007
v -1.170547 12.38472 0.5000077
v -1.170544 12.38471 1.000007
v -0.6371162 12.96871 0.5000068
v -0.6371135 12.9687 1.000006
v -0.588109 12.47111 0.5000063
v -0.5881049 12.47111 1.000005
v -4.417006E-06 13.00001 0.5000053
v -1.713459E-06 13 1.000004
v -4.59582E-06 12.50001 0.5000048
v -1.75717E-06 12.5 1.000004
v 0.6371055 12.96871 0.5000034
v 0.6371085 12.9687 1.000003
v 0.5880979 12.47111 0.5000033
v 0.5881 12.47111 1.000003
v 1.268081 12.87511 0.500002
v 1.268085 12.87511 1.000001
v 1.170537 12.38472 0.500002
v 1.170539 12.38471 1.000001
v 1.886846 12.72012 0.5000005
v 1.886848 12.72011 0.9999993
v 1.741703 12.24165 0.5000005
v 1.741706 12.24164 0.9999995
v 2.487438 12.50522 0.4999986
v 2.48744 12.50522 0.9999977
v 2.296096 12.04328 0.4999991
v 2.296098 12.04328 0.9999981
v 2.718408 12.40955 0.499997
v 2.71841 12.40955 0.9999961
v 2.527067 11.94761 0.4999975
v 2.527069 11.94761 0.9999965
v 2.718407 12.40956 -3.499993
v 2.487439 12.50523 -3.49999
v 2.296097 12.04329 -3.499991
v 2.527066 11.94762 -3.499992

vt 2.980232E-08 1
vt 1 1
vt 0 2.980232E-08
vt 1 0
vt 1 0.9999988
vt 2.980232E-08 0.9999989
vt -1 -2.500001
vt -2.384186E-07 -2.500001
vt -1 -2.999999
vt -7.152557E-07 -2.999999
vt -1.490116E-07 -3.5
vt -1 -3.5
vt 0 -3.000001
vt -0.9999999 -3.000001
vt -1.192093E-07 1.999988
vt -1.192093E-07 2.999988
vt 0.5000001 1.999988
vt 0.5000001 2.999988
vt 8 -3
vt 8 -2.500001
vt -2.384186E-07 -3.5
vt 8 -3.5
vt 8 -3.000001
vt -1.490116E-07 -2
vt -1.490116E-07 -1
vt 8 -2
vt 8 -0.9999996

vn -0.04906663 -0.9987955 -3.668193E-07
vn 0.04906758 0.9987954 1.075752E-06
vn -0.1467313 -0.9891763 8.441276E-07
vn 0.1467303 0.9891765 1.38738E-07
vn -0.2429796 -0.9700314 9.282456E-07
vn 0.2429793 0.9700314 -8.128316E-07
vn -0.3368898 -0.9415441 8.217733E-07
vn 0.3368901 0.941544 -1.478741E-06
vn -0.4275535 -0.90399 1.811555E-06
vn 0.4275537 0.90399 -2.650362E-06
vn -0.5141028 -0.8577285 3.513302E-06
vn 0.5141029 0.8577285 -2.12373E-06
vn -0.5956987 -0.8032079 3.963935E-06
vn 0.5956984 0.8032082 -2.926671E-06
vn -0.6715606 -0.7409497 4.991259E-06
vn 0.6715607 0.7409496 -1.016205E-06
vn -0.7409508 -0.6715593 3.731666E-06
vn 0.7409502 0.67156 -3.665484E-06
vn -0.8032064 -0.5957007 3.657676E-06
vn 0.8032074 0.5956994 -2.323582E-06
vn -0.8577288 -0.5141024 6.381384E-06
vn 0.8577282 0.5141035 -4.745388E-06
vn -0.903989 -0.4275557 5.265902E-06
vn 0.9039888 0.4275562 -7.397876E-06
vn -0.9415431 -0.3368927 6.219559E-06
vn 0.9415445 0.3368886 -5.000369E-06
vn -0.9700317 -0.2429787 9.712606E-06
vn 0.970031 0.2429815 -7.398955E-06
vn -0.9891764 -0.1467316 8.210319E-06
vn 0.9891764 0.1467312 -7.930447E-06
vn -0.9987954 -0.04906811 9.291301E-06
vn 0.9987954 0.04906993 -9.431685E-06
vn -0.9987954 0.04906829 9.759247E-06
vn 0.9987954 -0.04906989 -7.947797E-06
vn -0.9891763 0.1467317 9.049919E-06
vn 0.9891764 -0.1467313 -7.443086E-06
vn -0.9700317 0.2429785 7.866006E-06
vn 0.9700317 -0.2429782 -9.252753E-06
vn -0.9415438 0.3368907 1.065163E-05
vn 0.9415442 -0.3368896 -1.000906E-05
vn -0.90399 0.4275536 9.296777E-06
vn 0.9039894 -0.4275548 -1.025213E-05
vn -0.857728 0.5141038 9.485688E-06
vn 0.8577302 -0.5141003 -1.128426E-05
vn -0.8032082 0.5956985 8.004624E-06
vn 0.8032071 -0.5956999 -1.067283E-05
vn -0.7409508 0.6715593 1.077662E-05
vn 0.7409514 -0.6715587 -1.148325E-05
vn -0.6715591 0.7409511 8.590558E-06
vn 0.6715585 -0.7409515 -9.043136E-06
vn -0.5957009 0.8032064 8.004627E-06
vn 0.5956999 -0.8032071 -8.856784E-06
vn -0.5141044 0.8577276 1.120171E-05
vn 0.5141022 -0.857729 -9.320562E-06
vn -0.4275559 0.9039889 8.842427E-06
vn 0.4275587 -0.9039876 -1.056666E-05
vn -0.3368886 0.9415445 9.753688E-06
vn 0.3368883 -0.9415447 -5.68005E-06
vn -0.2429809 0.9700311 9.370427E-06
vn 0.2429806 -0.9700311 -6.709197E-06
vn -0.1467305 0.9891765 4.578033E-06
vn 0.1467301 -0.9891766 -6.849553E-06
vn -0.04906963 0.9987953 7.889302E-06
vn 0.04907065 -0.9987953 -9.803861E-06
vn 2.420704E-06 -2.384177E-07 1
vn 0.9238808 -0.3826803 -6.884497E-06
vn 0.3826861 0.9238784 3.64417E-06
vn -0.3826847 -0.923879 -1.882018E-06

usemtl bm_trim
f 152/3/66 151/4/66 149/5/66 150/6/66
f 150/9/67 149/10/67 145/8/67 146/7/67
f 151/13/68 152/14/68 148/12/68 147/11/68
f 152/17/65 150/18/65 146/16/65 148/15/65
f 153/19/67 154/20/67 145/8/67 149/10/67
f 155/22/68 156/23/68 151/13/68 147/21/68
f 156/26/66 153/27/66 149/25/66 151/24/66

usemtl bm_edge_white
f 3/3/1 4/4/1 2/2/1 1/1/1
f 7/3/2 8/4/2 6/2/2 5/1/2
f 4/3/3 10/4/3 9/2/3 2/1/3
f 12/3/4 7/4/4 5/2/4 11/1/4
f 10/3/5 14/4/5 13/2/5 9/1/5
f 16/3/6 12/4/6 11/2/6 15/1/6
f 14/3/7 18/4/7 17/2/7 13/1/7
f 20/3/8 16/4/8 15/2/8 19/1/8
f 18/3/9 22/4/9 21/2/9 17/1/9
f 24/3/10 20/4/10 19/2/10 23/1/10
f 22/3/11 26/4/11 25/2/11 21/1/11
f 28/3/12 24/4/12 23/2/12 27/1/12
f 26/3/13 30/4/13 29/2/13 25/1/13
f 32/3/14 28/4/14 27/2/14 31/1/14
f 30/3/15 34/4/15 33/2/15 29/1/15
f 36/3/16 32/4/16 31/2/16 35/1/16
f 34/3/17 38/4/17 37/2/17 33/1/17
f 40/3/18 36/4/18 35/2/18 39/1/18
f 38/3/19 42/4/19 41/2/19 37/1/19
f 44/3/20 40/4/20 39/2/20 43/1/20
f 42/3/21 46/4/21 45/2/21 41/1/21
f 48/3/22 44/4/22 43/2/22 47/1/22
f 46/3/23 50/4/23 49/2/23 45/1/23
f 52/3/24 48/4/24 47/2/24 51/1/24
f 50/3/25 54/4/25 53/2/25 49/1/25
f 56/3/26 52/4/26 51/2/26 55/1/26
f 54/3/27 58/4/27 57/2/27 53/1/27
f 60/3/28 56/4/28 55/2/28 59/1/28
f 58/3/29 62/4/29 61/2/29 57/1/29
f 64/3/30 60/4/30 59/2/30 63/1/30
f 62/3/31 66/4/31 65/2/31 61/1/31
f 68/3/32 64/4/32 63/2/32 67/1/32
f 66/3/33 70/4/33 69/2/33 65/1/33
f 72/3/34 68/4/34 67/2/34 71/1/34
f 70/3/35 74/4/35 73/2/35 69/1/35
f 76/3/36 72/4/36 71/2/36 75/1/36
f 74/3/37 78/4/37 77/2/37 73/1/37
f 80/3/38 76/4/38 75/2/38 79/1/38
f 78/3/39 82/4/39 81/2/39 77/1/39
f 84/3/40 80/4/40 79/2/40 83/1/40
f 82/3/41 86/4/41 85/2/41 81/1/41
f 88/3/42 84/4/42 83/2/42 87/1/42
f 86/3/43 90/4/43 89/2/43 85/1/43
f 92/3/44 88/4/44 87/2/44 91/1/44
f 90/3/45 94/4/45 93/2/45 89/1/45
f 96/3/46 92/4/46 91/2/46 95/1/46
f 94/3/47 98/4/47 97/2/47 93/1/47
f 100/3/48 96/4/48 95/2/48 99/1/48
f 98/3/49 102/4/49 101/2/49 97/1/49
f 104/3/50 100/4/50 99/2/50 103/1/50
f 102/3/51 106/4/51 105/2/51 101/1/51
f 108/3/52 104/4/52 103/2/52 107/1/52
f 106/3/53 110/4/53 109/2/53 105/1/53
f 112/3/54 108/4/54 107/2/54 111/1/54
f 110/3/55 114/4/55 113/2/55 109/1/55
f 116/3/56 112/4/56 111/2/56 115/1/56
f 114/3/57 118/4/57 117/2/57 113/1/57
f 120/3/58 116/4/58 115/2/58 119/1/58
f 118/3/59 122/4/59 121/2/59 117/1/59
f 124/3/60 120/4/60 119/2/60 123/1/60
f 122/3/61 126/4/61 125/2/61 121/1/61
f 128/3/62 124/4/62 123/2/62 127/1/62
f 126/3/63 130/4/63 129/2/63 125/1/63
f 132/3/64 128/4/64 127/2/64 131/1/64
f 130/3/2 134/4/2 133/2/2 129/1/2
f 136/3/1 132/4/1 131/2/1 135/1/1
f 134/3/4 138/4/4 137/2/4 133/1/4
f 140/3/3 136/4/3 135/2/3 139/1/3
f 138/3/6 142/4/6 141/2/6 137/1/6
f 144/3/5 140/4/5 139/2/5 143/1/5
f 142/3/8 146/4/8 145/2/8 141/1/8
f 148/3/7 144/4/7 143/2/7 147/1/7
f 8/2/65 7/1/65 4/3/65 3/4/65
f 7/2/65 12/1/65 10/3/65 4/4/65
f 12/2/65 16/1/65 14/3/65 10/4/65
f 16/2/65 20/1/65 18/3/65 14/4/65
f 20/2/65 24/1/65 22/3/65 18/4/65
f 24/2/65 28/1/65 26/3/65 22/4/65
f 28/2/65 32/1/65 30/3/65 26/4/65
f 32/2/65 36/1/65 34/3/65 30/4/65
f 36/2/65 40/1/65 38/3/65 34/4/65
f 40/2/65 44/1/65 42/3/65 38/4/65
f 44/2/65 48/1/65 46/3/65 42/4/65
f 48/2/65 52/1/65 50/3/65 46/4/65
f 52/2/65 56/1/65 54/3/65 50/4/65
f 56/2/65 60/1/65 58/3/65 54/4/65
f 60/2/65 64/1/65 62/3/65 58/4/65
f 64/2/65 68/1/65 66/3/65 62/4/65
f 68/2/65 72/1/65 70/3/65 66/4/65
f 72/2/65 76/1/65 74/3/65 70/4/65
f 76/2/65 80/1/65 78/3/65 74/4/65
f 80/2/65 84/1/65 82/3/65 78/4/65
f 84/2/65 88/1/65 86/3/65 82/4/65
f 88/2/65 92/1/65 90/3/65 86/4/65
f 92/2/65 96/1/65 94/3/65 90/4/65
f 96/2/65 100/1/65 98/3/65 94/4/65
f 100/2/65 104/1/65 102/3/65 98/4/65
f 104/2/65 108/1/65 106/3/65 102/4/65
f 108/2/65 112/1/65 110/3/65 106/4/65
f 112/2/65 116/1/65 114/3/65 110/4/65
f 116/2/65 120/1/65 118/3/65 114/4/65
f 120/2/65 124/1/65 122/3/65 118/4/65
f 124/2/65 128/1/65 126/3/65 122/4/65
f 128/2/65 132/1/65 130/3/65 126/4/65
f 132/2/65 136/1/65 134/3/65 130/4/65
f 136/2/65 140/1/65 138/3/65 134/4/65
f 140/2/65 144/1/65 142/3/65 138/4/65
f 144/2/65 148/1/65 146/3/65 142/4/65

