# ProBuilder 4.5.2
# https://unity3d.com/unity/features/worldbuilding/probuilder
# 7/28/2023 6:55:20 PM

mtllib ./VanillaPassTrimCurve1BM.mtl
o VanillaPassTrimCurve1BM

g VanillaPassTrimCurve1BM
v 0.5379806 1.2815E-06 0.4341204
v 0.5 0 0
v 0.5379791 -0.5000032 0.4341236
v 0.5 -0.5000045 2.980232E-06
v 0.6507685 2.503395E-06 0.8550503
v 0.6507683 -0.500002 0.8550535
v 0.8349366 3.695488E-06 1.25
v 0.834938 -0.5000007 1.250003
v 1.084889 4.649162E-06 1.606969
v 1.084888 -0.4999999 1.606972
v 1.393031 5.602837E-06 1.915111
v 1.393032 -0.4999989 1.915114
v 1.75 6.437302E-06 2.165064
v 1.75 -0.4999981 2.165067
v 2.14495 6.914139E-06 2.349231
v 2.144951 -0.4999976 2.349235
v 2.565879 7.152557E-06 2.462019
v 2.56588 -0.4999971 2.462022
v 3 7.390976E-06 2.5
v 3 -0.4999971 2.500003
v 3.43412 7.152557E-06 2.462019
v 3.43412 -0.4999971 2.462022
v 3.85505 6.914139E-06 2.349231
v 3.855049 -0.4999976 2.349235
v 4.25 6.437302E-06 2.165063
v 4.25 -0.4999981 2.165066
v 4.606969 5.602837E-06 1.915111
v 4.606968 -0.4999989 1.915114
v 4.915111 4.649162E-06 1.606969
v 4.915112 -0.4999999 1.606972
v 5.165063 3.695488E-06 1.25
v 5.165062 -0.5000007 1.250003
v 5.349232 2.503395E-06 0.8550506
v 5.349232 -0.500002 0.8550535
v 5.462019 1.2815E-06 0.4341207
v 5.462021 -0.5000032 0.4341236
v 5.5 -6.394885E-13 -2.185569E-07
v 5.5 -0.5000045 2.980232E-06
v 0 -0.5000045 2.980232E-06
v 0.045578 -0.5000029 0.5209476
v 0.04557681 1.549721E-06 0.5209445
v 0 0 0
v 0.1809235 -0.5000014 1.026063
v 0.180922 2.980232E-06 1.02606
v 0.4019241 -0.5 1.500003
v 0.4019239 4.410744E-06 1.5
v 0.7018661 -0.4999989 1.928366
v 0.7018666 5.602837E-06 1.928363
v 1.071636 -0.4999976 2.298136
v 1.071637 6.67572E-06 2.298133
v 1.5 -0.4999969 2.598079
v 1.5 7.629395E-06 2.598076
v 1.973938 -0.4999962 2.819081
v 1.97394 8.34465E-06 2.819078
v 2.479057 -0.4999957 2.954426
v 2.479055 8.583069E-06 2.954423
v 3 -0.4999957 3.000003
v 3 8.821487E-06 3
v 3.520943 -0.4999957 2.954426
v 3.520945 8.583069E-06 2.954423
v 4.026062 -0.4999962 2.819081
v 4.02606 8.34465E-06 2.819078
v 4.5 -0.4999969 2.598079
v 4.5 7.629395E-06 2.598076
v 4.928364 -0.4999976 2.298136
v 4.928363 6.67572E-06 2.298133
v 5.298134 -0.4999989 1.928366
v 5.298133 5.602837E-06 1.928363
v 5.598076 -0.5 1.500003
v 5.598076 4.410744E-06 1.5
v 5.819077 -0.5000014 1.026063
v 5.819078 2.980232E-06 1.026061
v 5.954422 -0.5000029 0.5209481
v 5.954423 1.549721E-06 0.5209449
v 6 -0.5000045 2.980232E-06
v 6 -7.673862E-13 -2.622683E-07
v -4.5 0 -9.536743E-07
v -4.386059 3.814697E-06 1.302361
v -4.5 -0.5000113 1.907349E-06
v -4.386059 -0.5000075 1.302364
v -4.047695 7.390976E-06 2.56515
v -4.047695 -0.5000038 2.565154
v -3.49519 1.096725E-05 3.75
v -3.49519 -0.5000002 3.750004
v -2.745335 1.430511E-05 4.820906
v -2.745335 -0.4999967 4.820911
v -1.820908 1.66893E-05 5.745333
v -1.820908 -0.4999948 5.745337
v -0.75 1.907349E-05 6.495191
v -0.75 -0.4999924 6.495195
v 0.4348488 2.0504E-05 7.047695
v 0.4348488 -0.4999909 7.047699
v 1.697639 2.145767E-05 7.386058
v 1.697639 -0.49999 7.386063
v 3 2.193451E-05 7.5
v 3 -0.499989 7.500005
v 4.302361 2.145767E-05 7.386058
v 4.302361 -0.49999 7.386063
v 5.565151 2.0504E-05 7.047695
v 5.565151 -0.4999909 7.047699
v 6.75 1.907349E-05 6.495191
v 6.75 -0.4999924 6.495195
v 7.820908 1.66893E-05 5.745333
v 7.820908 -0.4999948 5.745337
v 8.745331 1.430511E-05 4.820907
v 8.745331 -0.4999967 4.820911
v 9.49519 1.096725E-05 3.75
v 9.49519 -0.5000002 3.750004
v 10.0477 7.390976E-06 2.565151
v 10.0477 -0.5000038 2.565155
v 10.38606 3.814697E-06 1.302361
v 10.38606 -0.5000075 1.302365
v 10.5 0 -1.430511E-06
v 10.5 -0.5000113 1.907349E-06
v -4 -0.5000113 1.907349E-06
v -3.893654 -0.5000077 1.21554
v -3.893654 3.576279E-06 1.215537
v -4 0 -9.536743E-07
v -3.57785 -0.5000043 2.394144
v -3.57785 6.914139E-06 2.39414
v -3.06218 -0.500001 3.500003
v -3.06218 1.0252E-05 3.5
v -2.362312 -0.4999981 4.499516
v -2.362312 1.335144E-05 4.499513
v -1.499512 -0.4999957 5.362315
v -1.499512 1.573563E-05 5.36231
v -0.5 -0.4999938 6.062182
v -0.5 1.764297E-05 6.062178
v 0.6058578 -0.4999924 6.577853
v 0.6058578 1.907349E-05 6.577848
v 1.784462 -0.4999914 6.893659
v 1.784462 2.002716E-05 6.893654
v 3 -0.4999909 7.000005
v 3 2.0504E-05 7
v 4.215538 -0.4999914 6.893659
v 4.215538 2.002716E-05 6.893654
v 5.394142 -0.4999924 6.577853
v 5.394142 1.907349E-05 6.577848
v 6.5 -0.4999938 6.062182
v 6.5 1.764297E-05 6.062178
v 7.499512 -0.4999957 5.362315
v 7.499512 1.573563E-05 5.36231
v 8.362312 -0.4999981 4.499517
v 8.362312 1.335144E-05 4.499514
v 9.06218 -0.500001 3.500004
v 9.06218 1.0252E-05 3.5
v 9.57785 -0.5000043 2.394144
v 9.57785 6.914139E-06 2.394141
v 9.893654 -0.5000077 1.21554
v 9.893654 3.576279E-06 1.215537
v 10 -0.5000113 1.907349E-06
v 10 0 -1.430511E-06

vt -2.980232E-08 1
vt 1 1
vt -2.980232E-08 2.980232E-08
vt 0.9999999 -2.980232E-08
vt 1 -5.960464E-08
vt 0.9999998 0.9999995
vt 3 0.9999995
vt 3 -4.768372E-07
vt 0.9999998 -2
vt -1.788139E-07 -2
vt -2 -2.980232E-08
vt -2 2
vt -1 -2.980232E-08
vt -1 2

vn 0.9961947 -3.405958E-06 -0.08715561
vn 0.9659258 -2.126669E-06 -0.2588194
vn 0.9063078 1.747242E-07 -0.4226183
vn 0.8191521 -4.336699E-06 -0.5735765
vn 0.7071071 -2.697371E-06 -0.7071065
vn 0.5735765 -5.214531E-06 -0.8191521
vn 0.422618 -4.610455E-06 -0.9063079
vn 0.2588195 -5.280197E-06 -0.9659257
vn 0.08715557 -5.70022E-06 -0.9961947
vn -0.08715562 -5.658665E-06 -0.9961947
vn -0.2588193 -5.370538E-06 -0.9659258
vn -0.4226184 -5.185888E-06 -0.9063078
vn -0.5735765 -3.983781E-06 -0.8191521
vn -0.7071065 -5.394749E-06 -0.7071071
vn -0.8191521 -8.016588E-07 -0.5735763
vn -0.9063075 -2.518982E-06 -0.4226189
vn -0.9659259 -4.259899E-06 -0.2588189
vn -0.9961947 -5.575792E-07 -0.08715551
vn 0 -1 2.974828E-06
vn 1.986822E-08 1 -2.976567E-06
vn -0.9961948 4.98695E-07 0.08715524
vn -0.9659258 1.727765E-06 0.2588192
vn -0.9063075 3.224254E-06 0.4226189
vn -0.8191525 4.102442E-06 0.5735759
vn -0.7071068 8.092017E-06 0.7071068
vn -0.5735766 7.811862E-06 0.8191519
vn -0.4226185 8.643025E-06 0.9063076
vn -0.2588183 7.369263E-06 0.9659261
vn -0.08715602 9.500235E-06 0.9961947
vn 0.08715601 9.500244E-06 0.9961947
vn 0.2588183 9.211579E-06 0.9659261
vn 0.4226185 6.91442E-06 0.9063076
vn 0.5735766 7.811862E-06 0.8191519
vn 0.7071079 6.743331E-06 0.7071057
vn 0.8191513 5.469941E-06 0.5735775
vn 0.9063074 3.02274E-06 0.4226192
vn 0.9659258 1.974589E-06 0.2588192
vn 0.9961948 5.818102E-07 0.08715514

usemtl bm_edge_white
f 3/3/1 4/4/1 2/2/1 1/1/1
f 6/3/2 3/4/2 1/2/2 5/1/2
f 8/3/3 6/4/3 5/2/3 7/1/3
f 10/3/4 8/4/4 7/2/4 9/1/4
f 12/3/5 10/4/5 9/2/5 11/1/5
f 14/3/6 12/4/6 11/2/6 13/1/6
f 16/3/7 14/4/7 13/2/7 15/1/7
f 18/3/8 16/4/8 15/2/8 17/1/8
f 20/3/9 18/4/9 17/2/9 19/1/9
f 22/3/10 20/4/10 19/2/10 21/1/10
f 24/3/11 22/4/11 21/2/11 23/1/11
f 26/3/12 24/4/12 23/2/12 25/1/12
f 28/3/13 26/4/13 25/2/13 27/1/13
f 30/3/14 28/4/14 27/2/14 29/1/14
f 32/3/15 30/4/15 29/2/15 31/1/15
f 34/3/16 32/4/16 31/2/16 33/1/16
f 36/3/17 34/4/17 33/2/17 35/1/17
f 38/3/18 36/4/18 35/2/18 37/1/18
f 4/1/19 3/3/19 40/5/19 39/2/19
f 1/5/20 2/2/20 42/1/20 41/3/20
f 3/1/19 6/3/19 43/5/19 40/2/19
f 5/5/20 1/2/20 41/1/20 44/3/20
f 6/1/19 8/3/19 45/5/19 43/2/19
f 7/5/20 5/2/20 44/1/20 46/3/20
f 8/1/19 10/3/19 47/5/19 45/2/19
f 9/5/20 7/2/20 46/1/20 48/3/20
f 10/1/19 12/3/19 49/5/19 47/2/19
f 11/5/20 9/2/20 48/1/20 50/3/20
f 12/1/19 14/3/19 51/5/19 49/2/19
f 13/5/20 11/2/20 50/1/20 52/3/20
f 14/1/19 16/3/19 53/5/19 51/2/19
f 15/5/20 13/2/20 52/1/20 54/3/20
f 16/1/19 18/3/19 55/5/19 53/2/19
f 17/5/20 15/2/20 54/1/20 56/3/20
f 18/1/19 20/3/19 57/5/19 55/2/19
f 19/5/20 17/2/20 56/1/20 58/3/20
f 20/1/19 22/3/19 59/5/19 57/2/19
f 21/5/20 19/2/20 58/1/20 60/3/20
f 22/1/19 24/3/19 61/5/19 59/2/19
f 23/5/20 21/2/20 60/1/20 62/3/20
f 24/1/19 26/3/19 63/5/19 61/2/19
f 25/5/20 23/2/20 62/1/20 64/3/20
f 26/1/19 28/3/19 65/5/19 63/2/19
f 27/5/20 25/2/20 64/1/20 66/3/20
f 28/1/19 30/3/19 67/5/19 65/2/19
f 29/5/20 27/2/20 66/1/20 68/3/20
f 30/1/19 32/3/19 69/5/19 67/2/19
f 31/5/20 29/2/20 68/1/20 70/3/20
f 32/1/19 34/3/19 71/5/19 69/2/19
f 33/5/20 31/2/20 70/1/20 72/3/20
f 34/1/19 36/3/19 73/5/19 71/2/19
f 35/5/20 33/2/20 72/1/20 74/3/20
f 36/1/19 38/3/19 75/5/19 73/2/19
f 37/5/20 35/2/20 74/1/20 76/3/20
f 79/4/21 80/8/21 78/7/21 77/6/21
f 80/4/22 82/8/22 81/7/22 78/6/22
f 82/4/23 84/8/23 83/7/23 81/6/23
f 84/4/24 86/8/24 85/7/24 83/6/24
f 86/4/25 88/8/25 87/7/25 85/6/25
f 88/4/26 90/8/26 89/7/26 87/6/26
f 90/4/27 92/8/27 91/7/27 89/6/27
f 92/4/28 94/8/28 93/7/28 91/6/28
f 94/4/29 96/8/29 95/7/29 93/6/29
f 96/4/30 98/8/30 97/7/30 95/6/30
f 98/4/31 100/8/31 99/7/31 97/6/31
f 100/4/32 102/8/32 101/7/32 99/6/32
f 102/4/33 104/8/33 103/7/33 101/6/33
f 104/4/34 106/8/34 105/7/34 103/6/34
f 106/4/35 108/8/35 107/7/35 105/6/35
f 108/4/36 110/8/36 109/7/36 107/6/36
f 110/4/37 112/8/37 111/7/37 109/6/37
f 112/4/38 114/8/38 113/7/38 111/6/38
f 115/3/19 116/10/19 80/9/19 79/4/19
f 117/13/20 118/14/20 77/12/20 78/11/20
f 116/3/19 119/10/19 82/9/19 80/4/19
f 120/13/20 117/14/20 78/12/20 81/11/20
f 119/3/19 121/10/19 84/9/19 82/4/19
f 122/13/20 120/14/20 81/12/20 83/11/20
f 121/3/19 123/10/19 86/9/19 84/4/19
f 124/13/20 122/14/20 83/12/20 85/11/20
f 123/3/19 125/10/19 88/9/19 86/4/19
f 126/13/20 124/14/20 85/12/20 87/11/20
f 125/3/19 127/10/19 90/9/19 88/4/19
f 128/13/20 126/14/20 87/12/20 89/11/20
f 127/3/19 129/10/19 92/9/19 90/4/19
f 130/13/20 128/14/20 89/12/20 91/11/20
f 129/3/19 131/10/19 94/9/19 92/4/19
f 132/13/20 130/14/20 91/12/20 93/11/20
f 131/3/19 133/10/19 96/9/19 94/4/19
f 134/13/20 132/14/20 93/12/20 95/11/20
f 133/3/19 135/10/19 98/9/19 96/4/19
f 136/13/20 134/14/20 95/12/20 97/11/20
f 135/3/19 137/10/19 100/9/19 98/4/19
f 138/13/20 136/14/20 97/12/20 99/11/20
f 137/3/19 139/10/19 102/9/19 100/4/19
f 140/13/20 138/14/20 99/12/20 101/11/20
f 139/3/19 141/10/19 104/9/19 102/4/19
f 142/13/20 140/14/20 101/12/20 103/11/20
f 141/3/19 143/10/19 106/9/19 104/4/19
f 144/13/20 142/14/20 103/12/20 105/11/20
f 143/3/19 145/10/19 108/9/19 106/4/19
f 146/13/20 144/14/20 105/12/20 107/11/20
f 145/3/19 147/10/19 110/9/19 108/4/19
f 148/13/20 146/14/20 107/12/20 109/11/20
f 147/3/19 149/10/19 112/9/19 110/4/19
f 150/13/20 148/14/20 109/12/20 111/11/20
f 149/3/19 151/10/19 114/9/19 112/4/19
f 152/13/20 150/14/20 111/12/20 113/11/20

