# ProBuilder 4.5.2
# https://unity3d.com/unity/features/worldbuilding/probuilder
# 7/28/2023 6:59:10 PM

mtllib ./VanillaPassTrimCircle2BM.mtl
o VanillaPassTrimCircle2BM

g VanillaPassTrimCircle2BM
v 0.08518553 1 0.6470476
v 0 1 0
v 0.08518553 1.5 0.6470476
v 0 1.5 0
v 0.3349366 1 1.25
v 0.3349366 1.5 1.25
v 0.732233 1 1.767767
v 0.732233 1.5 1.767767
v 1.25 1 2.165064
v 1.25 1.5 2.165064
v 1.852952 1 2.414814
v 1.852952 1.5 2.414814
v 2.5 1 2.5
v 2.5 1.5 2.5
v 3.147048 1 2.414814
v 3.147048 1.5 2.414814
v 3.75 1 2.165063
v 3.75 1.5 2.165063
v 4.267767 1 1.767767
v 4.267767 1.5 1.767767
v 4.665063 1 1.25
v 4.665063 1.5 1.25
v 4.914814 1 0.6470478
v 4.914814 1.5 0.6470478
v 5 1 -2.185569E-07
v 5 1.5 -2.185569E-07
v 4.914814 1 -0.6470477
v 4.914814 1.5 -0.6470477
v 4.665063 1 -1.25
v 4.665063 1.5 -1.25
v 4.267767 1 -1.767767
v 4.267767 1.5 -1.767767
v 3.75 1 -2.165064
v 3.75 1.5 -2.165064
v 3.147048 1 -2.414815
v 3.147048 1.5 -2.414815
v 2.5 1 -2.5
v 2.5 1.5 -2.5
v 1.852952 1 -2.414814
v 1.852952 1.5 -2.414814
v 1.25 1 -2.165064
v 1.25 1.5 -2.165064
v 0.7322334 1 -1.767767
v 0.7322334 1.5 -1.767767
v 0.3349366 1 -1.25
v 0.3349366 1.5 -1.25
v 0.08518553 1 -0.6470482
v 0.08518553 1.5 -0.6470482
v 0.5 1 0
v 0.5681484 1 0.5176381
v 0.5681484 1.5 0.5176381
v 0.5 1.5 0
v 0.7679492 1 1
v 0.7679492 1.5 1
v 1.085786 1 1.414214
v 1.085786 1.5 1.414214
v 1.5 1 1.732051
v 1.5 1.5 1.732051
v 1.982362 1 1.931852
v 1.982362 1.5 1.931852
v 2.5 1 2
v 2.5 1.5 2
v 3.017638 1 1.931852
v 3.017638 1.5 1.931852
v 3.5 1 1.732051
v 3.5 1.5 1.732051
v 3.914214 1 1.414214
v 3.914214 1.5 1.414214
v 4.232051 1 1
v 4.232051 1.5 1
v 4.431851 1 0.5176383
v 4.431851 1.5 0.5176383
v 4.5 1 -1.748456E-07
v 4.5 1.5 -1.748456E-07
v 4.431851 1 -0.5176381
v 4.431851 1.5 -0.5176381
v 4.232051 1 -0.9999999
v 4.232051 1.5 -0.9999999
v 3.914214 1 -1.414213
v 3.914214 1.5 -1.414213
v 3.5 1 -1.732051
v 3.5 1.5 -1.732051
v 3.017638 1 -1.931852
v 3.017638 1.5 -1.931852
v 2.5 1 -2
v 2.5 1.5 -2
v 1.982362 1 -1.931852
v 1.982362 1.5 -1.931852
v 1.5 1 -1.732051
v 1.5 1.5 -1.732051
v 1.085787 1 -1.414214
v 1.085787 1.5 -1.414214
v 0.7679493 1 -1
v 0.7679493 1.5 -1
v 0.5681485 1 -0.5176386
v 0.5681485 1.5 -0.5176386

vt 1 0
vt 0 0
vt 1 1
vt 0 1

vn -0.9914449 0 0.1305263
vn -0.9238794 0 0.3826835
vn -0.7933534 0 0.6087613
vn -0.6087615 0 0.7933533
vn -0.3826833 0 0.9238796
vn -0.1305263 0 0.9914449
vn 0.1305263 0 0.9914449
vn 0.3826834 0 0.9238796
vn 0.6087613 0 0.7933534
vn 0.7933534 0 0.6087614
vn 0.9238794 0 0.3826835
vn 0.9914449 0 0.1305262
vn 0.9914449 0 -0.1305264
vn 0.9238794 0 -0.3826836
vn 0.7933534 0 -0.6087614
vn 0.6087616 0 -0.7933533
vn 0.3826836 0 -0.9238795
vn 0.130526 0 -0.9914449
vn -0.1305263 0 -0.9914449
vn -0.3826832 0 -0.9238796
vn -0.6087614 0 -0.7933534
vn -0.7933531 0 -0.6087618
vn -0.9238795 0 -0.3826836
vn -0.9914449 0 -0.1305262
vn 0 -1 0
vn 0 1 0

usemtl bm_edge_white
f 3/3/1 4/4/1 2/2/1 1/1/1
f 6/3/2 3/4/2 1/2/2 5/1/2
f 8/3/3 6/4/3 5/2/3 7/1/3
f 10/3/4 8/4/4 7/2/4 9/1/4
f 12/3/5 10/4/5 9/2/5 11/1/5
f 14/3/6 12/4/6 11/2/6 13/1/6
f 16/3/7 14/4/7 13/2/7 15/1/7
f 18/3/8 16/4/8 15/2/8 17/1/8
f 20/3/9 18/4/9 17/2/9 19/1/9
f 22/3/10 20/4/10 19/2/10 21/1/10
f 24/3/11 22/4/11 21/2/11 23/1/11
f 26/3/12 24/4/12 23/2/12 25/1/12
f 28/3/13 26/4/13 25/2/13 27/1/13
f 30/3/14 28/4/14 27/2/14 29/1/14
f 32/3/15 30/4/15 29/2/15 31/1/15
f 34/3/16 32/4/16 31/2/16 33/1/16
f 36/3/17 34/4/17 33/2/17 35/1/17
f 38/3/18 36/4/18 35/2/18 37/1/18
f 40/3/19 38/4/19 37/2/19 39/1/19
f 42/3/20 40/4/20 39/2/20 41/1/20
f 44/3/21 42/4/21 41/2/21 43/1/21
f 46/3/22 44/4/22 43/2/22 45/1/22
f 48/3/23 46/4/23 45/2/23 47/1/23
f 4/3/24 48/4/24 47/2/24 2/1/24
f 49/3/25 50/4/25 1/2/25 2/1/25
f 51/3/26 52/4/26 4/2/26 3/1/26
f 50/3/25 53/4/25 5/2/25 1/1/25
f 54/3/26 51/4/26 3/2/26 6/1/26
f 53/3/25 55/4/25 7/2/25 5/1/25
f 56/3/26 54/4/26 6/2/26 8/1/26
f 55/3/25 57/4/25 9/2/25 7/1/25
f 58/3/26 56/4/26 8/2/26 10/1/26
f 57/3/25 59/4/25 11/2/25 9/1/25
f 60/3/26 58/4/26 10/2/26 12/1/26
f 59/3/25 61/4/25 13/2/25 11/1/25
f 62/3/26 60/4/26 12/2/26 14/1/26
f 61/3/25 63/4/25 15/2/25 13/1/25
f 64/3/26 62/4/26 14/2/26 16/1/26
f 63/3/25 65/4/25 17/2/25 15/1/25
f 66/3/26 64/4/26 16/2/26 18/1/26
f 65/3/25 67/4/25 19/2/25 17/1/25
f 68/3/26 66/4/26 18/2/26 20/1/26
f 67/3/25 69/4/25 21/2/25 19/1/25
f 70/3/26 68/4/26 20/2/26 22/1/26
f 69/3/25 71/4/25 23/2/25 21/1/25
f 72/3/26 70/4/26 22/2/26 24/1/26
f 71/3/25 73/4/25 25/2/25 23/1/25
f 74/3/26 72/4/26 24/2/26 26/1/26
f 73/3/25 75/4/25 27/2/25 25/1/25
f 76/3/26 74/4/26 26/2/26 28/1/26
f 75/3/25 77/4/25 29/2/25 27/1/25
f 78/3/26 76/4/26 28/2/26 30/1/26
f 77/3/25 79/4/25 31/2/25 29/1/25
f 80/3/26 78/4/26 30/2/26 32/1/26
f 79/3/25 81/4/25 33/2/25 31/1/25
f 82/3/26 80/4/26 32/2/26 34/1/26
f 81/3/25 83/4/25 35/2/25 33/1/25
f 84/3/26 82/4/26 34/2/26 36/1/26
f 83/3/25 85/4/25 37/2/25 35/1/25
f 86/3/26 84/4/26 36/2/26 38/1/26
f 85/3/25 87/4/25 39/2/25 37/1/25
f 88/3/26 86/4/26 38/2/26 40/1/26
f 87/3/25 89/4/25 41/2/25 39/1/25
f 90/3/26 88/4/26 40/2/26 42/1/26
f 89/3/25 91/4/25 43/2/25 41/1/25
f 92/3/26 90/4/26 42/2/26 44/1/26
f 91/3/25 93/4/25 45/2/25 43/1/25
f 94/3/26 92/4/26 44/2/26 46/1/26
f 93/3/25 95/4/25 47/2/25 45/1/25
f 96/3/26 94/4/26 46/2/26 48/1/26
f 95/3/25 49/4/25 2/2/25 47/1/25
f 52/3/26 96/4/26 48/2/26 4/1/26

