# ProBuilder 4.5.2
# https://unity3d.com/unity/features/worldbuilding/probuilder
# 7/28/2022 11:21:48 PM

mtllib ./GravitationalismCurve1.mtl
o GravitationalismCurve1

g Arch (43)
v 1.522491E-06 0.5299442 0.4568402
v 1.490116E-06 0.5 -1.400709E-06
v 0.5000015 0.5299428 0.4568402
v 0.5000015 0.4999985 -1.400709E-06
v 1.79375E-06 0.6192621 0.9058649
v 0.5000018 0.6192605 0.9058649
v 2.185142E-06 0.7664256 1.33939
v 0.5000021 0.7664241 1.33939
v 2.756715E-06 0.9689159 1.749997
v 0.5000027 0.9689144 1.749997
v 3.56849E-06 1.223269 2.130662
v 0.5000036 1.223268 2.130662
v 4.382439E-06 1.525133 2.474869
v 0.5000044 1.525131 2.474869
v 5.43733E-06 1.869342 2.776731
v 0.5000054 1.869341 2.776731
v 6.495053E-06 2.250008 3.031083
v 0.5000065 2.250007 3.031083
v 7.675077E-06 2.660617 3.233571
v 0.5000077 2.660615 3.233571
v 9.096817E-06 3.094142 3.380732
v 0.5000091 3.094141 3.380732
v 1.028359E-05 3.543168 3.470047
v 0.5000103 3.543166 3.470047
v 1.171231E-05 4.00001 3.499989
v 0.5000117 4.000008 3.499989
v 0.5 -1.519918E-06 0
v 0.5000001 0.0342204 0.5221047
v -0.5000057 0.03422326 0.5221038
v -0.5000057 1.639121E-06 -2.384186E-06
v 0.5000004 0.1362981 1.035276
v -0.5000057 0.1363008 1.035272
v 0.5000008 0.3044846 1.530733
v -0.5000049 0.3044869 1.530729
v 0.5000015 0.5359024 1.999999
v -0.5000039 0.5359055 1.999997
v 0.5000023 0.826592 2.435043
v -0.5000039 0.8265967 2.435041
v 0.5000033 1.171579 2.828424
v -0.5000031 1.171583 2.82842
v 0.5000045 1.564961 3.173409
v -0.5000012 1.564966 3.173406
v 0.5000057 2.000008 3.464096
v -0.5000002 2.000009 3.464093
v 0.5000072 2.469275 3.695511
v -0.4999993 2.469278 3.695508
v 0.5000086 2.964733 3.863695
v -0.4999975 2.964735 3.863691
v 0.50001 3.477904 3.96577
v -0.4999957 3.477907 3.965768
v 0.5000117 4.00001 3.999989
v -0.4999947 4.000013 3.999986
v -8.5 -0.4999999 0
v -8.499999 -0.461502 0.587368
v -0.5 -0.5000229 2.980232E-08
v -0.5 -0.461525 0.5873681
v -8.499998 0.03422165 0.5221033
v -8.499998 8.940333E-08 9.536743E-07
v -0.4999982 0.0341987 0.5221024
v -0.4999981 -2.285839E-05 2.980232E-08
v -8.5 -0.3466643 1.164684
v -0.5 -0.3466873 1.164684
v -8.499998 0.1362993 1.035275
v -0.4999981 0.1362762 1.035275
v -8.499998 -0.1574515 1.722076
v -0.4999991 -0.1574783 1.722076
v -8.499998 0.3044853 1.530731
v -0.4999982 0.3044623 1.530731
v -8.499998 0.10289 2.250001
v -0.4999982 0.1028669 2.25
v -8.499997 0.5359038 1.999996
v -0.4999973 0.5358809 1.999996
v -8.499998 0.4299164 2.739427
v -0.4999972 0.4298933 2.739426
v -8.499996 0.8265915 2.435044
v -0.4999965 0.8265684 2.435043
v -8.499995 0.8180273 3.181977
v -0.4999963 0.8180044 3.181976
v -8.499995 1.171581 2.828424
v -0.4999955 1.171555 2.828423
v -8.499994 1.260582 3.570084
v -0.4999945 1.260559 3.570083
v -8.499994 1.564964 3.173409
v -0.4999946 1.564937 3.173409
v -8.499992 1.750011 3.897111
v -0.4999936 1.749985 3.89711
v -8.499992 2.000007 3.464096
v -0.4999926 1.999985 3.464096
v -8.499993 2.277935 4.157452
v -0.4999931 2.277912 4.157452
v -8.499991 2.469276 3.695511
v -8.49999 2.835327 4.346658
v -0.499991 2.8353 4.346656
v -8.499991 2.964733 3.863693
v -8.499989 3.412643 4.461491
v -0.4999891 3.412621 4.461491
v -8.499989 3.477905 3.965768
v -8.499987 4.000011 4.499989
v -0.4999869 3.999989 4.499989
v -8.499987 4.000011 3.999989
v -0.4999869 3.999984 3.999988
v 0.5000935 -0.5000229 0
v 0.5000935 -0.4615251 0.5873681
v -9.500007 -0.4615018 0.587368
v -9.500007 -0.4999998 0
v -9.500005 0.03422189 0.5221033
v -9.500006 2.682409E-07 9.536743E-07
v 0.5000935 -0.3466874 1.164684
v -9.500006 -0.3466642 1.164685
v -9.500005 0.1362994 1.035275
v 0.5000943 -0.1574785 1.722076
v -9.500006 -0.1574515 1.722076
v -9.500004 0.3044854 1.530731
v 0.5000953 0.1028671 2.25
v -9.500005 0.1028903 2.250001
v -9.500004 0.535904 1.999996
v 0.5000962 0.4298935 2.739426
v -9.500004 0.4299166 2.739427
v -9.500003 0.8265955 2.435044
v 0.5000972 0.8180046 3.181976
v -9.500003 0.8180275 3.181977
v -9.500002 1.171582 2.828424
v 0.5000989 1.260559 3.570083
v -9.500002 1.260582 3.570084
v -9.5 1.564964 3.173409
v 0.5000999 1.749985 3.89711
v 0.5001009 1.999985 3.464096
v -9.5 1.750011 3.897111
v -9.5 2.000008 3.464096
v 0.5001004 2.277912 4.157452
v -9.499999 2.277936 4.157452
v -9.499999 2.469277 3.695511
v 0.5001025 2.8353 4.346656
v -9.499997 2.835327 4.346658
v -9.499999 2.964733 3.863693
v 0.5001044 3.412621 4.461491
v -9.499996 3.412644 4.461491
v -9.499995 3.477906 3.965767
v 0.5001066 3.999989 4.499989
v 0.5001066 3.999984 3.999988
v -9.499994 4.000012 4.499989
v -9.499994 4.000011 3.999989
v -9.499998 0.5299456 0.4568405
v -9.499998 0.5000003 9.536743E-07
v -8.999998 0.5299422 0.4568405
v -8.999998 0.5000007 9.536743E-07
v -9.499998 0.6192629 0.9058647
v -8.999998 0.6192595 0.9058647
v -9.499998 0.7664262 1.339391
v -8.999998 0.7664227 1.339391
v -9.499997 0.968918 1.749996
v -8.999997 0.9689145 1.749996
v -9.499996 1.223271 2.130661
v -8.999996 1.223267 2.130661
v -9.499996 1.525131 2.47487
v -8.999996 1.525132 2.47487
v -9.499994 1.869343 2.776734
v -8.999994 1.86934 2.776734
v -9.499993 2.250008 3.031082
v -8.999993 2.250008 3.031082
v -9.499992 2.660618 3.23357
v -8.999992 2.660615 3.23357
v -9.49999 3.094143 3.380734
v -8.99999 3.09414 3.380734
v -9.49999 3.543167 3.470048
v -8.99999 3.543168 3.470048
v -9.499989 4.000008 3.499989
v -8.999989 4.000009 3.499989
v -8.500006 8.942698E-08 9.536743E-07
v -8.500006 0.03422171 0.5221033
v -8.500006 0.1362993 1.035272
v -8.500005 0.3044853 1.530731
v -9.499999 0.3044854 1.530732
v -8.500004 0.5359038 2
v -9.499998 0.5359039 2
v -8.500004 0.8265915 2.435044
v -9.499998 0.8265917 2.435044
v -8.500003 1.171577 2.828424
v -9.499996 1.171582 2.828424
v -8.500002 1.56496 3.173409
v -9.499996 1.564964 3.173409
v -8.5 2.000007 3.464092
v -9.499994 2.000008 3.464096

vt 0 0
vt 0 1
vt 1 0
vt 1 1
vt 4 -5
vt 4 -5.25
vt -1.192093E-07 -5
vt -1.192093E-07 -5.25
vt 3.576279E-07 -1.25
vt 1.192093E-07 -1
vt 4 -1.25
vt 4 -1
vt 4 -5.25
vt 4 -5.5
vt 0 -5.5
vt 3.576279E-07 -1.5
vt 4 -1.5
vt 4 -5.5
vt 4 -5.75
vt 0 -5.75
vt 3.576279E-07 -1.75
vt 4 -1.75
vt 4 -5.75
vt 4 -6
vt 0 -6
vt 3.576279E-07 -2
vt 4 -2
vt -1.490116E-07 -4
vt -1.490116E-07 -3
vt 2 -4
vt 2 -3

vn 2.973851E-06 0.9978588 -0.06540587
vn 3.039885E-06 0.9807847 -0.1950931
vn 2.934951E-06 0.9469291 -0.3214426
vn 2.779801E-06 0.8968717 -0.4422908
vn 2.37885E-06 0.8314682 -0.5555724
vn 2.151026E-06 0.7518381 -0.6593478
vn 1.886398E-06 0.6593439 -0.7518415
vn 1.193017E-06 0.5555682 -0.831471
vn 1.265389E-06 0.4422856 -0.8968742
vn 9.196392E-07 0.3214372 -0.9469309
vn 5.581491E-07 0.1950872 -0.9807859
vn 1.871124E-07 0.06540051 -0.9978591
vn 1 -2.980232E-06 8.118027E-08
vn -0.7063425 0.7063546 -0.04629831
vn -0.706342 0.6942688 -0.1381014
vn -0.7063422 0.6703038 -0.2275379
vn -0.7063425 0.6348696 -0.3130828
vn -0.7063404 0.5885715 -0.393277
vn -0.7063404 0.5322063 -0.4667331
vn -0.7063409 0.466733 -0.5322057
vn -0.7063422 0.3932736 -0.5885716
vn -0.7063414 0.3130814 -0.6348715
vn -0.706341 0.2275372 -0.6703054
vn -0.706343 0.1381022 -0.6942676
vn -0.7063418 0.04629423 -0.7063556
vn -2.87001E-06 -0.9978589 0.06540263
vn -2.816262E-06 -0.9807845 0.1950942
vn -2.723294E-06 -0.9469282 0.321445
vn -3.007005E-06 -0.8968741 0.4422859
vn -2.337398E-06 -0.8314676 0.5555733
vn -2.094826E-06 -0.7518361 0.65935
vn -1.796767E-06 -0.6593425 0.7518428
vn -1.564723E-06 -0.5555714 0.8314688
vn -1.369371E-06 -0.4422852 0.8968745
vn -9.196333E-07 -0.3214352 0.9469316
vn -4.64164E-07 -0.1950861 0.9807861
vn -1.871189E-07 -0.06540278 0.9978589
vn -1 3.814687E-06 -2.500266E-07
vn 0.7063543 0.7063428 -0.04629781
vn 0.7063525 0.6942585 -0.1380993
vn 0.7063516 0.6702946 -0.227536
vn 0.7063513 0.6348606 -0.313081
vn 0.7063537 0.5885631 -0.3932658
vn 0.7063546 0.532194 -0.4667256
vn 0.7063538 0.4667212 -0.5321989
vn 0.7063518 0.3932591 -0.5885698
vn 0.7063517 0.3130744 -0.6348635
vn 0.7063507 0.2275364 -0.6702954
vn 0.7063512 0.138091 -0.6942615
vn 0.7063513 0.0462891 -0.7063464

usemtl bm_edge_white
f 3/3/1 4/4/1 2/2/1 1/1/1
f 6/3/2 3/4/2 1/2/2 5/1/2
f 8/3/3 6/4/3 5/2/3 7/1/3
f 10/3/4 8/4/4 7/2/4 9/1/4
f 12/3/5 10/4/5 9/2/5 11/1/5
f 14/3/6 12/4/6 11/2/6 13/1/6
f 16/3/7 14/4/7 13/2/7 15/1/7
f 18/3/8 16/4/8 15/2/8 17/1/8
f 20/3/9 18/4/9 17/2/9 19/1/9
f 22/3/10 20/4/10 19/2/10 21/1/10
f 24/3/11 22/4/11 21/2/11 23/1/11
f 26/3/12 24/4/12 23/2/12 25/1/12
f 4/4/13 3/2/13 28/1/13 27/3/13
f 1/4/14 2/2/14 30/1/14 29/3/14
f 3/4/13 6/2/13 31/1/13 28/3/13
f 5/4/15 1/2/15 29/1/15 32/3/15
f 6/4/13 8/2/13 33/1/13 31/3/13
f 7/4/16 5/2/16 32/1/16 34/3/16
f 8/4/13 10/2/13 35/1/13 33/3/13
f 9/4/17 7/2/17 34/1/17 36/3/17
f 10/4/13 12/2/13 37/1/13 35/3/13
f 11/4/18 9/2/18 36/1/18 38/3/18
f 12/4/13 14/2/13 39/1/13 37/3/13
f 13/4/19 11/2/19 38/1/19 40/3/19
f 14/4/13 16/2/13 41/1/13 39/3/13
f 15/4/20 13/2/20 40/1/20 42/3/20
f 16/4/13 18/2/13 43/1/13 41/3/13
f 17/4/21 15/2/21 42/1/21 44/3/21
f 18/4/13 20/2/13 45/1/13 43/3/13
f 19/4/22 17/2/22 44/1/22 46/3/22
f 20/4/13 22/2/13 47/1/13 45/3/13
f 21/4/23 19/2/23 46/1/23 48/3/23
f 22/4/13 24/2/13 49/1/13 47/3/13
f 23/4/24 21/2/24 48/1/24 50/3/24
f 24/4/13 26/2/13 51/1/13 49/3/13
f 25/4/25 23/2/25 50/1/25 52/3/25
f 27/4/13 28/2/13 103/1/13 102/3/13
f 106/4/38 107/2/38 105/1/38 104/3/38
f 28/4/13 31/2/13 108/1/13 103/3/13
f 110/4/38 106/2/38 104/1/38 109/3/38
f 31/4/13 33/2/13 111/1/13 108/3/13
f 113/4/38 110/2/38 109/1/38 112/3/38
f 33/4/13 35/2/13 114/1/13 111/3/13
f 116/4/38 113/2/38 112/1/38 115/3/38
f 35/4/13 37/2/13 117/1/13 114/3/13
f 119/4/38 116/2/38 115/1/38 118/3/38
f 37/4/13 39/2/13 120/1/13 117/3/13
f 122/4/38 119/2/38 118/1/38 121/3/38
f 39/4/13 41/2/13 123/1/13 120/3/13
f 125/4/38 122/2/38 121/1/38 124/3/38
f 41/4/13 127/2/13 126/1/13 123/3/13
f 129/4/38 125/2/38 124/1/38 128/3/38
f 127/4/13 45/2/13 130/1/13 126/3/13
f 132/4/38 129/2/38 128/1/38 131/3/38
f 45/4/13 47/2/13 133/1/13 130/3/13
f 135/4/38 132/2/38 131/1/38 134/3/38
f 47/4/13 49/2/13 136/1/13 133/3/13
f 138/4/38 135/2/38 134/1/38 137/3/38
f 49/4/13 140/2/13 139/1/13 136/3/13
f 142/4/38 138/2/38 137/1/38 141/3/38
f 141/30/37 137/31/37 95/29/37 98/28/37
f 137/30/36 134/31/36 92/29/36 95/28/36
f 134/30/35 131/31/35 89/29/35 92/28/35
f 131/30/34 128/31/34 85/29/34 89/28/34
f 128/30/33 124/31/33 81/29/33 85/28/33
f 124/30/32 121/31/32 77/29/32 81/28/32
f 121/30/31 118/31/31 73/29/31 77/28/31
f 118/30/30 115/31/30 69/29/30 73/28/30
f 115/30/29 112/31/29 65/29/29 69/28/29
f 112/30/28 109/31/28 61/29/28 65/28/28
f 109/30/27 104/31/27 54/29/27 61/28/27
f 104/30/26 105/31/26 53/29/26 54/28/26
f 102/29/26 103/28/26 56/30/26 55/31/26
f 103/29/27 108/28/27 62/30/27 56/31/27
f 108/29/28 111/28/28 66/30/28 62/31/28
f 111/29/29 114/28/29 70/30/29 66/31/29
f 114/29/30 117/28/30 74/30/30 70/31/30
f 117/29/31 120/28/31 78/30/31 74/31/31
f 120/29/32 123/28/32 82/30/32 78/31/32
f 123/29/33 126/28/33 86/30/33 82/31/33
f 126/29/34 130/28/34 90/30/34 86/31/34
f 130/29/35 133/28/35 93/30/35 90/31/35
f 133/29/36 136/28/36 96/30/36 93/31/36
f 136/29/37 139/28/37 99/30/37 96/31/37
f 145/3/1 146/4/1 144/2/1 143/1/1
f 148/3/2 145/4/2 143/2/2 147/1/2
f 150/3/3 148/4/3 147/2/3 149/1/3
f 152/3/4 150/4/4 149/2/4 151/1/4
f 154/3/5 152/4/5 151/2/5 153/1/5
f 156/3/6 154/4/6 153/2/6 155/1/6
f 158/3/7 156/4/7 155/2/7 157/1/7
f 160/3/8 158/4/8 157/2/8 159/1/8
f 162/3/9 160/4/9 159/2/9 161/1/9
f 164/3/10 162/4/10 161/2/10 163/1/10
f 166/3/11 164/4/11 163/2/11 165/1/11
f 168/3/12 166/4/12 165/2/12 167/1/12
f 146/4/39 145/2/39 170/1/39 169/3/39
f 143/4/38 144/2/38 107/1/38 106/3/38
f 145/4/40 148/2/40 171/1/40 170/3/40
f 147/4/38 143/2/38 106/1/38 110/3/38
f 148/4/41 150/2/41 172/1/41 171/3/41
f 149/4/38 147/2/38 110/1/38 173/3/38
f 150/4/42 152/2/42 174/1/42 172/3/42
f 151/4/38 149/2/38 173/1/38 175/3/38
f 152/4/43 154/2/43 176/1/43 174/3/43
f 153/4/38 151/2/38 175/1/38 177/3/38
f 154/4/44 156/2/44 178/1/44 176/3/44
f 155/4/38 153/2/38 177/1/38 179/3/38
f 156/4/45 158/2/45 180/1/45 178/3/45
f 157/4/38 155/2/38 179/1/38 181/3/38
f 158/4/46 160/2/46 182/1/46 180/3/46
f 159/4/38 157/2/38 181/1/38 183/3/38
f 160/4/47 162/2/47 91/1/47 182/3/47
f 161/4/38 159/2/38 183/1/38 132/3/38
f 162/4/48 164/2/48 94/1/48 91/3/48
f 163/4/38 161/2/38 132/1/38 135/3/38
f 164/4/49 166/2/49 97/1/49 94/3/49
f 165/4/38 163/2/38 135/1/38 138/3/38
f 166/4/50 168/2/50 100/1/50 97/3/50
f 167/4/38 165/2/38 138/1/38 142/3/38

usemtl bm_grid_blank4
f 55/7/26 56/8/26 54/6/26 53/5/26
f 56/8/27 62/15/27 61/14/27 54/13/27
f 62/15/28 66/20/28 65/19/28 61/18/28
f 66/20/29 70/25/29 69/24/29 65/23/29
f 70/7/30 74/8/30 73/6/30 69/5/30
f 74/8/31 78/15/31 77/14/31 73/13/31
f 78/15/32 82/20/32 81/19/32 77/18/32
f 82/20/33 86/25/33 85/24/33 81/23/33
f 86/7/34 90/8/34 89/6/34 85/5/34
f 90/8/35 93/15/35 92/14/35 89/13/35
f 93/15/36 96/20/36 95/19/36 92/18/36
f 96/20/37 99/25/37 98/24/37 95/23/37

usemtl bm_tile10_A
f 59/11/1 60/12/1 58/10/1 57/9/1
f 64/17/2 59/11/2 57/9/2 63/16/2
f 68/22/3 64/17/3 63/16/3 67/21/3
f 72/27/4 68/22/4 67/21/4 71/26/4
f 76/11/5 72/12/5 71/10/5 75/9/5
f 80/17/6 76/11/6 75/9/6 79/16/6
f 84/22/7 80/17/7 79/16/7 83/21/7
f 88/27/8 84/22/8 83/21/8 87/26/8
f 46/11/9 88/12/9 87/10/9 91/9/9
f 48/17/10 46/11/10 91/9/10 94/16/10
f 50/22/11 48/17/11 94/16/11 97/21/11
f 101/27/12 50/22/12 97/21/12 100/26/12

