# ProBuilder 4.5.2
# https://unity3d.com/unity/features/worldbuilding/probuilder
# 5/8/2022 10:49:31 PM

mtllib ./KeyAtTheSummitArch.mtl
o KeyAtTheSummitArch

g Cube (3)
v 0 0 1
v -2 0 1
v 0.5 3 1
v -2.5 3 1
v -2 0 -2
v -2.5 3 -2
v 0 0 -2
v 0.5 3 -2
v -10 -6.5 -1.5
v -9.693333 -4.170629 -1.5
v -10 -6.5 0.5
v -9.693333 -4.170629 0.5
v -7.76148 -4.688267 -1.5
v -8 -6.5 -1.5
v -7.76148 -4.688267 0.5
v -8 -6.5 0.5
v -8.794229 -2 -1.5
v -8.794229 -2 0.5
v -7.062178 -3 -1.5
v -7.062178 -3 0.5
v -7.36396 -0.1360397 -1.5
v -7.36396 -0.1360397 0.5
v -5.949748 -1.550252 -1.5
v -5.949748 -1.550252 0.5
v -5.5 1.29423 -1.5
v -5.5 1.29423 0.5
v -4.5 -0.4378223 -1.5
v -4.5 -0.4378223 0.5
v -3.329371 2.193333 -1.5
v -3.329371 2.193333 0.5
v -2.811733 0.2614803 -1.5
v -2.811733 0.2614803 0.5
v -1 2.5 -1.5
v -1 2.5 0.5
v -1 0.5 -1.5
v -1 0.5 0.5
v 1.329371 2.193333 -1.5
v 1.329371 2.193333 0.5
v 0.8117332 0.2614803 -1.5
v 0.8117332 0.2614803 0.5
v 3.5 1.294229 -1.5
v 3.5 1.294229 0.5
v 2.5 -0.4378223 -1.5
v 2.5 -0.4378223 0.5
v 5.36396 -0.1360397 -1.5
v 5.36396 -0.1360397 0.5
v 3.949747 -1.550252 -1.5
v 3.949747 -1.550252 0.5
v 6.794228 -2 -1.5
v 6.794228 -2 0.5
v 5.062178 -3 -1.5
v 5.062178 -3 0.5
v 7.693333 -4.170628 -1.5
v 7.693333 -4.170628 0.5
v 5.76148 -4.688266 -1.5
v 5.76148 -4.688266 0.5
v 8 -6.500001 -1.5
v 8 -6.500001 0.5
v 6 -6.5 -1.5
v 6 -6.5 0.5

vt 0 0
vt 0 1
vt 1 0
vt 1 1

vn 0 0 1
vn -0.9863939 -0.164399 0
vn 0 0 -1
vn 0.9863939 -0.164399 0
vn 0 1 0
vn 0 -1 0
vn -0.9914449 0.1305261 0
vn 0.9914448 -0.1305264 0
vn -0.9238795 0.3826836 0
vn 0.9238796 -0.3826833 0
vn -0.7933531 0.6087617 0
vn 0.7933534 -0.6087613 0
vn -0.6087619 0.793353 0
vn 0.6087613 -0.7933534 0
vn -0.3826833 0.9238796 0
vn 0.3826833 -0.9238796 0
vn -0.1305261 0.9914449 0
vn 0.1305264 -0.9914448 0
vn 0.1305261 0.9914449 0
vn -0.1305264 -0.9914448 0
vn 0.3826836 0.9238795 0
vn -0.3826833 -0.9238796 0
vn 0.6087617 0.7933531 0
vn -0.6087614 -0.7933533 0
vn 0.7933532 0.6087616 0
vn -0.7933532 -0.6087616 0
vn 0.9238793 0.382684 0
vn -0.9238796 -0.3826834 0
vn 0.9914449 0.130526 0
vn -0.9914448 -0.1305263 0

usemtl bm_grid_blank4
f 3/3/1 4/4/1 2/2/1 1/1/1
f 4/3/2 6/4/2 5/2/2 2/1/2
f 6/3/3 8/4/3 7/2/3 5/1/3
f 8/3/4 3/4/4 1/2/4 7/1/4
f 8/3/5 6/4/5 4/2/5 3/1/5
f 1/3/6 2/4/6 5/2/6 7/1/6
f 11/3/7 12/4/7 10/2/7 9/1/7
f 15/2/8 16/1/8 14/3/8 13/4/8
f 12/3/9 18/4/9 17/2/9 10/1/9
f 20/2/10 15/1/10 13/3/10 19/4/10
f 18/3/11 22/4/11 21/2/11 17/1/11
f 24/2/12 20/1/12 19/3/12 23/4/12
f 22/3/13 26/4/13 25/2/13 21/1/13
f 28/2/14 24/1/14 23/3/14 27/4/14
f 26/3/15 30/4/15 29/2/15 25/1/15
f 32/2/16 28/1/16 27/3/16 31/4/16
f 30/3/17 34/4/17 33/2/17 29/1/17
f 36/2/18 32/1/18 31/3/18 35/4/18
f 34/2/19 38/1/19 37/3/19 33/4/19
f 40/3/20 36/4/20 35/2/20 39/1/20
f 38/2/21 42/1/21 41/3/21 37/4/21
f 44/3/22 40/4/22 39/2/22 43/1/22
f 42/2/23 46/1/23 45/3/23 41/4/23
f 48/3/24 44/4/24 43/2/24 47/1/24
f 46/2/25 50/1/25 49/3/25 45/4/25
f 52/3/26 48/4/26 47/2/26 51/1/26
f 50/2/27 54/1/27 53/3/27 49/4/27
f 56/3/28 52/4/28 51/2/28 55/1/28
f 54/2/29 58/1/29 57/3/29 53/4/29
f 60/3/30 56/4/30 55/2/30 59/1/30
f 16/3/1 15/4/1 12/2/1 11/1/1
f 13/2/3 14/1/3 9/3/3 10/4/3
f 15/3/1 20/4/1 18/2/1 12/1/1
f 19/2/3 13/1/3 10/3/3 17/4/3
f 20/3/1 24/4/1 22/2/1 18/1/1
f 23/2/3 19/1/3 17/3/3 21/4/3
f 24/3/1 28/4/1 26/2/1 22/1/1
f 27/2/3 23/1/3 21/3/3 25/4/3
f 28/3/1 32/4/1 30/2/1 26/1/1
f 31/2/3 27/1/3 25/3/3 29/4/3
f 32/3/1 36/4/1 34/2/1 30/1/1
f 35/2/3 31/1/3 29/3/3 33/4/3
f 36/2/1 40/1/1 38/3/1 34/4/1
f 39/3/3 35/4/3 33/2/3 37/1/3
f 40/2/1 44/1/1 42/3/1 38/4/1
f 43/3/3 39/4/3 37/2/3 41/1/3
f 44/2/1 48/1/1 46/3/1 42/4/1
f 47/3/3 43/4/3 41/2/3 45/1/3
f 48/2/1 52/1/1 50/3/1 46/4/1
f 51/3/3 47/4/3 45/2/3 49/1/3
f 52/2/1 56/1/1 54/3/1 50/4/1
f 55/3/3 51/4/3 49/2/3 53/1/3
f 56/2/1 60/1/1 58/3/1 54/4/1
f 59/3/3 55/4/3 53/2/3 57/1/3

