# ProBuilder 4.5.2
# https://unity3d.com/unity/features/worldbuilding/probuilder
# 9/17/2023 4:04:24 PM

mtllib ./LycorisRecoilSceneryArch.mtl
o LycorisRecoilSceneryArch

g LycorisRecoilSceneryArch
v 0 0 0
v 0.2725935 2.070552 0
v 0 0 2
v 0.2725935 2.070552 2
v 2.204445 1.552914 0
v 2 0 0
v 2.204445 1.552914 2
v 2 0 2
v 1.071797 4 0
v 1.071797 4 2
v 2.803848 3 0
v 2.803848 3 2
v 2.343146 5.656854 0
v 2.343146 5.656854 2
v 3.75736 4.24264 0
v 3.75736 4.24264 2
v 4 6.928204 0
v 4 6.928204 2
v 5 5.196153 0
v 5 5.196153 2
v 5.929447 7.727407 0
v 5.929447 7.727407 2
v 6.447085 5.795555 0
v 6.447085 5.795555 2
v 8 8 0
v 8 8 2
v 8 6 0
v 8 6 2

vt 0 0
vt 0 1
vt 1 0
vt 1 1

vn -0.9914449 0.1305262 0
vn 0.9914449 -0.1305261 0
vn -0.9238795 0.3826834 0
vn 0.9238794 -0.3826836 0
vn -0.7933533 0.6087614 0
vn 0.7933533 -0.6087615 0
vn -0.6087616 0.7933533 0
vn 0.6087617 -0.7933531 0
vn -0.3826833 0.9238796 0
vn 0.3826835 -0.9238795 0
vn -0.1305262 0.9914449 0
vn 0.1305261 -0.9914449 0
vn 1 0 0
vn 0 0 1
vn 0 0 -1

usemtl bm_tile01_C
f 3/3/1 4/4/1 2/2/1 1/1/1
f 7/3/2 8/4/2 6/2/2 5/1/2
f 4/3/3 10/4/3 9/2/3 2/1/3
f 12/3/4 7/4/4 5/2/4 11/1/4
f 10/3/5 14/4/5 13/2/5 9/1/5
f 16/3/6 12/4/6 11/2/6 15/1/6
f 14/3/7 18/4/7 17/2/7 13/1/7
f 20/3/8 16/4/8 15/2/8 19/1/8
f 18/3/9 22/4/9 21/2/9 17/1/9
f 24/3/10 20/4/10 19/2/10 23/1/10
f 8/3/14 7/4/14 4/2/14 3/1/14
f 5/3/15 6/4/15 1/2/15 2/1/15
f 7/3/14 12/4/14 10/2/14 4/1/14
f 11/3/15 5/4/15 2/2/15 9/1/15
f 12/3/14 16/4/14 14/2/14 10/1/14
f 15/3/15 11/4/15 9/2/15 13/1/15
f 16/3/14 20/4/14 18/2/14 14/1/14
f 19/3/15 15/4/15 13/2/15 17/1/15
f 20/3/14 24/4/14 22/2/14 18/1/14
f 23/3/15 19/4/15 17/2/15 21/1/15

usemtl bm_tile05_C
f 22/3/11 26/4/11 25/2/11 21/1/11
f 28/3/12 24/4/12 23/2/12 27/1/12
f 27/3/13 25/4/13 26/2/13 28/1/13
f 24/3/14 28/4/14 26/2/14 22/1/14
f 27/3/15 23/4/15 21/2/15 25/1/15

