# ProBuilder 4.5.2
# https://unity3d.com/unity/features/worldbuilding/probuilder
# 7/20/2022 3:55:13 PM

mtllib ./NonLinearCurve3.mtl
o NonLinearCurve3

g Arch (37)
v 0 0 0
v -1.740038E-06 0.03849804 -0.5873679
v -6 1.823902E-05 1.859665E-05
v -6.000002 0.03851628 -0.5873494
v -4.002777E-08 0.5342205 -0.5221046
v 1.490116E-06 0.5 1.490116E-07
v -6 0.5342388 -0.5220861
v -5.999999 0.5000182 1.859665E-05
v -3.21736E-06 0.1533339 -1.164686
v -6.000003 0.1533521 -1.164667
v -1.363137E-06 0.636297 -1.035276
v -6.000001 0.6363152 -1.035257
v -4.426837E-06 0.3425424 -1.722075
v -6.000004 0.3425606 -1.722057
v -2.451473E-06 0.8044823 -1.530734
v -6.000002 0.8045006 -1.530715
v -5.319715E-06 0.6028862 -2.25
v -6.000005 0.6029043 -2.249981
v -3.218651E-06 1.035899 -2
v -6.000003 1.035917 -1.999981
v -5.91216E-06 0.9299109 -2.739426
v -6.000006 0.929929 -2.739407
v -3.758515E-06 1.326587 -2.435045
v -6.000004 1.326605 -2.435027
v -6.118116E-06 1.31802 -3.18198
v -6.000006 1.318038 -3.181962
v -3.928341E-06 1.671574 -2.828427
v -6.000004 1.671592 -2.828408
v -6.03287E-06 1.760575 -3.570089
v -6.000006 1.760593 -3.570071
v -3.826076E-06 2.064955 -3.173413
v -6.000004 2.064973 -3.173395
v -5.635445E-06 2.250001 -3.897114
v -6.000006 2.25002 -3.897095
v -3.552282E-06 2.500001 -3.464101
v -6.000004 2.500019 -3.464082
v -4.788951E-06 2.777925 -4.157457
v -6.000005 2.777944 -4.157438
v -2.852825E-06 2.969267 -3.695517
v -6.000003 2.969285 -3.695498
v -3.71774E-06 3.335315 -4.346665
v -6.000004 3.335333 -4.346646
v -1.953618E-06 3.464725 -3.863702
v -6.000002 3.464743 -3.863684
v -2.411579E-06 3.912633 -4.461501
v -6.000003 3.912652 -4.461482
v -6.071514E-07 3.977896 -3.965778
v -6 3.977914 -3.96576
v -8.642673E-07 4.500001 -4.499999
v -6.000001 4.500019 -4.499979
v 7.152557E-07 4.500001 -3.999999
v -5.999999 4.500019 -3.999979
v 1.164698E-06 5.087369 -4.461501
v -5.999999 5.087387 -4.461482
v 2.253872E-06 5.022106 -3.965778
v -5.999998 5.022124 -3.96576
v 2.957981E-06 5.664687 -4.346664
v -5.999997 5.664705 -4.346645
v 4.483683E-06 5.535277 -3.863702
v -5.999996 5.535295 -3.863683
v 5.463048E-06 6.222077 -4.157456
v -5.999995 6.222095 -4.157437
v 6.445499E-06 6.030734 -3.695516
v -5.999993 6.030753 -3.695498
v 7.715997E-06 6.75 -3.897112
v -5.999992 6.750019 -3.897094
v 8.607067E-06 6.500001 -3.4641
v -5.999991 6.500019 -3.464081
v 1.017959E-05 7.239428 -3.570088
v -5.99999 7.239446 -3.570069
v 1.047904E-05 6.935047 -3.173411
v -5.99999 6.935065 -3.173393
v 1.283616E-05 7.681981 -3.181978
v -5.999987 7.681999 -3.18196
v 1.299938E-05 7.328428 -2.828425
v -5.999987 7.328446 -2.828406
v 1.518788E-05 8.07009 -2.739424
v -5.999985 8.070108 -2.739405
v 1.519576E-05 7.673414 -2.435043
v -5.999985 7.673432 -2.435025
v 1.768768E-05 8.397114 -2.249998
v -5.999982 8.397133 -2.249979
v 1.752377E-05 7.964102 -1.999998
v -5.999982 7.96412 -1.999979
v 2.030909E-05 8.657457 -1.722073
v -5.999979 8.657475 -1.722055
v 1.995987E-05 8.195518 -1.530732
v -5.99998 8.195538 -1.530713
v 2.302358E-05 8.846666 -1.164683
v -5.999977 8.846685 -1.164665
v 2.152505E-05 8.363703 -1.035274
v -5.999979 8.363721 -1.035255
v 2.484736E-05 8.961502 -0.5873657
v -5.999975 8.96152 -0.587347
v 2.314618E-05 8.465779 -0.5221028
v -5.999977 8.465797 -0.5220842
v 2.670288E-05 9 3.075611E-06
v -5.999973 9.000019 2.193451E-05
v 2.574921E-05 8.5 2.882889E-06
v -5.999974 8.500018 2.145767E-05
v -6.500111 1.806022E-05 2.002716E-05
v -6.500113 0.03851599 -0.587348
v -6.500109 0.5000181 1.955032E-05
v -6.500111 0.5342388 -0.5220847
v 0.5000893 0.03849739 -0.5873667
v 0.5000893 -4.768423E-07 1.311302E-06
v 0.5000893 0.5342201 -0.5221029
v 0.5000913 0.4999996 1.370907E-06
v -6.500114 0.1533517 -1.164666
v -6.500112 0.6363152 -1.035257
v 0.5000874 0.1533331 -1.164685
v 0.5000892 0.6362966 -1.035275
v -6.500116 0.3425606 -1.722056
v -6.500114 0.8045003 -1.530713
v 0.5000854 0.3425421 -1.722075
v 0.5000873 0.804482 -1.530732
v -6.500117 0.6029041 -2.24998
v -6.500113 1.035917 -1.99998
v 0.5000854 0.6028855 -2.249999
v 0.5000873 1.035899 -1.999999
v -6.500117 0.9299288 -2.739406
v -6.500115 1.326606 -2.435025
v 0.5000834 0.9299102 -2.739424
v 0.5000853 1.326587 -2.435044
v -6.500117 1.318039 -3.181961
v -6.500115 1.671592 -2.828406
v 0.5000833 1.31802 -3.181979
v 0.5000853 1.671573 -2.828425
v -6.500117 1.760592 -3.570069
v -6.500115 2.064973 -3.173392
v 0.5000833 1.760574 -3.570088
v 0.5000853 2.064954 -3.173411
v -6.500117 2.250019 -3.897094
v -6.500115 2.500019 -3.464082
v 0.5000832 2.25 -3.897112
v 0.500087 2.5 -3.4641
v -6.500116 2.777943 -4.157437
v -6.500114 2.969286 -3.695498
v 0.5000852 2.777925 -4.157455
v 0.500087 2.969267 -3.695515
v -6.500115 3.335332 -4.346646
v -6.500113 3.464742 -3.863683
v 0.5000852 3.335314 -4.346663
v 0.5000869 3.464724 -3.863701
v -6.500114 3.912651 -4.461481
v -6.500112 3.977914 -3.965758
v 0.500087 3.912632 -4.461499
v 0.5000889 3.977895 -3.965777
v -6.500113 4.500019 -4.49998
v -6.500111 4.500019 -3.99998
v 0.5000888 4.5 -4.499996
v 0.5000907 4.5 -3.999996
v -6.500111 5.087387 -4.461481
v -6.500109 5.022123 -3.965758
v 0.5000908 5.087368 -4.461499
v 0.5000924 5.022105 -3.965777
v -6.500109 5.664704 -4.346644
v -6.500108 5.535295 -3.863683
v 0.5000924 5.664685 -4.346663
v 0.5000947 5.535277 -3.863699
v -6.500106 6.222094 -4.157437
v -6.500104 6.030752 -3.695496
v 0.5000945 6.222075 -4.157454
v 0.5000966 6.030734 -3.695515
v -6.500104 6.750019 -3.897092
v -6.500103 6.500019 -3.46408
v 0.5000981 6.750001 -3.89711
v 0.5000985 6.500001 -3.464098
v -6.500102 7.239446 -3.570067
v -6.500101 6.935064 -3.173392
v 0.5001 7.239428 -3.570086
v 0.5001 6.935046 -3.173409
v -6.500099 7.681999 -3.181957
v -6.500098 7.328446 -2.828404
v 0.500102 7.68198 -3.181977
v 0.5001022 7.328428 -2.828423
v -6.500096 8.070107 -2.739403
v -6.500096 7.673431 -2.435023
v 0.5001057 8.070089 -2.739422
v 0.500104 7.673413 -2.435042
v -6.500094 8.397132 -2.249978
v -6.500094 7.964121 -1.999978
v 0.5001076 8.397114 -2.249996
v 0.5001079 7.964102 -1.999996
v -6.500092 8.657475 -1.722054
v -6.500091 8.195537 -1.530711
v 0.5001097 8.657457 -1.722071
v 0.5001101 8.195518 -1.530729
v -6.500088 8.846684 -1.164664
v -6.50009 8.363721 -1.035254
v 0.5001119 8.846665 -1.164683
v 0.5001115 8.363703 -1.035273
v -6.500087 8.96152 -0.5873456
v -6.500088 8.465797 -0.5220823
v 0.5001136 8.961501 -0.5873643
v 0.5001131 8.465778 -0.5221006
v -6.500085 9.000017 2.241135E-05
v -6.500085 8.500017 2.193451E-05
v 0.5001154 8.999999 5.662441E-06
v 0.5001159 8.499999 5.662441E-06

vt -2.384186E-07 2
vt -8.940697E-08 2.25
vt 3 2.000001
vt 3 2.250001
vt 3 -4.75
vt 3 -5
vt -1.192093E-07 -4.75
vt 0 -5
vt -3.576279E-07 2.25
vt -2.384186E-07 2.5
vt 3 2.500001
vt 3 -4.5
vt -2.384186E-07 -4.5
vt -2.384186E-07 2.75
vt 3 2.750001
vt 3 -4.25
vt -2.384186E-07 -4.25
vt -2.384186E-07 3
vt 3 3.000001
vt 3 -4
vt -2.384186E-07 -4
vt 1 0
vt 0 0
vt 1 1
vt 0 1

vn -3.236041E-06 -0.9978589 -0.06540299
vn 3.234742E-06 0.9978589 0.06540306
vn -3.582223E-06 -0.9807852 -0.1950907
vn 3.5861E-06 0.9807852 0.195091
vn -3.874797E-06 -0.9469301 -0.3214397
vn 3.900342E-06 0.9469301 0.3214397
vn -4.097195E-06 -0.8968725 -0.4422892
vn 4.105983E-06 0.8968726 0.442289
vn -4.255047E-06 -0.8314693 -0.5555708
vn 4.23297E-06 0.8314695 0.5555704
vn -4.366537E-06 -0.7518396 -0.659346
vn 4.340337E-06 0.7518396 0.6593461
vn -4.291612E-06 -0.6593454 -0.7518402
vn 4.25806E-06 0.6593456 0.75184
vn -4.254896E-06 -0.5555705 -0.8314695
vn 4.376092E-06 0.5555706 0.8314694
vn -4.133077E-06 -0.4422882 -0.896873
vn 4.115501E-06 0.4422876 0.8968733
vn -3.905692E-06 -0.3214397 -0.9469301
vn 3.905693E-06 0.3214398 0.9469301
vn -3.706997E-06 -0.1950895 -0.9807854
vn 3.512133E-06 0.1950898 0.9807854
vn -3.29032E-06 -0.06540283 -0.9978589
vn 3.369623E-06 0.06540289 0.9978589
vn -2.974594E-06 0.06540278 -0.9978589
vn 2.85564E-06 -0.06540289 0.9978589
vn -2.528663E-06 0.1950911 -0.9807851
vn 2.411743E-06 -0.1950913 0.9807851
vn -2.039472E-06 0.3214397 -0.9469301
vn 1.976298E-06 -0.3214398 0.9469301
vn -1.444104E-06 0.4422893 -0.8968725
vn 1.479746E-06 -0.4422885 0.8968728
vn -8.992889E-07 0.5555698 -0.8314699
vn 8.001682E-07 -0.5555701 0.8314697
vn -3.689469E-07 0.6593472 -0.7518386
vn 3.988293E-07 -0.659346 0.7518396
vn 2.531276E-07 0.7518396 -0.659346
vn -2.269316E-07 -0.7518402 0.6593453
vn 7.669819E-07 0.8314701 -0.5555695
vn -8.77214E-07 -0.8314701 0.5555695
vn 1.49781E-06 0.8968729 -0.4422885
vn -1.48902E-06 -0.8968726 0.442289
vn 1.888958E-06 0.9469298 -0.3214405
vn -1.863423E-06 -0.9469306 0.321438
vn 2.509285E-06 0.9807853 -0.1950905
vn -2.359205E-06 -0.9807851 0.1950911
vn 2.809492E-06 0.9978589 -0.06540269
vn -2.811028E-06 -0.9978589 0.06540329
vn -1 3.814701E-06 3.497308E-06
vn 1 1.192092E-07 7.81333E-09

usemtl bm_tile08_B
f 7/7/2 8/8/2 6/6/2 5/5/2
f 12/13/4 7/7/4 5/5/4 11/12/4
f 16/17/6 12/13/6 11/12/6 15/16/6
f 20/21/8 16/17/8 15/16/8 19/20/8
f 24/7/10 20/8/10 19/6/10 23/5/10
f 28/13/12 24/7/12 23/5/12 27/12/12
f 32/17/14 28/13/14 27/12/14 31/16/14
f 36/21/16 32/17/16 31/16/16 35/20/16
f 40/7/18 36/8/18 35/6/18 39/5/18
f 44/13/20 40/7/20 39/5/20 43/12/20
f 48/17/22 44/13/22 43/12/22 47/16/22
f 52/21/24 48/17/24 47/16/24 51/20/24
f 56/7/26 52/8/26 51/6/26 55/5/26
f 60/13/28 56/7/28 55/5/28 59/12/28
f 64/17/30 60/13/30 59/12/30 63/16/30
f 68/21/32 64/17/32 63/16/32 67/20/32
f 72/7/34 68/8/34 67/6/34 71/5/34
f 76/13/36 72/7/36 71/5/36 75/12/36
f 80/17/38 76/13/38 75/12/38 79/16/38
f 84/21/40 80/17/40 79/16/40 83/20/40
f 88/7/42 84/8/42 83/6/42 87/5/42
f 92/13/44 88/7/44 87/5/44 91/12/44
f 96/17/46 92/13/46 91/12/46 95/16/46
f 100/21/48 96/17/48 95/16/48 99/20/48

usemtl bm_edge_white
f 103/24/49 104/25/49 102/23/49 101/22/49
f 107/24/50 108/25/50 106/23/50 105/22/50
f 104/24/49 110/25/49 109/23/49 102/22/49
f 112/24/50 107/25/50 105/23/50 111/22/50
f 110/24/49 114/25/49 113/23/49 109/22/49
f 116/24/50 112/25/50 111/23/50 115/22/50
f 114/24/49 118/25/49 117/23/49 113/22/49
f 120/24/50 116/25/50 115/23/50 119/22/50
f 118/24/49 122/25/49 121/23/49 117/22/49
f 124/24/50 120/25/50 119/23/50 123/22/50
f 122/24/49 126/25/49 125/23/49 121/22/49
f 128/24/50 124/25/50 123/23/50 127/22/50
f 126/24/49 130/25/49 129/23/49 125/22/49
f 132/24/50 128/25/50 127/23/50 131/22/50
f 130/24/49 134/25/49 133/23/49 129/22/49
f 136/24/50 132/25/50 131/23/50 135/22/50
f 134/24/49 138/25/49 137/23/49 133/22/49
f 140/24/50 136/25/50 135/23/50 139/22/50
f 138/24/49 142/25/49 141/23/49 137/22/49
f 144/24/50 140/25/50 139/23/50 143/22/50
f 142/24/49 146/25/49 145/23/49 141/22/49
f 148/24/50 144/25/50 143/23/50 147/22/50
f 146/24/49 150/25/49 149/23/49 145/22/49
f 152/24/50 148/25/50 147/23/50 151/22/50
f 150/24/49 154/25/49 153/23/49 149/22/49
f 156/24/50 152/25/50 151/23/50 155/22/50
f 154/24/49 158/25/49 157/23/49 153/22/49
f 160/24/50 156/25/50 155/23/50 159/22/50
f 158/24/49 162/25/49 161/23/49 157/22/49
f 164/24/50 160/25/50 159/23/50 163/22/50
f 162/24/49 166/25/49 165/23/49 161/22/49
f 168/24/50 164/25/50 163/23/50 167/22/50
f 166/24/49 170/25/49 169/23/49 165/22/49
f 172/24/50 168/25/50 167/23/50 171/22/50
f 170/24/49 174/25/49 173/23/49 169/22/49
f 176/24/50 172/25/50 171/23/50 175/22/50
f 174/24/49 178/25/49 177/23/49 173/22/49
f 180/24/50 176/25/50 175/23/50 179/22/50
f 178/24/49 182/25/49 181/23/49 177/22/49
f 184/24/50 180/25/50 179/23/50 183/22/50
f 182/24/49 186/25/49 185/23/49 181/22/49
f 188/24/50 184/25/50 183/23/50 187/22/50
f 186/24/49 190/25/49 189/23/49 185/22/49
f 192/24/50 188/25/50 187/23/50 191/22/50
f 190/24/49 194/25/49 193/23/49 189/22/49
f 196/24/50 192/25/50 191/23/50 195/22/50
f 194/24/49 198/25/49 197/23/49 193/22/49
f 200/24/50 196/25/50 195/23/50 199/22/50
f 102/22/3 109/24/3 10/25/3 4/23/3
f 104/25/2 103/23/2 8/22/2 7/24/2
f 110/25/4 104/23/4 7/22/4 12/24/4
f 109/22/5 113/24/5 14/25/5 10/23/5
f 114/25/6 110/23/6 12/22/6 16/24/6
f 113/22/7 117/24/7 18/25/7 14/23/7
f 118/25/8 114/23/8 16/22/8 20/24/8
f 117/22/9 121/24/9 22/25/9 18/23/9
f 122/25/10 118/23/10 20/22/10 24/24/10
f 121/22/11 125/24/11 26/25/11 22/23/11
f 126/25/12 122/23/12 24/22/12 28/24/12
f 125/22/13 129/24/13 30/25/13 26/23/13
f 130/25/14 126/23/14 28/22/14 32/24/14
f 129/22/15 133/24/15 34/25/15 30/23/15
f 134/25/16 130/23/16 32/22/16 36/24/16
f 133/22/17 137/24/17 38/25/17 34/23/17
f 138/25/18 134/23/18 36/22/18 40/24/18
f 137/22/19 141/24/19 42/25/19 38/23/19
f 142/25/20 138/23/20 40/22/20 44/24/20
f 141/22/21 145/24/21 46/25/21 42/23/21
f 146/25/22 142/23/22 44/22/22 48/24/22
f 145/22/23 149/24/23 50/25/23 46/23/23
f 150/25/24 146/23/24 48/22/24 52/24/24
f 149/22/25 153/24/25 54/25/25 50/23/25
f 154/25/26 150/23/26 52/22/26 56/24/26
f 153/22/27 157/24/27 58/25/27 54/23/27
f 158/25/28 154/23/28 56/22/28 60/24/28
f 157/22/29 161/24/29 62/25/29 58/23/29
f 162/25/30 158/23/30 60/22/30 64/24/30
f 161/22/31 165/24/31 66/25/31 62/23/31
f 166/25/32 162/23/32 64/22/32 68/24/32
f 165/22/33 169/24/33 70/25/33 66/23/33
f 170/25/34 166/23/34 68/22/34 72/24/34
f 169/22/35 173/24/35 74/25/35 70/23/35
f 174/25/36 170/23/36 72/22/36 76/24/36
f 173/22/37 177/24/37 78/25/37 74/23/37
f 178/25/38 174/23/38 76/22/38 80/24/38
f 177/22/39 181/24/39 82/25/39 78/23/39
f 182/25/40 178/23/40 80/22/40 84/24/40
f 181/22/41 185/24/41 86/25/41 82/23/41
f 186/25/42 182/23/42 84/22/42 88/24/42
f 185/22/43 189/24/43 90/25/43 86/23/43
f 190/25/44 186/23/44 88/22/44 92/24/44
f 189/22/45 193/24/45 94/25/45 90/23/45
f 194/25/46 190/23/46 92/22/46 96/24/46
f 193/22/47 197/24/47 98/25/47 94/23/47
f 198/25/48 194/23/48 96/22/48 100/24/48
f 101/22/1 102/24/1 4/25/1 3/23/1
f 111/25/3 105/23/3 2/22/3 9/24/3
f 112/22/6 116/24/6 15/25/6 11/23/6
f 107/22/4 112/24/4 11/25/4 5/23/4
f 105/25/1 106/23/1 1/22/1 2/24/1
f 108/22/2 107/24/2 5/25/2 6/23/2
f 115/25/5 111/23/5 9/22/5 13/24/5
f 116/22/8 120/24/8 19/25/8 15/23/8
f 119/25/7 115/23/7 13/22/7 17/24/7
f 120/22/10 124/24/10 23/25/10 19/23/10
f 123/25/9 119/23/9 17/22/9 21/24/9
f 124/22/12 128/24/12 27/25/12 23/23/12
f 127/25/11 123/23/11 21/22/11 25/24/11
f 128/22/14 132/24/14 31/25/14 27/23/14
f 131/25/13 127/23/13 25/22/13 29/24/13
f 132/22/16 136/24/16 35/25/16 31/23/16
f 135/25/15 131/23/15 29/22/15 33/24/15
f 136/22/18 140/24/18 39/25/18 35/23/18
f 139/25/17 135/23/17 33/22/17 37/24/17
f 140/22/20 144/24/20 43/25/20 39/23/20
f 143/25/19 139/23/19 37/22/19 41/24/19
f 144/22/22 148/24/22 47/25/22 43/23/22
f 147/25/21 143/23/21 41/22/21 45/24/21
f 148/22/24 152/24/24 51/25/24 47/23/24
f 151/25/23 147/23/23 45/22/23 49/24/23
f 152/22/26 156/24/26 55/25/26 51/23/26
f 155/25/25 151/23/25 49/22/25 53/24/25
f 156/22/28 160/24/28 59/25/28 55/23/28
f 159/25/27 155/23/27 53/22/27 57/24/27
f 160/22/30 164/24/30 63/25/30 59/23/30
f 163/25/29 159/23/29 57/22/29 61/24/29
f 164/22/32 168/24/32 67/25/32 63/23/32
f 167/25/31 163/23/31 61/22/31 65/24/31
f 168/22/34 172/24/34 71/25/34 67/23/34
f 171/25/33 167/23/33 65/22/33 69/24/33
f 172/22/36 176/24/36 75/25/36 71/23/36
f 175/25/35 171/23/35 69/22/35 73/24/35
f 176/22/38 180/24/38 79/25/38 75/23/38
f 179/25/37 175/23/37 73/22/37 77/24/37
f 180/22/40 184/24/40 83/25/40 79/23/40
f 183/25/39 179/23/39 77/22/39 81/24/39
f 184/22/42 188/24/42 87/25/42 83/23/42
f 187/25/41 183/23/41 81/22/41 85/24/41
f 188/22/44 192/24/44 91/25/44 87/23/44
f 191/25/43 187/23/43 85/22/43 89/24/43
f 192/22/46 196/24/46 95/25/46 91/23/46
f 195/25/45 191/23/45 89/22/45 93/24/45
f 196/22/48 200/24/48 99/25/48 95/23/48
f 199/25/47 195/23/47 93/22/47 97/24/47

usemtl bm_grid_blank4
f 3/3/1 4/4/1 2/2/1 1/1/1
f 4/4/3 10/11/3 9/10/3 2/9/3
f 10/11/5 14/15/5 13/14/5 9/10/5
f 14/15/7 18/19/7 17/18/7 13/14/7
f 18/3/9 22/4/9 21/2/9 17/1/9
f 22/4/11 26/11/11 25/10/11 21/9/11
f 26/11/13 30/15/13 29/14/13 25/10/13
f 30/15/15 34/19/15 33/18/15 29/14/15
f 34/3/17 38/4/17 37/2/17 33/1/17
f 38/4/19 42/11/19 41/10/19 37/9/19
f 42/11/21 46/15/21 45/14/21 41/10/21
f 46/15/23 50/19/23 49/18/23 45/14/23
f 50/3/25 54/4/25 53/2/25 49/1/25
f 54/4/27 58/11/27 57/10/27 53/9/27
f 58/11/29 62/15/29 61/14/29 57/10/29
f 62/15/31 66/19/31 65/18/31 61/14/31
f 66/3/33 70/4/33 69/2/33 65/1/33
f 70/4/35 74/11/35 73/10/35 69/9/35
f 74/11/37 78/15/37 77/14/37 73/10/37
f 78/15/39 82/19/39 81/18/39 77/14/39
f 82/3/41 86/4/41 85/2/41 81/1/41
f 86/4/43 90/11/43 89/10/43 85/9/43
f 90/11/45 94/15/45 93/14/45 89/10/45
f 94/15/47 98/19/47 97/18/47 93/14/47

