# ProBuilder 4.5.2
# https://unity3d.com/unity/features/worldbuilding/probuilder
# 9/17/2023 1:23:31 PM

mtllib ./NonLinearCurve5.mtl
o NonLinearCurve5

g NonLinearCurve5
v 0 0.529943 -0.4568417
v 0 0.5 0
v 0.5 0.529943 -0.4568417
v 0.5 0.5 0
v 0 0.6192596 -0.9058666
v 0.5 0.6192596 -0.9058666
v 0 0.7664218 -1.339392
v 0.5 0.7664218 -1.339392
v 0 0.9689112 -1.75
v 0.5 0.9689112 -1.75
v 0 1.223263 -2.130665
v 0.5 1.223263 -2.130665
v 0 1.525126 -2.474874
v 0.5 1.525126 -2.474874
v 0 1.869335 -2.776737
v 0.5 1.869335 -2.776737
v 0 2.25 -3.031089
v 0.5 2.25 -3.031089
v 0 2.660608 -3.233578
v 0.5 2.660608 -3.233578
v 0 3.094133 -3.38074
v 0.5 3.094133 -3.38074
v 0 3.543158 -3.470057
v 0.5 3.543158 -3.470057
v 0 4 -3.5
v 0.5 4 -3.5
v 0.5 0 0
v 0.5 0.03422046 -0.5221047
v -0.5000058 0.03422031 -0.5221039
v -0.5000057 1.191922E-07 2.384186E-06
v 0.5 0.1362967 -1.035276
v -0.5000061 0.1362963 -1.035272
v 0.5 0.304482 -1.530734
v -0.5000057 0.3044811 -1.53073
v 0.5 0.5358984 -2
v -0.5000054 0.5358984 -1.999999
v 0.5 0.8265867 -2.435046
v -0.5000063 0.8265886 -2.435043
v 0.5 1.171573 -2.828427
v -0.5000064 1.171574 -2.828423
v 0.5 1.564954 -3.173413
v -0.5000057 1.564955 -3.17341
v 0.5 2 -3.464102
v -0.500006 1.999998 -3.464099
v 0.5 2.469266 -3.695518
v -0.5000065 2.469266 -3.695515
v 0.5 2.964724 -3.863703
v -0.5000061 2.964722 -3.863699
v 0.5 3.477895 -3.965779
v -0.5000057 3.477894 -3.965778
v 0.5 4 -4
v -0.5000064 4 -3.999997
v -8.499998 -0.5000257 9.536743E-07
v -8.499998 -0.4615295 -0.5873671
v -0.4999985 -0.5000244 1.370907E-06
v -0.4999986 -0.4615281 -0.5873668
v -8.499998 0.03419444 -0.5221028
v -8.499998 -2.574921E-05 -9.536743E-07
v -0.4999982 0.03419581 -0.5221025
v -0.4999981 -2.43783E-05 -2.980232E-08
v -8.499999 -0.3466934 -1.164684
v -0.4999989 -0.3466921 -1.164683
v -8.499998 0.1362705 -1.035275
v -0.4999985 0.1362718 -1.035275
v -8.499998 -0.1574821 -1.722076
v -0.4999986 -0.1574847 -1.722076
v -8.499999 0.3044553 -1.530733
v -0.499999 0.3044566 -1.530732
v -8.499998 0.1028581 -2.250001
v -0.4999983 0.1028593 -2.25
v -8.499999 0.5358726 -1.999998
v -0.4999988 0.5358739 -1.999998
v -8.499999 0.429883 -2.739428
v -0.4999983 0.4298842 -2.739427
v -8.499999 0.8265589 -2.435046
v -0.4999988 0.8265603 -2.435046
v -8.499998 0.8179927 -3.181979
v -0.4999986 0.8179941 -3.181979
v -8.499999 1.171548 -2.828426
v -0.4999988 1.171545 -2.828426
v -8.499998 1.260546 -3.570087
v -0.4999981 1.260548 -3.570087
v -8.499999 1.56493 -3.173413
v -0.499999 1.564927 -3.173413
v -8.499998 1.749975 -3.897115
v -0.4999986 1.749972 -3.897115
v -8.499998 1.999972 -3.464102
v -0.4999983 1.999974 -3.464102
v -8.5 2.277898 -4.157458
v -0.4999995 2.277899 -4.157458
v -8.499999 2.46924 -3.695518
v -0.4999988 2.469242 -3.695518
v -8.499999 2.835289 -4.346665
v -0.499999 2.835287 -4.346664
v -8.5 2.964697 -3.863702
v -0.4999986 2.964698 -3.863701
v -8.499999 3.412605 -4.4615
v -0.499999 3.412607 -4.4615
v -8.499999 3.477868 -3.965777
v -0.499999 3.47787 -3.965776
v -8.499999 3.999973 -4.5
v -0.4999986 3.999974 -4.5
v -8.499999 3.999975 -4
v -0.4999986 3.999972 -4
v 0.500095 -0.5000214 1.430511E-06
v 0.5000949 -0.4615251 -0.5873668
v -9.500006 -0.4615324 -0.5873671
v -9.500005 -0.5000286 9.536743E-07
v -9.500005 0.03419158 -0.5221033
v -9.500006 -2.861023E-05 -9.536743E-07
v 0.5000945 -0.3466891 -1.164683
v -9.500005 -0.3466963 -1.164684
v -9.500005 0.1362676 -1.035275
v 0.5000949 -0.1574817 -1.722076
v -9.500006 -0.1574851 -1.722076
v -9.500005 0.3044524 -1.530733
v 0.5000951 0.1028624 -2.25
v 0.5000947 0.535877 -1.999998
v -9.500005 0.1028552 -2.250001
v -9.500006 0.5358697 -1.999998
v 0.5000951 0.4298873 -2.739427
v -9.500005 0.4298801 -2.739428
v -9.500006 0.8265599 -2.435046
v 0.5000949 0.8179972 -3.181979
v -9.500006 0.8179898 -3.181979
v -9.500006 1.171545 -2.828426
v 0.5000954 1.26055 -3.570087
v -9.500006 1.260543 -3.570087
v -9.500005 1.564927 -3.173413
v 0.5000949 1.749975 -3.897115
v 0.5000951 1.999977 -3.464102
v -9.500006 1.749972 -3.897115
v -9.500006 1.999969 -3.464102
v 0.5000939 2.277902 -4.157458
v -9.500006 2.277895 -4.157458
v -9.500007 2.469238 -3.695518
v 0.5000944 2.83529 -4.346664
v -9.500006 2.835286 -4.346665
v -9.500008 2.964694 -3.863702
v 0.5000944 3.41261 -4.4615
v -9.500007 3.412602 -4.4615
v -9.500006 3.477865 -3.965777
v -9.5 0.5299155 -0.4568424
v -9.5 0.4999714 -1.907349E-06
v -9 0.5299136 -0.4568424
v -9 0.4999733 -1.907349E-06
v -9.5 0.6192315 -0.9058666
v -9 0.6192296 -0.9058666
v -9.5 0.7663937 -1.339393
v -9 0.7663918 -1.339393
v -9.5 0.9688843 -1.75
v -9 0.9688824 -1.75
v -9.5 1.223236 -2.130665
v -9 1.223234 -2.130665
v -9.500001 1.525096 -2.474874
v -9.000001 1.525098 -2.474874
v -9.5 1.869306 -2.776739
v -9 1.869305 -2.776739
v -9.5 2.24997 -3.031089
v -9 2.249972 -3.031089
v -9.5 2.66058 -3.233578
v -9 2.660578 -3.233578
v -9.5 3.094105 -3.380743
v -9 3.094103 -3.380743
v -9.5 3.543129 -3.470057
v -9 3.543131 -3.470057
v -9.500001 3.999969 -3.5
v -9.000001 3.999971 -3.5
v -8.500006 -2.574921E-05 -9.536743E-07
v -8.500006 0.03419444 -0.5221028
v -8.500006 0.1362705 -1.035272
v -8.500006 0.3044553 -1.530733
v -8.500006 0.5358726 -2.000002
v -9.5 0.5358697 -2.000002
v -8.500007 0.8265589 -2.435046
v -8.500007 1.171544 -2.828426
v -8.500007 1.564926 -3.173413
v -8.500006 1.999972 -3.464098
v -8.500007 2.46924 -3.695514
v -8.500007 3.477868 -3.965777
v -8.500007 3.999971 -3.999996
v -9.500001 3.999972 -4
v -8.5 4.250074 -4.499998
v -0.4999995 4.250075 -4.499998
v -8.5 4.250076 -3.999998
v -0.4999995 4.250073 -3.999998
v -9.000113 3.999974 -4.499998
v -9.000113 3.999975 -3.999998
v -9.000113 4.250077 -4.499995
v -9.000113 4.250078 -3.999994
v 8.80361E-05 3.999975 -3.999997
v 8.80361E-05 3.999978 -4.499997
v 8.632217E-05 4.250074 -3.999994
v 8.632216E-05 4.250077 -4.499994
v -9.500007 3.99997 -4.5
v -9.500007 3.999971 -4.25
v -9.000003 3.999972 -4.5
v -9.000003 3.999973 -4
v -9.000003 3.999973 -4.25
v 0.5000949 3.999975 -4
v 0.5000949 3.999976 -4.25
v 0.5000949 3.999977 -4.5
v 4.816055E-05 3.999975 -4.25

vt 0 0
vt 0 1
vt 1 0
vt 1 1
vt 4 -5
vt 4 -5.25
vt -1.192093E-07 -5
vt -1.192093E-07 -5.25
vt 3.576279E-07 -1.25
vt 1.192093E-07 -1
vt 4 -1.25
vt 4 -1
vt 4 -5.25
vt 4 -5.5
vt 0 -5.5
vt 3.576279E-07 -1.5
vt 4 -1.5
vt 4 -5.5
vt 4 -5.75
vt 0 -5.75
vt 3.576279E-07 -1.75
vt 4 -1.75
vt 4 -5.75
vt 4 -6
vt 0 -6
vt 3.576279E-07 -2
vt 4 -2
vt -1.490116E-07 -4
vt -1.490116E-07 -3
vt 2 -4
vt 2 -3
vt 16.5 -4.500005
vt 0.4999995 -4.500004
vt 16.5 -3.500005
vt 0.4999995 -3.500004
vt -1.000003 -3.999988
vt -1.000003 -2.999988
vt 1.000009 -3.999982
vt -3.427267E-06 -2.999988
vt 7.999994 -4.000006
vt 8.999983 -3.000013
vt 9.999983 -4.000013
vt 9.999983 -3.000013
vt 8.499925 4
vt 8.499922 -12
vt 9.000126 3.999998
vt 9.000124 -12
vt 0.5001044 -4.499986
vt 0.5001016 -3.499985
vt -0.0001020432 -4.49998
vt -0.0001049042 -3.499979
vt 0.5000839 -12
vt 0.5000892 4
vt -0.0001182556 -12
vt -0.0001125336 3.999998
vt 8.499898 -3.499984
vt 8.499903 -4.499984
vt 9.000096 -3.499977
vt 9.000101 -4.499977
vt 9.000107 -7.999907
vt 8.499905 -7.999906
vt 9.000112 -9.000134
vt 8.499905 -9.000134
vt 0.5001068 -7.999895
vt -9.536743E-05 -7.999897
vt 0.5001063 -9.000124
vt -0.0001001358 -9.000124
vt 12.49988 -3.499974
vt 12.49988 -4.499973
vt 13.50011 -3.499966
vt 13.50011 -4.499967
vt -0.5001044 -0.5000473
vt 9.727478E-05 -0.5000454
vt -0.5001073 0.5001243
vt 9.10759E-05 0.5001278
vt 8.499874 -9.852648E-05
vt 9.000075 -0.0001004338
vt 8.49988 1.000075
vt 9.000078 1.000071
vt 4.500083 -4.500006
vt 4.500083 -3.500006
vt 3.499911 -4.499998
vt 3.499911 -3.499998
vt 1 0.5
vt 0.9999999 -4
vt 8.999996 -2.999988
vt 10 -2.999988
vt 10 -3.499988
vt 8.999996 -3.499988
vt 10 -3.999988
vt 8.999996 -3.999988
vt -1.000047 -4.000011
vt -1.000047 -3.500011
vt -1.000047 -3.000011
vt 4.673004E-05 -3.500011

vn 0 0.9978589 0.06540313
vn 0 0.9807853 0.1950903
vn 0 0.9469301 0.3214398
vn 0 0.8968728 0.4422886
vn 0 0.8314698 0.55557
vn 0 0.7518398 0.6593459
vn 0 0.6593459 0.7518398
vn 0 0.5555703 0.8314695
vn 0 0.4422881 0.8968731
vn 0 0.3214398 0.94693
vn 0 0.1950904 0.9807853
vn 0 0.0654031 0.9978589
vn 1 0 0
vn -0.7063446 0.7063526 0.04629633
vn -0.7063441 0.694267 0.1380993
vn -0.7063442 0.6703023 0.227536
vn -0.7063445 0.6348683 0.313081
vn -0.7063422 0.5885704 0.3932755
vn -0.7063419 0.5322055 0.4667318
vn -0.7063423 0.4667324 0.5322042
vn -0.7063435 0.3932731 0.5885705
vn -0.7063423 0.313081 0.6348708
vn -0.7063417 0.2275371 0.6703046
vn -0.7063434 0.1381024 0.694267
vn -0.7063421 0.04629421 0.7063553
vn 1.744074E-07 -0.9978592 -0.06539995
vn 1.811922E-07 -0.9807851 -0.1950914
vn 1.743732E-07 -0.9469291 -0.3214425
vn -2.542919E-07 -0.896875 -0.4422841
vn 1.735705E-07 -0.8314692 -0.5555709
vn 1.709829E-07 -0.7518378 -0.6593481
vn 1.627133E-07 -0.6593451 -0.7518405
vn 1.489035E-07 -0.5555727 -0.831468
vn -7.835468E-08 -0.4422891 -0.8968725
vn 1.139188E-07 -0.3214366 -0.9469311
vn 5.877754E-08 -0.1950895 -0.9807855
vn 1.169551E-08 -0.06540603 -0.9978588
vn -1 1.695414E-06 1.734758E-06
vn 0.7063519 0.7063453 0.04629608
vn 0.70635 0.6942613 0.1380977
vn 0.7063491 0.670298 0.2275335
vn 0.70635 0.6348631 0.3130789
vn 0.706352 0.588566 0.3932644
vn 0.7063528 0.5321975 0.4667243
vn 0.7063525 0.4667248 0.5321974
vn 0.7063509 0.3932621 0.5885689
vn 0.7063504 0.3130793 0.6348625
vn 0.7063504 0.2275396 0.6702946
vn 0.7063509 0.1380943 0.6942611
vn 0.7063511 0.04629484 0.7063462
vn -1.192091E-07 1 -2.861023E-06
vn 5.960327E-08 7.626318E-06 -1
vn -5.960714E-08 -7.626311E-06 1

usemtl bm_edge_white
f 196/84/38 141/1/38 142/2/38
f 196/84/38 195/3/38 141/1/38
f 182/4/38 196/84/38 142/2/38
f 97/29/37 197/85/37 101/28/37
f 141/31/37 197/85/37 97/29/37
f 195/30/37 197/85/37 141/31/37
f 198/86/51 199/89/51 182/87/51
f 199/89/51 196/88/51 182/87/51
f 199/89/51 197/91/51 196/88/51
f 197/91/51 195/90/51 196/88/51
f 200/2/13 49/4/13 201/75/13
f 201/75/13 140/3/13 202/1/13
f 201/75/13 49/4/13 140/3/13
f 140/29/37 192/85/37 202/28/37
f 98/31/37 192/85/37 140/29/37
f 102/30/37 192/85/37 98/31/37
f 200/94/51 203/95/51 191/29/51
f 200/94/51 201/93/51 203/95/51
f 201/93/51 192/28/51 203/95/51
f 201/93/51 202/92/51 192/28/51
f 2/2/1 4/4/1 3/3/1
f 3/3/1 1/1/1 2/2/1
f 1/2/2 3/4/2 6/3/2
f 6/3/2 5/1/2 1/2/2
f 5/2/3 6/4/3 8/3/3
f 8/3/3 7/1/3 5/2/3
f 7/2/4 8/4/4 10/3/4
f 10/3/4 9/1/4 7/2/4
f 9/2/5 10/4/5 12/3/5
f 12/3/5 11/1/5 9/2/5
f 11/2/6 12/4/6 14/3/6
f 14/3/6 13/1/6 11/2/6
f 13/2/7 14/4/7 16/3/7
f 16/3/7 15/1/7 13/2/7
f 15/2/8 16/4/8 18/3/8
f 18/3/8 17/1/8 15/2/8
f 17/2/9 18/4/9 20/3/9
f 20/3/9 19/1/9 17/2/9
f 19/2/10 20/4/10 22/3/10
f 22/3/10 21/1/10 19/2/10
f 21/2/11 22/4/11 24/3/11
f 24/3/11 23/1/11 21/2/11
f 23/2/12 24/4/12 26/3/12
f 26/3/12 25/1/12 23/2/12
f 28/1/13 3/2/13 4/4/13
f 4/4/13 27/3/13 28/1/13
f 30/1/14 2/2/14 1/4/14
f 1/4/14 29/3/14 30/1/14
f 31/1/13 6/2/13 3/4/13
f 3/4/13 28/3/13 31/1/13
f 29/1/15 1/2/15 5/4/15
f 5/4/15 32/3/15 29/1/15
f 33/1/13 8/2/13 6/4/13
f 6/4/13 31/3/13 33/1/13
f 32/1/16 5/2/16 7/4/16
f 7/4/16 34/3/16 32/1/16
f 35/1/13 10/2/13 8/4/13
f 8/4/13 33/3/13 35/1/13
f 34/1/17 7/2/17 9/4/17
f 9/4/17 36/3/17 34/1/17
f 37/1/13 12/2/13 10/4/13
f 10/4/13 35/3/13 37/1/13
f 36/1/18 9/2/18 11/4/18
f 11/4/18 38/3/18 36/1/18
f 39/1/13 14/2/13 12/4/13
f 12/4/13 37/3/13 39/1/13
f 38/1/19 11/2/19 13/4/19
f 13/4/19 40/3/19 38/1/19
f 41/1/13 16/2/13 14/4/13
f 14/4/13 39/3/13 41/1/13
f 40/1/20 13/2/20 15/4/20
f 15/4/20 42/3/20 40/1/20
f 43/1/13 18/2/13 16/4/13
f 16/4/13 41/3/13 43/1/13
f 42/1/21 15/2/21 17/4/21
f 17/4/21 44/3/21 42/1/21
f 45/1/13 20/2/13 18/4/13
f 18/4/13 43/3/13 45/1/13
f 44/1/22 17/2/22 19/4/22
f 19/4/22 46/3/22 44/1/22
f 47/1/13 22/2/13 20/4/13
f 20/4/13 45/3/13 47/1/13
f 46/1/23 19/2/23 21/4/23
f 21/4/23 48/3/23 46/1/23
f 49/1/13 24/2/13 22/4/13
f 22/4/13 47/3/13 49/1/13
f 48/1/24 21/2/24 23/4/24
f 23/4/24 50/3/24 48/1/24
f 51/1/13 26/2/13 24/4/13
f 24/4/13 49/3/13 51/1/13
f 50/1/25 23/2/25 25/4/25
f 25/4/25 52/3/25 50/1/25
f 106/1/13 28/2/13 27/4/13
f 27/4/13 105/3/13 106/1/13
f 108/1/38 110/2/38 109/4/38
f 109/4/38 107/3/38 108/1/38
f 111/1/13 31/2/13 28/4/13
f 28/4/13 106/3/13 111/1/13
f 107/1/38 109/2/38 113/4/38
f 113/4/38 112/3/38 107/1/38
f 114/1/13 33/2/13 31/4/13
f 31/4/13 111/3/13 114/1/13
f 112/1/38 113/2/38 116/4/38
f 116/4/38 115/3/38 112/1/38
f 117/1/13 118/2/13 33/4/13
f 33/4/13 114/3/13 117/1/13
f 115/1/38 116/2/38 120/4/38
f 120/4/38 119/3/38 115/1/38
f 121/1/13 37/2/13 118/4/13
f 118/4/13 117/3/13 121/1/13
f 119/1/38 120/2/38 123/4/38
f 123/4/38 122/3/38 119/1/38
f 124/1/13 39/2/13 37/4/13
f 37/4/13 121/3/13 124/1/13
f 122/1/38 123/2/38 126/4/38
f 126/4/38 125/3/38 122/1/38
f 127/1/13 41/2/13 39/4/13
f 39/4/13 124/3/13 127/1/13
f 125/1/38 126/2/38 129/4/38
f 129/4/38 128/3/38 125/1/38
f 130/1/13 131/2/13 41/4/13
f 41/4/13 127/3/13 130/1/13
f 128/1/38 129/2/38 133/4/38
f 133/4/38 132/3/38 128/1/38
f 134/1/13 45/2/13 131/4/13
f 131/4/13 130/3/13 134/1/13
f 132/1/38 133/2/38 136/4/38
f 136/4/38 135/3/38 132/1/38
f 137/1/13 47/2/13 45/4/13
f 45/4/13 134/3/13 137/1/13
f 135/1/38 136/2/38 139/4/38
f 139/4/38 138/3/38 135/1/38
f 140/1/13 49/2/13 47/4/13
f 47/4/13 137/3/13 140/1/13
f 138/1/38 139/2/38 142/4/38
f 142/4/38 141/3/38 138/1/38
f 93/29/36 138/31/36 141/30/36
f 141/30/36 97/28/36 93/29/36
f 89/29/35 135/31/35 138/30/35
f 138/30/35 93/28/35 89/29/35
f 85/29/34 132/31/34 135/30/34
f 135/30/34 89/28/34 85/29/34
f 81/29/33 128/31/33 132/30/33
f 132/30/33 85/28/33 81/29/33
f 77/29/32 125/31/32 128/30/32
f 128/30/32 81/28/32 77/29/32
f 73/29/31 122/31/31 125/30/31
f 125/30/31 77/28/31 73/29/31
f 69/29/30 119/31/30 122/30/30
f 122/30/30 73/28/30 69/29/30
f 65/29/29 115/31/29 119/30/29
f 119/30/29 69/28/29 65/29/29
f 61/29/28 112/31/28 115/30/28
f 115/30/28 65/28/28 61/29/28
f 54/29/27 107/31/27 112/30/27
f 112/30/27 61/28/27 54/29/27
f 53/29/26 108/31/26 107/30/26
f 107/30/26 54/28/26 53/29/26
f 56/30/26 106/28/26 105/29/26
f 105/29/26 55/31/26 56/30/26
f 62/30/27 111/28/27 106/29/27
f 106/29/27 56/31/27 62/30/27
f 66/30/28 114/28/28 111/29/28
f 111/29/28 62/31/28 66/30/28
f 70/30/29 117/28/29 114/29/29
f 114/29/29 66/31/29 70/30/29
f 74/30/30 121/28/30 117/29/30
f 117/29/30 70/31/30 74/30/30
f 78/30/31 124/28/31 121/29/31
f 121/29/31 74/31/31 78/30/31
f 82/30/32 127/28/32 124/29/32
f 124/29/32 78/31/32 82/30/32
f 86/30/33 130/28/33 127/29/33
f 127/29/33 82/31/33 86/30/33
f 90/30/34 134/28/34 130/29/34
f 130/29/34 86/31/34 90/30/34
f 94/30/35 137/28/35 134/29/35
f 134/29/35 90/31/35 94/30/35
f 98/30/36 140/28/36 137/29/36
f 137/29/36 94/31/36 98/30/36
f 144/2/1 146/4/1 145/3/1
f 145/3/1 143/1/1 144/2/1
f 143/2/2 145/4/2 148/3/2
f 148/3/2 147/1/2 143/2/2
f 147/2/3 148/4/3 150/3/3
f 150/3/3 149/1/3 147/2/3
f 149/2/4 150/4/4 152/3/4
f 152/3/4 151/1/4 149/2/4
f 151/2/5 152/4/5 154/3/5
f 154/3/5 153/1/5 151/2/5
f 153/2/6 154/4/6 156/3/6
f 156/3/6 155/1/6 153/2/6
f 155/2/7 156/4/7 158/3/7
f 158/3/7 157/1/7 155/2/7
f 157/2/8 158/4/8 160/3/8
f 160/3/8 159/1/8 157/2/8
f 159/2/9 160/4/9 162/3/9
f 162/3/9 161/1/9 159/2/9
f 161/2/10 162/4/10 164/3/10
f 164/3/10 163/1/10 161/2/10
f 163/2/11 164/4/11 166/3/11
f 166/3/11 165/1/11 163/2/11
f 165/2/12 166/4/12 168/3/12
f 168/3/12 167/1/12 165/2/12
f 170/1/39 145/2/39 146/4/39
f 146/4/39 169/3/39 170/1/39
f 110/1/38 144/2/38 143/4/38
f 143/4/38 109/3/38 110/1/38
f 171/1/40 148/2/40 145/4/40
f 145/4/40 170/3/40 171/1/40
f 109/1/38 143/2/38 147/4/38
f 147/4/38 113/3/38 109/1/38
f 172/1/41 150/2/41 148/4/41
f 148/4/41 171/3/41 172/1/41
f 113/1/38 147/2/38 149/4/38
f 149/4/38 116/3/38 113/1/38
f 173/1/42 152/2/42 150/4/42
f 150/4/42 172/3/42 173/1/42
f 116/1/38 149/2/38 151/4/38
f 151/4/38 174/3/38 116/1/38
f 175/1/43 154/2/43 152/4/43
f 152/4/43 173/3/43 175/1/43
f 174/1/38 151/2/38 153/4/38
f 153/4/38 123/3/38 174/1/38
f 176/1/44 156/2/44 154/4/44
f 154/4/44 175/3/44 176/1/44
f 123/1/38 153/2/38 155/4/38
f 155/4/38 126/3/38 123/1/38
f 177/1/45 158/2/45 156/4/45
f 156/4/45 176/3/45 177/1/45
f 126/1/38 155/2/38 157/4/38
f 157/4/38 129/3/38 126/1/38
f 178/1/46 160/2/46 158/4/46
f 158/4/46 177/3/46 178/1/46
f 129/1/38 157/2/38 159/4/38
f 159/4/38 133/3/38 129/1/38
f 179/1/47 162/2/47 160/4/47
f 160/4/47 178/3/47 179/1/47
f 133/1/38 159/2/38 161/4/38
f 161/4/38 136/3/38 133/1/38
f 95/1/48 164/2/48 162/4/48
f 162/4/48 179/3/48 95/1/48
f 136/1/38 161/2/38 163/4/38
f 163/4/38 139/3/38 136/1/38
f 180/1/49 166/2/49 164/4/49
f 164/4/49 95/3/49 180/1/49
f 139/1/38 163/2/38 165/4/38
f 165/4/38 142/3/38 139/1/38
f 181/1/50 168/2/50 166/4/50
f 166/4/50 180/3/50 181/1/50
f 142/1/38 165/2/38 167/4/38
f 167/4/38 182/3/38 142/1/38
f 52/38/51 25/39/51 26/37/51
f 26/37/51 51/36/51 52/38/51
f 182/42/51 167/43/51 168/41/51
f 168/41/51 181/40/51 182/42/51

usemtl bm_grid_blank4
f 53/5/26 54/6/26 56/8/26 55/7/26
f 54/13/27 61/14/27 62/15/27 56/8/27
f 61/18/28 65/19/28 66/20/28 62/15/28
f 65/23/29 69/24/29 70/25/29 66/20/29
f 69/5/30 73/6/30 74/8/30 70/7/30
f 73/13/31 77/14/31 78/15/31 74/8/31
f 77/18/32 81/19/32 82/20/32 78/15/32
f 81/23/33 85/24/33 86/25/33 82/20/33
f 85/5/34 89/6/34 90/8/34 86/7/34
f 89/13/35 93/14/35 94/15/35 90/8/35
f 93/18/36 97/19/36 98/20/36 94/15/36
f 97/23/37 101/24/37 102/25/37 98/20/37

usemtl bm_tile08_B
f 57/9/1 58/10/1 60/12/1 59/11/1
f 63/16/2 57/9/2 59/11/2 64/17/2
f 67/21/3 63/16/3 64/17/3 68/22/3
f 71/26/4 67/21/4 68/22/4 72/27/4
f 75/9/5 71/10/5 72/12/5 76/11/5
f 79/16/6 75/9/6 76/11/6 80/17/6
f 83/21/7 79/16/7 80/17/7 84/22/7
f 87/26/8 83/21/8 84/22/8 88/27/8
f 91/9/9 87/10/9 88/12/9 92/11/9
f 95/16/10 91/9/10 92/11/10 96/17/10
f 99/21/11 95/16/11 96/17/11 100/22/11
f 103/26/12 99/21/12 100/22/12 104/27/12

usemtl bm_trim
f 183/32/51 185/34/51 186/35/51 184/33/51
f 102/44/52 101/45/52 183/47/52 184/46/52
f 187/48/38 188/49/38 190/51/38 189/50/38
f 103/52/53 104/53/53 186/55/53 185/54/53
f 191/56/13 192/57/13 194/59/13 193/58/13
f 183/60/52 101/61/52 187/63/52 189/62/52
f 103/64/53 185/65/53 190/67/53 188/66/53
f 185/68/51 183/69/51 189/71/51 190/70/51
f 186/72/53 104/73/53 191/75/53 193/74/53
f 102/76/52 184/77/52 194/79/52 192/78/52
f 184/80/51 186/81/51 193/83/51 194/82/51

