# ProBuilder 4.5.2
# https://unity3d.com/unity/features/worldbuilding/probuilder
# 8/12/2022 3:32:29 PM

mtllib ./SanctuaryTowersColumnRing.mtl
o SanctuaryTowersColumnRing

g Pipe (3)
v 0.2725935 0 2.070552
v 0 0 0
v 0.2725935 8 2.070553
v 0 8 0
v 1.071797 0 4
v 1.071796 8 4
v 2.343146 0 5.656854
v 2.343145 8 5.656853
v 4 0 6.928204
v 4 8 6.928204
v 5.929447 0 7.727407
v 5.929447 8 7.727406
v 8 0 8
v 8 8 8
v 10.07055 0 7.727407
v 10.07055 8 7.727406
v 12 0 6.928203
v 12 8 6.928204
v 13.65685 0 5.656854
v 13.65685 8 5.656853
v 14.9282 0 4
v 14.9282 8 4
v 15.72741 0 2.070553
v 15.72741 8 2.070553
v 16 0 -6.993822E-07
v 16 8 0
v 15.72741 0 -2.070553
v 15.72741 8 -2.070553
v 14.9282 0 -4
v 14.9282 8 -4
v 13.65685 0 -5.656854
v 13.65685 8 -5.656853
v 12 0 -6.928204
v 12 8 -6.928204
v 10.07055 0 -7.727407
v 10.07055 8 -7.727407
v 8 0 -8
v 8 8 -8
v 5.929448 0 -7.727407
v 5.929447 8 -7.727406
v 4.000001 0 -6.928204
v 4.000001 8 -6.928204
v 2.343147 0 -5.656855
v 2.343147 8 -5.656855
v 1.071797 0 -4.000001
v 1.071797 8 -4.000002
v 0.272594 0 -2.070554
v 0.2725945 8 -2.070555
v 2.204445 8 1.552914
v 2 8 0
v 2.803848 8 3
v 3.75736 8 4.242641
v 5 8 5.196152
v 6.447086 8 5.795555
v 8 8 6
v 9.552914 8 5.795555
v 11 8 5.196152
v 12.24264 8 4.242641
v 13.19615 8 3
v 13.79556 8 1.552916
v 14 8 0
v 13.79556 8 -1.552914
v 13.19615 8 -3
v 12.24264 8 -4.242641
v 11 8 -5.196152
v 9.552914 8 -5.795555
v 8 8 -6
v 6.447086 8 -5.795555
v 5 8 -5.196152
v 3.75736 8 -4.242641
v 2.803848 8 -3
v 2.204445 8 -1.552916

vt 0.9999999 8
vt -8.940697E-08 8
vt 0.9999999 12
vt -5.960464E-08 12
vt 1 0
vt 0 0
vt 1 1
vt 0 1

vn -0.9914449 -7.77997E-09 0.1305262
vn -0.9238795 -5.506751E-08 0.3826834
vn -0.7933533 6.156748E-08 0.6087614
vn -0.6087616 0 0.7933533
vn -0.3826833 1.10135E-07 0.9238796
vn -0.1305262 0 0.9914449
vn 0.1305262 1.181894E-07 0.9914449
vn 0.3826835 -5.506751E-08 0.9238795
vn 0.6087614 1.418627E-07 0.7933534
vn 0.7933533 3.628502E-08 0.6087615
vn 0.9238796 1.215399E-07 0.3826833
vn 0.9914448 -1.141096E-08 0.1305261
vn 0.9914448 1.142995E-07 -0.1305263
vn 0.9238796 -1.140485E-08 -0.3826833
vn 0.7933533 7.257002E-08 -0.6087615
vn 0.6087614 -7.257002E-08 -0.7933534
vn 0.3826835 -1.006869E-07 -0.9238795
vn 0.1305261 0 -0.9914449
vn -0.1305263 1.026295E-07 -0.9914448
vn -0.3826833 0 -0.9238796
vn -0.6087613 8.357255E-08 -0.7933534
vn -0.7933531 -3.628503E-08 -0.6087617
vn -0.9238795 3.22578E-08 -0.3826835
vn -0.9914448 0 -0.1305263
vn 0 1 0

usemtl ProBuilderDefault

usemtl bm_grid_blank3
f 3/3/1 4/4/1 2/2/1 1/1/1
f 6/3/2 3/4/2 1/2/2 5/1/2
f 8/3/3 6/4/3 5/2/3 7/1/3
f 10/3/4 8/4/4 7/2/4 9/1/4
f 12/3/5 10/4/5 9/2/5 11/1/5
f 14/3/6 12/4/6 11/2/6 13/1/6
f 16/3/7 14/4/7 13/2/7 15/1/7
f 18/3/8 16/4/8 15/2/8 17/1/8
f 20/3/9 18/4/9 17/2/9 19/1/9
f 22/3/10 20/4/10 19/2/10 21/1/10
f 24/3/11 22/4/11 21/2/11 23/1/11
f 26/3/12 24/4/12 23/2/12 25/1/12
f 28/3/13 26/4/13 25/2/13 27/1/13
f 30/3/14 28/4/14 27/2/14 29/1/14
f 32/3/15 30/4/15 29/2/15 31/1/15
f 34/3/16 32/4/16 31/2/16 33/1/16
f 36/3/17 34/4/17 33/2/17 35/1/17
f 38/3/18 36/4/18 35/2/18 37/1/18
f 40/3/19 38/4/19 37/2/19 39/1/19
f 42/3/20 40/4/20 39/2/20 41/1/20
f 44/3/21 42/4/21 41/2/21 43/1/21
f 46/3/22 44/4/22 43/2/22 45/1/22
f 48/3/23 46/4/23 45/2/23 47/1/23
f 4/3/24 48/4/24 47/2/24 2/1/24
f 49/7/25 50/8/25 4/6/25 3/5/25
f 51/7/25 49/8/25 3/6/25 6/5/25
f 52/7/25 51/8/25 6/6/25 8/5/25
f 53/7/25 52/8/25 8/6/25 10/5/25
f 54/7/25 53/8/25 10/6/25 12/5/25
f 55/7/25 54/8/25 12/6/25 14/5/25
f 56/7/25 55/8/25 14/6/25 16/5/25
f 57/7/25 56/8/25 16/6/25 18/5/25
f 58/7/25 57/8/25 18/6/25 20/5/25
f 59/7/25 58/8/25 20/6/25 22/5/25
f 60/7/25 59/8/25 22/6/25 24/5/25
f 61/7/25 60/8/25 24/6/25 26/5/25
f 62/7/25 61/8/25 26/6/25 28/5/25
f 63/7/25 62/8/25 28/6/25 30/5/25
f 64/7/25 63/8/25 30/6/25 32/5/25
f 65/7/25 64/8/25 32/6/25 34/5/25
f 66/7/25 65/8/25 34/6/25 36/5/25
f 67/7/25 66/8/25 36/6/25 38/5/25
f 68/7/25 67/8/25 38/6/25 40/5/25
f 69/7/25 68/8/25 40/6/25 42/5/25
f 70/7/25 69/8/25 42/6/25 44/5/25
f 71/7/25 70/8/25 44/6/25 46/5/25
f 72/7/25 71/8/25 46/6/25 48/5/25
f 50/7/25 72/8/25 48/6/25 4/5/25

