# ProBuilder 4.5.2
# https://unity3d.com/unity/features/worldbuilding/probuilder
# 2/22/2023 10:46:32 PM

mtllib ./WhichOneCurve3.mtl
o WhichOneCurve3

g Arch (56)
v 0 0 0
v 2.980232E-08 2.070552 -0.2725935
v 4 0 2.384186E-07
v 4 2.070552 -0.2725933
v 4.768372E-07 1.035276 -4.136297
v 2.384186E-07 0 -4
v 4 1.035276 -4.136296
v 4 0 -4
v 1.192093E-07 4 -1.071797
v 4 4 -1.071797
v 4.768372E-07 2 -4.535898
v 4 2 -4.535898
v 2.384186E-07 5.656854 -2.343146
v 4 5.656854 -2.343146
v 4.768372E-07 2.828427 -5.171573
v 4 2.828427 -5.171573
v 2.384186E-07 6.928204 -4
v 4 6.928204 -4
v 4.768372E-07 3.464102 -6
v 4 3.464102 -6
v 4.768372E-07 7.727407 -5.929447
v 4 7.727407 -5.929447
v 4.768372E-07 3.863703 -6.964724
v 4 3.863703 -6.964724
v 4.768372E-07 8 -8
v 4 8 -8
v 4.768372E-07 4 -8
v 4 4 -8

vt 0 -2
vt 0 -1
vt 2 -2
vt 2 -0.9999998
vt 2 -3.5
vt 2 -4
vt 2.384186E-07 -3.5
vt 1.788139E-07 -4
vt 2 -3
vt 2.384186E-07 -3
vt 2 -2.000001
vt 2 -1.000001

vn -5.909472E-08 0.1305262 0.9914449
vn 1.181894E-07 -0.1305262 -0.9914449
vn -5.506751E-08 0.3826834 0.9238795
vn 0 -0.3826833 -0.9238796
vn -4.728754E-08 0.6087614 0.7933533
vn 0 -0.6087614 -0.7933533
vn -3.628502E-08 0.7933533 0.6087616
vn 0 -0.7933533 -0.6087615
vn -2.280971E-08 0.9238796 0.3826833
vn 0 -0.9238796 -0.3826833
vn 0 0.9914449 0.1305262
vn 0 -0.9914449 -0.1305262
vn 1 0 0
vn -1 -8.103466E-10 -1.15484E-07

usemtl bm_grid_blank2
f 3/3/1 4/4/1 2/2/1 1/1/1
f 7/7/2 8/8/2 6/6/2 5/5/2
f 4/3/3 10/4/3 9/2/3 2/1/3
f 12/10/4 7/7/4 5/5/4 11/9/4
f 10/3/5 14/4/5 13/2/5 9/1/5
f 16/7/6 12/8/6 11/6/6 15/5/6
f 14/3/7 18/4/7 17/2/7 13/1/7
f 20/10/8 16/7/8 15/5/8 19/9/8
f 18/3/9 22/4/9 21/2/9 17/1/9
f 24/7/10 20/8/10 19/6/10 23/5/10
f 22/3/11 26/4/11 25/2/11 21/1/11
f 28/10/12 24/7/12 23/5/12 27/9/12
f 8/11/13 7/12/13 4/2/13 3/1/13
f 5/2/14 6/1/14 1/11/14 2/12/14
f 7/11/13 12/12/13 10/2/13 4/1/13
f 11/2/14 5/1/14 2/11/14 9/12/14
f 12/11/13 16/12/13 14/2/13 10/1/13
f 15/2/14 11/1/14 9/11/14 13/12/14
f 16/11/13 20/12/13 18/2/13 14/1/13
f 19/2/14 15/1/14 13/11/14 17/12/14
f 20/11/13 24/12/13 22/2/13 18/1/13
f 23/2/14 19/1/14 17/11/14 21/12/14
f 24/11/13 28/12/13 26/2/13 22/1/13
f 27/2/14 23/1/14 21/11/14 25/12/14

