# ProBuilder 4.5.2
# https://unity3d.com/unity/features/worldbuilding/probuilder
# 4/22/2022 4:57:53 PM

mtllib ./WhichOneCurve1.mtl
o WhichOneCurve1

g Arch (22)
v 0 0 0
v 1.919054E-07 0.0768612 -0.7803611
v -8 2.527237E-05 0
v -8 0.07688648 -0.7803612
v 1.687836E-06 0.5672536 -0.6828145
v 1.549721E-06 0.5 1.460314E-06
v -7.999998 0.5672789 -0.6828146
v -7.999999 0.5000253 1.907349E-06
v 8.624355E-07 0.3044864 -1.530733
v -7.999999 0.3045117 -1.530733
v 2.304352E-06 0.7664257 -1.33939
v -7.999998 0.766451 -1.33939
v 1.953704E-06 0.6741281 -2.222279
v -7.999998 0.6741533 -2.222279
v 3.221959E-06 1.089862 -1.944493
v -7.999997 1.089887 -1.944493
v 3.407691E-06 1.171581 -2.828424
v -7.999996 1.171606 -2.828424
v 4.620857E-06 1.525133 -2.474869
v -7.999995 1.525159 -2.474869
v 5.285389E-06 1.777729 -3.325873
v -7.999994 1.777754 -3.325873
v 6.263844E-06 2.055512 -2.910138
v -7.999993 2.055538 -2.910138
v 7.409124E-06 2.469277 -3.695511
v -7.999992 2.469302 -3.695511
v 8.151914E-06 2.660617 -3.23357
v -7.999991 2.660642 -3.23357
v 9.779743E-06 3.21965 -3.923132
v -7.99999 3.219675 -3.923132
v 1.004739E-05 3.317194 -3.432739
v -7.99999 3.317219 -3.432739
v 1.215935E-05 4.000011 -3.999988
v -7.999988 4.000037 -3.999989
v 1.218915E-05 4.00001 -3.499988
v -7.999988 4.000035 -3.499989
v -8.500105 2.634526E-05 -9.536743E-07
v -8.500106 0.07688743 -0.7803621
v -8.500105 0.5000264 9.536743E-07
v -8.500105 0.5672799 -0.6828156
v 0.500095 0.07686108 -0.7803611
v 0.5000932 5.959953E-08 1.192093E-07
v 0.500095 0.5672536 -0.6828144
v 0.5000951 0.5000001 1.609325E-06
v -8.500105 0.3045125 -1.530734
v -8.500103 0.7664517 -1.339391
v 0.500095 0.3044863 -1.530733
v 0.5000969 0.7664256 -1.33939
v -8.500104 0.6741545 -2.22228
v -8.500103 1.089888 -1.944494
v 0.500095 0.6741281 -2.222279
v 0.5000968 1.089862 -1.944493
v -8.500103 1.171607 -2.828424
v -8.500101 1.52516 -2.47487
v 0.5000967 1.171581 -2.828424
v 0.5000988 1.525133 -2.474869
v -8.500101 1.777755 -3.325874
v -8.500099 2.055538 -2.910138
v 0.5000986 1.777728 -3.325873
v 0.5001006 2.055512 -2.910137
v -8.500099 2.469303 -3.695511
v -8.500097 2.660643 -3.233571
v 0.5001004 2.469277 -3.695511
v 0.5001025 2.660617 -3.23357
v -8.500095 3.219676 -3.923132
v -8.500095 3.31722 -3.432739
v 0.5001042 3.21965 -3.923131
v 0.5001042 3.317193 -3.432738
v -8.500096 4.000038 -3.999989
v -8.500096 4.000036 -3.499989
v 0.5001061 4.00001 -3.999988
v 0.5001062 4.00001 -3.499988

vt -2.384186E-07 -6
vt -3.576279E-07 -5.75
vt 4 -6
vt 4 -5.75
vt 4 -1.75
vt 4 -2
vt 0 -1.75
vt 0 -2
vt -3.576279E-07 -5.5
vt 4 -5.75
vt 4 -5.5
vt 4 -1.5
vt 0 -1.5
vt -3.576279E-07 -5.25
vt 4 -5.5
vt 4 -5.25
vt 4 -1.25
vt 0 -1.25
vt -3.576279E-07 -5
vt 4 -5.25
vt 4 -5
vt 4 -1
vt 0 -0.9999996
vt -1.788139E-07 -8
vt -2.384186E-07 -7.75
vt 4 -8
vt 4 -7.75
vt 4 -3.75
vt 4 -4
vt 0 -3.75
vt 0 -4
vt 0 -7.5
vt 4 -7.75
vt 4 -7.5
vt 4 -3.5
vt 0 -3.5
vt 0 -7.25
vt 4 -7.25
vt 4 -3.25
vt 0 -3.25
vt 0 -7
vt 4 -7
vt 4 -3
vt 0 -3
vt 1 0
vt 0 0
vt 1 1
vt 0 1

vn -3.143834E-06 -0.9951844 -0.09802011
vn 3.142373E-06 0.9951844 0.09802025
vn -3.018691E-06 -0.9569395 -0.2902874
vn 3.023016E-06 0.9569395 0.2902875
vn -2.779001E-06 -0.8819199 -0.4713993
vn 2.750904E-06 0.88192 0.471399
vn -2.479783E-06 -0.7730086 -0.6343955
vn 2.479783E-06 0.7730086 0.6343955
vn -2.027108E-06 -0.6343908 -0.7730125
vn 1.957996E-06 0.6343912 0.7730122
vn -1.462873E-06 -0.4713943 -0.8819225
vn 1.515439E-06 0.4713939 0.8819228
vn -9.170145E-07 -0.2902821 -0.9569411
vn 8.314565E-07 0.2902818 0.9569412
vn -2.799726E-07 -0.09801421 -0.995185
vn 2.799738E-07 0.0980146 0.995185
vn -1 -4.661915E-12 1.222093E-06
vn 1 -3.278322E-07 2.259136E-06

usemtl bm_tile01_D
f 7/7/2 8/8/2 6/6/2 5/5/2
f 12/13/4 7/7/4 5/5/4 11/12/4
f 16/18/6 12/13/6 11/12/6 15/17/6
f 20/23/8 16/18/8 15/17/8 19/22/8
f 24/30/10 20/31/10 19/29/10 23/28/10
f 28/36/12 24/30/12 23/28/12 27/35/12
f 32/40/14 28/36/14 27/35/14 31/39/14
f 36/44/16 32/40/16 31/39/16 35/43/16

usemtl bm_grid_blank2
f 3/3/1 4/4/1 2/2/1 1/1/1
f 4/10/3 10/11/3 9/9/3 2/2/3
f 10/15/5 14/16/5 13/14/5 9/9/5
f 14/20/7 18/21/7 17/19/7 13/14/7
f 18/26/9 22/27/9 21/25/9 17/24/9
f 22/33/11 26/34/11 25/32/11 21/25/11
f 26/34/13 30/38/13 29/37/13 25/32/13
f 30/38/15 34/42/15 33/41/15 29/37/15

usemtl bm_edge_white
f 39/47/17 40/48/17 38/46/17 37/45/17
f 43/47/18 44/48/18 42/46/18 41/45/18
f 40/47/17 46/48/17 45/46/17 38/45/17
f 48/47/18 43/48/18 41/46/18 47/45/18
f 46/47/17 50/48/17 49/46/17 45/45/17
f 52/47/18 48/48/18 47/46/18 51/45/18
f 50/47/17 54/48/17 53/46/17 49/45/17
f 56/47/18 52/48/18 51/46/18 55/45/18
f 54/47/17 58/48/17 57/46/17 53/45/17
f 60/47/18 56/48/18 55/46/18 59/45/18
f 58/47/17 62/48/17 61/46/17 57/45/17
f 64/47/18 60/48/18 59/46/18 63/45/18
f 62/47/17 66/48/17 65/46/17 61/45/17
f 68/47/18 64/48/18 63/46/18 67/45/18
f 66/47/17 70/48/17 69/46/17 65/45/17
f 72/47/18 68/48/18 67/46/18 71/45/18
f 38/45/3 45/47/3 10/48/3 4/46/3
f 40/48/2 39/46/2 8/45/2 7/47/2
f 46/48/4 40/46/4 7/45/4 12/47/4
f 45/45/5 49/47/5 14/48/5 10/46/5
f 50/48/6 46/46/6 12/45/6 16/47/6
f 49/45/7 53/47/7 18/48/7 14/46/7
f 54/48/8 50/46/8 16/45/8 20/47/8
f 53/45/9 57/47/9 22/48/9 18/46/9
f 58/48/10 54/46/10 20/45/10 24/47/10
f 57/45/11 61/47/11 26/48/11 22/46/11
f 62/48/12 58/46/12 24/45/12 28/47/12
f 61/45/13 65/47/13 30/48/13 26/46/13
f 66/48/14 62/46/14 28/45/14 32/47/14
f 65/45/15 69/47/15 34/48/15 30/46/15
f 70/48/16 66/46/16 32/45/16 36/47/16
f 37/45/1 38/47/1 4/48/1 3/46/1
f 47/48/3 41/46/3 2/45/3 9/47/3
f 48/45/6 52/47/6 15/48/6 11/46/6
f 43/45/4 48/47/4 11/48/4 5/46/4
f 41/48/1 42/46/1 1/45/1 2/47/1
f 44/45/2 43/47/2 5/48/2 6/46/2
f 51/48/5 47/46/5 9/45/5 13/47/5
f 52/45/8 56/47/8 19/48/8 15/46/8
f 55/48/7 51/46/7 13/45/7 17/47/7
f 56/45/10 60/47/10 23/48/10 19/46/10
f 59/48/9 55/46/9 17/45/9 21/47/9
f 60/45/12 64/47/12 27/48/12 23/46/12
f 63/48/11 59/46/11 21/45/11 25/47/11
f 64/45/14 68/47/14 31/48/14 27/46/14
f 67/48/13 63/46/13 25/45/13 29/47/13
f 68/45/16 72/47/16 35/48/16 31/46/16
f 71/48/15 67/46/15 29/45/15 33/47/15

